<?xml version="1.0" encoding="UTF-8"?><svg id="Layer_2" xmlns="http://www.w3.org/2000/svg" viewBox="0 0 15.88 15.88"><defs><style>.cls-1{fill:#0160f2;stroke-width:0px;}</style></defs><g id="Layer_1-2"><g id="Group"><path id="Vector" class="cls-1" d="m7.94,0C3.56,0,0,3.56,0,7.94s3.56,7.94,7.94,7.94,7.94-3.56,7.94-7.94S12.31,0,7.94,0Zm.62,14.56v-1h-1.25v1c-3.18-.3-5.7-2.82-6-6h1v-1.25h-1c.3-3.18,2.82-5.7,6-6v1h1.25v-1c3.18.3,5.7,2.82,6,6h-1v1.25h1c-.3,3.18-2.82,5.7-6,6Z"/><path id="Vector_2" class="cls-1" d="m8.56,4h-1.25v3.94c0,.19.08.36.22.48l3.38,2.81.8-.96-3.15-2.63v-3.64Z"/></g></g></svg>