<?xml version="1.0" encoding="UTF-8"?><svg id="Layer_2" xmlns="http://www.w3.org/2000/svg" viewBox="0 0 13.2 15.87"><defs><style>.cls-1{fill:#0160f2;stroke-width:0px;}</style></defs><g id="Layer_1-2"><g id="Group"><path id="Vector" class="cls-1" d="m13.2,6.6c0-3.64-2.96-6.6-6.6-6.6-1.62,0-3.16.58-4.34,1.63-.26.23-.28.62-.05.88.23.26.62.28.88.05.95-.85,2.2-1.32,3.51-1.32,2.95,0,5.35,2.4,5.35,5.35,0,2.26-3.6,5.08-5.35,6.22-1.75-1.14-5.35-3.96-5.35-6.22,0-.69.14-1.36.4-2.01.13-.32-.02-.69-.34-.82-.32-.13-.68.02-.81.34-.33.8-.5,1.64-.5,2.49,0,3.61,6.02,7.34,6.27,7.5.1.06.21.09.33.09s.23-.03.33-.09c.26-.16,6.27-3.89,6.27-7.5h0Z"/><path id="Vector_2" class="cls-1" d="m9.71,6.6c0-1.72-1.4-3.11-3.11-3.11s-3.11,1.4-3.11,3.11,1.4,3.11,3.11,3.11,3.11-1.4,3.11-3.11Zm-4.97,0c0-1.03.84-1.86,1.86-1.86s1.86.84,1.86,1.86-.84,1.86-1.86,1.86-1.86-.83-1.86-1.86Z"/><path id="Vector_3" class="cls-1" d="m3.22,14.62c-.34,0-.62.28-.62.62s.28.62.62.62h6.75c.34,0,.62-.28.62-.62s-.28-.62-.62-.62H3.22Z"/></g></g></svg>