<?xml version="1.0" encoding="UTF-8"?><svg id="Layer_2" xmlns="http://www.w3.org/2000/svg" viewBox="0 0 20 18.47"><defs><style>.cls-1{fill:#0160f2;stroke-width:0px;}</style></defs><g id="Layer_1-2"><path id="Path_19" class="cls-1" d="m7.4,10.48v7.98H.04v-6.36c-.17-2.56.26-5.12,1.25-7.49C2.41,2.53,4.22.91,6.4,0l1.75,2.74c-1.3.52-2.38,1.43-3.12,2.62-.85,1.56-1.24,3.34-1.12,5.12h3.49Zm11.98,0v7.98h-7.36v-6.36c0-3.49.37-5.86,1.25-7.49,1.12-2.08,2.93-3.71,5.12-4.62l1.62,2.74c-1.3.52-2.38,1.43-3.12,2.62-.74,1.61-1.11,3.34-1.12,5.12h3.62Z"/></g></svg>