<svg width="1181" height="936" viewBox="0 0 1181 936" fill="none" xmlns="http://www.w3.org/2000/svg">
<g style="mix-blend-mode:overlay" opacity="0.4" clip-path="url(#clip0_4137_842)">
<g opacity="0.8">
<g style="mix-blend-mode:overlay">
<path d="M-300.625 876.143L-295.679 874.119C-257.302 858.389 -217.942 843.255 -179.866 828.61L-165.783 823.166L-158.063 820.128C-152.242 817.968 -146.291 815.827 -140.536 813.757C-120.232 806.453 -99.2356 798.901 -79.473 788.874C-71.8988 785.06 -65.1096 781.13 -59.2448 777.162L-55.6686 774.653L-54.4497 773.784C-49.9023 770.661 -44.8972 767.743 -38.2472 764.323C-24.1617 757.114 -8.89117 750.642 4.28279 745.156C18.2839 739.478 32.6464 733.511 46.5313 727.743C62.3723 721.165 78.7581 714.359 94.7157 707.927C131.735 693.469 172.183 681.817 211.331 670.536L219.074 668.305C220.187 667.959 221.136 667.68 222.055 667.406C223.793 666.89 225.431 666.401 227.832 665.597C233.654 663.549 239.301 662.098 246.713 660.742C252.559 659.67 258.994 658.723 265.823 657.713C276.001 656.211 286.528 654.653 296.258 652.524C307.51 650.135 317.876 647.163 327.1 643.686L327.101 643.698L328.345 643.215C328.765 643.055 329.177 642.89 329.596 642.724L331.536 641.966L332.516 641.627C335.833 640.649 339.105 640.004 342.395 639.382C360.853 636.125 377.269 635.084 391.129 636.282C396.052 636.798 400.503 637.719 406.474 639.448C410.628 640.663 414.788 642.083 419.197 643.582C424.982 645.551 430.959 647.587 437.198 649.248C447.179 652.023 458.094 653.87 467.921 654.458C473.708 654.82 479.546 654.772 485.193 654.721C488.222 654.694 491.362 654.665 494.513 654.709C497.204 654.699 500.362 654.742 503.409 654.782C511.328 654.886 520.303 655.004 527.3 654.385C534.945 653.969 543.787 653.347 551.982 651.284C565.16 648.146 577.9 642.621 592.075 633.912C593.856 632.825 596.336 631.269 598.752 629.759C600.667 628.559 602.546 627.383 604.035 626.47L605.456 625.572C617.715 617.843 630.386 609.848 642.303 601.295L642.388 601.232C650.139 595.271 654.795 587.92 658.684 580.847C661.809 575.044 664.372 569.245 666.86 563.632L668.123 560.792C673.606 548.766 678.717 535.224 683.325 520.522C683.534 519.839 683.822 518.945 684.124 518.03C684.524 516.818 684.934 515.561 685.189 514.652C686.176 511.336 686.819 507.729 687 504.477C687.772 487.543 684.313 471.401 680.97 455.784C680.045 451.47 679.09 447.009 678.231 442.554C676.238 433.174 674.176 423.861 672.08 414.809C671.974 414.41 671.875 414.003 671.774 413.584L671.764 413.516C671.388 412.032 671.005 410.497 670.488 409.076C668.329 402.451 665.315 395.996 661.882 388.835C655.664 376.135 649.592 362.806 642.174 345.592C630.742 319.743 613.029 294.7 588.029 269.049C576.022 256.622 564.884 246.495 553.963 238.07C541.76 228.891 522.807 218.293 504.474 208.035C482.001 195.468 454.032 179.824 451.989 172.855C447.258 156.737 454.085 123.195 467.849 109.628C480.096 97.1733 498.16 88.7425 515.624 80.5912C517.981 79.4919 520.331 78.3937 522.671 77.2843C533.658 72.0642 545.042 66.9574 556.093 62.0045C569.276 56.0971 582.912 49.9814 596.085 43.5731C613.19 36.6466 631.71 32.6777 652.357 28.5775C667.439 25.7352 683.231 23.2508 699.293 21.2053C737.614 16.3824 778.559 10.4475 818.178 4.70021C826.685 3.46579 835.1 2.25067 843.359 1.05751L845.361 0.774411C848.876 0.27736 858.215 -1.05601 862.051 -1.41639C880.016 -2.80178 898.415 -2.89269 916.229 -2.98236C932.421 -3.06236 949.167 -3.14536 965.842 -4.19771C970.387 -4.52659 974.958 -5.00351 979.07 -5.58505L979.303 -5.61796C990.738 -7.56785 1002.04 -10.466 1012.97 -13.2735L1013.24 -13.3427C1023.36 -15.955 1034.15 -18.8495 1044.62 -21.6538C1057.66 -25.1498 1071.15 -28.7649 1083.71 -31.9414" stroke="white" stroke-width="2" stroke-miterlimit="10"/>
</g>
<g style="mix-blend-mode:overlay">
<path d="M191.07 -162.027L195.777 -147.801C203.721 -124.347 211.932 -100.101 217.714 -76.1141C220.522 -62.5742 224.405 -47.5414 229.573 -30.1728C230.551 -26.8458 231.587 -23.508 232.592 -20.2726L232.635 -20.1406C234.238 -14.987 235.891 -9.65227 237.356 -4.25318C238.427 -0.512315 239.424 3.42733 240.396 7.24506C242.287 14.687 244.24 22.3901 246.956 29.7907C259.517 63.5037 288.47 90.7236 317.888 115.122C320.777 117.488 323.8 119.955 326.921 122.495C340.825 133.826 356.591 146.67 368.943 157.78C384.084 171.164 400.33 185.34 417.798 198.558C425.156 203.909 432.639 209.254 439.875 214.421C461 229.514 482.841 245.121 502.621 261.471C509.939 267.518 516.099 273.126 522.016 279.132C534.532 291.688 546.603 305.149 558.277 318.17C567.47 328.421 576.975 339.024 586.635 349.115C593.299 356.265 599.241 362.713 604.558 369.269L605.327 370.196C613.77 380.352 622.5 390.851 629.629 401.665C634.469 409.072 637.984 415.494 639.392 422.778C642.5 437.28 646.409 456.22 649.095 474.109C650.13 481.007 651.286 490.028 651.119 498.608C651.086 502.11 650.607 505.543 649.773 508.285C643.897 524.221 637.7 538.08 630.812 550.681C627.644 556.622 624.273 562.856 620.934 568.061C619.1 570.838 616.826 574.286 614.275 576.066C601.264 583.907 587.217 591.375 573.634 598.607L570.879 600.076C565.038 603.181 558.419 606.704 552.385 608.813C546.5 610.919 542.118 611.872 537.251 612.114C536.449 612.152 535.652 612.171 534.742 612.174L528.822 612.151L526.416 612.215C523.586 612.251 518.983 611.86 514.924 611.511C512.623 611.316 510.457 611.126 508.731 611.025C499.489 610.323 490.208 609.79 482.297 609.358C469.012 608.794 457.64 604.42 445.597 599.795C441.041 598.047 436.332 596.233 431.386 594.585C423.379 591.938 415.884 590.022 409.106 588.896C398.034 587.003 385.484 586.323 370.723 586.816C353.329 587.499 337.564 589.408 322.534 592.664C319.94 593.225 316.53 594.116 314.142 594.786L313.99 594.833C313.869 594.869 313.542 594.965 313.178 595.073C312.495 595.276 311.729 595.51 311.601 595.554C311.405 595.619 311.096 595.725 310.763 595.829C310.12 596.039 309.418 596.27 308.982 596.432L308.119 596.762C304.263 598.224 300.272 599.736 296.288 600.927C284.897 604.365 272.538 606.659 260.572 608.879C245.3 611.716 229.502 614.647 214.751 620.017C212.461 620.818 210.206 621.752 208.024 622.644L207.098 623.026C206.822 623.141 206.495 623.287 206.146 623.444L206.027 623.498C205.551 623.71 204.83 624.031 204.448 624.18L204.298 624.239C202.133 625.135 197.816 626.857 193.633 628.522L193.491 628.579C189.592 630.129 185.918 631.596 183.759 632.479C148.095 646.89 110.981 662.321 75.082 677.236L69.0724 679.73C50.9544 687.416 33.3076 694.858 16.474 701.527C12.5107 703.123 8.1263 704.873 3.50956 706.712L2.83652 706.983C-13.3858 713.446 -31.7701 720.773 -44.958 726.65C-58.2527 732.554 -72.2582 739.174 -84.6753 747.554C-89.6307 750.973 -95.1746 754.105 -102.126 757.417C-119.459 765.7 -138.964 772.031 -157.826 778.151C-164.652 780.366 -171.713 782.658 -178.544 785.005C-225.024 800.512 -271.823 815.141 -317.646 828.483L-322.827 829.988" stroke="white" stroke-width="2" stroke-miterlimit="10"/>
</g>
</g>
<g style="mix-blend-mode:overlay" opacity="0.8">
<path d="M1073.32 -57.2656L1072.39 -56.9696C1053.61 -49.2919 1033.1 -41.9278 1011.45 -35.081C1000.87 -31.7891 989.589 -28.3727 978.153 -25.9958L975.599 -25.4839L972.014 -24.977C971.533 -24.909 971.037 -24.8326 970.592 -24.7885C952.348 -23.0434 933.654 -22.6911 915.575 -22.3568C899.226 -22.0536 882.317 -21.7341 865.478 -20.3949L855.668 -19.3528C844.206 -17.6942 832.464 -15.8893 821.08 -14.1349C811.778 -12.7064 802.159 -11.2206 792.671 -9.82226L792.585 -9.8102C770.061 -5.98438 746.934 -3.12822 724.53 -0.36794C683.349 4.71511 640.775 9.96384 599.766 21.5201L599.667 21.5467C594.82 23.0547 589.209 24.8652 583.877 27.2326C568.87 34.2016 553.221 40.7401 538.057 47.0783C529.028 50.8538 519.685 54.7554 510.526 58.7251C508.47 59.6122 506.405 60.4943 504.274 61.4047C483.251 70.3983 461.512 79.6941 445.012 94.9037C431.391 107.283 424.81 123.218 420.581 135.75C418.995 140.708 417.711 145.51 416.744 150.098C416.464 149.862 416.184 149.625 415.895 149.383C399.886 135.908 387.192 123.164 377.078 110.412C367.251 98.0469 358.46 84.7002 349.971 71.7941C343.93 62.6225 337.692 53.1334 331.151 44.1142C323.361 32.8984 315.008 21.8377 305.6 10.2857C304.819 9.32897 303.971 8.24354 303.15 7.18557C302.74 6.65351 302.33 6.12761 301.952 5.65377C295.193 -3.60471 290.178 -11.3959 286.183 -18.8792C281.331 -27.88 277.418 -37.5032 273.632 -46.799L272.912 -48.5744C267.747 -61.4923 263.496 -73.855 260.254 -85.3812C256.346 -97.8867 251.692 -111.103 247.189 -123.882C242.793 -136.369 238.248 -149.274 234.44 -161.417C233.93 -163.059 233.157 -165.687 232.729 -167.309L231.678 -171.291" stroke="white" stroke-width="2" stroke-miterlimit="10"/>
</g>
<g opacity="0.5">
<g style="mix-blend-mode:overlay">
<path d="M-311.588 897.739L-287.637 887.923C-249.573 872.326 -210.402 857.257 -172.521 842.683L-158.048 837.089L-150.537 834.138C-144.829 832.018 -138.818 829.856 -133.537 827.96L-133.424 827.919C-112.458 820.378 -90.7844 812.579 -69.8125 801.941C-61.4048 797.708 -53.7912 793.297 -47.1763 788.827L-43.2401 786.073L-42.1071 785.267C-38.3638 782.709 -34.1374 780.26 -28.43 777.324C-15.104 770.499 -0.40663 764.277 12.3267 758.973C26.3123 753.298 40.6076 747.358 54.4409 741.617L54.7026 741.51C70.4094 734.989 86.6454 728.242 102.476 721.859C138.462 707.812 178.37 696.311 216.971 685.189L224.767 682.944L225.154 682.826C226.162 682.514 227.026 682.254 227.945 681.986C229.781 681.437 231.679 680.874 234.548 679.916L234.789 679.831C239.345 678.227 243.895 677.068 249.989 675.955C255.449 674.957 261.674 674.039 268.333 673.054C278.898 671.49 289.82 669.877 300.218 667.603C305.472 666.489 310.603 665.243 315.551 663.884L318.953 662.612L335.964 657.211C336.451 657.023 336.931 656.836 337.328 656.679L338.774 656.117C340.874 655.531 343.221 655.067 345.641 654.612C361.822 651.759 375.971 650.813 387.693 651.798C391.098 652.17 394.343 652.86 398.834 654.159C402.533 655.243 406.476 656.587 410.719 658.034C416.804 660.105 423.097 662.247 429.897 664.061C441.355 667.237 453.926 669.364 465.255 670.034C471.913 670.455 478.194 670.402 484.276 670.345C487.155 670.321 490.137 670.295 493.048 670.329L493.46 670.327C495.921 670.318 498.897 670.355 501.832 670.392L501.944 670.395C510.283 670.503 519.726 670.63 527.87 669.943C536.488 669.471 546.51 668.738 556.647 666.2C572.302 662.454 587.149 656.067 603.358 646.109C605.19 644.99 607.743 643.392 610.231 641.835L610.355 641.761C612.19 640.61 613.982 639.49 615.5 638.553L617.03 637.59C629.534 629.701 642.467 621.543 654.894 612.635L655.522 612.164C665.933 604.15 671.792 595.009 676.593 586.269C679.992 579.956 682.674 573.889 685.268 568.029L686.481 565.284C692.203 552.722 697.524 538.616 702.311 523.355L702.333 523.29C702.515 522.693 702.773 521.909 703.061 521.015C703.483 519.731 703.914 518.402 704.224 517.334C705.485 513.075 706.319 508.393 706.551 504.142L706.558 504.078C707.404 485.545 703.772 468.6 700.255 452.172C699.351 447.949 698.41 443.587 697.552 439.138L697.533 439.009C695.517 429.576 693.431 420.158 691.308 410.966L691.247 410.711C691.157 410.372 691.075 410.026 690.98 409.65L690.965 409.546C690.569 407.982 690.087 406.041 689.37 404.065C686.977 396.769 683.791 389.944 680.155 382.372C674.027 369.854 668.025 356.678 660.657 339.589C648.57 312.244 629.952 285.885 603.775 259.019C591.229 246.041 579.496 235.376 567.898 226.432L567.818 226.374C554.68 216.492 535.191 205.587 516.324 195.04C505.359 188.907 492.929 181.957 483.258 175.848C475.324 170.836 471.949 168.068 470.659 166.888C468.042 154.332 473.613 127.992 482.815 118.913L482.933 118.796C492.671 108.893 508.949 101.292 524.7 93.942C527.095 92.8249 529.481 91.7089 531.896 90.5701C542.668 85.4494 553.941 80.396 564.865 75.4987C577.952 69.6302 591.484 63.5666 604.756 57.1257C619.744 51.1577 636.746 47.5291 655.8 43.7421C670.412 40.9913 685.686 38.5927 701.187 36.614C739.725 31.7603 780.71 25.8199 820.36 20.0744L820.547 20.0481C829.038 18.8158 837.444 17.5957 845.619 16.4207L848.11 16.0685C857.93 14.6671 861.628 14.232 862.979 14.0975C879.982 12.7979 897.859 12.7056 915.166 12.6185C931.698 12.5344 948.8 12.4512 966.307 11.3502L966.416 11.3348C971.519 10.9773 976.712 10.4249 981.43 9.75773L982.235 9.63132C994.675 7.51418 1006.48 4.4821 1017.89 1.55737L1018.19 1.47658C1028.42 -1.16341 1039.23 -4.06012 1049.65 -6.85165L1049.84 -6.90476C1062.76 -10.3637 1076.11 -13.9406 1088.55 -17.0872" stroke="white" stroke-width="2" stroke-miterlimit="10"/>
</g>
<g style="mix-blend-mode:overlay">
<path d="M167.192 -172.555L176.907 -142.86C184.74 -119.741 192.837 -95.8366 198.482 -72.4584C201.366 -58.6215 205.31 -43.3275 210.544 -25.7235C211.565 -22.2706 212.605 -18.902 213.62 -15.6554L213.677 -15.4814C215.239 -10.4476 216.857 -5.23981 218.285 0.0138622L218.297 0.0938212C219.326 3.65852 220.302 7.507 221.254 11.2459C223.221 18.9909 225.258 26.9961 228.215 35.0657C241.894 71.7596 272.473 100.62 303.523 126.37C306.422 128.747 309.461 131.218 312.618 133.791C326.369 144.993 341.947 157.687 354.108 168.63C369.484 182.22 386.002 196.627 403.989 210.249L404.192 210.396C411.461 215.677 418.829 220.938 425.951 226.033L426.429 226.374C447.297 241.284 468.873 256.702 488.195 272.678C495.08 278.371 500.875 283.648 506.457 289.312C518.685 301.577 530.623 314.893 542.202 327.807C551.452 338.12 561.014 348.784 570.759 358.969C577.217 365.904 582.979 372.151 588.036 378.392L588.874 379.41C597.065 389.257 605.528 399.442 612.198 409.561C616.2 415.681 619.071 420.843 620.108 426.184L620.129 426.331C623.209 440.643 627.065 459.327 629.704 476.896C630.66 483.309 631.742 491.662 631.592 499.443C631.571 501.568 631.321 503.644 630.904 505.178C625.322 520.256 619.458 533.365 612.964 545.245L612.933 545.306C609.913 550.962 606.724 556.869 603.76 561.5C602.581 563.287 601.878 564.272 601.466 564.813C589.382 572.009 576.246 578.996 563.522 585.767L560.775 587.229C555.661 589.949 549.857 593.036 545.42 594.587L545.345 594.616C541.266 596.072 539.22 596.43 537.239 596.528C536.837 596.547 536.436 596.56 536.039 596.56L530.12 596.537L527.2 596.605C525.482 596.609 520.935 596.222 518.224 595.991L517.887 595.963C515.625 595.768 513.484 595.587 511.566 595.469C502.14 594.756 492.724 594.216 484.748 593.775L484.532 593.762C475.009 593.357 465.231 589.598 454.858 585.609C450.116 583.788 445.214 581.9 439.786 580.094C430.722 577.094 422.134 574.913 414.301 573.61C401.645 571.451 387.496 570.664 370.978 571.217C352.127 571.956 334.97 574.043 318.536 577.604C315.405 578.285 311.431 579.324 308.752 580.067L307.401 580.466C305.746 580.957 305.195 581.142 304.833 581.262L304.379 581.408C303.48 581.704 302.521 582.022 301.627 582.35L300.643 582.721C297.192 584.025 293.62 585.378 290.419 586.339C280.309 589.388 268.605 591.558 257.28 593.662C241.067 596.677 224.298 599.789 207.756 605.801C204.917 606.799 202.407 607.832 199.958 608.844L198.786 609.33C198.405 609.49 197.96 609.692 197.454 609.914L197.29 609.987C197 610.116 196.808 610.206 196.696 610.253L196.209 610.448C194.253 611.258 190.04 612.934 186.329 614.413L185.685 614.667C182.13 616.08 178.105 617.685 175.842 618.614C140.081 633.069 102.958 648.496 67.0526 663.418L60.8641 665.988L60.7892 666.017C42.8045 673.64 25.2929 681.032 8.58669 687.651C4.6982 689.218 0.39562 690.931 -4.19099 692.76L-4.97683 693.072C-21.3859 699.611 -39.9871 707.026 -53.5983 713.094C-67.8223 719.412 -82.8996 726.554 -96.7799 735.919L-96.8589 735.974C-100.858 738.731 -105.46 741.321 -111.329 744.123C-127.286 751.747 -146.035 757.833 -164.239 763.741C-171.088 765.965 -178.172 768.266 -185.109 770.647C-231.278 786.053 -277.759 800.581 -323.272 813.829L-348.397 821.149" stroke="white" stroke-width="2" stroke-miterlimit="10"/>
</g>
</g>
<g style="mix-blend-mode:overlay" opacity="0.5">
<path d="M1066.43 -71.5207L1064.82 -70.961L1064.36 -70.7833C1046.18 -63.3461 1026.31 -56.2106 1005.36 -49.5877C995.368 -46.4798 984.76 -43.2657 974.485 -41.1221L972.646 -40.7553L969.248 -40.2747C952.01 -38.6342 933.877 -38.2922 916.32 -37.9626C903.896 -37.7312 869.052 -36.3129 853.344 -34.7131C841.733 -33.5294 830.033 -31.2281 818.632 -29.4776L818.352 -29.4381C809.168 -28.0199 799.665 -26.5567 790.215 -25.1638L789.666 -25.0736C767.682 -21.3431 744.828 -18.5192 722.704 -15.7922C680.62 -10.6003 637.105 -5.23117 594.24 6.84503L593.573 7.04616C588.082 8.75808 581.685 10.8242 575.165 13.7239L574.868 13.86C560.261 20.6467 544.798 27.1025 529.828 33.3567L529.709 33.405C520.656 37.1839 511.298 41.0938 502.087 45.0897C500.255 45.8824 498.415 46.67 496.529 47.4765L495.904 47.7471C473.181 57.4645 449.683 67.5112 430.708 85.0169C419.583 95.1284 412.548 106.62 407.698 117.294C402.549 111.995 397.934 106.766 393.756 101.499C384.328 89.6424 375.709 76.5476 367.363 63.8661C361.27 54.6077 354.973 45.0391 348.302 35.8373C340.332 24.3646 331.774 13.0378 322.115 1.17603C321.451 0.372227 320.67 -0.634789 319.917 -1.60818C319.546 -2.08927 319.166 -2.56926 318.816 -3.01565C312.521 -11.6491 307.875 -18.8709 304.195 -25.7648C299.672 -34.1466 295.895 -43.4374 292.241 -52.4255L291.548 -54.1231C286.549 -66.6186 282.433 -78.5925 279.308 -89.702L279.215 -90.0091C275.237 -102.724 270.542 -116.054 266.004 -128.966C261.649 -141.333 257.152 -154.126 253.413 -166.021C252.934 -167.561 252.221 -169.99 251.85 -171.388L246.744 -190.711" stroke="white" stroke-width="2" stroke-miterlimit="10"/>
</g>
<g opacity="0.6">
<g style="mix-blend-mode:overlay">
<path d="M-306.321 887.369L-291.492 881.292C-253.293 865.638 -214.048 850.539 -176.076 835.934L-161.745 830.398L-154.137 827.407C-148.369 825.267 -142.275 823.074 -136.897 821.14L-136.814 821.109C-116.171 813.682 -94.8209 806.005 -74.4391 795.664C-66.4374 791.632 -59.2029 787.445 -52.9557 783.222L-49.1561 780.562L-48.0016 779.74C-43.87 776.914 -39.2809 774.238 -33.1237 771.075C-19.4287 764.066 -4.44907 757.716 8.4564 752.344C22.4497 746.667 36.7752 740.718 50.6309 734.966L50.7953 734.899C66.577 728.348 82.8956 721.57 98.7404 715.18C135.228 700.929 175.417 689.351 214.277 678.155L222.073 675.91L222.248 675.86C223.301 675.535 224.212 675.262 225.115 674.996C226.951 674.448 228.681 673.933 231.316 673.052L231.452 673.008C236.619 671.191 241.694 669.889 248.42 668.662C254.089 667.622 260.415 666.689 267.112 665.698C277.499 664.16 288.235 662.573 298.318 660.368C306.359 658.66 314.032 656.652 321.191 654.384L325.792 652.541L332.31 650.489C332.76 650.318 333.209 650.142 333.613 649.978L335.313 649.311L335.773 649.152C338.44 648.385 341.218 647.835 344.069 647.294C361.355 644.247 376.589 643.254 389.34 644.338C393.467 644.778 397.291 645.581 402.493 647.086C406.415 648.233 410.467 649.619 414.776 651.081C420.728 653.108 426.88 655.201 433.365 656.927C444.122 659.914 455.906 661.907 466.524 662.54C472.759 662.933 478.825 662.879 484.718 662.83C487.668 662.802 490.722 662.778 493.752 662.814L493.966 662.815C496.538 662.803 499.594 662.848 502.537 662.884L502.649 662.887C510.782 662.992 520.002 663.114 527.605 662.465C535.759 662.015 545.204 661.345 554.393 659.035C568.863 655.582 582.709 649.606 597.944 640.244C599.747 639.142 602.272 637.567 604.723 636.027L604.846 635.947C606.703 634.787 608.509 633.653 610.042 632.708L611.47 631.809C623.86 623.998 636.669 615.921 648.85 607.174L649.222 606.901C658.353 599.872 663.633 591.592 667.997 583.655C671.265 577.586 673.895 571.646 676.435 565.906L677.66 563.134C683.269 550.827 688.493 536.98 693.203 521.943C693.394 521.301 693.667 520.465 693.963 519.57C694.373 518.313 694.8 517.009 695.078 516.041C696.213 512.226 696.948 508.054 697.166 504.25C697.975 486.482 694.429 469.914 690.996 453.895C690.079 449.636 689.139 445.224 688.279 440.762L688.269 440.695C686.268 431.31 684.196 421.935 682.083 412.81L682.045 412.665C681.953 412.308 681.86 411.938 681.76 411.531L681.747 411.439C681.356 409.906 680.927 408.171 680.304 406.457C678.022 399.479 674.917 392.83 671.382 385.464C665.209 372.852 659.171 359.599 651.781 342.463C640.013 315.839 621.828 290.109 596.211 263.824C583.925 251.109 572.477 240.706 561.163 231.979C548.47 222.43 529.241 211.677 510.633 201.269C499.565 195.081 487.021 188.066 477.167 181.838C464.695 173.958 462.206 170.864 461.833 170.32C457.911 156.423 464.072 125.844 475.635 114.447L475.697 114.388C486.642 103.26 503.78 95.2613 520.346 87.5257C522.726 86.417 525.09 85.3105 527.467 84.1833C538.358 79.0082 549.699 73.9264 560.659 69.0113C573.798 63.1228 587.375 57.0342 600.6 50.606C616.606 44.1802 634.344 40.3847 654.114 36.4588C668.973 33.6606 684.51 31.2186 700.276 29.2086C738.713 24.3693 779.643 18.4365 819.232 12.6998L819.41 12.6746C827.909 11.4412 836.315 10.2211 844.529 9.04064L847.004 8.69061C850.317 8.22209 859.084 6.97605 862.528 6.64593C879.991 5.30001 898.13 5.21457 915.675 5.1253C932.049 5.04467 948.977 4.96102 966.138 3.87755C970.973 3.52652 975.856 3.01802 980.348 2.38272L980.822 2.31577C992.774 0.273911 1004.34 -2.69229 1015.53 -5.56169L1015.81 -5.63305C1025.94 -8.24538 1036.73 -11.1399 1047.2 -13.9452L1047.3 -13.9729C1060.27 -17.4457 1073.68 -21.0436 1086.22 -24.2107" stroke="white" stroke-width="2" stroke-miterlimit="10"/>
</g>
<g style="mix-blend-mode:overlay">
<path d="M178.65 -167.497L185.963 -145.221C193.849 -121.946 202.003 -97.8747 207.706 -74.2096C210.554 -60.5058 214.472 -45.3399 219.672 -27.8566C220.678 -24.4519 221.715 -21.1079 222.721 -17.8663L222.768 -17.7097C224.345 -12.6216 225.988 -7.35454 227.44 -1.99125C228.482 1.65956 229.472 5.55 230.429 9.32578C232.359 16.9254 234.359 24.7852 237.198 32.5387C250.343 67.8015 280.142 95.8749 310.407 120.976C313.305 123.347 316.335 125.813 319.485 128.387C333.3 139.648 348.959 152.407 361.218 163.43C376.485 176.922 392.868 191.216 410.595 204.637L410.711 204.721C418.015 210.029 425.427 215.321 432.594 220.447L432.894 220.662C453.878 235.656 475.577 251.158 495.107 267.311C502.199 273.176 508.167 278.61 513.916 284.439C526.293 296.852 538.307 310.252 549.924 323.211C559.145 333.49 568.679 344.126 578.349 354.229C584.918 361.279 590.775 367.627 595.987 374.059L596.767 375.003C605.074 384.997 613.67 395.333 620.555 405.785C624.957 412.527 628.139 418.298 629.359 424.567L629.37 424.64C632.464 439.044 636.346 457.856 639.007 475.573C640.005 482.218 641.118 490.894 640.961 499.059C640.935 501.856 640.579 504.556 639.961 506.665C634.235 522.165 628.204 535.643 621.511 547.902C618.417 553.701 615.127 559.779 612.022 564.638C611.134 565.981 609.119 569.041 608.022 569.981C595.379 577.576 581.655 584.872 568.371 591.936L565.617 593.406C560.151 596.313 553.965 599.605 548.714 601.44C544.027 603.12 540.806 603.839 537.237 604.017C536.639 604.045 536.047 604.06 535.406 604.063L529.487 604.04L526.811 604.104C524.59 604.13 520.17 603.75 516.633 603.447L516.416 603.427C514.155 603.232 512.021 603.051 510.2 602.944C500.878 602.241 491.493 601.697 483.55 601.264L483.462 601.257C472.129 600.776 461.571 596.713 450.392 592.417C445.751 590.632 440.95 588.787 435.755 587.054C427.199 584.228 419.136 582.172 411.806 580.955C399.906 578.922 386.526 578.19 370.858 578.71C352.707 579.419 336.219 581.424 320.461 584.839C317.583 585.466 313.868 586.437 311.342 587.14L310.181 587.486C308.534 587.976 308.203 588.092 308.082 588.134C307.94 588.186 307.704 588.257 307.448 588.343C306.692 588.588 305.831 588.873 305.109 589.138L304.217 589.478C300.578 590.859 296.811 592.283 293.238 593.354C282.506 596.591 270.494 598.818 258.861 600.984C243.094 603.91 226.796 606.937 211.143 612.635C208.559 613.541 206.162 614.532 203.847 615.488L202.794 615.919C202.466 616.06 202.072 616.235 201.633 616.428L201.5 616.491C201.001 616.712 200.734 616.832 200.585 616.897L200.113 617.083C198.023 617.95 193.615 619.703 189.74 621.249L189.456 621.365C185.916 622.776 181.906 624.373 179.664 625.286C143.918 639.733 106.825 655.149 70.8823 670.088L64.791 672.62C46.7324 680.278 29.1382 687.7 12.394 694.331C8.4978 695.899 4.18058 697.621 -0.42841 699.459L-1.21422 699.771C-17.526 706.272 -36.0231 713.64 -49.4407 719.624C-63.2181 725.748 -77.7862 732.636 -91.0033 741.555C-95.463 744.628 -100.518 747.477 -106.905 750.527C-123.521 758.465 -142.632 764.67 -161.116 770.668C-167.965 772.893 -175.042 775.187 -181.925 777.554C-228.254 793.014 -274.894 807.589 -320.558 820.884L-336.099 825.404" stroke="white" stroke-width="2" stroke-miterlimit="10"/>
</g>
</g>
<g style="mix-blend-mode:overlay" opacity="0.6">
<path d="M1071 -65.0495L1069.21 -64.5199L1068.21 -64.1587C1049.74 -56.6059 1029.56 -49.3639 1008.28 -42.6313C998.001 -39.4325 987.059 -36.1208 976.254 -33.8708L974.053 -33.4279L970.539 -32.9308C970.353 -32.9045 970.159 -32.8709 969.988 -32.8529C952.236 -31.1523 933.786 -30.8094 915.945 -30.4711C900.923 -30.1924 869.78 -28.9146 854.441 -27.3417C842.871 -26.1512 831.183 -23.8706 819.829 -22.1205L819.729 -22.1063C810.466 -20.6771 800.894 -19.2041 791.343 -17.7969L791.048 -17.7552C768.802 -13.9751 745.815 -11.1386 723.568 -8.38798C681.92 -3.2514 638.855 2.06028 596.843 13.8967L596.478 14.0048C591.297 15.6163 585.278 17.5599 579.309 20.2185L579.175 20.2813C564.376 27.1581 548.809 33.66 533.749 39.9519L533.638 39.9992C524.615 43.7675 515.287 47.6669 506.121 51.6438C504.17 52.4848 502.203 53.328 500.191 54.1901L499.907 54.3118C477.997 63.682 455.35 73.3699 437.56 89.7727C422.919 103.081 415.761 119.618 411.207 132.856C401.216 123.64 392.837 114.73 385.737 105.784C376.115 93.6847 367.412 80.4573 358.987 67.6615C352.915 58.4439 346.647 48.909 340.057 39.8276C332.176 28.4741 323.715 17.2717 314.164 5.55159C313.451 4.68562 312.651 3.6562 311.842 2.62174C311.451 2.11823 311.061 1.61474 310.692 1.15209C304.172 -7.77599 299.358 -15.2754 295.518 -22.4543C290.84 -31.1343 286.993 -40.5785 283.277 -49.721L282.571 -51.4544C277.494 -64.1525 273.311 -76.3177 270.122 -87.6442L270.078 -87.7824C266.131 -100.395 261.46 -113.672 256.939 -126.524C252.568 -138.945 248.047 -151.791 244.266 -163.806C243.773 -165.387 243.033 -167.894 242.635 -169.426L239.488 -181.38" stroke="white" stroke-width="2" stroke-miterlimit="10"/>
</g>
<g opacity="0.7">
<g style="mix-blend-mode:overlay">
<path d="M-303.033 880.89L-293.911 877.152C-255.646 861.47 -216.363 846.359 -178.368 831.745L-164.082 826.228L-156.407 823.209C-150.564 821.039 -144.41 818.825 -138.963 816.868C-118.516 809.513 -97.3768 801.909 -77.3484 791.75C-69.597 787.848 -62.611 783.802 -56.5872 779.73L-52.9173 777.158L-51.7267 776.312C-47.3589 773.315 -42.5283 770.503 -36.0838 767.194C-22.1609 760.064 -7.01684 753.647 6.04525 748.209C20.0687 742.522 34.4312 736.554 48.3316 730.784C64.1348 724.217 80.4836 717.429 96.4111 711.008C133.206 696.639 173.548 685.02 212.574 673.775L220.317 671.544L220.416 671.517C221.5 671.182 222.433 670.906 223.359 670.63C225.135 670.103 226.812 669.602 229.288 668.775L229.364 668.751C234.907 666.8 240.311 665.414 247.437 664.111C253.214 663.056 259.601 662.108 266.384 661.105C276.647 659.585 287.259 658.021 297.135 655.859C306.997 653.767 316.231 651.225 324.639 648.29L327.011 647.346L330.043 646.314C330.47 646.147 330.897 645.98 331.309 645.821L333.145 645.104L333.913 644.838C336.959 643.949 340.022 643.346 343.089 642.762C361.069 639.591 376.979 638.565 390.382 639.715C394.975 640.202 399.157 641.067 404.798 642.705C408.852 643.889 412.962 645.292 417.33 646.777C423.182 648.775 429.242 650.837 435.587 652.52C445.898 655.381 457.179 657.295 467.341 657.898C473.313 658.278 479.252 658.223 484.994 658.17C487.991 658.142 491.085 658.119 494.202 658.155L494.29 658.155C496.909 658.143 500.004 658.182 502.995 658.224L503.099 658.228C511.113 658.331 520.183 658.455 527.439 657.818C535.304 657.39 544.412 656.742 552.996 654.58C566.732 651.307 579.944 645.596 594.576 636.602C596.364 635.508 598.866 633.943 601.297 632.425C603.205 631.232 605.077 630.064 606.595 629.127L608.016 628.229C620.325 620.468 633.054 612.434 645.094 603.8L645.301 603.645C653.634 597.231 658.557 589.485 662.647 582.051C665.835 576.138 668.428 570.272 670.931 564.607L672.174 561.794C677.711 549.648 682.867 535.98 687.525 521.133C687.728 520.464 688.012 519.595 688.302 518.707C688.706 517.469 689.121 516.193 689.396 515.256C690.447 511.73 691.127 507.886 691.328 504.398C692.12 487.11 688.619 470.792 685.234 454.992C684.311 450.697 683.359 446.255 682.497 441.781C680.501 432.377 678.425 423.027 676.34 413.987L676.329 413.913C676.227 413.544 676.132 413.162 676.021 412.732L676.009 412.652C675.637 411.192 675.228 409.536 674.659 407.978C672.446 401.203 669.397 394.666 665.919 387.417C659.722 374.751 653.662 361.452 646.258 344.274C634.682 318.093 616.769 292.765 591.507 266.843C579.38 254.295 568.113 244.048 557.023 235.496C544.614 226.158 525.541 215.496 507.087 205.173C495.951 198.951 483.337 191.889 473.371 185.595C458.795 176.387 456.499 172.933 456.186 171.879C451.767 156.809 458.341 124.294 471.17 111.644C482.866 99.7509 500.537 91.5012 517.623 83.5289C519.988 82.4286 522.344 81.3231 524.7 80.2115C535.65 75.0092 547.02 69.9107 558.033 64.9756C571.194 59.0777 584.808 52.9713 597.996 46.5609C614.633 39.845 632.824 35.954 653.102 31.9249C668.099 29.1008 683.775 26.6329 699.705 24.6061C738.134 19.7678 779.08 13.8329 818.7 8.09175C827.199 6.85841 835.613 5.64333 843.849 4.45345L846.131 4.13085C849.544 3.64807 858.613 2.35309 862.252 2.00784C880.006 0.639768 898.294 0.545758 915.998 0.45915C932.269 0.38048 949.085 0.293754 965.965 -0.76867C970.636 -1.1028 975.339 -1.59837 979.59 -2.19966L979.94 -2.24904C991.599 -4.23691 1003.01 -7.16274 1014.05 -9.9979L1014.32 -10.0681C1024.44 -12.6794 1035.22 -15.5666 1045.65 -18.3665L1045.74 -18.392C1058.76 -21.8775 1072.22 -25.482 1084.77 -28.6574" stroke="white" stroke-width="2" stroke-miterlimit="10"/>
</g>
<g style="mix-blend-mode:overlay">
<path d="M185.813 -164.341L191.622 -146.705C199.539 -123.328 207.732 -99.1553 213.477 -75.3079C216.303 -61.7014 220.202 -46.6144 225.377 -29.1904C226.369 -25.8276 227.406 -22.4836 228.41 -19.2544L228.453 -19.1223C230.044 -13.9923 231.693 -8.68829 233.157 -3.29535C234.216 0.415866 235.21 4.33706 236.177 8.12404C238.086 15.6325 240.056 23.4022 242.825 30.946C255.633 65.3147 284.939 92.8928 314.726 117.59C317.624 119.962 320.647 122.428 323.794 124.99C337.662 136.288 353.376 149.096 365.673 160.157C380.867 173.584 397.168 187.809 414.736 201.113L414.797 201.155C422.11 206.468 429.532 211.771 436.716 216.908L436.945 217.07C458 232.117 479.779 247.676 499.442 263.93C506.661 269.897 512.739 275.434 518.59 281.368C531.042 293.864 543.084 307.291 554.758 320.312C563.96 330.575 573.475 341.182 583.126 351.268C589.751 358.374 595.657 364.789 600.926 371.289L601.696 372.216C610.081 382.306 618.754 392.737 625.782 403.402C630.438 410.528 633.81 416.674 635.143 423.555C638.245 438.014 642.146 456.899 644.813 474.715C645.832 481.508 646.975 490.38 646.813 498.784C646.783 501.984 646.354 505.108 645.616 507.586C639.808 523.336 633.675 537.036 626.869 549.493C623.731 555.374 620.391 561.546 617.156 566.599C615.627 568.919 613.533 572.084 611.666 573.447C598.8 581.192 584.87 588.599 571.396 595.766L568.641 597.235C562.962 600.254 556.519 603.683 550.824 605.675C545.466 607.588 541.531 608.458 537.238 608.67C536.523 608.708 535.812 608.721 535.012 608.721L529.092 608.698L526.591 608.763C524.023 608.8 519.563 608.413 515.625 608.079L515.521 608.068C513.251 607.874 511.102 607.689 509.336 607.587C500.047 606.885 490.733 606.344 482.774 605.913C470.318 605.383 459.299 601.147 447.574 596.64C442.992 594.877 438.25 593.055 433.22 591.375C424.98 588.648 417.239 586.679 410.233 585.51C398.812 583.559 385.911 582.854 370.764 583.364C353.046 584.055 336.978 586.007 321.642 589.331C318.925 589.922 315.363 590.853 312.944 591.528L312.617 591.624C312.512 591.658 312.261 591.731 311.98 591.815L311.897 591.839C311.555 591.938 310.409 592.282 310.1 592.388C309.927 592.45 309.647 592.54 309.345 592.64C308.635 592.872 307.856 593.126 307.323 593.327L306.461 593.656C302.687 595.088 298.793 596.561 294.985 597.703C283.873 601.051 271.654 603.325 259.842 605.516C244.353 608.391 228.34 611.365 213.236 616.866C210.819 617.717 208.496 618.673 206.255 619.592L205.268 619.996C204.97 620.119 204.614 620.283 204.234 620.45L204.101 620.512C203.254 620.896 202.94 621.022 202.828 621.069L202.521 621.188C200.407 622.058 196.165 623.75 192.057 625.386L191.773 625.501C188.046 626.983 184.2 628.519 182.019 629.411C146.288 643.85 109.18 659.274 73.2969 674.186L67.2503 676.699C49.1547 684.374 31.5226 691.808 14.7414 698.457C10.8151 700.036 6.46773 701.768 1.89663 703.595L1.1108 703.907C-15.1485 710.387 -33.5698 717.732 -46.8618 723.655C-60.357 729.65 -74.599 736.385 -87.3624 744.996C-92.1099 748.266 -97.4492 751.281 -104.155 754.483C-121.178 762.616 -140.516 768.892 -159.226 774.972C-166.067 777.195 -173.144 779.489 -179.983 781.837C-226.387 797.321 -273.117 811.928 -318.888 825.25L-328.451 828.033" stroke="white" stroke-width="2" stroke-miterlimit="10"/>
</g>
</g>
<g style="mix-blend-mode:overlay" opacity="0.7">
<path d="M1072.34 -60.5623L1071.01 -60.1539L1070.62 -60.0107C1051.97 -52.3885 1031.6 -45.0699 1010.11 -38.2758C999.654 -35.021 988.506 -31.649 977.347 -29.3301L974.939 -28.8452L971.456 -28.3525C971.076 -28.2987 970.681 -28.2366 970.33 -28.1995C952.289 -26.4706 933.704 -26.1276 915.721 -25.788C899.294 -25.48 882.305 -25.1618 865.255 -23.8052L855.141 -22.7327C843.678 -21.0741 831.945 -19.2703 820.591 -17.5203L820.49 -17.506C811.197 -16.0725 801.593 -14.595 792.066 -13.1912L791.926 -13.1714C769.518 -9.36205 746.437 -6.51862 724.112 -3.76316C682.736 1.34118 639.944 6.62062 598.486 18.3032L598.312 18.353C593.328 19.9053 587.543 21.7718 581.96 24.2565L581.886 24.2921C566.968 31.2233 551.348 37.7452 536.214 44.0666C527.177 47.8432 517.833 51.7448 508.66 55.7229C506.701 56.5711 504.733 57.4082 502.706 58.2786L502.423 58.4003C481.028 67.5533 458.901 77.0107 441.858 92.7302C427.602 105.689 420.781 122.154 416.415 135.101C415.59 137.685 414.84 140.24 414.177 142.744C400.642 130.96 389.662 119.705 380.743 108.455C371.003 96.2026 362.261 82.918 353.774 70.0242C347.722 60.8353 341.466 51.3299 334.933 42.3096C327.102 31.0306 318.699 19.9015 309.226 8.27723C308.465 7.35524 307.634 6.27992 306.826 5.25161C306.425 4.73076 306.017 4.21714 305.647 3.7422C298.988 -5.37349 294.062 -13.0454 290.126 -20.3927C285.35 -29.2597 281.464 -38.799 277.703 -48.0355L276.986 -49.7924C271.859 -62.6152 267.634 -74.9064 264.425 -86.3179L264.413 -86.3978C260.484 -98.938 255.82 -112.165 251.311 -124.988C246.927 -137.445 242.393 -150.332 238.592 -162.426C238.085 -164.05 237.327 -166.623 236.914 -168.203L234.98 -175.557" stroke="white" stroke-width="2" stroke-miterlimit="10"/>
</g>
<g opacity="0.9">
<g style="mix-blend-mode:overlay">
<path d="M-298.867 872.686L-296.969 871.909C-258.57 856.17 -219.181 841.02 -181.089 826.373L-167.028 820.938L-159.241 817.871C-153.406 815.703 -147.44 813.559 -141.677 811.489C-121.478 804.225 -100.595 796.708 -81.0231 786.783C-73.5814 783.037 -66.9306 779.19 -61.2239 775.332L-57.6691 772.839L-56.4004 771.931C-51.7233 768.721 -46.6089 765.738 -39.811 762.246C-25.6076 754.977 -10.2477 748.466 3.0158 742.943C16.979 737.277 31.3424 731.316 45.2351 725.547C61.0907 718.96 77.4843 712.153 93.4944 705.701C130.686 691.176 171.233 679.496 210.442 668.201L218.109 665.992C219.238 665.644 220.202 665.357 221.128 665.082C222.836 664.577 224.444 664.098 226.731 663.329C232.756 661.209 238.58 659.714 246.208 658.321C252.108 657.242 258.58 656.283 265.441 655.268C275.557 653.775 286.021 652.226 295.652 650.123C307.787 647.547 318.856 644.287 328.549 640.442L328.901 640.305L330.399 639.722L331.53 639.33C335.044 638.293 338.461 637.615 341.914 636.964C360.719 633.645 377.497 632.591 391.735 633.823C396.89 634.362 401.521 635.321 407.716 637.113C411.944 638.348 416.137 639.777 420.58 641.289C426.307 643.241 432.233 645.26 438.398 646.899C448.148 649.607 458.795 651.41 468.374 651.983C474.025 652.339 479.792 652.289 485.368 652.241C488.429 652.217 491.593 652.19 494.711 652.226C497.402 652.216 500.449 652.256 503.67 652.296C511.526 652.397 520.429 652.519 527.238 651.908C534.725 651.502 543.364 650.895 551.284 648.902C564.064 645.858 576.461 640.476 590.301 631.971C592.074 630.886 594.541 629.344 596.949 627.836C598.872 626.635 600.757 625.451 602.225 624.547L603.645 623.649C615.861 615.945 628.489 607.982 640.326 599.483C647.65 593.852 652.111 586.787 655.856 579.979C658.932 574.27 661.484 568.504 663.953 562.925C664.375 561.968 664.804 561.003 665.22 560.059C670.66 548.115 675.736 534.666 680.312 520.069C680.526 519.367 680.821 518.459 681.127 517.524C681.514 516.327 681.919 515.089 682.177 514.205C683.115 511.04 683.728 507.607 683.902 504.525C684.664 487.844 681.232 471.831 677.916 456.347C676.989 452.021 676.033 447.548 675.175 443.105C673.187 433.756 671.127 424.461 669.046 415.451C668.937 415.027 668.825 414.591 668.721 414.154C668.359 412.705 667.988 411.2 667.492 409.87C665.372 403.352 662.383 396.957 658.983 389.86C652.751 377.118 646.66 363.767 639.241 346.547C627.916 320.94 610.345 296.109 585.53 270.646C573.608 258.307 562.569 248.266 551.765 239.931C539.712 230.863 520.837 220.311 502.592 210.109C477.35 195.994 451.253 181.397 448.957 173.566C444.023 156.767 450.792 122.612 465.447 108.159C478.094 95.2966 496.44 86.7318 514.186 78.4527C516.535 77.3545 518.878 76.2636 521.203 75.1626C532.213 69.9329 543.62 64.8167 554.662 59.865C567.875 53.9409 581.534 47.8218 594.706 41.4074C612.153 34.3259 630.911 30.3045 651.835 26.1525C666.979 23.2953 682.849 20.806 699.003 18.7412C737.208 13.9348 778.184 7.99548 817.803 2.2482C826.31 1.01377 834.732 -0.202439 843.007 -1.3978L845.009 -1.6809C849.951 -2.37984 858.222 -3.5495 861.948 -3.90067C880.053 -5.29966 898.525 -5.38815 916.386 -5.47825C932.53 -5.55781 949.221 -5.63927 965.754 -6.68417C970.205 -7.00603 974.659 -7.47265 978.709 -8.04541L978.833 -8.06296C990.107 -9.98366 1001.33 -12.8647 1012.19 -15.6489L1012.45 -15.717C1022.56 -18.3271 1033.36 -21.2227 1043.8 -24.0175C1056.86 -27.5158 1070.36 -31.133 1082.94 -34.319" stroke="white" stroke-width="2" stroke-miterlimit="10"/>
</g>
<g style="mix-blend-mode:overlay">
<path d="M194.889 -160.338L198.788 -148.597C206.748 -125.088 214.985 -100.777 220.789 -76.6867C223.592 -63.1898 227.459 -48.2051 232.614 -30.8723C233.605 -27.5156 234.655 -24.1359 235.664 -20.8697C237.271 -15.6916 238.935 -10.3333 240.399 -4.94035C241.473 -1.18103 242.481 2.77597 243.453 6.59985C245.33 13.9998 247.275 21.6476 249.952 28.9469C262.34 62.1821 291.025 89.1387 320.19 113.322C323.079 115.688 326.101 118.148 329.203 120.673C343.136 132.031 358.928 144.896 371.317 156.039C386.421 169.39 402.622 183.529 419.975 196.663C427.288 201.982 434.789 207.337 442.034 212.515C463.194 227.635 485.08 243.273 504.933 259.682C512.314 265.789 518.537 271.451 524.51 277.512C537.073 290.112 549.163 303.601 560.856 316.644C570.039 326.884 579.535 337.47 589.178 347.557C595.87 354.74 601.842 361.222 607.195 367.81L607.964 368.737C616.445 378.939 625.223 389.494 632.416 400.417C637.389 408.032 641.004 414.653 642.471 422.224C645.583 436.757 649.505 455.733 652.192 473.678C653.238 480.656 654.409 489.775 654.237 498.488C654.203 502.203 653.687 505.867 652.781 508.814C646.859 524.876 640.609 538.856 633.672 551.558C630.479 557.54 627.083 563.821 623.681 569.136C621.691 572.149 619.222 575.888 616.14 577.987C603.02 585.895 588.9 593.404 575.25 600.67L572.495 602.133C566.537 605.305 559.786 608.897 553.502 611.091C547.234 613.334 542.521 614.352 537.246 614.621C536.381 614.661 535.513 614.684 534.531 614.684L528.612 614.661L526.277 614.728C523.251 614.773 518.55 614.364 514.403 614.009C512.125 613.81 509.968 613.632 508.251 613.529C499.025 612.831 489.792 612.298 481.944 611.869C468.053 611.279 456.422 606.809 444.109 602.071C439.585 600.332 434.902 598.533 430.048 596.915C422.216 594.325 414.886 592.455 408.278 591.356C397.458 589.508 385.164 588.842 370.687 589.326C353.52 589.996 337.981 591.88 323.182 595.084C320.664 595.629 317.339 596.501 315.072 597.135L314.988 597.159C314.86 597.203 314.503 597.303 314.116 597.421C313.509 597.601 312.833 597.803 312.698 597.854C312.487 597.927 312.155 598.037 311.792 598.151C311.202 598.342 310.553 598.559 310.176 598.694L309.321 599.016C305.397 600.506 301.338 602.041 297.233 603.268C285.637 606.766 273.162 609.082 261.104 611.321C245.986 614.131 230.35 617.033 215.863 622.309C213.686 623.075 211.468 623.985 209.324 624.866L208.435 625.23C208.152 625.352 207.802 625.508 207.43 625.673C206.821 625.948 206.123 626.26 205.679 626.423L205.604 626.453C203.401 627.361 199.039 629.101 194.812 630.785C190.898 632.343 187.201 633.814 185.035 634.704C149.439 649.092 112.309 664.52 76.396 679.449L70.4087 681.934C52.2829 689.62 34.6138 697.072 17.751 703.757C13.6008 705.43 8.98412 707.27 4.12811 709.206C-12.0709 715.665 -30.4329 722.983 -43.5614 728.832C-56.6995 734.671 -70.5433 741.205 -82.7156 749.418C-87.8299 752.941 -93.5269 756.164 -100.64 759.555C-118.196 767.946 -137.822 774.312 -156.797 780.474C-163.616 782.687 -170.677 784.979 -177.485 787.317C-224.002 802.841 -270.854 817.484 -316.723 830.839L-318.713 831.416" stroke="white" stroke-width="2" stroke-miterlimit="10"/>
</g>
</g>
<g style="mix-blend-mode:overlay" opacity="0.9">
<path d="M1074.03 -54.8742L1073.67 -54.7601C1054.79 -47.0435 1034.19 -39.6405 1012.43 -32.7649C1001.75 -29.4414 990.364 -25.9974 978.736 -23.5808L976.066 -23.0463L972.396 -22.5273C971.837 -22.4483 971.311 -22.3675 970.764 -22.3153C952.371 -20.5555 933.598 -20.2045 915.44 -19.8654C899.147 -19.5576 882.3 -19.2469 865.618 -17.9173L860.935 -17.5061L856.026 -16.906C844.564 -15.2473 832.83 -13.4436 821.476 -11.6935C812.144 -10.2545 802.494 -8.77048 793.044 -7.37758C770.418 -3.53751 747.238 -0.673653 724.811 2.08992C683.777 7.15213 641.35 12.3861 600.631 23.8577C595.89 25.338 590.406 27.0991 585.306 29.3648C570.232 36.3683 554.538 42.9257 539.358 49.2599C530.336 53.0282 521 56.9287 511.857 60.8962C509.778 61.7928 507.692 62.6843 505.598 63.5831C484.843 72.4572 463.388 81.6375 447.286 96.4831C434.127 108.445 427.71 123.993 423.587 136.222C421.409 143.027 419.817 149.512 418.841 155.545C417.132 154.154 415.383 152.7 413.558 151.163C397.422 137.58 384.616 124.72 374.397 111.845C364.502 99.4012 355.689 86.0136 347.17 73.0616C341.147 63.9063 334.913 54.4418 328.38 45.4276C320.621 34.2578 312.306 23.2419 302.939 11.747C302.138 10.7679 301.279 9.66508 300.45 8.60206C300.031 8.06495 299.62 7.52674 299.233 7.04784C292.397 -2.30642 287.328 -10.1967 283.28 -17.7667C278.374 -26.8666 274.438 -36.5368 270.627 -45.8919L269.898 -47.6785C264.708 -60.6619 260.432 -73.084 257.187 -84.6286C253.293 -97.0921 248.642 -110.29 244.148 -123.064C239.749 -135.569 235.201 -148.493 231.373 -160.67C230.86 -162.331 230.074 -164.994 229.634 -166.646L229.227 -168.177" stroke="white" stroke-width="2" stroke-miterlimit="10"/>
</g>
<g style="mix-blend-mode:overlay">
<path d="M-297.775 870.523C-257.275 853.928 -216.537 838.311 -175.537 822.543L-167.796 819.54L-159.971 816.462C-133.713 806.715 -107.003 798.16 -81.9912 785.476C-75.4345 782.176 -68.6076 778.341 -62.4541 774.182L-58.9139 771.697L-57.6082 770.772C-52.3263 767.149 -46.8399 764.057 -40.7859 760.947C-26.9808 753.878 -12.3655 747.636 2.21896 741.562C32.0663 729.45 62.5992 716.449 92.7277 704.31C132.444 688.799 176.029 676.508 217.508 664.54C220.712 663.547 222.612 663.052 226.039 661.908C232.592 659.607 238.57 658.14 245.881 656.798C260.589 654.103 279.21 652.116 295.257 648.616C306.109 646.309 317.422 643.152 327.773 639.046L328.927 638.594L329.503 638.368C329.78 638.26 329.654 638.315 329.699 638.296C329.714 638.294 329.73 638.292 329.75 638.27L330.067 638.163L330.225 638.103L330.467 638.031L330.951 637.874C334.474 636.836 337.85 636.152 341.604 635.445C357.97 632.559 375.715 630.866 392.102 632.277C397.829 632.88 402.684 633.964 408.483 635.649C418.33 638.531 428.328 642.554 439.132 645.427C448.229 647.951 458.626 649.833 468.638 650.433C477.295 650.979 486.134 650.558 494.815 650.673C504.179 650.636 517.766 651.207 527.177 650.366C534.877 649.948 543.238 649.337 550.837 647.422C565.239 643.991 577.608 637.879 589.182 630.768C592.366 628.823 597.823 625.371 601.076 623.36C613.754 615.358 626.831 607.155 639.021 598.413C646.102 592.967 650.392 586.145 654.069 579.46C657.644 572.833 660.478 566.18 663.39 559.628C669.309 546.63 674.261 533.085 678.414 519.817C678.893 518.223 679.821 515.531 680.272 513.96C681.216 510.788 681.784 507.475 681.948 504.595C682.917 483.439 677.141 463.702 673.243 443.486C671.282 434.271 669.242 425.054 667.129 415.88C666.66 414.088 666.233 412.089 665.593 410.372C663.403 403.644 660.171 396.837 657.148 390.528C650.058 376.037 643.685 361.79 637.384 347.168C625.025 319.208 606.243 294.543 583.945 271.667C573.705 261.075 562.559 250.522 550.371 241.121C521.087 219.102 451.202 188.184 447.044 174.026C441.947 156.653 448.776 122.201 463.929 107.257C478.506 92.4326 500.123 83.3863 520.273 73.8443C544.476 62.3418 569.642 51.8456 593.821 40.0703C611.954 32.7033 631.926 28.5354 651.48 24.6463C667.124 21.6993 682.927 19.2384 698.802 17.2131C745.241 11.3677 796.202 3.79044 842.775 -2.92152C847.33 -3.5656 857.481 -5.03264 861.865 -5.43908C896.407 -8.10791 930.947 -6.03658 965.686 -8.22478C969.879 -8.52888 974.32 -8.97484 978.525 -9.56955C989.79 -11.4892 1001.09 -14.3924 1011.94 -17.1766C1034.63 -23.0342 1059.72 -30.0295 1082.45 -35.7808" stroke="white" stroke-width="2" stroke-miterlimit="10"/>
</g>
<g style="mix-blend-mode:overlay">
<path d="M197.277 -159.282C197.277 -159.282 216.34 -103.524 222.719 -77.0287C225.881 -61.7809 230.071 -46.2705 234.52 -31.3178C237.075 -22.645 239.932 -14.1721 242.315 -5.3746C245.437 5.54707 247.781 17.376 251.831 28.4237C264.193 61.5873 292.531 88.0718 321.625 112.202C337.646 125.324 357.663 141.345 372.798 154.963C388.475 168.817 404.306 182.594 421.33 195.486C450.023 216.339 479.675 236.498 506.369 258.569C513.434 264.407 519.823 270.176 526.056 276.496C548.509 299.029 568.81 323.63 590.768 346.572C596.877 353.129 603.275 360.034 608.834 366.894C617.7 377.562 626.697 388.312 634.153 399.632C638.829 406.787 642.834 413.848 644.391 421.871C648.002 438.725 651.579 456.431 654.13 473.398C655.365 481.661 656.352 490.172 656.189 498.407C656.157 501.971 655.675 505.869 654.665 509.138C649.318 523.662 643.061 538.189 635.462 552.096C632.324 557.976 628.893 564.337 625.393 569.798C623.157 573.184 620.656 576.922 617.305 579.185C603.247 587.658 588.303 595.547 573.507 603.422C567.424 606.655 560.621 610.273 554.21 612.517C548.258 614.645 543.173 615.886 537.245 616.184C536.333 616.231 535.417 616.248 534.396 616.254L530.901 616.234L528.549 616.234L527.049 616.264L526.198 616.296C521.392 616.36 512.95 615.389 507.957 615.09C499.244 614.433 490.456 613.911 481.729 613.432C462.204 612.602 447.068 604.321 429.215 598.364C422.739 596.223 415.249 594.124 407.773 592.884C395.751 590.83 382.894 590.482 370.678 590.891C354.764 591.516 339.268 593.205 323.601 596.594C321.199 597.116 317.995 597.952 315.628 598.607C315.302 598.71 313.624 599.198 313.39 599.281C312.84 599.472 311.493 599.895 310.936 600.099C306.63 601.732 302.311 603.391 297.843 604.726C271.646 612.624 242.509 614.29 216.57 623.734C214.167 624.576 211.683 625.618 209.293 626.603C208.503 626.941 207.229 627.541 206.44 627.835C202.244 629.571 190.444 634.215 185.856 636.095C148.286 651.277 108.786 667.718 71.268 683.313C54.2601 690.521 35.7658 698.341 18.5724 705.148C0.789282 712.309 -25.5898 722.581 -42.666 730.188C-55.5365 735.906 -69.4835 742.493 -81.4616 750.572C-87.1223 754.474 -93.0977 757.742 -99.6856 760.883C-123.739 772.377 -151.042 779.917 -176.8 788.752C-222.593 804.03 -269.63 818.761 -316.129 832.3" stroke="white" stroke-width="2" stroke-miterlimit="10"/>
</g>
<g style="mix-blend-mode:overlay">
<path d="M1074.47 -53.3733C1054.48 -45.1969 1033.84 -37.8829 1013.04 -31.3065C1001.83 -27.819 990.537 -24.4396 979.101 -22.0627L976.371 -21.5133L973.639 -21.127C972.723 -21.0037 971.843 -20.8479 970.891 -20.7509C935.918 -17.3997 900.919 -19.1486 865.73 -16.3507L862.61 -16.079L861.047 -15.9395L859.452 -15.7453L856.27 -15.3519C835.386 -12.3293 814.172 -8.90862 793.343 -5.83117C729.245 5.0541 663.89 7.68587 601.251 25.3273C596.267 26.8796 591.073 28.5621 586.218 30.724C562.151 41.906 537.275 51.6266 512.71 62.2826C490.127 72.0305 466.188 81.3925 448.725 97.4915C436.573 108.539 430.112 122.812 425.487 136.537C423.309 143.343 421.311 151.103 420.301 159.018C417.538 156.809 414.816 154.557 412.115 152.284C397.596 140.061 384.087 127.049 372.747 112.744C355.805 91.4407 342.466 68.0393 326.672 46.2472C318.582 34.6031 310.271 23.6682 301.299 12.6572C300.084 11.1779 298.789 9.47146 297.543 7.88978C291.727 -0.0706297 286.181 -8.30138 281.488 -17.086C276.244 -26.8161 272.19 -36.9656 268.047 -47.1276C263.243 -59.1548 258.783 -71.802 255.307 -84.1739C247.6 -108.817 237.23 -135.577 229.492 -160.216C228.965 -161.918 228.181 -164.569 227.737 -166.245" stroke="white" stroke-width="2" stroke-miterlimit="10"/>
</g>
</g>
<defs>
<clipPath id="clip0_4137_842">
<rect width="1521.21" height="1028.26" fill="white" transform="matrix(0.990148 -0.140027 0.145047 0.989425 -475 -81.6953)"/>
</clipPath>
</defs>
</svg>
