<svg width="1512" height="1368" viewBox="0 0 1512 1368" fill="none" xmlns="http://www.w3.org/2000/svg">
<g style="mix-blend-mode:overlay" clip-path="url(#clip0_2791_2756)">
<g opacity="0.8">
<g style="mix-blend-mode:overlay">
<path d="M-9.53578 1202.46L-4.32034 1201.3C36.1531 1192.23 77.4125 1184.13 117.328 1176.28L132.098 1173.35L140.208 1171.68C146.291 1170.57 152.492 1169.53 158.489 1168.52C179.647 1164.95 201.527 1161.25 222.851 1154.25C231.017 1151.61 238.464 1148.62 245.041 1145.34L249.074 1143.23L250.452 1142.5C255.563 1139.9 261.058 1137.67 268.245 1135.26C283.459 1130.2 299.617 1126.33 313.532 1123.11C328.283 1119.88 343.45 1116.38 358.113 1113.01C374.841 1109.16 392.144 1105.18 408.946 1101.54C447.808 1093.65 489.233 1090.03 529.326 1086.53L537.257 1085.84C538.403 1085.71 539.377 1085.62 540.319 1085.52C542.103 1085.35 543.786 1085.18 546.272 1084.83C552.327 1083.87 558.067 1083.57 565.463 1083.85C571.297 1084.07 577.66 1084.59 584.414 1085.14C594.48 1085.95 604.892 1086.79 614.688 1086.74C625.998 1086.76 636.611 1085.85 646.263 1084.04L646.261 1084.06L647.566 1083.79C648.006 1083.71 648.439 1083.62 648.88 1083.52L650.917 1083.11L651.934 1082.95C655.337 1082.63 658.613 1082.7 661.902 1082.8C680.29 1083.64 696.178 1086.63 709.074 1091.66C713.631 1093.55 717.638 1095.81 722.89 1099.45C726.541 1101.99 730.146 1104.78 733.968 1107.73C738.983 1111.6 744.163 1115.61 749.687 1119.23C758.495 1125.16 768.424 1130.21 777.633 1133.46C783.051 1135.4 788.621 1136.85 794.01 1138.25C796.901 1139 799.897 1139.78 802.886 1140.64C805.45 1141.33 808.446 1142.2 811.337 1143.03C818.85 1145.21 827.364 1147.67 834.181 1148.73C841.563 1150.21 850.137 1151.74 858.455 1151.37C871.786 1150.99 885.299 1147.61 900.973 1140.75C902.941 1139.9 905.692 1138.66 908.369 1137.47C910.493 1136.51 912.576 1135.58 914.223 1134.86L915.8 1134.14C929.405 1127.98 943.47 1121.6 956.956 1114.35L957.053 1114.3C965.924 1109.1 972.197 1101.43 977.67 1093.89C982.098 1087.69 985.989 1081.35 989.763 1075.21L991.676 1072.11C999.906 1059 1008.16 1043.97 1016.23 1027.41C1016.6 1026.64 1017.1 1025.63 1017.61 1024.6C1018.3 1023.24 1019 1021.83 1019.47 1020.8C1021.24 1017.05 1022.76 1012.86 1023.74 1008.98C1028.72 988.726 1029.46 968.338 1030.19 948.612C1030.39 943.162 1030.6 937.528 1030.89 931.926C1031.35 920.082 1031.71 908.3 1031.98 896.827C1031.98 896.317 1031.99 895.8 1032 895.268L1032.01 895.184C1032.02 893.293 1032.04 891.341 1031.9 889.491C1031.51 880.931 1030.25 872.357 1028.78 862.821C1026.04 845.875 1023.59 828.206 1020.84 805.499C1016.43 771.324 1005.83 736.499 988.45 699.055C980.13 680.941 972.061 665.83 963.772 652.831C954.452 638.59 939.061 620.89 924.175 603.76C905.926 582.772 883.215 556.645 883.014 547.701C882.544 527.011 897.44 488.267 913.939 475.441C928.717 463.566 948.025 458.055 966.691 452.726C969.21 452.008 971.722 451.289 974.227 450.555C985.994 447.091 998.111 443.868 1009.87 440.743C1023.9 437.018 1038.41 433.158 1052.56 428.825C1070.58 424.882 1089.2 424.878 1109.88 425.265C1124.95 425.733 1140.61 426.816 1156.41 428.499C1194.1 432.583 1234.57 436.003 1273.73 439.307C1282.14 440.016 1290.45 440.724 1298.61 441.419L1300.59 441.595C1304.06 441.903 1313.29 442.708 1317.03 443.264C1334.48 446.237 1352.02 450.885 1369 455.383C1384.43 459.473 1400.4 463.703 1416.53 466.744C1420.94 467.522 1425.42 468.128 1429.48 468.489L1429.71 468.51C1441.08 469.112 1452.57 468.534 1463.68 467.97L1463.95 467.955C1474.24 467.419 1485.24 466.713 1495.9 466.032C1509.2 465.183 1522.94 464.305 1535.7 463.717" stroke="white" stroke-width="2" stroke-miterlimit="10"/>
</g>
<g style="mix-blend-mode:overlay">
<path d="M718.436 75.7856L719.356 94.1834C721.049 124.565 722.797 155.97 722.297 186.434C721.581 203.513 721.515 222.673 722.087 244.985C722.186 249.257 722.337 253.556 722.484 257.723L722.492 257.893C722.728 264.532 722.966 271.402 723.009 278.302C723.093 283.097 723.056 288.113 723.025 292.975C722.963 302.451 722.894 312.26 723.627 321.9C727.147 365.864 747.898 406.225 769.798 443.298C771.956 446.903 774.216 450.664 776.551 454.539C786.953 471.819 798.747 491.407 807.726 508.02C818.789 528.099 830.708 549.421 844.03 569.902C849.695 578.266 855.482 586.657 861.077 594.768C877.41 618.459 894.297 642.956 909.036 667.818C914.489 677.013 918.95 685.378 923.08 694.162C931.853 712.563 939.975 731.941 947.83 750.685C954.016 765.443 960.411 780.706 967.082 795.391C971.636 805.75 975.679 815.074 979.1 824.366L979.601 825.685C985.096 840.135 990.779 855.072 994.86 869.975C997.613 880.173 999.352 888.837 998.87 897.998C998.199 916.316 997.179 940.202 995.259 962.502C994.517 971.1 993.36 982.294 991.053 992.613C990.145 996.833 988.829 1000.86 987.35 1003.95C977.766 1021.68 968.398 1036.81 958.686 1050.25C954.183 1056.61 949.413 1063.26 944.931 1068.69C942.49 1071.57 939.462 1075.14 936.588 1076.63C922.239 1082.74 906.996 1088.13 892.254 1093.35L889.264 1094.41C882.926 1096.65 875.743 1099.19 869.47 1100.18C863.34 1101.2 858.93 1101.22 854.236 1100.25C853.462 1100.09 852.699 1099.91 851.831 1099.68L846.202 1098.12L843.895 1097.57C841.192 1096.88 836.907 1095.22 833.131 1093.75C830.989 1092.92 828.974 1092.13 827.357 1091.56C818.734 1088.32 810.031 1085.28 802.607 1082.71C790.101 1078.6 780.369 1070.37 770.062 1061.67C766.162 1058.38 762.133 1054.98 757.837 1051.71C750.877 1046.44 744.22 1042.19 738.049 1039.08C727.982 1033.93 716.205 1029.86 702.029 1026.64C685.298 1022.96 669.811 1021.19 654.688 1021.24C652.077 1021.25 648.608 1021.44 646.166 1021.63L646.01 1021.65C645.886 1021.66 645.551 1021.69 645.177 1021.73C644.476 1021.8 643.689 1021.88 643.556 1021.9C643.352 1021.93 643.031 1021.98 642.688 1022.02C642.024 1022.11 641.297 1022.2 640.842 1022.29L639.939 1022.46C635.901 1023.23 631.723 1024.02 627.632 1024.43C615.927 1025.64 603.587 1025.21 591.639 1024.8C576.389 1024.28 560.616 1023.73 545.228 1026.4C542.847 1026.78 540.467 1027.32 538.166 1027.84L537.189 1028.06C536.897 1028.13 536.55 1028.22 536.178 1028.32L536.051 1028.35C535.545 1028.48 534.778 1028.69 534.377 1028.77L534.22 1028.8C531.934 1029.32 527.393 1030.28 522.994 1031.21L522.844 1031.25C518.745 1032.11 514.88 1032.93 512.603 1033.44C475.043 1041.62 435.847 1050.66 397.937 1059.39L391.591 1060.85C372.418 1065.45 353.755 1069.87 336.06 1073.57C331.887 1074.48 327.275 1075.46 322.419 1076.48L321.711 1076.64C304.649 1080.25 285.312 1084.34 271.286 1088.03C257.151 1091.72 242.161 1096.1 228.242 1103.01C222.668 1105.85 216.606 1108.2 209.16 1110.41C190.584 1115.93 170.431 1118.53 150.942 1121.04C143.888 1121.95 136.592 1122.9 129.501 1123.96C81.3694 1130.67 33.154 1136.24 -13.8106 1140.5L-19.1193 1140.98" stroke="white" stroke-width="2" stroke-miterlimit="10"/>
</g>
</g>
<g style="mix-blend-mode:overlay" opacity="0.8">
<path d="M1532.14 430.445L1531.18 430.559C1511.38 434.977 1490.01 438.567 1467.69 441.239C1456.79 442.478 1445.19 443.687 1433.71 443.6L1431.15 443.558L1427.61 443.243C1427.14 443.201 1426.65 443.165 1426.21 443.103C1408.41 440.493 1390.52 436.085 1373.22 431.813C1357.58 427.952 1341.41 423.965 1325.04 421.228L1315.44 419.95C1304.11 418.99 1292.48 418.133 1281.2 417.308C1271.99 416.628 1262.46 415.935 1253.08 415.17L1252.99 415.163C1230.59 413.959 1207.86 411.428 1185.84 408.969C1145.36 404.459 1103.52 399.789 1061.58 403.141L1061.48 403.148C1056.49 403.716 1050.69 404.451 1045.03 405.932C1028.99 410.468 1012.46 414.318 996.437 418.052C986.896 420.277 977.024 422.573 967.311 424.998C965.131 425.538 962.945 426.07 960.688 426.618C938.422 432.044 915.4 437.649 895.884 451.751C879.818 463.18 869.564 480.723 862.4 494.765C859.65 500.343 857.225 505.811 855.157 511.102C854.949 510.743 854.742 510.385 854.527 510.019C842.659 489.605 833.764 470.931 827.327 452.915C821.066 435.44 816.037 417.047 811.186 399.265C807.731 386.626 804.167 373.553 800.198 360.969C795.589 345.409 790.405 329.891 784.341 313.506C783.836 312.149 783.3 310.619 782.784 309.129C782.526 308.38 782.268 307.639 782.026 306.969C777.909 294.04 775.085 283.333 773.155 273.262C770.789 261.137 769.472 248.503 768.194 236.297L767.953 233.967C766.27 217.03 765.317 201 765.116 186.241C764.525 170.128 763.403 152.963 762.315 136.364C761.255 120.147 760.158 103.386 759.573 87.736C759.498 85.6214 759.42 82.2477 759.418 80.1782L759.414 75.0969" stroke="white" stroke-width="2" stroke-miterlimit="10"/>
</g>
<g opacity="0.5">
<g style="mix-blend-mode:overlay">
<path d="M-25.3783 1225.71L-0.118965 1220.05C40.0231 1211.06 81.0869 1202.98 120.799 1195.18L135.978 1192.17L143.867 1190.54C149.832 1189.46 156.095 1188.4 161.598 1187.48L161.716 1187.46C183.564 1183.77 206.15 1179.96 228.778 1172.53C237.842 1169.59 246.195 1166.24 253.611 1162.55L258.048 1160.24L259.328 1159.56C263.532 1157.44 268.169 1155.57 274.337 1153.5C288.733 1148.71 304.282 1144.99 317.733 1141.88C332.468 1138.64 347.564 1135.17 362.171 1131.81L362.447 1131.75C379.032 1127.93 396.179 1123.98 412.847 1120.37C450.623 1112.71 491.495 1109.14 531.029 1105.69L539.013 1104.99L539.411 1104.95C540.448 1104.83 541.336 1104.74 542.278 1104.66C544.164 1104.47 546.111 1104.28 549.082 1103.86L549.333 1103.82C554.072 1103.06 558.694 1102.84 564.774 1103.07C570.222 1103.28 576.378 1103.78 582.964 1104.31C593.414 1105.16 604.216 1106.03 614.684 1105.97C619.965 1105.99 625.162 1105.81 630.213 1105.45L633.769 1104.79L651.317 1102.67C651.828 1102.57 652.331 1102.46 652.748 1102.38L654.265 1102.07C656.411 1101.91 658.762 1101.95 661.18 1102.03C677.299 1102.77 691.006 1105.28 701.92 1109.51C705.068 1110.84 707.985 1112.51 711.935 1115.24C715.185 1117.5 718.602 1120.15 722.28 1122.99C727.554 1127.07 733.01 1131.28 739.029 1135.23C749.142 1142.03 760.578 1147.85 771.195 1151.59C777.429 1153.82 783.422 1155.38 789.226 1156.88C791.973 1157.6 794.819 1158.34 797.582 1159.13L797.974 1159.23C800.32 1159.86 803.143 1160.67 805.929 1161.48L806.034 1161.51C813.946 1163.8 822.905 1166.39 830.829 1167.67C839.153 1169.33 848.877 1171.03 859.164 1170.59C875.005 1170.11 890.739 1166.24 908.662 1158.4C910.686 1157.52 913.517 1156.26 916.276 1155.02L916.412 1154.96C918.447 1154.04 920.434 1153.16 922.113 1152.42L923.811 1151.65C937.69 1145.35 952.045 1138.85 966.105 1131.3L966.821 1130.89C978.739 1123.91 986.605 1114.38 993.363 1105.07C998.179 1098.32 1002.25 1091.69 1006.19 1085.28L1008.03 1082.28C1016.62 1068.59 1025.22 1052.93 1033.6 1035.74L1033.63 1035.66C1033.96 1034.99 1034.4 1034.11 1034.9 1033.1C1035.62 1031.66 1036.36 1030.17 1036.92 1028.96C1039.19 1024.14 1041.16 1018.7 1042.44 1013.63L1042.46 1013.55C1047.91 991.39 1048.69 969.986 1049.46 949.236C1049.65 943.902 1049.85 938.391 1050.15 932.795L1050.16 932.635C1050.6 920.721 1050.97 908.808 1051.25 897.157L1051.26 896.834C1051.26 896.401 1051.27 895.962 1051.27 895.483L1051.28 895.353C1051.3 893.362 1051.32 890.894 1051.13 888.321C1050.68 878.891 1049.36 869.824 1047.79 859.739C1045.09 843.036 1042.67 825.571 1039.94 803.027C1035.28 766.876 1024.15 730.228 1005.95 691.013C997.256 672.093 988.756 656.18 979.952 642.378L979.891 642.288C969.857 626.956 954.032 608.747 938.711 591.13C929.807 580.887 919.712 569.28 912.035 559.4C905.736 551.296 903.215 547.08 902.283 545.321C902.934 529.48 914.831 499.11 925.864 490.524L926.006 490.413C937.756 480.971 955.155 476.001 971.991 471.197C974.55 470.467 977.101 469.736 979.685 468.985C991.222 465.587 1003.22 462.398 1014.85 459.309C1028.77 455.605 1043.17 451.781 1057.42 447.434C1073.18 444.102 1090.28 444.116 1109.37 444.47C1123.97 444.926 1139.11 445.979 1154.36 447.597C1192.27 451.701 1232.77 455.124 1271.96 458.438L1272.14 458.455C1280.53 459.162 1288.84 459.862 1296.92 460.557L1299.38 460.776C1309.08 461.623 1312.71 462.054 1314.03 462.24C1330.54 465.068 1347.58 469.579 1364.08 473.949C1379.84 478.122 1396.14 482.444 1413.09 485.642L1413.19 485.651C1418.14 486.539 1423.22 487.215 1427.88 487.629L1428.68 487.684C1441.05 488.344 1453.05 487.735 1464.64 487.152L1464.95 487.133C1475.36 486.591 1486.37 485.887 1496.98 485.209L1497.19 485.196C1510.35 484.358 1523.95 483.491 1536.58 482.907" stroke="white" stroke-width="2" stroke-miterlimit="10"/>
</g>
<g style="mix-blend-mode:overlay">
<path d="M698.34 56.8952L700.155 95.2717C701.825 125.218 703.551 156.182 703.073 185.876C702.355 203.333 702.282 222.824 702.858 245.438C702.966 249.872 703.113 254.209 703.266 258.393L703.277 258.618C703.504 265.101 703.741 271.809 703.785 278.523L703.777 278.623C703.864 283.194 703.83 288.094 703.801 292.856C703.735 302.719 703.67 312.913 704.465 323.424C708.303 371.277 730.192 414.04 753.307 453.168C755.471 456.789 757.746 460.558 760.108 464.483C770.395 481.567 782.048 500.926 790.887 517.287C802.124 537.675 814.243 559.347 827.957 580.45L828.114 580.68C833.712 588.938 839.41 597.197 844.915 605.192L845.285 605.727C861.42 629.13 878.101 653.33 892.497 677.621C897.627 686.278 901.823 694.148 905.719 702.433C914.291 720.407 922.324 739.576 930.115 758.168C936.339 773.014 942.773 788.366 949.502 803.187C953.913 813.232 957.836 822.267 961.088 831.112L961.631 832.558C966.964 846.569 972.471 861.058 976.289 875.003C978.567 883.429 980.009 890.407 979.658 897.124L979.642 897.308C978.992 915.389 977.986 938.951 976.101 960.852C975.406 968.844 974.345 979.213 972.254 988.571C971.702 991.132 970.945 993.574 970.164 995.32C961.075 1012.09 952.212 1026.4 943.055 1039.07L943.01 1039.14C938.72 1045.19 934.205 1051.5 930.224 1056.32C928.654 1058.18 927.738 1059.18 927.211 1059.73C913.906 1065.3 899.651 1070.34 885.842 1075.23L882.86 1076.28C877.312 1078.24 871.013 1080.47 866.401 1081.2L866.322 1081.21C862.074 1081.92 860.037 1081.82 858.126 1081.43C857.739 1081.34 857.353 1081.26 856.976 1081.15L851.347 1079.59L848.549 1078.92C846.913 1078.48 842.681 1076.84 840.158 1075.86L839.844 1075.74C837.74 1074.92 835.747 1074.15 833.95 1073.51C825.155 1070.21 816.325 1067.12 808.842 1064.53L808.64 1064.45C799.675 1061.5 791.307 1054.44 782.43 1046.94C778.372 1043.51 774.178 1039.96 769.462 1036.38C761.583 1030.41 753.953 1025.56 746.822 1021.96C735.314 1016.08 722.041 1011.47 706.176 1007.86C688.044 1003.88 671.188 1001.97 654.651 1002.02C651.5 1002.03 647.457 1002.26 644.72 1002.46L643.334 1002.59C641.636 1002.76 641.065 1002.84 640.69 1002.89L640.221 1002.95C639.291 1003.08 638.299 1003.21 637.365 1003.38L636.336 1003.57C632.724 1004.25 628.985 1004.96 625.697 1005.3C615.309 1006.36 603.623 1005.96 592.314 1005.57C576.124 1005.02 559.381 1004.44 542.128 1007.43C539.175 1007.9 536.527 1008.49 533.942 1009.08L532.704 1009.37C532.302 1009.46 531.827 1009.59 531.29 1009.73L531.116 1009.77C530.808 1009.86 530.602 1009.91 530.483 1009.94L529.972 1010.05C527.907 1010.52 523.476 1011.46 519.573 1012.28L518.896 1012.43C515.158 1013.21 510.924 1014.11 508.537 1014.65C470.874 1022.86 431.67 1031.89 393.752 1040.63L387.217 1042.13L387.138 1042.15C368.108 1046.7 349.586 1051.1 332.025 1054.77C327.931 1055.66 323.406 1056.62 318.581 1057.64L317.755 1057.81C300.496 1061.47 280.931 1065.61 266.454 1069.42C251.331 1073.38 235.189 1078.1 219.631 1085.82L219.542 1085.87C215.044 1088.16 210.015 1090.1 203.726 1091.97C186.626 1097.05 167.253 1099.55 148.443 1101.98C141.366 1102.9 134.047 1103.84 126.846 1104.92C79.0349 1111.59 31.1474 1117.12 -15.4976 1121.35L-41.2496 1123.69" stroke="white" stroke-width="2" stroke-miterlimit="10"/>
</g>
</g>
<g style="mix-blend-mode:overlay" opacity="0.5">
<path d="M1529.15 411.445L1527.48 411.706L1527 411.802C1507.82 416.082 1487.12 419.562 1465.52 422.143C1455.23 423.313 1444.33 424.452 1434.01 424.384L1432.16 424.351L1428.81 424.053C1411.99 421.577 1394.64 417.301 1377.84 413.159C1365.96 410.226 1332.43 402.928 1317.07 400.799C1305.72 399.226 1294.01 398.98 1282.72 398.146L1282.44 398.121C1273.34 397.459 1263.93 396.769 1254.58 396.007L1254.04 395.974C1232.17 394.795 1209.71 392.296 1187.96 389.868C1146.6 385.257 1103.83 380.489 1060 383.989L1059.31 384.06C1053.65 384.707 1047.05 385.548 1040.11 387.364L1039.8 387.452C1024.19 391.871 1007.85 395.67 992.038 399.352L991.912 399.38C982.348 401.603 972.46 403.905 962.691 406.349C960.748 406.833 958.799 407.308 956.802 407.794L956.138 407.959C932.074 413.82 907.188 419.877 884.742 436.113C871.619 445.448 862.045 457.507 854.756 469.144C851.181 461.414 848.095 453.904 845.437 446.463C839.429 429.706 834.5 411.662 829.73 394.188C826.246 381.431 822.646 368.246 818.599 355.408C813.883 339.491 808.57 323.599 802.344 306.775C801.913 305.633 801.421 304.215 800.948 302.844C800.715 302.167 800.474 301.49 800.252 300.86C796.421 288.805 793.805 278.882 792.027 269.604C789.819 258.312 788.548 246.114 787.32 234.314L787.085 232.085C785.453 215.701 784.532 200.176 784.338 185.95L784.327 185.556C783.722 169.17 782.589 151.858 781.501 135.09C780.45 119.028 779.371 102.415 778.788 87.0816C778.718 85.0985 778.647 81.9804 778.644 80.1964L778.62 55.5386" stroke="white" stroke-width="2" stroke-miterlimit="10"/>
</g>
<g opacity="0.6">
<g style="mix-blend-mode:overlay">
<path d="M-17.7684 1214.55L-2.12908 1211.05C38.155 1202.02 79.2975 1193.93 119.103 1186.11L134.132 1183.13L142.124 1181.49C148.152 1180.39 154.501 1179.32 160.107 1178.37L160.193 1178.36C181.704 1174.73 203.952 1170.98 225.945 1163.76C234.572 1160.96 242.507 1157.77 249.512 1154.29L253.795 1152.06L255.1 1151.36C259.741 1149.02 264.78 1146.97 271.433 1144.74C286.226 1139.82 302.076 1136.02 315.707 1132.87C330.45 1129.64 345.578 1126.16 360.208 1122.79L360.382 1122.75C377.046 1118.92 394.278 1114.96 410.963 1111.34C449.267 1103.56 490.426 1099.97 530.224 1096.5L538.209 1095.8L538.388 1095.79C539.472 1095.67 540.407 1095.57 541.333 1095.48C543.219 1095.3 544.995 1095.12 547.724 1094.74L547.864 1094.72C553.238 1093.86 558.396 1093.6 565.106 1093.86C570.763 1094.07 577.019 1094.58 583.643 1095.11C593.916 1095.94 604.535 1096.8 614.686 1096.75C622.769 1096.76 630.577 1096.32 637.96 1095.43L642.801 1094.4L649.52 1093.6C649.992 1093.51 650.463 1093.42 650.889 1093.32L652.674 1092.96L653.152 1092.88C655.883 1092.65 658.666 1092.7 661.515 1092.79C678.734 1093.58 693.486 1096.32 705.354 1100.92C709.174 1102.52 712.613 1104.48 717.189 1107.64C720.636 1110.04 724.147 1112.76 727.883 1115.64C733.042 1119.63 738.374 1123.75 744.117 1127.51C753.61 1133.9 764.329 1139.35 774.28 1142.86C780.117 1144.95 785.906 1146.45 791.529 1147.92C794.344 1148.65 797.257 1149.41 800.133 1150.24L800.337 1150.29C802.788 1150.94 805.686 1151.79 808.479 1152.59L808.585 1152.62C816.301 1154.85 825.049 1157.39 832.449 1158.57C840.325 1160.13 849.485 1161.77 858.811 1161.35C873.451 1160.92 888.129 1157.29 904.977 1149.92C906.968 1149.06 909.767 1147.81 912.486 1146.58L912.623 1146.52C914.681 1145.59 916.684 1144.69 918.38 1143.95L919.965 1143.23C933.715 1137 947.932 1130.56 961.718 1123.14L962.141 1122.91C972.593 1116.78 979.692 1108.15 985.834 1099.69C990.464 1093.21 994.455 1086.71 998.31 1080.44L1000.17 1077.41C1008.59 1063.99 1017.03 1048.62 1025.28 1031.68C1025.62 1030.95 1026.09 1030.01 1026.6 1029.01C1027.3 1027.6 1028.03 1026.13 1028.54 1025.03C1030.58 1020.72 1032.32 1015.87 1033.48 1011.33C1038.7 990.085 1039.47 969.158 1040.21 948.923C1040.4 943.543 1040.61 937.971 1040.91 932.36L1040.92 932.276C1041.36 920.424 1041.74 908.566 1042.01 897L1042.01 896.814C1042.01 896.359 1042.01 895.888 1042.02 895.372L1042.03 895.257C1042.04 893.304 1042.07 891.098 1041.9 888.867C1041.48 879.849 1040.19 871.016 1038.66 861.205C1035.94 844.377 1033.51 826.81 1030.77 804.204C1026.23 769.006 1015.36 733.23 997.548 694.86C989.034 676.328 980.739 660.803 972.153 647.337C962.459 632.522 946.843 614.563 931.733 597.181C922.745 586.846 912.559 575.13 904.736 565.06C894.835 552.319 893.24 547.938 893.021 547.185C892.765 529.387 906.285 494.049 920.146 483.274L920.221 483.219C933.426 472.61 951.744 467.381 969.451 462.323C971.994 461.599 974.522 460.874 977.067 460.127C988.731 456.693 1000.8 453.489 1012.47 450.387C1026.45 446.673 1040.9 442.83 1055.1 438.486C1071.94 434.865 1089.78 434.867 1109.58 435.238C1124.43 435.701 1139.83 436.769 1155.35 438.419C1193.15 442.513 1233.6 445.932 1272.73 449.241L1272.91 449.256C1281.31 449.965 1289.61 450.665 1297.73 451.363L1300.17 451.58C1303.44 451.871 1312.1 452.633 1315.46 453.125C1332.43 456.015 1349.72 460.603 1366.44 465.032C1382.05 469.168 1398.19 473.445 1414.8 476.574C1419.49 477.4 1424.26 478.048 1428.7 478.443L1429.17 478.484C1441.06 479.109 1452.81 478.517 1464.18 477.945L1464.47 477.932C1474.76 477.395 1485.76 476.69 1496.43 476.009L1496.54 476.003C1509.75 475.163 1523.42 474.285 1536.15 473.703" stroke="white" stroke-width="2" stroke-miterlimit="10"/>
</g>
<g style="mix-blend-mode:overlay">
<path d="M707.981 65.9683L709.366 94.7624C711.049 124.911 712.786 156.092 712.292 186.147C711.573 203.434 711.507 222.763 712.082 245.223C712.187 249.595 712.337 253.902 712.483 258.077L712.489 258.278C712.717 264.831 712.963 271.617 713.002 278.47C713.081 283.149 713.049 288.103 713.016 292.911C712.951 302.588 712.887 312.598 713.649 322.696C717.337 368.683 738.679 410.293 761.21 448.434C763.375 452.047 765.643 455.809 767.997 459.732C778.331 476.905 790.044 496.363 798.957 512.846C810.114 533.089 822.133 554.589 835.651 575.381L835.74 575.512C841.364 583.811 847.097 592.12 852.636 600.164L852.869 600.502C869.092 624.036 885.87 648.369 900.42 672.928C905.704 681.845 910.026 689.951 914.04 698.478C922.716 716.669 930.8 735.959 938.616 754.615C944.821 769.413 951.236 784.724 957.913 799.426C962.402 809.639 966.389 818.819 969.741 827.936L970.247 829.278C975.654 843.496 981.25 858.201 985.19 872.605C987.693 881.885 989.278 889.679 988.87 897.565L988.862 897.657C988.202 915.852 987.189 939.576 985.287 961.661C984.574 969.945 983.462 980.711 981.269 990.531C980.544 993.903 979.529 997.071 978.414 999.458C969.082 1016.7 959.967 1031.42 950.526 1044.49C946.129 1050.69 941.475 1057.18 937.303 1062.25C936.121 1063.64 933.438 1066.82 932.157 1067.67C918.22 1073.57 903.328 1078.83 888.914 1083.93L885.923 1084.99C879.992 1087.09 873.279 1089.47 867.821 1090.33C862.937 1091.14 859.691 1091.18 856.248 1090.47C855.672 1090.35 855.105 1090.21 854.494 1090.05L848.864 1088.49L846.301 1087.88C844.18 1087.34 840.067 1085.73 836.776 1084.45L836.575 1084.37C834.47 1083.55 832.485 1082.78 830.777 1082.18C822.079 1078.92 813.28 1075.84 805.826 1073.26L805.744 1073.23C795.076 1069.72 786.041 1062.08 776.474 1054C772.502 1050.65 768.393 1047.18 763.881 1043.74C756.443 1038.12 749.281 1033.55 742.608 1030.18C731.787 1024.65 719.232 1020.31 704.185 1016.88C686.728 1013.05 670.529 1011.2 654.672 1011.25C651.775 1011.27 647.996 1011.48 645.415 1011.67L644.223 1011.79C642.532 1011.96 642.188 1012.01 642.063 1012.03C641.914 1012.06 641.672 1012.08 641.406 1012.12C640.625 1012.22 639.734 1012.34 638.981 1012.48L638.046 1012.66C634.236 1013.38 630.294 1014.13 626.624 1014.5C615.597 1015.63 603.603 1015.21 591.986 1014.82C576.243 1014.28 559.969 1013.72 543.64 1016.56C540.954 1016.98 538.424 1017.56 535.981 1018.11L534.87 1018.36C534.522 1018.45 534.103 1018.56 533.637 1018.68L533.495 1018.72C532.965 1018.86 532.68 1018.93 532.522 1018.97L532.027 1019.08C529.82 1019.58 525.184 1020.56 521.108 1021.42L520.808 1021.49C517.086 1022.28 512.868 1023.17 510.505 1023.69C472.857 1031.9 433.685 1040.93 395.727 1049.67L389.295 1051.16C370.185 1055.74 351.577 1060.15 333.977 1063.83C329.875 1064.71 325.334 1065.68 320.486 1066.71L319.659 1066.88C302.503 1070.51 283.049 1074.63 268.777 1078.39C254.128 1082.22 238.534 1086.77 223.719 1094.12C218.704 1096.68 213.178 1098.82 206.334 1100.85C188.528 1106.14 168.78 1108.69 149.682 1111.16C142.604 1112.07 135.293 1113.01 128.147 1114.09C80.1716 1120.78 32.1204 1126.32 -14.6805 1130.57L-30.6074 1132.01" stroke="white" stroke-width="2" stroke-miterlimit="10"/>
</g>
</g>
<g style="mix-blend-mode:overlay" opacity="0.6">
<path d="M1531.88 420.445L1530.05 420.621L1529 420.799C1509.53 425.144 1488.5 428.673 1466.56 431.301C1455.97 432.506 1444.72 433.676 1433.87 433.599L1431.67 433.566L1428.2 433.257C1428.02 433.241 1427.82 433.231 1427.66 433.209C1410.33 430.672 1392.68 426.315 1375.61 422.111C1361.24 418.563 1331.27 412.053 1316.27 409.986C1304.96 408.432 1293.26 408.164 1282.01 407.342L1281.91 407.333C1272.74 406.664 1263.26 405.967 1253.81 405.197L1253.52 405.171C1231.39 403.984 1208.8 401.466 1186.93 399.035C1146 394.469 1103.67 389.748 1060.71 393.18L1060.33 393.216C1055 393.823 1048.78 394.614 1042.43 396.281L1042.29 396.322C1026.48 400.8 1010.03 404.627 994.119 408.332L994.001 408.36C984.468 410.578 974.612 412.876 964.89 415.309C962.822 415.82 960.738 416.329 958.607 416.85L958.307 416.924C935.102 422.575 911.116 428.419 890.073 443.629C872.804 455.916 861.849 474.038 854.201 488.847C846.996 475.134 841.249 462.206 836.729 449.565C830.597 432.465 825.623 414.239 820.804 396.607C817.332 383.905 813.751 370.768 809.75 358.096C805.089 342.346 799.837 326.629 793.679 310.005C793.217 308.775 792.712 307.324 792.201 305.866C791.955 305.157 791.709 304.448 791.474 303.794C787.502 291.325 784.796 281.023 782.937 271.36C780.656 259.667 779.357 247.266 778.108 235.264L777.87 232.988C776.215 216.339 775.278 200.565 775.077 186.061L775.07 185.883C774.469 169.629 773.345 152.387 772.258 135.696C771.206 119.565 770.118 102.882 769.526 87.3932C769.452 85.3558 769.375 82.1367 769.379 80.1834L769.376 64.9326" stroke="white" stroke-width="2" stroke-miterlimit="10"/>
</g>
<g opacity="0.7">
<g style="mix-blend-mode:overlay">
<path d="M-13.0171 1207.58L-3.39715 1205.42C36.9579 1196.37 78.1394 1188.28 117.969 1180.46L132.951 1177.49L141.013 1175.83C147.119 1174.72 153.532 1173.64 159.207 1172.68C180.515 1169.08 202.544 1165.37 224.154 1158.28C232.51 1155.57 240.174 1152.49 246.928 1149.13L251.066 1146.97L252.411 1146.26C257.319 1143.77 262.622 1141.62 269.586 1139.29C284.625 1134.28 300.649 1130.45 314.446 1127.26C329.22 1124.01 344.388 1120.52 359.065 1117.15C375.754 1113.3 393.018 1109.33 409.789 1105.69C448.415 1097.86 489.73 1094.25 529.699 1090.77L537.629 1090.07L537.73 1090.07C538.845 1089.94 539.803 1089.85 540.754 1089.76C542.576 1089.58 544.298 1089.41 546.863 1089.05L546.941 1089.04C552.706 1088.12 558.198 1087.84 565.309 1088.11C571.073 1088.33 577.39 1088.84 584.099 1089.38C594.25 1090.2 604.745 1091.05 614.688 1090.99C624.6 1091.02 634.028 1090.33 642.767 1088.97L645.262 1088.44L648.407 1087.98C648.855 1087.88 649.303 1087.79 649.736 1087.71L651.662 1087.32L652.461 1087.19C655.583 1086.91 658.65 1086.97 661.716 1087.06C679.627 1087.88 695.031 1090.75 707.502 1095.61C711.754 1097.38 715.518 1099.51 720.479 1102.95C724.042 1105.43 727.604 1108.18 731.39 1111.11C736.462 1115.03 741.715 1119.09 747.334 1122.76C756.434 1128.88 766.695 1134.11 776.219 1137.47C781.809 1139.47 787.477 1140.94 792.957 1142.36C795.817 1143.1 798.768 1143.88 801.727 1144.73L801.81 1144.75C804.307 1145.41 807.243 1146.26 810.081 1147.08L810.179 1147.11C817.782 1149.31 826.386 1151.81 833.454 1152.91C841.049 1154.43 849.881 1156 858.595 1155.61C872.492 1155.21 886.5 1151.73 902.681 1144.65C904.657 1143.79 907.431 1142.55 910.125 1141.34C912.24 1140.4 914.315 1139.47 915.994 1138.73L917.571 1138.01C931.233 1131.82 945.363 1125.41 958.986 1118.1L959.221 1117.96C968.761 1112.37 975.386 1104.29 981.141 1096.37C985.656 1090.05 989.593 1083.64 993.394 1077.44L995.282 1074.37C1003.59 1061.13 1011.92 1045.96 1020.07 1029.23C1020.43 1028.48 1020.92 1027.5 1021.42 1026.5C1022.12 1025.11 1022.83 1023.68 1023.33 1022.62C1025.21 1018.63 1026.82 1014.16 1027.88 1010C1032.96 989.328 1033.72 968.716 1034.45 948.758C1034.64 943.332 1034.85 937.721 1035.15 932.095C1035.6 920.221 1035.97 908.393 1036.24 896.935L1036.25 896.843C1036.25 896.372 1036.25 895.886 1036.26 895.338L1036.26 895.238C1036.28 893.378 1036.3 891.272 1036.15 889.243C1035.74 880.489 1034.47 871.805 1032.97 862.151C1030.25 845.253 1027.81 827.623 1025.06 804.962C1020.59 770.35 1009.87 735.128 992.313 697.29C983.909 678.999 975.747 663.71 967.33 650.514C957.853 636.028 942.364 618.219 927.38 600.98C918.335 590.585 908.094 578.794 900.181 568.616C888.609 553.727 887.288 548.961 887.254 547.607C886.819 528.264 901.217 490.695 916.596 478.735C930.708 467.395 949.596 462.002 967.858 456.791C970.385 456.074 972.905 455.348 975.426 454.615C987.153 451.163 999.254 447.946 1010.97 444.834C1024.98 441.114 1039.47 437.259 1053.63 432.928C1071.15 429.118 1089.44 429.123 1109.76 429.501C1124.74 429.968 1140.28 431.041 1155.95 432.712C1193.75 436.806 1234.22 440.226 1273.37 443.538C1281.77 444.246 1290.09 444.954 1298.23 445.647L1300.48 445.847C1303.85 446.147 1312.81 446.928 1316.36 447.452C1333.61 450.391 1351.04 455.006 1367.92 459.479C1383.43 463.592 1399.46 467.836 1415.79 470.917C1420.32 471.722 1424.93 472.339 1429.12 472.712L1429.47 472.743C1441.07 473.357 1452.66 472.774 1463.88 472.204L1464.16 472.19C1474.44 471.653 1485.43 470.954 1496.06 470.27L1496.16 470.263C1509.42 469.419 1523.14 468.546 1535.88 467.957" stroke="white" stroke-width="2" stroke-miterlimit="10"/>
</g>
<g style="mix-blend-mode:overlay">
<path d="M714.01 71.6316L715.125 94.4327C716.811 124.713 718.56 156.026 718.061 186.313C717.345 203.476 717.281 222.705 717.847 245.087C717.949 249.405 718.099 253.712 718.247 257.871L718.255 258.042C718.486 264.649 718.728 271.481 718.771 278.373C718.85 283.129 718.816 288.122 718.788 292.945C718.726 302.507 718.657 312.4 719.405 322.227C722.995 367.047 743.993 407.932 766.169 445.462C768.334 449.075 770.594 452.836 772.95 456.744C783.325 473.975 795.078 493.506 804.017 510.045C815.121 530.19 827.079 551.585 840.474 572.196L840.523 572.262C846.154 580.569 851.893 588.894 857.446 596.955L857.624 597.21C873.903 620.827 890.742 645.25 905.394 669.965C910.772 679.037 915.173 687.297 919.258 695.977C927.985 714.289 936.089 733.619 943.943 752.363C950.135 767.137 956.538 782.408 963.202 797.085C967.731 807.379 971.748 816.655 975.137 825.867L975.637 827.186C981.095 841.539 986.74 856.381 990.762 871.078C993.41 880.888 995.082 889.183 994.629 897.838C993.963 916.102 992.95 939.919 991.029 962.126C990.3 970.593 989.167 981.604 986.909 991.712C986.079 995.569 984.889 999.231 983.567 1002.03C974.094 1019.55 964.826 1034.51 955.228 1047.8C950.77 1054.09 946.045 1060.68 941.7 1065.95C939.664 1068.35 936.878 1071.63 934.759 1072.8C920.571 1078.82 905.456 1084.17 890.834 1089.34L887.844 1090.4C881.682 1092.58 874.69 1095.05 868.769 1095.99C863.189 1096.91 859.225 1096.94 855.085 1096.09C854.394 1095.95 853.714 1095.78 852.953 1095.58L847.323 1094.02L844.926 1093.45C842.471 1092.83 838.322 1091.21 834.657 1089.79L834.56 1089.75C832.448 1088.93 830.448 1088.15 828.793 1087.57C820.125 1084.32 811.393 1081.26 803.924 1078.68C792.198 1074.82 782.768 1066.85 772.734 1058.37C768.812 1055.06 764.754 1051.63 760.386 1048.3C753.224 1042.88 746.347 1038.5 739.97 1035.28C729.585 1029.97 717.479 1025.78 702.931 1022.48C685.89 1018.73 670.105 1016.93 654.672 1016.98C651.938 1017 648.313 1017.2 645.841 1017.39L645.506 1017.42C645.397 1017.43 645.14 1017.46 644.852 1017.48L644.766 1017.49C644.416 1017.52 643.239 1017.64 642.918 1017.69C642.738 1017.72 642.449 1017.76 642.137 1017.8C641.402 1017.9 640.597 1018 640.04 1018.11L639.136 1018.28C635.185 1019.03 631.109 1019.81 627.198 1020.2C615.781 1021.37 603.579 1020.96 591.786 1020.55C576.32 1020.02 560.331 1019.47 544.574 1022.21C542.06 1022.61 539.609 1023.16 537.245 1023.69L536.205 1023.93C535.89 1024 535.51 1024.1 535.107 1024.21L534.964 1024.25C534.062 1024.49 533.732 1024.56 533.613 1024.59L533.291 1024.65C531.061 1025.16 526.599 1026.11 522.278 1027.02L521.979 1027.09C518.06 1027.91 514.015 1028.77 511.714 1029.28C474.083 1037.48 434.895 1046.52 397 1055.25L390.615 1056.72C371.466 1061.31 352.819 1065.73 335.178 1069.42C331.045 1070.31 326.473 1071.28 321.664 1072.3L320.838 1072.47C303.736 1076.1 284.36 1080.2 270.223 1083.92C255.874 1087.67 240.63 1092.12 226.323 1099.22C220.985 1101.94 215.147 1104.2 207.962 1106.34C189.72 1111.76 169.738 1114.34 150.404 1116.84C143.334 1117.76 136.023 1118.7 128.925 1119.77C80.8708 1126.47 32.7257 1132.02 -14.1839 1136.28L-23.9846 1137.17" stroke="white" stroke-width="2" stroke-miterlimit="10"/>
</g>
</g>
<g style="mix-blend-mode:overlay" opacity="0.7">
<path d="M1532.03 426.211L1530.66 426.359L1530.25 426.431C1510.59 430.814 1489.37 434.387 1467.21 437.034C1456.44 438.262 1444.98 439.452 1433.78 439.367L1431.37 439.33L1427.93 439.024C1427.55 438.991 1427.16 438.964 1426.82 438.918C1409.21 436.341 1391.43 431.949 1374.22 427.709C1358.51 423.833 1342.25 419.825 1325.68 417.054L1315.78 415.734C1304.46 414.773 1292.83 413.917 1281.59 413.095L1281.49 413.086C1272.28 412.414 1262.77 411.715 1253.35 410.947L1253.21 410.935C1230.92 409.741 1208.24 407.207 1186.29 404.762C1145.62 400.227 1103.56 395.538 1061.17 398.927L1060.99 398.942C1055.86 399.528 1049.88 400.287 1043.95 401.844L1043.87 401.867C1027.93 406.381 1011.43 410.218 995.436 413.939C985.887 416.164 976.015 418.46 966.286 420.892C964.209 421.41 962.126 421.912 959.978 422.439L959.678 422.513C937.018 428.035 913.586 433.735 893.425 448.313C876.609 460.277 865.994 478.398 858.597 492.906C857.165 495.813 855.811 498.704 854.554 501.558C844.617 483.826 836.981 467.394 831.306 451.5C825.1 434.185 820.103 415.88 815.25 398.113C811.789 385.45 808.212 372.353 804.25 359.769C799.618 344.123 794.404 328.509 788.295 312.02C787.801 310.71 787.28 309.196 786.768 307.746C786.516 307.013 786.257 306.287 786.023 305.618C781.965 292.887 779.196 282.347 777.288 272.456C774.96 260.512 773.649 247.986 772.38 235.859L772.137 233.551C770.466 216.739 769.52 200.802 769.321 186.19L769.33 186.091C768.728 169.93 767.599 152.749 766.516 136.097C765.46 119.919 764.369 103.181 763.778 87.5926C763.702 85.5009 763.625 82.1969 763.626 80.1816L763.627 70.7997" stroke="white" stroke-width="2" stroke-miterlimit="10"/>
</g>
<g opacity="0.9">
<g style="mix-blend-mode:overlay">
<path d="M-6.99663 1198.74L-4.99552 1198.3C35.5015 1189.22 76.793 1181.11 116.724 1173.27L131.471 1170.34L139.652 1168.65C145.75 1167.54 151.966 1166.49 157.971 1165.48C179.02 1161.93 200.782 1158.25 221.899 1151.33C229.922 1148.73 237.216 1145.8 243.615 1142.62L247.623 1140.53L249.058 1139.76C254.315 1137.09 259.93 1134.81 267.276 1132.35C282.618 1127.24 298.871 1123.35 312.88 1120.11C327.592 1116.88 342.759 1113.4 357.429 1110.02C374.173 1106.17 391.484 1102.18 408.341 1098.53C447.384 1090.61 488.909 1086.98 529.065 1083.48L536.917 1082.8C538.079 1082.67 539.068 1082.57 540.019 1082.48C541.771 1082.31 543.422 1082.15 545.792 1081.81C552.059 1080.81 557.977 1080.51 565.588 1080.8C571.476 1081.02 577.877 1081.54 584.662 1082.09C594.667 1082.9 605.017 1083.73 614.712 1083.68C626.91 1083.71 638.264 1082.63 648.454 1080.5L648.824 1080.42L650.396 1080.11L651.57 1079.93C655.176 1079.58 658.599 1079.65 662.049 1079.75C680.783 1080.61 697.02 1083.67 710.266 1088.84C715.039 1090.83 719.208 1093.18 724.657 1096.95C728.373 1099.53 732.007 1102.34 735.858 1105.32C740.822 1109.16 745.959 1113.13 751.417 1116.7C760.022 1122.49 769.707 1127.42 778.683 1130.59C783.975 1132.48 789.477 1133.91 794.797 1135.3C797.718 1136.06 800.737 1136.85 803.696 1137.7C806.26 1138.38 809.151 1139.22 812.208 1140.1C819.661 1142.25 828.107 1144.7 834.742 1145.72C841.972 1147.17 850.348 1148.67 858.388 1148.31C871.316 1147.94 884.466 1144.65 899.771 1137.95C901.731 1137.1 904.465 1135.88 907.135 1134.68C909.266 1133.72 911.357 1132.78 912.98 1132.07L914.558 1131.35C928.115 1125.21 942.131 1118.85 955.528 1111.65C963.91 1106.74 969.925 1099.36 975.195 1092.11C979.552 1086.01 983.425 1079.71 987.172 1073.61C987.813 1072.56 988.463 1071.51 989.095 1070.48C997.264 1057.46 1005.46 1042.53 1013.47 1026.08C1013.85 1025.29 1014.36 1024.27 1014.89 1023.22C1015.55 1021.87 1016.25 1020.48 1016.72 1019.48C1018.4 1015.9 1019.85 1011.91 1020.78 1008.24C1025.68 988.287 1026.42 968.06 1027.14 948.503C1027.34 943.038 1027.55 937.389 1027.85 931.802C1028.3 919.996 1028.66 908.237 1028.94 896.818C1028.94 896.278 1028.94 895.722 1028.95 895.167C1028.97 893.323 1028.99 891.41 1028.85 889.676C1028.47 881.256 1027.22 872.759 1025.76 863.309C1023.02 846.309 1020.56 828.608 1017.81 805.893C1013.44 772.039 1002.92 737.506 985.672 700.337C977.41 682.352 969.414 667.371 961.214 654.511C952.01 640.442 936.681 622.817 921.865 605.779C901.367 582.204 880.176 557.827 879.949 547.776C879.457 526.212 894.451 486.712 912.021 473.047C927.281 460.782 946.89 455.182 965.857 449.772C968.369 449.053 970.872 448.341 973.362 447.613C985.152 444.144 997.292 440.915 1009.04 437.79C1023.11 434.052 1037.64 430.193 1051.79 425.853C1070.17 421.812 1089.03 421.805 1110 422.202C1125.13 422.667 1140.86 423.764 1156.76 425.448C1194.33 429.522 1234.83 432.945 1273.98 436.249C1282.39 436.957 1290.71 437.667 1298.89 438.363L1300.87 438.538C1305.75 438.972 1313.92 439.698 1317.55 440.238C1335.14 443.23 1352.75 447.899 1369.77 452.409C1385.16 456.488 1401.07 460.705 1417.07 463.719C1421.39 464.481 1425.75 465.069 1429.75 465.425L1429.87 465.436C1441.08 466.031 1452.49 465.455 1463.52 464.899L1463.79 464.883C1474.07 464.346 1485.07 463.641 1495.71 462.965C1509.02 462.117 1522.78 461.241 1535.56 460.647" stroke="white" stroke-width="2" stroke-miterlimit="10"/>
</g>
<g style="mix-blend-mode:overlay">
<path d="M721.649 78.8125L722.422 94.0004C724.116 124.451 725.872 155.942 725.368 186.538C724.658 203.563 724.589 222.66 725.158 244.926C725.261 249.236 725.415 253.59 725.558 257.795C725.791 264.465 726.035 271.366 726.079 278.258C726.16 283.076 726.129 288.116 726.097 292.985C726.032 302.408 725.969 312.147 726.691 321.655C730.166 364.997 750.727 404.971 772.44 441.719C774.598 445.323 776.859 449.077 779.181 452.928C789.602 470.247 801.417 489.869 810.422 506.53C821.459 526.561 833.344 547.825 846.577 568.175C852.208 576.49 858.009 584.897 863.61 593.024C879.971 616.756 896.892 641.302 911.685 666.254C917.184 675.538 921.691 683.985 925.86 692.849C934.666 711.315 942.801 730.733 950.668 749.509C956.847 764.251 963.237 779.49 969.894 794.167C974.466 804.573 978.529 813.945 981.976 823.286L982.477 824.605C987.997 839.118 993.712 854.136 997.825 869.188C1000.65 879.671 1002.44 888.602 1001.94 898.124C1001.26 916.481 1000.25 940.413 998.315 962.781C997.564 971.478 996.396 982.795 994.051 993.274C993.09 997.752 991.681 1002.04 990.081 1005.37C980.423 1023.23 970.973 1038.5 961.19 1052.05C956.652 1058.45 951.847 1065.16 947.278 1070.7C944.629 1073.82 941.343 1077.7 937.883 1079.44C923.413 1085.59 908.09 1091.01 893.277 1096.26L890.288 1097.31C883.822 1099.6 876.495 1102.19 869.964 1103.22C863.435 1104.31 858.693 1104.32 853.604 1103.28C852.77 1103.1 851.938 1102.91 851.003 1102.65L845.373 1101.09L843.134 1100.57C840.242 1099.84 835.869 1098.13 832.01 1096.63C829.891 1095.8 827.882 1095.03 826.273 1094.46C817.664 1091.23 809.007 1088.2 801.643 1085.65C788.567 1081.35 778.612 1072.94 768.076 1064.04C764.205 1060.77 760.197 1057.38 755.98 1054.17C749.172 1049.02 742.661 1044.87 736.646 1041.83C726.808 1036.8 715.27 1032.82 701.366 1029.66C684.855 1026.03 669.59 1024.29 654.699 1024.33C652.165 1024.34 648.781 1024.53 646.464 1024.71L646.379 1024.72C646.246 1024.74 645.88 1024.77 645.483 1024.81C644.859 1024.87 644.166 1024.94 644.025 1024.96C643.805 1025 643.462 1025.04 643.087 1025.09C642.478 1025.17 641.805 1025.26 641.413 1025.33L640.518 1025.49C636.41 1026.28 632.161 1027.08 627.946 1027.5C616.031 1028.73 603.575 1028.3 591.535 1027.89C576.438 1027.37 560.826 1026.83 545.713 1029.46C543.449 1029.82 541.109 1030.35 538.848 1030.85L537.91 1031.06C537.61 1031.14 537.239 1031.24 536.843 1031.34C536.195 1031.51 535.451 1031.71 534.988 1031.79L534.91 1031.81C532.585 1032.34 527.997 1033.31 523.55 1034.25C519.434 1035.12 515.547 1035.94 513.262 1036.46C475.772 1044.63 436.561 1053.66 398.634 1062.4L392.312 1063.86C373.132 1068.45 354.445 1072.88 336.718 1076.6C332.348 1077.54 327.492 1078.57 322.384 1079.65C305.346 1083.27 286.033 1087.36 272.07 1091.03C258.101 1094.68 243.285 1098.99 229.641 1105.76C223.89 1108.7 217.66 1111.11 210.039 1113.37C191.225 1118.96 170.947 1121.58 151.34 1124.11C144.294 1125.02 136.999 1125.97 129.931 1127.03C81.7599 1133.75 33.4902 1139.32 -13.521 1143.59L-15.5603 1143.77" stroke="white" stroke-width="2" stroke-miterlimit="10"/>
</g>
</g>
<g style="mix-blend-mode:overlay" opacity="0.9">
<path d="M1532.22 433.517L1531.84 433.561C1511.94 438 1490.47 441.612 1468.04 444.289C1457.04 445.543 1445.34 446.757 1433.66 446.669L1430.99 446.624L1427.36 446.302C1426.81 446.253 1426.29 446.214 1425.76 446.136C1407.81 443.505 1389.85 439.075 1372.47 434.789C1356.89 430.948 1340.77 426.967 1324.55 424.259L1319.99 423.544L1315.17 422.999C1303.84 422.039 1292.22 421.183 1280.97 420.361C1271.73 419.685 1262.17 418.982 1252.82 418.221C1230.32 417.008 1207.54 414.473 1185.49 412.011C1145.16 407.514 1103.46 402.865 1061.82 406.19C1056.94 406.751 1051.28 407.46 1045.85 408.878C1029.75 413.438 1013.17 417.3 997.13 421.024C987.597 423.242 977.733 425.539 968.035 427.966C965.832 428.512 963.622 429.049 961.404 429.593C939.423 434.943 916.7 440.483 897.654 454.249C882.132 465.293 872.132 482.411 865.145 496.114C861.368 503.77 858.23 511.189 855.79 518.223C854.511 516.102 853.21 513.894 851.857 511.565C839.895 490.989 830.922 472.145 824.416 453.953C818.111 436.366 813.072 417.919 808.203 400.073C804.761 387.459 801.195 374.416 797.232 361.84C792.641 346.344 787.482 330.89 781.442 314.585C780.924 313.195 780.383 311.641 779.86 310.143C779.595 309.386 779.338 308.629 779.09 307.951C774.923 294.886 772.072 284.046 770.113 273.857C767.721 261.598 766.394 248.901 765.108 236.617L764.861 234.271C763.17 217.249 762.208 201.141 762.009 186.359C761.421 170.299 760.297 153.157 759.216 136.568C758.158 120.327 757.063 103.543 756.466 87.846C756.394 85.7083 756.312 82.288 756.306 80.1795L756.302 78.2255" stroke="white" stroke-width="2" stroke-miterlimit="10"/>
</g>
<g style="mix-blend-mode:overlay">
<path d="M-5.41502 1196.41C37.2955 1186.84 79.9882 1178.52 122.969 1170.08L131.09 1168.45L139.31 1166.76C166.748 1161.78 194.318 1158.35 221.305 1149.5C228.373 1147.21 235.833 1144.34 242.732 1140.91L246.724 1138.83L248.199 1138.05C254.134 1135.04 260.132 1132.72 266.674 1130.53C281.586 1125.56 297.063 1121.8 312.468 1118.24C343.915 1111.33 376.238 1103.52 407.959 1096.65C449.653 1088.19 494.224 1084.62 536.708 1080.89C540.008 1080.52 541.94 1080.41 545.49 1079.92C552.304 1078.83 558.363 1078.6 565.659 1078.87C580.335 1079.42 598.56 1081.84 614.713 1081.76C625.622 1081.78 637.184 1080.89 648.066 1078.61L649.277 1078.36L649.883 1078.24C650.173 1078.18 650.039 1078.21 650.086 1078.2C650.102 1078.2 650.117 1078.21 650.142 1078.18L650.471 1078.14L650.636 1078.11L650.885 1078.08L651.385 1078.02C654.998 1077.67 658.384 1077.72 662.134 1077.84C678.438 1078.58 695.756 1081.13 711.003 1087.07C716.304 1089.28 720.655 1091.84 725.754 1095.38C734.407 1101.41 742.919 1108.85 752.485 1115.11C760.514 1120.51 769.942 1125.48 779.322 1128.79C787.428 1131.69 795.949 1133.46 804.184 1135.85C813.108 1138.22 825.9 1142.43 835.071 1143.84C842.506 1145.33 850.619 1146.76 858.333 1146.41C872.902 1145.99 886.208 1141.8 899.007 1136.21C902.524 1134.68 908.584 1131.93 912.184 1130.34C926.258 1123.95 940.76 1117.43 954.553 1110.02C962.658 1105.27 968.45 1098.14 973.624 1091.02C978.686 1083.94 983.049 1076.64 987.462 1069.48C996.35 1055.31 1004.46 1040.24 1011.73 1025.28C1012.59 1023.48 1014.14 1020.47 1014.96 1018.69C1016.66 1015.11 1018.03 1011.25 1018.9 1007.81C1025.12 982.515 1024.56 957.185 1025.91 931.761C1026.35 920.125 1026.72 908.466 1027 896.839C1027.01 894.554 1027.1 892.029 1026.92 889.79C1026.52 881.098 1025.15 872.042 1023.85 863.641C1020.72 844.306 1018.22 825.451 1015.88 806.162C1011.12 769.199 999.409 734.553 983.907 701.161C976.809 685.719 968.84 670.092 959.589 655.587C937.222 621.422 878.429 566.011 878.014 547.835C877.51 525.536 892.635 485.693 910.801 471.564C928.39 457.429 951.234 452.093 972.806 445.78C998.727 438.147 1025.31 431.978 1051.28 424.009C1070.39 419.8 1090.44 419.931 1110.03 420.29C1125.67 420.777 1141.33 421.891 1156.95 423.55C1202.62 428.499 1253.03 432.525 1299.05 436.462C1303.55 436.862 1313.58 437.715 1317.86 438.358C1351.41 444.067 1383.78 455.5 1417.4 461.84C1421.46 462.557 1425.8 463.167 1429.95 463.536C1441.16 464.13 1452.64 463.545 1463.67 462.989C1486.73 461.781 1512.38 459.821 1535.46 458.754" stroke="white" stroke-width="2" stroke-miterlimit="10"/>
</g>
<g style="mix-blend-mode:overlay">
<path d="M723.658 80.7053C723.658 80.7053 727.85 152.975 727.291 186.624C726.485 205.856 726.592 225.672 727.085 244.881C727.346 256.016 727.945 266.988 728.012 278.229C728.25 292.227 727.52 307.119 728.611 321.509C732.079 364.758 752.428 404.072 774.087 440.738C786.054 460.728 801.101 485.254 812.101 505.614C823.558 526.4 835.182 547.132 848.162 567.104C870.259 599.708 893.443 631.722 913.331 665.281C918.596 674.158 923.235 682.778 927.586 692.022C943.322 725.042 956.491 760.003 971.654 793.389C975.828 802.887 980.191 812.881 983.766 822.604C989.536 837.78 995.411 853.09 999.676 868.689C1002.34 878.539 1004.38 888.103 1003.86 898.195C1003.08 919.484 1002.05 941.793 1000.23 962.944C999.338 973.242 998.147 983.777 995.93 993.68C995.008 997.976 993.573 1002.56 991.794 1006.25C983.068 1022.4 973.475 1038.33 962.759 1053.16C958.3 1059.45 953.441 1066.25 948.742 1071.94C945.766 1075.45 942.449 1079.32 938.693 1081.18C923.188 1087.78 906.986 1093.44 890.929 1099.13C884.328 1101.46 876.946 1104.07 870.281 1105.12C864.081 1106.15 858.93 1106.34 853.212 1105.17C852.332 1104.99 851.456 1104.77 850.482 1104.51L847.16 1103.58L844.92 1102.98L843.484 1102.63L842.666 1102.44C838.075 1101.28 830.281 1097.92 825.602 1096.27C817.472 1093.22 809.236 1090.32 801.048 1087.49C782.668 1081.43 770.33 1067.52 754.824 1055.71C749.196 1051.45 742.59 1046.98 735.783 1043.55C724.852 1037.96 712.698 1034.21 700.967 1031.55C685.66 1028.19 670.484 1026.22 654.72 1026.26C652.302 1026.27 649.043 1026.45 646.625 1026.63C646.29 1026.67 644.569 1026.83 644.326 1026.87C643.755 1026.95 642.366 1027.12 641.785 1027.22C637.277 1028.08 632.75 1028.96 628.162 1029.42C601.245 1032.19 573.088 1026.66 546.03 1031.36C543.532 1031.76 540.906 1032.37 538.384 1032.95C537.547 1033.15 536.184 1033.54 535.36 1033.7C530.93 1034.71 518.533 1037.27 513.696 1038.35C474.127 1046.97 432.407 1056.61 392.785 1065.74C374.789 1070.05 355.224 1074.71 337.152 1078.49C318.429 1082.54 290.744 1088.12 272.583 1092.89C258.899 1096.47 243.972 1100.82 230.546 1107.48C224.181 1110.73 217.674 1113.13 210.616 1115.22C184.839 1122.88 156.959 1124.93 130.225 1128.94C82.8045 1135.55 34.3364 1141.18 -13.3209 1145.5" stroke="white" stroke-width="2" stroke-miterlimit="10"/>
</g>
<g style="mix-blend-mode:overlay">
<path d="M1532.26 435.444C1511.18 440.148 1489.7 443.643 1468.25 446.207C1456.71 447.521 1445.11 448.683 1433.63 448.597L1430.89 448.554L1428.2 448.314C1427.29 448.226 1426.42 448.187 1425.49 448.058C1391.35 443.062 1358.47 431.899 1324.27 426.179L1321.23 425.7L1319.71 425.465L1318.14 425.287L1315.01 424.939C1294.37 423.189 1273.32 421.835 1252.72 420.165C1188.97 416.737 1126.09 403.016 1062.04 408.124C1056.91 408.71 1051.54 409.399 1046.38 410.755C1020.67 418.036 994.553 423.343 968.5 429.861C944.56 435.794 919.426 440.911 898.772 455.838C884.437 466.038 874.713 481.606 866.875 496.986C863.098 504.642 859.253 513.497 856.31 522.795C854.232 519.413 852.205 515.99 850.202 512.545C839.44 494.029 829.835 474.821 822.62 454.612C811.823 424.502 804.982 392.791 795.4 362.388C790.612 346.233 785.437 330.878 779.652 315.259C778.866 313.159 778.06 310.763 777.27 308.53C773.726 297.413 770.505 286.038 768.236 274.215C765.679 261.108 764.361 247.802 762.96 234.457C761.397 218.69 760.317 202.262 760.104 186.421C758.935 154.666 755.761 119.666 754.561 87.9083C754.486 85.7163 754.403 82.3113 754.4 80.1721" stroke="white" stroke-width="2" stroke-miterlimit="10"/>
</g>
</g>
<defs>
<clipPath id="clip0_2791_2756">
<rect width="1515.01" height="1237.17" fill="white" transform="translate(64.2106 0.569458) rotate(5.08057)"/>
</clipPath>
</defs>
</svg>
