<svg width="393" height="340" viewBox="0 0 393 340" fill="none" xmlns="http://www.w3.org/2000/svg">
<path style="mix-blend-mode:overlay" d="M847.463 249.298L844.434 248.621C820.926 243.351 796.962 238.647 773.778 234.093L765.199 232.389L760.488 231.417C756.956 230.776 753.354 230.168 749.871 229.581C737.581 227.507 724.873 225.363 712.487 221.297C707.745 219.759 703.419 218.022 699.599 216.119L697.257 214.897L696.457 214.47C693.488 212.962 690.296 211.667 686.122 210.267C677.285 207.326 667.9 205.079 659.818 203.209C651.251 201.33 642.441 199.301 633.925 197.34C624.209 195.105 614.159 192.791 604.4 190.676C581.828 186.095 557.768 183.996 534.48 181.962L529.874 181.56C529.208 181.485 528.643 181.432 528.095 181.377C527.059 181.277 526.082 181.18 524.638 180.976C521.121 180.414 517.787 180.244 513.491 180.406C510.103 180.533 506.407 180.834 502.484 181.152C496.638 181.627 490.59 182.115 484.901 182.083C478.331 182.097 472.167 181.569 466.561 180.515L466.562 180.524L465.804 180.372C465.548 180.323 465.297 180.269 465.041 180.215L463.858 179.975L463.267 179.884C461.29 179.697 459.388 179.736 457.478 179.793C446.798 180.281 437.569 182.016 430.079 184.938C427.432 186.039 425.105 187.354 422.054 189.464C419.934 190.94 417.84 192.561 415.62 194.274C412.707 196.525 409.698 198.851 406.49 200.952C401.374 204.399 395.607 207.333 390.259 209.221C387.111 210.344 383.876 211.188 380.746 212C379.067 212.437 377.327 212.887 375.591 213.391C374.102 213.788 372.362 214.293 370.682 214.779C366.319 216.041 361.373 217.472 357.414 218.089C353.126 218.945 348.147 219.836 343.315 219.62C335.572 219.398 327.724 217.436 318.62 213.456C317.477 212.961 315.879 212.242 314.324 211.546C313.091 210.992 311.881 210.449 310.924 210.032L310.008 209.615C302.106 206.035 293.937 202.33 286.104 198.12L286.047 198.089C280.895 195.071 277.252 190.614 274.073 186.237C271.501 182.635 269.241 178.952 267.049 175.389L265.938 173.586C261.157 165.974 256.363 157.242 251.677 147.621C251.462 147.174 251.173 146.589 250.873 145.993C250.475 145.203 250.066 144.382 249.793 143.783C248.765 141.605 247.885 139.172 247.312 136.918C244.423 125.155 243.989 113.313 243.567 101.855C243.452 98.6902 243.331 95.4178 243.159 92.1637C242.897 85.2846 242.683 78.4416 242.526 71.7774C242.526 71.4814 242.522 71.1813 242.517 70.8722L242.513 70.8233C242.505 69.7252 242.494 68.5915 242.573 67.517C242.804 62.5451 243.531 57.5649 244.389 52.0259C245.981 42.1834 247.401 31.9212 249 18.7322C251.563 -1.11742 257.716 -21.3446 267.812 -43.0927C272.644 -53.6135 277.331 -62.3902 282.145 -69.9403C287.558 -78.212 296.498 -88.4924 305.144 -98.4419C315.743 -110.633 328.934 -125.807 329.051 -131.002C329.324 -143.019 320.672 -165.523 311.089 -172.972C302.506 -179.87 291.291 -183.071 280.45 -186.166C278.986 -186.583 277.527 -187 276.072 -187.427C269.238 -189.438 262.2 -191.311 255.37 -193.126C247.221 -195.289 238.792 -197.531 230.576 -200.048C220.111 -202.338 209.293 -202.34 197.28 -202.116C188.527 -201.844 179.433 -201.215 170.254 -200.238C148.363 -197.865 124.859 -195.879 102.116 -193.96C97.2326 -193.548 92.403 -193.137 87.6624 -192.733L86.5143 -192.631C84.4985 -192.452 79.1402 -191.985 76.9668 -191.661C66.8318 -189.935 56.6442 -187.235 46.7808 -184.623C37.8158 -182.247 28.544 -179.79 19.1705 -178.024C16.6094 -177.572 14.0125 -177.22 11.6541 -177.01L11.5206 -176.998C4.91395 -176.649 -1.75811 -176.984 -8.20974 -177.312L-8.36745 -177.32C-14.3467 -177.632 -20.7339 -178.042 -26.9269 -178.437C-34.649 -178.93 -42.6328 -179.44 -50.0409 -179.782" stroke="white" stroke-miterlimit="10"/>
<path style="mix-blend-mode:overlay" d="M424.642 -405.101L424.107 -394.415C423.124 -376.769 422.109 -358.528 422.399 -340.834C422.814 -330.914 422.853 -319.786 422.521 -306.826C422.463 -304.345 422.376 -301.848 422.29 -299.428L422.286 -299.329C422.149 -295.473 422.01 -291.482 421.985 -287.475C421.937 -284.69 421.958 -281.777 421.976 -278.953C422.012 -273.448 422.052 -267.752 421.626 -262.152C419.582 -236.617 407.529 -213.175 394.809 -191.642C393.556 -189.548 392.243 -187.363 390.887 -185.113C384.845 -175.076 377.995 -163.699 372.78 -154.05C366.354 -142.387 359.431 -130.003 351.694 -118.107C348.403 -113.249 345.042 -108.376 341.792 -103.665C332.306 -89.9044 322.497 -75.6761 313.937 -61.2359C310.77 -55.8953 308.179 -51.0364 305.78 -45.9345C300.684 -35.2468 295.967 -23.9917 291.405 -13.1047C287.812 -4.53298 284.097 4.33218 280.222 12.8617C277.577 18.878 275.229 24.2939 273.242 29.691L272.951 30.4569C269.76 38.8495 266.459 47.5253 264.089 56.1812C262.489 62.1046 261.479 67.1368 261.759 72.458C262.149 83.0976 262.741 96.9708 263.857 109.923C264.287 114.917 264.96 121.418 266.3 127.412C266.827 129.864 267.591 132.2 268.451 133.998C274.017 144.294 279.458 153.085 285.099 160.89C287.715 164.581 290.485 168.448 293.088 171.598C294.506 173.271 296.265 175.348 297.934 176.213C306.268 179.76 315.122 182.888 323.684 185.921L325.421 186.538C329.102 187.839 333.274 189.316 336.918 189.889C340.478 190.483 343.04 190.492 345.766 189.932C346.215 189.838 346.659 189.731 347.162 189.597L350.432 188.692L351.772 188.375C353.342 187.975 355.831 187.01 358.024 186.155C359.268 185.672 360.438 185.214 361.378 184.884C366.386 183.003 371.441 181.235 375.753 179.744C383.017 177.354 388.669 172.577 394.656 167.524C396.921 165.614 399.261 163.634 401.757 161.735C405.799 158.676 409.665 156.206 413.25 154.398C419.097 151.407 425.937 149.046 434.171 147.174C443.889 145.041 452.884 144.013 461.668 144.039C463.184 144.043 465.199 144.156 466.617 144.267L466.708 144.277C466.78 144.284 466.975 144.303 467.192 144.324C467.599 144.364 468.056 144.413 468.133 144.424C468.252 144.44 468.438 144.469 468.637 144.491C469.023 144.542 469.445 144.599 469.71 144.647L470.234 144.748C472.579 145.195 475.006 145.656 477.382 145.894C484.181 146.594 491.348 146.347 498.288 146.107C507.145 145.804 516.307 145.487 525.244 147.038C526.627 147.256 528.01 147.573 529.346 147.871L529.913 148C530.083 148.039 530.285 148.093 530.501 148.15L530.574 148.17C530.868 148.247 531.314 148.364 531.547 148.411L531.638 148.43C532.966 148.733 535.603 149.293 538.158 149.832L538.245 149.852C540.626 150.353 542.871 150.831 544.193 151.126C566.009 155.878 588.775 161.128 610.794 166.199L614.48 167.046C625.616 169.716 636.456 172.286 646.734 174.436C649.157 174.96 651.836 175.529 654.656 176.126L655.068 176.215C664.978 178.312 676.209 180.691 684.356 182.832C692.565 184.977 701.272 187.518 709.357 191.531C712.594 193.185 716.115 194.549 720.44 195.829C731.229 199.036 742.934 200.547 754.254 202.008C758.351 202.536 762.589 203.083 766.707 203.703C794.663 207.6 822.668 210.833 849.946 213.31L853.029 213.588" stroke="white" stroke-miterlimit="10"/>
<path style="mix-blend-mode:overlay" d="M856.665 262.801L841.993 259.513C818.678 254.288 794.827 249.601 771.762 245.067L762.946 243.317L758.363 242.375C754.899 241.745 751.261 241.131 748.065 240.595L747.996 240.583C735.306 238.441 722.188 236.226 709.045 231.914C703.78 230.207 698.929 228.257 694.622 226.115L692.045 224.774L691.301 224.378C688.859 223.146 686.166 222.063 682.583 220.861C674.222 218.075 665.191 215.918 657.379 214.109C648.82 212.229 640.052 210.21 631.568 208.26L631.408 208.224C621.774 206.009 611.815 203.714 602.134 201.615C580.193 197.166 556.453 195.092 533.491 193.088L528.854 192.684L528.623 192.659C528.021 192.592 527.505 192.539 526.957 192.489C525.862 192.38 524.731 192.27 523.006 192.028L522.86 192.006C520.107 191.564 517.423 191.435 513.892 191.57C510.727 191.689 507.151 191.98 503.326 192.289C497.257 192.779 490.983 193.288 484.903 193.254C481.836 193.262 478.817 193.159 475.883 192.948L473.817 192.567L463.626 191.334C463.329 191.275 463.037 191.216 462.794 191.165L461.913 190.988C460.667 190.893 459.301 190.92 457.897 190.964C448.534 191.393 440.573 192.854 434.234 195.306C432.406 196.078 430.712 197.05 428.417 198.635C426.53 199.951 424.545 201.486 422.409 203.138C419.345 205.505 416.177 207.953 412.68 210.246C406.806 214.195 400.164 217.575 393.998 219.747C390.377 221.042 386.896 221.948 383.525 222.822C381.929 223.237 380.277 223.667 378.672 224.128L378.444 224.189C377.081 224.552 375.442 225.025 373.824 225.492L373.763 225.511C369.167 226.839 363.964 228.346 359.361 229.088C354.526 230.051 348.878 231.042 342.904 230.784C333.703 230.508 324.564 228.257 314.154 223.706C312.978 223.196 311.334 222.459 309.732 221.74L309.652 221.707C308.471 221.175 307.317 220.659 306.341 220.23L305.355 219.784C297.294 216.128 288.956 212.348 280.79 207.966L280.374 207.729C273.452 203.671 268.883 198.139 264.958 192.729C262.161 188.812 259.795 184.959 257.509 181.237L256.439 179.494C251.449 171.542 246.456 162.446 241.59 152.46L241.568 152.417C241.381 152.026 241.125 151.515 240.835 150.93C240.415 150.093 239.984 149.226 239.657 148.524C238.341 145.725 237.199 142.566 236.452 139.619L236.439 139.575C233.277 126.702 232.822 114.27 232.378 102.218C232.264 99.1196 232.15 95.9185 231.978 92.6688L231.969 92.5753C231.713 85.6554 231.497 78.7363 231.335 71.9694L231.332 71.7814C231.332 71.5302 231.327 71.275 231.325 70.9972L231.318 70.9215C231.309 69.7651 231.294 68.3313 231.403 66.8371C231.665 61.3601 232.435 56.0935 233.345 50.236C234.913 40.5346 236.317 30.3904 237.906 17.2965C240.614 -3.70071 247.077 -24.9869 257.646 -47.7638C262.697 -58.7526 267.634 -67.9955 272.747 -76.0117L272.783 -76.0643C278.611 -84.9693 287.802 -95.5458 296.701 -105.778C301.873 -111.727 307.736 -118.469 312.195 -124.207C315.854 -128.914 317.318 -131.363 317.859 -132.384C317.481 -141.585 310.571 -159.225 304.162 -164.212L304.081 -164.277C297.256 -169.76 287.15 -172.647 277.371 -175.438C275.885 -175.862 274.403 -176.286 272.902 -176.722C266.201 -178.696 259.233 -180.548 252.48 -182.343C244.391 -184.494 236.026 -186.715 227.751 -189.24C218.596 -191.175 208.667 -191.167 197.581 -190.961C189.101 -190.696 180.306 -190.085 171.447 -189.145C149.431 -186.761 125.905 -184.773 103.144 -182.848L103.037 -182.839C98.1629 -182.428 93.3374 -182.021 88.6461 -181.617L87.2177 -181.49C81.5835 -180.998 79.4754 -180.748 78.7091 -180.64C69.1183 -178.998 59.2196 -176.377 49.6367 -173.839C40.4831 -171.415 31.0142 -168.905 21.1733 -167.048L21.1111 -167.042C18.2372 -166.527 15.2851 -166.134 12.5797 -165.894L12.1161 -165.861C4.92934 -165.478 -2.04035 -165.832 -8.77103 -166.171L-8.95141 -166.182C-14.9938 -166.496 -21.3898 -166.906 -27.5558 -167.299L-27.673 -167.307C-35.3183 -167.793 -43.2208 -168.297 -50.5569 -168.636" stroke="white" stroke-miterlimit="10"/>
<path style="mix-blend-mode:overlay" d="M436.314 -416.073L435.259 -393.783C434.289 -376.389 433.287 -358.405 433.565 -341.158C433.982 -331.019 434.024 -319.698 433.689 -306.563C433.627 -303.988 433.541 -301.468 433.452 -299.039L433.446 -298.908C433.314 -295.142 433.176 -291.246 433.151 -287.346L433.156 -287.289C433.105 -284.633 433.125 -281.787 433.142 -279.022C433.18 -273.293 433.218 -267.372 432.756 -261.267C430.527 -233.473 417.813 -208.635 404.388 -185.909C403.13 -183.806 401.809 -181.617 400.438 -179.337C394.462 -169.415 387.694 -158.17 382.56 -148.667C376.034 -136.825 368.995 -124.238 361.029 -111.981L360.938 -111.847C357.687 -107.051 354.377 -102.254 351.18 -97.6102L350.965 -97.2996C341.593 -83.7066 331.904 -69.6505 323.543 -55.5419C320.563 -50.5139 318.126 -45.9424 315.863 -41.1306C310.885 -30.691 306.219 -19.5571 301.694 -8.75861C298.079 -0.13552 294.341 8.78094 290.433 17.3897C287.871 23.2237 285.593 28.4719 283.704 33.6092L283.388 34.449C280.291 42.5865 277.092 51.0021 274.875 59.1018C273.552 63.9959 272.714 68.0485 272.918 71.9503L272.927 72.0571C273.305 82.5587 273.889 96.2442 274.984 108.965C275.388 113.607 276.004 119.629 277.218 125.065C277.539 126.552 277.979 127.971 278.432 128.984C283.711 138.723 288.859 147.038 294.178 154.396L294.204 154.434C296.696 157.948 299.318 161.612 301.63 164.416C302.542 165.492 303.074 166.077 303.38 166.395C311.108 169.628 319.388 172.556 327.408 175.395L329.14 176.008C332.363 177.148 336.021 178.442 338.7 178.863L338.746 178.872C341.213 179.281 342.397 179.225 343.507 178.996C343.731 178.949 343.955 178.898 344.174 178.838L347.444 177.933L349.069 177.542C350.019 177.287 352.477 176.333 353.943 175.763L354.125 175.693C355.347 175.217 356.505 174.768 357.548 174.398C362.657 172.481 367.785 170.689 372.132 169.181L372.249 169.139C377.456 167.425 382.316 163.32 387.472 158.964C389.829 156.974 392.265 154.914 395.005 152.832C399.581 149.366 404.012 146.546 408.154 144.455C414.838 141.04 422.548 138.363 431.762 136.27C442.293 133.957 452.084 132.844 461.689 132.874C463.519 132.882 465.868 133.014 467.457 133.133L468.262 133.209C469.248 133.305 469.58 133.352 469.798 133.382L470.07 133.416C470.61 133.489 471.187 133.568 471.729 133.663L472.327 133.776C474.425 134.173 476.596 134.585 478.506 134.778C484.54 135.399 491.327 135.164 497.896 134.938C507.299 134.618 517.024 134.283 527.045 136.016C528.76 136.289 530.298 136.637 531.799 136.979L532.518 137.143C532.752 137.199 533.028 137.273 533.34 137.353L533.441 137.38C533.62 137.427 533.74 137.461 533.808 137.477L534.105 137.541C535.305 137.815 537.878 138.358 540.145 138.838L540.538 138.92C542.709 139.377 545.169 139.898 546.555 140.21C568.431 144.979 591.201 150.225 613.225 155.299L617.021 156.173L617.066 156.182C628.119 158.828 638.877 161.383 649.077 163.517C651.455 164.032 654.084 164.588 656.886 165.182L657.366 165.283C667.39 167.406 678.753 169.813 687.162 172.025C695.946 174.321 705.321 177.067 714.358 181.551L714.41 181.578C717.022 182.911 719.943 184.037 723.596 185.12C733.528 188.072 744.78 189.525 755.705 190.935C759.816 191.467 764.067 192.017 768.249 192.645C796.019 196.518 823.833 199.728 850.926 202.185L865.883 203.547" stroke="white" stroke-miterlimit="10"/>
<path style="mix-blend-mode:overlay" d="M852.245 256.318L843.161 254.282C819.763 249.039 795.867 244.341 772.747 239.8L764.017 238.069L759.376 237.113C755.875 236.478 752.187 235.855 748.931 235.306L748.881 235.297C736.387 233.188 723.465 231.009 710.691 226.816C705.68 225.19 701.071 223.339 697.002 221.315L694.515 220.02L693.757 219.616C691.061 218.255 688.135 217.066 684.27 215.773C675.678 212.913 666.472 210.709 658.555 208.879C649.992 206.998 641.205 204.976 632.708 203.023L632.607 203C622.928 200.775 612.919 198.472 603.228 196.369C580.981 191.853 557.074 189.767 533.959 187.749L529.321 187.345L529.217 187.337C528.588 187.267 528.045 187.212 527.506 187.161C526.411 187.052 525.38 186.951 523.795 186.729L523.713 186.718C520.592 186.22 517.596 186.069 513.698 186.218C510.413 186.34 506.779 186.636 502.932 186.947C496.965 187.428 490.798 187.927 484.902 187.895C480.207 187.904 475.672 187.648 471.383 187.132L468.572 186.53L464.669 186.07C464.395 186.018 464.121 185.962 463.874 185.907L462.837 185.694L462.56 185.652C460.973 185.515 459.357 185.546 457.702 185.595C447.701 186.054 439.133 187.645 432.239 190.321C430.021 191.249 428.023 192.387 425.366 194.224C423.364 195.617 421.324 197.198 419.154 198.871C416.158 201.187 413.061 203.579 409.725 205.764C404.211 209.474 397.985 212.643 392.206 214.681C388.816 215.893 385.453 216.766 382.188 217.617C380.552 218.041 378.86 218.483 377.19 218.963L377.072 218.996C375.648 219.374 373.965 219.864 372.342 220.331L372.281 220.35C367.799 221.646 362.718 223.116 358.42 223.803C353.845 224.712 348.525 225.66 343.109 225.42C334.605 225.171 326.08 223.059 316.295 218.78C315.138 218.277 313.512 217.552 311.933 216.84L311.854 216.802C310.658 216.267 309.494 215.743 308.51 215.31L307.589 214.894C299.603 211.276 291.345 207.534 283.338 203.227L283.092 203.092C277.022 199.533 272.898 194.517 269.331 189.605C266.642 185.839 264.324 182.067 262.085 178.422L261.004 176.661C256.114 168.871 251.212 159.942 246.421 150.102C246.222 149.68 245.95 149.135 245.656 148.551C245.246 147.731 244.821 146.88 244.527 146.243C243.344 143.738 242.331 140.921 241.657 138.286C238.627 125.944 238.179 113.789 237.748 102.036C237.636 98.9111 237.515 95.6748 237.342 92.4161L237.337 92.3672C237.079 85.4832 236.862 78.5957 236.704 71.8778L236.704 71.7702C236.702 71.5057 236.7 71.2323 236.696 70.9322L236.69 70.8655C236.684 69.7314 236.668 68.45 236.764 67.1543C237.011 61.9163 237.762 56.786 238.646 51.0878C240.225 41.3136 241.637 31.1104 243.232 17.9801C245.868 -2.46355 252.184 -23.2432 262.527 -45.5292C267.472 -56.2933 272.29 -65.3104 277.277 -73.1315C282.908 -81.7365 291.977 -92.1675 300.754 -102.263C305.974 -108.266 311.891 -115.071 316.434 -120.92C322.185 -128.32 323.112 -130.865 323.239 -131.302C323.387 -141.64 315.534 -162.164 307.484 -168.423L307.441 -168.455C299.771 -174.617 289.131 -177.654 278.846 -180.592C277.369 -181.012 275.901 -181.433 274.423 -181.867C267.648 -183.861 260.638 -185.723 253.863 -187.525C245.742 -189.682 237.349 -191.914 229.101 -194.437C219.316 -196.54 208.956 -196.538 197.454 -196.323C188.831 -196.054 179.884 -195.434 170.874 -194.476C148.916 -192.098 125.421 -190.112 102.696 -188.19L102.594 -188.181C97.7149 -187.77 92.8893 -187.363 88.1758 -186.957L86.7563 -186.831C84.8562 -186.662 79.8275 -186.22 77.8751 -185.934C68.0228 -184.255 57.9802 -181.591 48.2657 -179.018C39.1999 -176.616 29.8274 -174.132 20.1803 -172.315C17.4558 -171.835 14.6817 -171.458 12.1052 -171.229L11.8338 -171.205C4.92776 -170.842 -1.89751 -171.186 -8.50201 -171.518L-8.66863 -171.526C-14.6479 -171.837 -21.0351 -172.247 -27.2326 -172.643L-27.2957 -172.646C-34.9725 -173.134 -42.9113 -173.644 -50.3057 -173.982" stroke="white" stroke-miterlimit="10"/>
<path style="mix-blend-mode:overlay" d="M430.714 -410.803L429.909 -394.079C428.932 -376.568 427.923 -358.457 428.21 -341.001C428.627 -330.96 428.666 -319.733 428.332 -306.688C428.271 -304.148 428.184 -301.647 428.099 -299.222L428.096 -299.105C427.963 -295.299 427.82 -291.358 427.797 -287.377C427.752 -284.66 427.77 -281.782 427.79 -278.99C427.827 -273.369 427.864 -267.555 427.421 -261.69C425.28 -234.98 412.884 -210.812 399.797 -188.659C398.54 -186.56 397.222 -184.375 395.855 -182.096C389.853 -172.122 383.05 -160.82 377.873 -151.247C371.392 -139.49 364.412 -127.002 356.56 -114.925L356.509 -114.849C353.242 -110.029 349.912 -105.203 346.695 -100.53L346.56 -100.335C337.137 -86.6653 327.392 -72.5324 318.941 -58.2678C315.872 -53.0884 313.362 -48.3803 311.03 -43.4279C305.991 -32.8618 301.296 -21.658 296.756 -10.8223C293.152 -2.22714 289.426 6.6659 285.548 15.2047C282.94 21.137 280.625 26.4692 278.678 31.7641L278.384 32.5437C275.243 40.8017 271.993 49.343 269.705 57.709C268.251 63.0992 267.331 67.6256 267.567 72.2061L267.572 72.2595C267.956 82.8279 268.544 96.6072 269.648 109.435C270.063 114.246 270.708 120.499 271.982 126.203C272.403 128.161 272.993 130.001 273.641 131.388C279.061 141.401 284.355 149.95 289.838 157.544C292.392 161.147 295.095 164.916 297.519 167.858C298.205 168.667 299.764 170.511 300.507 171.006C308.603 174.435 317.252 177.491 325.624 180.451L327.361 181.068C330.806 182.287 334.705 183.667 337.875 184.166C340.712 184.64 342.597 184.661 344.597 184.25C344.932 184.18 345.261 184.101 345.616 184.007L348.886 183.102L350.374 182.745C351.607 182.429 353.995 181.499 355.907 180.755L356.024 180.709C357.246 180.232 358.399 179.785 359.391 179.436C364.443 177.543 369.554 175.752 373.883 174.255L373.931 174.237C380.127 172.197 385.375 167.762 390.932 163.07C393.239 161.12 395.625 159.105 398.246 157.109C402.566 153.841 406.726 151.189 410.602 149.234C416.887 146.02 424.179 143.497 432.918 141.509C443.058 139.28 452.467 138.21 461.677 138.239C463.359 138.246 465.554 138.37 467.054 138.483L467.746 138.552C468.728 138.648 468.928 138.68 469.001 138.691C469.087 138.706 469.227 138.72 469.382 138.743C469.836 138.801 470.353 138.871 470.791 138.949L471.334 139.053C473.546 139.476 475.836 139.909 477.968 140.123C484.373 140.782 491.339 140.54 498.086 140.312C507.23 139.997 516.682 139.673 526.166 141.319C527.727 141.566 529.196 141.901 530.615 142.224L531.26 142.368C531.462 142.417 531.706 142.481 531.976 142.551L532.059 142.575C532.367 142.655 532.532 142.699 532.624 142.722L532.912 142.782C534.194 143.076 536.886 143.644 539.254 144.147L539.428 144.185C541.59 144.643 544.04 145.161 545.412 145.465C567.279 150.23 590.031 155.473 612.077 160.554L615.814 161.415C626.913 164.075 637.721 166.639 647.944 168.776C650.326 169.29 652.964 169.85 655.779 170.447L656.259 170.548C666.224 172.658 677.524 175.048 685.813 177.231C694.322 179.457 703.379 182.101 711.984 186.372C714.897 187.858 718.106 189.098 722.081 190.278C732.423 193.35 743.893 194.833 754.986 196.264C759.097 196.796 763.343 197.342 767.494 197.969C795.359 201.856 823.268 205.075 850.451 207.542L859.702 208.379" stroke="white" stroke-miterlimit="10"/>
<path style="mix-blend-mode:overlay" d="M849.485 252.267L843.898 251.015C820.458 245.761 796.539 241.062 773.405 236.516L764.704 234.792L760.021 233.827C756.474 233.182 752.75 232.554 749.453 231.999C737.077 229.911 724.283 227.752 711.731 223.634C706.877 222.06 702.426 220.272 698.503 218.32L696.1 217.067L695.319 216.652C692.468 215.206 689.388 213.959 685.343 212.606C676.608 209.696 667.301 207.469 659.287 205.616C650.706 203.733 641.897 201.704 633.371 199.744C623.678 197.511 613.651 195.205 603.91 193.093C581.475 188.539 557.479 186.448 534.264 184.421L529.658 184.019L529.599 184.015C528.951 183.943 528.395 183.889 527.843 183.835C526.784 183.732 525.784 183.632 524.295 183.424L524.249 183.419C520.901 182.883 517.711 182.722 513.581 182.878C510.233 183.006 506.564 183.301 502.667 183.616C496.771 184.09 490.676 184.587 484.901 184.554C479.143 184.568 473.668 184.171 468.592 183.376L467.143 183.069L465.316 182.801C465.055 182.748 464.795 182.695 464.544 182.646L463.425 182.418L462.961 182.347C461.148 182.181 459.366 182.218 457.586 182.269C447.183 182.745 438.236 184.415 430.992 187.234C428.523 188.265 426.336 189.5 423.455 191.497C421.385 192.937 419.316 194.538 417.117 196.236C414.172 198.516 411.12 200.873 407.857 203.006C402.571 206.562 396.612 209.599 391.08 211.548C387.833 212.711 384.541 213.565 381.358 214.39C379.697 214.82 377.983 215.269 376.264 215.762L376.216 215.776C374.766 216.16 373.06 216.653 371.412 217.131L371.355 217.15C366.939 218.426 361.941 219.875 357.837 220.518C353.425 221.399 348.295 222.312 343.234 222.085C335.163 221.852 327.026 219.83 317.628 215.719C316.481 215.22 314.869 214.498 313.304 213.798C312.076 213.248 310.871 212.71 309.895 212.28L308.979 211.864C301.044 208.268 292.837 204.544 284.925 200.297L284.788 200.219C279.247 196.971 275.399 192.277 272.057 187.676C269.434 184.007 267.148 180.282 264.94 176.684L263.844 174.898C259.016 167.209 254.178 158.396 249.444 148.681C249.234 148.242 248.951 147.675 248.661 147.095C248.258 146.288 247.843 145.455 247.555 144.839C246.461 142.523 245.526 139.929 244.908 137.513C241.956 125.504 241.52 113.532 241.095 101.94C240.98 98.7887 240.861 95.5298 240.687 92.2623C240.424 85.3654 240.212 78.4953 240.051 71.8405L240.046 71.7871C240.049 71.5133 240.046 71.2309 240.045 70.9126L240.04 70.8547C240.033 69.7744 240.019 68.5513 240.107 67.3729C240.346 62.2882 241.081 57.2445 241.951 51.6372C243.536 41.8222 244.953 31.5826 246.55 18.4207C249.145 -1.68282 255.367 -22.1404 265.568 -44.1176C270.449 -54.7415 275.19 -63.6216 280.079 -71.286C285.583 -79.7003 294.579 -90.0441 303.282 -100.057C308.536 -106.094 314.484 -112.942 319.08 -118.854C325.801 -127.502 326.569 -130.27 326.588 -131.057C326.841 -142.292 318.478 -164.112 309.546 -171.059C301.349 -177.645 290.378 -180.778 279.772 -183.805C278.304 -184.221 276.84 -184.643 275.376 -185.069C268.565 -187.073 261.536 -188.942 254.729 -190.75C246.594 -192.91 238.178 -195.149 229.954 -197.665C219.778 -199.878 209.153 -199.875 197.355 -199.656C188.651 -199.384 179.625 -198.761 170.521 -197.79C148.568 -195.412 125.064 -193.426 102.321 -191.503C97.4421 -191.091 92.6125 -190.68 87.8852 -190.277L86.577 -190.161C84.6191 -189.987 79.4164 -189.533 77.3535 -189.229C67.3378 -187.522 57.2114 -184.841 47.4095 -182.243C38.4008 -179.855 29.0894 -177.39 19.6013 -175.6C16.9698 -175.133 14.2973 -174.774 11.8588 -174.557L11.6585 -174.539C4.92242 -174.183 -1.81271 -174.521 -8.32742 -174.853L-8.48959 -174.861C-14.4644 -175.173 -20.8467 -175.578 -27.0219 -175.976L-27.0761 -175.98C-34.78 -176.47 -42.7456 -176.977 -50.1493 -177.319" stroke="white" stroke-miterlimit="10"/>
<path style="mix-blend-mode:overlay" d="M427.212 -407.514L426.564 -394.27C425.585 -376.683 424.569 -358.496 424.859 -340.905C425.275 -330.935 425.312 -319.767 424.984 -306.767C424.924 -304.259 424.837 -301.758 424.751 -299.342L424.747 -299.243C424.612 -295.405 424.472 -291.437 424.446 -287.434C424.401 -284.672 424.421 -281.772 424.437 -278.97C424.473 -273.416 424.513 -267.67 424.078 -261.962C421.993 -235.93 409.797 -212.183 396.917 -190.385C395.659 -188.286 394.347 -186.102 392.979 -183.832C386.953 -173.824 380.126 -162.48 374.934 -152.874C368.485 -141.173 361.539 -128.747 353.759 -116.775L353.731 -116.737C350.46 -111.912 347.127 -107.077 343.901 -102.395L343.798 -102.246C334.343 -88.5294 324.562 -74.3439 316.052 -59.9889C312.928 -54.7194 310.372 -49.922 307.999 -44.8807C302.931 -34.2447 298.224 -23.0175 293.662 -12.1305C290.065 -3.54943 286.347 5.32058 282.476 13.8453C279.846 19.8244 277.513 25.212 275.544 30.5626L275.253 31.3285C272.084 39.6653 268.804 48.2854 266.469 56.8217C264.93 62.5198 263.959 67.3378 264.222 72.3645C264.609 82.9729 265.198 96.8061 266.313 109.704C266.737 114.623 267.395 121.018 268.706 126.889C269.188 129.129 269.88 131.256 270.648 132.883C276.15 143.059 281.533 151.748 287.107 159.464C289.697 163.118 292.441 166.946 294.965 170.005C296.147 171.402 297.765 173.308 298.996 173.983C307.237 177.485 316.016 180.588 324.509 183.592L326.245 184.209C329.825 185.473 333.886 186.911 337.325 187.453C340.566 187.99 342.868 188.009 345.273 187.513C345.674 187.433 346.069 187.335 346.511 187.215L349.781 186.31L351.173 185.979C352.599 185.619 355.009 184.679 357.138 183.853L357.194 183.83C358.421 183.353 359.582 182.9 360.544 182.563C365.578 180.676 370.65 178.897 374.988 177.399C381.799 175.157 387.276 170.53 393.104 165.608C395.382 163.683 397.739 161.693 400.276 159.759C404.436 156.608 408.43 154.064 412.134 152.192C418.166 149.109 425.197 146.676 433.647 144.759C443.545 142.582 452.713 141.539 461.677 141.567C463.265 141.574 465.37 141.692 466.806 141.802L467 141.82C467.064 141.828 467.213 141.842 467.381 141.858L467.43 141.863C467.634 141.88 468.317 141.95 468.504 141.978C468.608 141.996 468.776 142.017 468.958 142.041C469.384 142.097 469.852 142.159 470.175 142.22L470.7 142.321C472.995 142.758 475.363 143.207 477.634 143.436C484.265 144.115 491.353 143.876 498.203 143.639C507.185 143.329 516.472 143.01 525.624 144.6C527.084 144.834 528.508 145.156 529.881 145.464L530.485 145.599C530.668 145.641 530.889 145.702 531.123 145.762L531.206 145.786C531.729 145.928 531.921 145.969 531.99 145.985L532.177 146.023C533.473 146.316 536.065 146.866 538.574 147.396L538.748 147.434C541.024 147.914 543.374 148.413 544.71 148.712C566.567 153.473 589.328 158.72 611.338 163.791L615.047 164.645C626.169 167.312 637 169.879 647.246 172.022C649.646 172.54 652.302 173.102 655.095 173.697L655.575 173.797C665.508 175.901 676.762 178.287 684.973 180.445C693.307 182.624 702.161 185.21 710.471 189.333C713.572 190.914 716.962 192.227 721.136 193.466C731.731 196.614 743.337 198.112 754.567 199.567C758.673 200.099 762.919 200.645 767.042 201.265C794.953 205.157 822.917 208.385 850.163 210.855L855.855 211.372" stroke="white" stroke-miterlimit="10"/>
<path style="mix-blend-mode:overlay" d="M845.988 247.138L844.826 246.878C821.304 241.604 797.321 236.893 774.128 232.339L765.563 230.638L760.812 229.657C757.27 229.012 753.659 228.405 750.171 227.818C737.946 225.756 725.306 223.62 713.04 219.597C708.381 218.087 704.144 216.388 700.427 214.538L698.099 213.324L697.266 212.877C694.213 211.328 690.951 210.003 686.685 208.575C677.774 205.609 668.334 203.349 660.197 201.467C651.652 199.589 642.843 197.565 634.322 195.605C624.597 193.366 614.542 191.053 604.751 188.932C582.074 184.328 557.955 182.225 534.632 180.19L530.071 179.793C529.397 179.719 528.822 179.662 528.27 179.608C527.252 179.51 526.293 179.416 524.917 179.22C521.277 178.638 517.839 178.463 513.419 178.632C509.999 178.761 506.281 179.06 502.34 179.379C496.529 179.851 490.517 180.336 484.886 180.308C477.801 180.323 471.207 179.698 465.288 178.458L465.074 178.414L464.16 178.23L463.478 178.125C461.384 177.926 459.396 177.963 457.392 178.025C446.511 178.521 437.08 180.302 429.387 183.304C426.614 184.457 424.193 185.825 421.028 188.012C418.87 189.514 416.759 191.146 414.522 192.874C411.639 195.103 408.655 197.409 405.485 199.485C400.487 202.849 394.862 205.713 389.648 207.553C386.575 208.652 383.379 209.483 380.289 210.287C378.593 210.729 376.839 211.186 375.121 211.679C373.631 212.077 371.952 212.562 370.177 213.074C365.848 214.325 360.942 215.748 357.088 216.341C352.889 217.181 348.024 218.053 343.354 217.845C335.845 217.629 328.208 215.716 319.318 211.828C318.18 211.333 316.592 210.622 315.041 209.926C313.803 209.372 312.588 208.825 311.646 208.411L310.73 207.995C302.855 204.425 294.714 200.736 286.933 196.552C282.065 193.702 278.571 189.416 275.51 185.203C272.979 181.66 270.73 177.999 268.554 174.456C268.181 173.848 267.804 173.236 267.437 172.636C262.692 165.075 257.929 156.403 253.277 146.851C253.057 146.39 252.762 145.798 252.456 145.188C252.068 144.406 251.665 143.599 251.393 143.018C250.415 140.938 249.576 138.622 249.032 136.487C246.185 124.899 245.755 113.151 245.338 101.792C245.221 98.6179 245.1 95.3367 244.928 92.0914C244.668 85.2346 244.456 78.4049 244.297 71.7723C244.296 71.4584 244.294 71.1357 244.288 70.8133C244.278 69.7423 244.264 68.6312 244.345 67.6239C244.569 62.7333 245.292 57.7983 246.141 52.3095C247.734 42.4355 249.161 32.1546 250.76 18.9612C253.299 -0.7024 259.405 -20.7594 269.425 -42.3483C274.224 -52.7943 278.868 -61.4955 283.631 -68.9648C288.977 -77.1363 297.88 -87.3732 306.486 -97.2697C318.391 -110.962 330.7 -125.121 330.831 -130.959C331.117 -143.484 322.408 -166.426 312.203 -174.363C303.34 -181.487 291.95 -184.739 280.934 -187.882C279.475 -188.299 278.021 -188.713 276.575 -189.136C269.727 -191.151 262.676 -193.026 255.85 -194.841C247.682 -197.012 239.24 -199.253 231.023 -201.774C220.347 -204.122 209.39 -204.125 197.215 -203.895C188.426 -203.625 179.289 -202.988 170.056 -202.01C148.232 -199.643 124.71 -197.655 101.967 -195.736C97.0835 -195.325 92.2494 -194.913 87.4999 -194.508L86.3518 -194.406C83.5173 -194.154 78.7738 -193.733 76.6624 -193.419C66.4476 -191.682 56.2208 -188.969 46.3311 -186.35C37.3924 -183.981 28.1514 -181.531 18.8572 -179.781C16.3491 -179.338 13.8185 -178.997 11.4957 -178.79L11.4245 -178.784C4.91168 -178.438 -1.71548 -178.773 -8.12182 -179.096L-8.27507 -179.105C-14.2454 -179.417 -20.637 -179.826 -26.8163 -180.219C-34.5473 -180.711 -42.54 -181.22 -49.9619 -181.565" stroke="white" stroke-miterlimit="10"/>
<path style="mix-blend-mode:overlay" d="M422.775 -403.343L422.326 -394.521C421.342 -376.835 420.322 -358.544 420.615 -340.774C421.027 -330.885 421.067 -319.793 420.737 -306.86C420.677 -304.357 420.588 -301.828 420.505 -299.386C420.369 -295.512 420.228 -291.503 420.202 -287.5C420.155 -284.702 420.173 -281.775 420.191 -278.947C420.229 -273.474 420.266 -267.817 419.846 -262.295C417.828 -237.121 405.886 -213.903 393.275 -192.559C392.021 -190.465 390.708 -188.285 389.36 -186.049C383.307 -175.989 376.444 -164.593 371.214 -154.915C364.803 -143.281 357.9 -130.93 350.214 -119.111C346.944 -114.281 343.575 -109.398 340.321 -104.677C330.818 -90.8935 320.99 -76.6366 312.398 -62.1442C309.204 -56.7519 306.586 -51.8458 304.165 -46.697C299.05 -35.9717 294.326 -24.6935 289.756 -13.788C286.167 -5.22551 282.456 3.6259 278.589 12.1502C275.933 18.1944 273.574 23.6381 271.572 29.0635L271.281 29.8294C268.075 38.2592 264.755 46.9815 262.366 55.7244C260.723 61.813 259.687 67.0001 259.976 72.5312C260.368 83.193 260.958 97.0933 262.082 110.085C262.518 115.137 263.196 121.71 264.558 127.796C265.117 130.397 265.935 132.889 266.864 134.821C272.474 145.198 277.962 154.066 283.645 161.934C286.28 165.651 289.071 169.547 291.725 172.764C293.263 174.578 295.172 176.831 297.182 177.84C305.586 181.417 314.486 184.563 323.09 187.611L324.826 188.223C328.582 189.553 332.837 191.059 336.631 191.654C340.423 192.286 343.177 192.292 346.133 191.688C346.617 191.587 347.1 191.472 347.644 191.325L350.913 190.42L352.214 190.116C353.894 189.693 356.434 188.701 358.675 187.829C359.906 187.347 361.073 186.898 362.008 186.568C367.008 184.693 372.036 182.932 376.313 181.453C383.908 178.952 389.69 174.07 395.809 168.897C398.058 166.997 400.386 165.032 402.835 163.168C406.789 160.175 410.571 157.763 414.065 155.999C419.779 153.078 426.48 150.764 434.556 148.93C444.146 146.821 453.012 145.809 461.661 145.834C463.133 145.837 465.098 145.95 466.444 146.054L466.494 146.059C466.571 146.07 466.783 146.087 467.014 146.111C467.376 146.146 467.779 146.187 467.861 146.202C467.988 146.222 468.188 146.249 468.406 146.274C468.759 146.319 469.15 146.374 469.378 146.412L469.898 146.51C472.284 146.966 474.752 147.432 477.2 147.677C484.121 148.389 491.355 148.14 498.348 147.9C507.117 147.6 516.184 147.287 524.962 148.812C526.277 149.023 527.637 149.328 528.95 149.624L529.495 149.746C529.669 149.789 529.885 149.846 530.114 149.906C530.491 150.007 530.923 150.121 531.192 150.169L531.237 150.179C532.588 150.485 535.253 151.05 537.835 151.597C540.226 152.102 542.484 152.578 543.811 152.877C565.586 157.624 588.36 162.869 610.389 167.948L614.061 168.792C625.201 171.461 636.055 174.035 646.352 176.192C648.89 176.742 651.71 177.339 654.677 177.968C664.573 180.066 675.79 182.441 683.9 184.573C692.014 186.695 700.619 189.199 708.544 193.132C711.884 194.835 715.503 196.24 719.929 197.551C730.857 200.8 742.634 202.318 754.023 203.791C758.115 204.319 762.353 204.866 766.457 205.484C794.436 209.387 822.473 212.622 849.778 215.101L850.962 215.206" stroke="white" stroke-miterlimit="10"/>
<path style="mix-blend-mode:overlay" d="M845.07 245.784C820.262 240.226 795.465 235.389 770.501 230.487L765.784 229.543L761.01 228.559C745.073 225.666 729.06 223.676 713.386 218.535C709.28 217.205 704.948 215.54 700.94 213.547L698.622 212.336L697.765 211.882C694.318 210.135 690.834 208.79 687.035 207.517C678.373 204.632 669.384 202.449 660.436 200.378C642.171 196.365 623.398 191.831 604.973 187.84C580.757 182.925 554.869 180.849 530.193 178.684C528.276 178.468 527.154 178.407 525.092 178.119C521.134 177.489 517.615 177.358 513.378 177.515C504.853 177.833 494.268 179.236 484.886 179.191C478.549 179.203 471.834 178.687 465.514 177.361L464.81 177.217L464.459 177.146C464.29 177.111 464.368 177.131 464.34 177.125C464.331 177.126 464.322 177.126 464.308 177.114L464.117 177.086L464.021 177.068L463.876 177.054L463.586 177.017C461.487 176.818 459.521 176.845 457.343 176.913C447.873 177.346 437.815 178.824 428.959 182.275C425.879 183.558 423.352 185.047 420.391 187.1C415.365 190.601 410.421 194.925 404.865 198.563C400.201 201.7 394.726 204.582 389.277 206.506C384.57 208.189 379.62 209.221 374.837 210.606C369.654 211.986 362.224 214.427 356.897 215.251C352.579 216.115 347.867 216.942 343.386 216.739C334.924 216.496 327.196 214.066 319.762 210.816C317.719 209.93 314.199 208.328 312.108 207.406C303.934 203.697 295.511 199.907 287.499 195.605C282.792 192.848 279.428 188.707 276.423 184.57C273.483 180.459 270.948 176.217 268.385 172.059C263.223 163.83 258.515 155.073 254.29 146.389C253.793 145.343 252.889 143.593 252.411 142.559C251.428 140.476 250.632 138.237 250.123 136.242C246.511 121.547 246.835 106.835 246.052 92.0679C245.796 85.3094 245.584 78.5379 245.419 71.7848C245.418 70.4574 245.364 68.9911 245.468 67.6902C245.701 62.6418 246.498 57.3819 247.252 52.5024C249.066 41.2723 250.519 30.3209 251.877 19.1177C254.646 -2.35134 261.446 -22.4745 270.45 -41.8696C274.572 -50.8383 279.201 -59.9148 284.574 -68.3399C297.566 -88.1838 331.714 -120.368 331.955 -130.924C332.248 -143.876 323.463 -167.018 312.911 -175.224C302.696 -183.434 289.427 -186.533 276.898 -190.2C261.842 -194.634 246.4 -198.217 231.318 -202.845C220.22 -205.29 208.571 -205.214 197.193 -205.005C188.114 -204.723 179.017 -204.075 169.945 -203.112C143.416 -200.238 114.135 -197.899 87.4064 -195.612C84.7943 -195.38 78.9675 -194.884 76.4846 -194.511C56.9962 -191.195 38.1981 -184.555 18.6705 -180.872C16.3081 -180.456 13.7877 -180.102 11.3759 -179.887C4.86749 -179.542 -1.80049 -179.882 -8.20683 -180.205C-21.603 -180.906 -36.4957 -182.045 -49.9026 -182.665" stroke="white" stroke-miterlimit="10"/>
<path style="mix-blend-mode:overlay" d="M421.608 -402.243C421.608 -402.243 419.173 -360.267 419.498 -340.724C419.966 -329.553 419.904 -318.043 419.618 -306.886C419.466 -300.419 419.118 -294.046 419.08 -287.517C418.941 -279.387 419.365 -270.737 418.731 -262.379C416.717 -237.259 404.898 -214.425 392.318 -193.129C385.367 -181.518 376.628 -167.273 370.238 -155.447C363.584 -143.374 356.833 -131.333 349.294 -119.733C336.459 -100.795 322.994 -82.201 311.442 -62.7093C308.384 -57.5533 305.69 -52.5463 303.162 -47.1773C294.023 -27.9988 286.374 -7.69251 277.567 11.6986C275.142 17.2154 272.609 23.02 270.532 28.6673C267.18 37.4822 263.769 46.3743 261.291 55.4344C259.746 61.1556 258.558 66.7105 258.863 72.5721C259.317 84.9372 259.913 97.8951 260.969 110.18C261.487 116.161 262.179 122.28 263.467 128.032C264.002 130.527 264.836 133.189 265.869 135.331C270.937 144.716 276.509 153.966 282.733 162.58C285.323 166.234 288.145 170.181 290.875 173.486C292.603 175.525 294.53 177.772 296.711 178.856C305.717 182.688 315.128 185.978 324.454 189.279C328.288 190.634 332.576 192.149 336.447 192.761C340.048 193.36 343.04 193.466 346.361 192.785C346.872 192.681 347.381 192.555 347.946 192.407L349.876 191.867L351.177 191.514L352.011 191.31L352.486 191.205C355.152 190.528 359.679 188.578 362.397 187.619C367.119 185.849 371.903 184.164 376.659 182.516C387.334 179.002 394.5 170.92 403.506 164.06C406.775 161.585 410.612 158.988 414.566 156.995C420.915 153.748 427.974 151.574 434.788 150.026C443.679 148.074 452.493 146.931 461.649 146.956C463.053 146.961 464.946 147.067 466.351 147.17C466.545 147.194 467.545 147.284 467.686 147.307C468.018 147.359 468.824 147.453 469.162 147.513C471.78 148.011 474.409 148.526 477.075 148.791C492.709 150.397 509.063 147.19 524.778 149.919C526.229 150.149 527.755 150.506 529.219 150.838C529.705 150.956 530.497 151.186 530.976 151.274C533.549 151.861 540.749 153.347 543.559 153.976C566.541 158.984 590.773 164.584 613.786 169.889C624.239 172.39 635.603 175.098 646.099 177.291C656.974 179.643 673.054 182.887 683.602 185.658C691.55 187.736 700.22 190.262 708.018 194.13C711.715 196.017 715.495 197.412 719.594 198.626C734.566 203.076 750.759 204.265 766.287 206.593C793.83 210.433 821.981 213.702 849.661 216.215" stroke="white" stroke-miterlimit="10"/>
</svg>
