<svg width="640" height="611" viewBox="0 0 640 611" fill="none" xmlns="http://www.w3.org/2000/svg">
<mask id="mask0_4401_2173" style="mask-type:luminance" maskUnits="userSpaceOnUse" x="0" y="0" width="640" height="611">
<path d="M414.363 0.714292L638.535 294.482L224.873 610.118L0.700821 316.35L414.363 0.714292Z" fill="white"/>
<path d="M414.363 0.714292L638.535 294.482L224.873 610.118L0.700821 316.35L414.363 0.714292Z" stroke="white"/>
</mask>
<g mask="url(#mask0_4401_2173)">
<path d="M-780.276 1576.77L-774.738 1568.84C-731.745 1507.3 -686.51 1446.08 -642.763 1386.87L-626.606 1364.92L-617.82 1352.78C-611.044 1343.88 -604.037 1334.91 -597.259 1326.23C-573.351 1295.63 -548.632 1263.98 -528.681 1228.58C-521.008 1215.08 -514.707 1201.99 -509.915 1189.58L-507.094 1181.84L-506.148 1179.17C-502.483 1169.46 -497.872 1159.78 -491.204 1147.78C-477.065 1122.43 -460.201 1097.53 -445.535 1076.24C-429.784 1053.89 -413.786 1030.71 -398.315 1008.3C-380.663 982.729 -362.409 956.285 -344.411 930.901C-302.122 872.904 -251.187 817.492 -201.895 763.859L-192.152 753.255C-190.775 751.684 -189.586 750.363 -188.446 749.091C-186.283 746.682 -184.233 744.405 -181.332 740.901C-174.425 732.217 -167.116 724.816 -156.882 716.153C-148.817 709.32 -139.686 702.238 -129.994 694.719C-115.551 683.516 -100.615 671.927 -87.5854 659.896C-72.4461 646.119 -59.3766 631.951 -48.6889 617.733L-48.6752 617.751L-47.2549 615.807C-46.7726 615.156 -46.3029 614.503 -45.8304 613.854L-43.6183 610.819L-42.4442 609.368C-38.2902 604.783 -33.8381 600.871 -29.3227 596.99C-3.72711 575.664 21.1457 560.245 44.5183 551.213C52.9297 548.18 61.0376 546.306 72.4935 544.748C80.4758 543.69 88.6998 543.007 97.4069 542.289C108.832 541.344 120.649 540.37 132.451 538.457C151.466 535.62 170.908 530.255 187.169 523.349C196.77 519.323 205.977 514.454 214.896 509.743C219.68 507.214 224.629 504.598 229.684 502.099C233.944 499.878 239.002 497.383 243.889 494.967C256.581 488.695 270.969 481.589 281.377 474.688C293.043 467.643 306.371 459.228 317.026 448.573C334.369 431.779 348.303 410.77 360.875 382.474C362.459 378.933 364.628 373.921 366.741 369.043C368.417 365.171 370.062 361.386 371.374 358.409L372.605 355.528C383.247 330.68 394.253 304.988 403.428 278.826L403.49 278.632C408.994 260.863 408.004 242.95 406.107 226.192C404.453 212.505 401.91 199.269 399.447 186.465L398.206 179.979C393.192 152.417 385.863 122.251 376.416 90.265C375.964 88.7819 375.407 86.8288 374.839 84.8228C374.084 82.1722 373.307 79.4253 372.683 77.4729C370.465 70.3008 367.375 62.8544 363.958 56.4618C345.871 23.3243 321.97 -4.83201 298.847 -32.0713C292.458 -39.5986 285.852 -47.3797 279.404 -55.2296C265.541 -71.6019 251.638 -87.7965 237.998 -103.461C237.377 -104.142 236.749 -104.846 236.11 -105.558L236.012 -105.671C233.732 -108.222 231.37 -110.857 228.924 -113.151C217.944 -124.098 205.791 -134.031 192.174 -144.97C167.821 -164.268 142.967 -184.889 111.564 -211.861C63.94 -252.138 7.25658 -285.729 -61.7009 -314.539C-94.9413 -328.578 -124.171 -338.919 -151.122 -346.171C-180.968 -353.817 -223.143 -358.678 -263.947 -363.38C-313.96 -369.144 -376.203 -376.314 -387.396 -388.016C-413.286 -415.084 -440.704 -485.04 -434.33 -522.328C-429.087 -556.24 -410.027 -587.176 -391.592 -617.099C-389.107 -621.135 -386.627 -625.161 -384.175 -629.195C-372.687 -648.195 -360.429 -667.291 -348.532 -685.828C-334.34 -707.945 -319.665 -730.809 -306.058 -753.878C-286.798 -781.147 -261.917 -803.891 -233.814 -828.636C-213.112 -846.414 -190.866 -864.08 -167.703 -881.131C-112.365 -921.693 -54.1164 -966.548 2.23034 -1009.93C14.327 -1019.25 26.3013 -1028.47 38.0548 -1037.5L40.913 -1039.68C45.9255 -1043.51 59.2345 -1053.7 64.9078 -1057.52C91.8498 -1074.87 120.957 -1090.07 149.14 -1104.8C174.757 -1118.18 201.242 -1132.02 226.523 -1147.66C233.367 -1152.01 240.077 -1156.66 245.936 -1161.14L246.265 -1161.39C262.197 -1174.47 276.838 -1189.27 290.997 -1203.59L291.343 -1203.93C304.432 -1217.22 318.273 -1231.59 331.693 -1245.52C348.419 -1262.88 365.716 -1280.84 382.037 -1297.2" stroke="white" stroke-miterlimit="10" style="mix-blend-mode:overlay"/>
<path d="M-1183.58 -817.575L-1159.88 -794.11C-1120.52 -755.587 -1079.83 -715.759 -1043.3 -674.43C-1023.39 -650.738 -1000.09 -625.061 -972.079 -595.941C-966.733 -590.358 -961.274 -584.792 -955.997 -579.412L-955.776 -579.189C-947.35 -570.601 -938.638 -561.722 -930.162 -552.549C-924.202 -546.245 -918.122 -539.501 -912.229 -532.965C-900.739 -520.222 -888.855 -507.044 -876.106 -495.053C-817.704 -440.606 -740.706 -412.016 -666.166 -389.226C-658.873 -387.042 -651.265 -384.786 -643.42 -382.457C-608.418 -372.065 -568.747 -360.295 -536.459 -349.061C-497.15 -335.74 -455.201 -321.808 -412.388 -310.703C-394.608 -306.451 -376.627 -302.306 -359.238 -298.293C-308.483 -286.58 -256.006 -274.471 -205.957 -259.248C-187.443 -253.619 -171.272 -247.884 -155.024 -241.189C-120.837 -227.311 -86.3184 -211.338 -52.9276 -195.885C-26.6428 -183.721 0.539155 -171.138 27.3879 -159.659C46.1197 -151.378 62.9183 -143.858 78.8336 -135.618L81.1184 -134.463C106.106 -121.87 131.945 -108.845 155.59 -93.9092C171.725 -83.6462 184.62 -74.1944 195.171 -61.3688C216.648 -36.0716 244.456 -2.91463 269.113 29.228C278.622 41.6311 290.75 57.9915 300.269 74.5986C304.205 81.3434 307.364 88.3241 309.175 94.2727C318.018 129.651 323.986 161.32 327.423 191.133C329.165 205.121 330.918 219.843 331.566 232.561C331.824 239.389 332.143 247.863 330.113 253.363C318.39 279.041 304.617 304.852 291.286 329.827L288.579 334.898C282.851 345.632 276.353 357.796 269.182 366.772C262.24 375.618 256.369 381.038 248.921 385.476C247.7 386.204 246.444 386.896 245.009 387.64L235.584 392.432L231.846 394.52C227.393 396.911 219.637 399.913 212.799 402.561C208.928 404.06 205.267 405.478 202.417 406.691C186.943 412.9 171.596 419.454 158.546 425.081C136.805 434.849 113.761 435.752 89.3642 436.707C80.1367 437.068 70.5933 437.439 60.8598 438.317C45.1343 439.776 31.0381 442.228 18.998 445.602C-0.739121 451.017 -21.4358 459.966 -44.3082 472.969C-71.1529 488.489 -93.9975 505.038 -114.147 523.561C-117.63 526.762 -122.024 531.263 -125.058 534.49L-125.243 534.699C-125.391 534.869 -125.799 535.321 -126.252 535.826C-127.109 536.779 -128.047 537.841 -128.205 538.035C-128.437 538.325 -128.818 538.775 -129.226 539.256C-130.005 540.179 -130.862 541.2 -131.372 541.867L-132.369 543.2C-136.827 549.16 -141.437 555.321 -146.402 560.853C-160.568 576.751 -177.574 591.256 -194.039 605.298C-215.053 623.223 -236.783 641.758 -254.08 664.115C-256.802 667.528 -259.322 671.155 -261.758 674.661L-262.793 676.152C-263.097 676.6 -263.447 677.15 -263.824 677.732L-263.95 677.93C-264.462 678.728 -265.234 679.934 -265.675 680.52L-265.844 680.751C-268.261 684.237 -273.158 691.075 -277.895 697.685L-278.057 697.91C-282.474 704.071 -286.643 709.89 -289.063 713.35C-329.252 770.152 -370.588 830.088 -410.564 888.046L-417.254 897.748C-437.257 927.293 -456.789 956.009 -475.904 982.556C-480.375 988.854 -485.346 995.795 -490.578 1003.1L-491.345 1004.17C-509.728 1029.83 -530.561 1058.92 -544.793 1080.97C-559.162 1103.16 -573.852 1127.31 -584.015 1153.54C-587.993 1164.15 -593.22 1174.69 -600.471 1186.72C-618.549 1216.78 -642.295 1244.87 -665.259 1272.03C-673.573 1281.87 -682.173 1292.04 -690.335 1302.11C-746.441 1369.84 -804.063 1436.16 -861.603 1499.2L-868.104 1506.33" stroke="white" stroke-miterlimit="10" style="mix-blend-mode:overlay"/>
<path d="M-773.042 1627.19L-746.204 1588.78C-703.561 1527.74 -658.548 1466.82 -615.018 1407.9L-598.416 1385.34L-589.867 1373.53C-583.216 1364.8 -576.141 1355.75 -569.924 1347.78L-569.793 1347.62C-545.106 1316.02 -519.584 1283.34 -498.419 1245.79C-489.901 1230.8 -482.845 1216.11 -477.441 1202.12L-474.337 1193.63L-473.455 1191.15C-470.43 1183.18 -466.518 1175.02 -460.799 1164.74C-447.426 1140.76 -431.195 1116.8 -417.022 1096.22C-401.287 1073.9 -385.361 1050.82 -369.954 1028.5L-369.667 1028.08C-352.17 1002.73 -334.078 976.516 -316.223 951.338C-275.113 894.971 -224.862 840.295 -176.258 787.414L-166.443 776.733L-165.956 776.191C-164.709 774.77 -163.629 773.566 -162.486 772.298C-160.195 769.752 -157.831 767.116 -154.37 762.929L-154.085 762.575C-148.676 755.771 -142.783 749.836 -134.372 742.716C-126.84 736.335 -118.002 729.483 -108.562 722.161C-93.5693 710.528 -78.0679 698.502 -64.1539 685.649C-57.0831 679.212 -50.3593 672.632 -44.0562 665.982L-41.9514 667.665L-19.2522 636.498C-18.6951 635.745 -18.1479 634.993 -17.6977 634.367L-16.048 632.101C-13.3807 629.261 -10.1848 626.455 -6.85973 623.595C15.5835 604.896 36.9678 591.522 56.6949 583.839C62.5205 581.771 68.4657 580.438 77.0798 579.266C84.1892 578.324 91.9879 577.677 100.37 576.987C112.399 575.994 124.836 574.966 137.688 572.886C159.505 569.626 181.88 563.432 200.64 555.468C211.684 550.834 221.603 545.592 231.196 540.525C235.741 538.121 240.444 535.636 245.114 533.329L245.766 532.996C249.663 530.967 254.436 528.61 259.137 526.286L259.319 526.198C272.686 519.592 287.823 512.118 299.969 504.151C313.112 496.2 328.196 486.615 341.393 473.453C361.976 453.48 378.269 429.08 392.643 396.72C394.275 393.08 396.509 387.923 398.679 382.904L398.786 382.659C400.392 378.954 401.959 375.341 403.298 372.304L404.623 369.204C415.484 343.85 426.716 317.623 436.275 290.37L436.741 288.955C444.141 265.065 443.011 242.741 440.667 222.045C438.867 207.15 436.209 193.311 433.641 179.947L432.441 173.686C427.199 144.904 419.565 113.477 409.751 80.2766L409.709 80.133C409.312 78.8339 408.829 77.1251 408.276 75.1757C407.478 72.3652 406.651 69.4641 405.922 67.1669C403.073 57.9579 399.045 48.2951 394.58 39.9445L394.513 39.82C374.716 3.55018 349.628 -26.005 325.311 -54.6537C319.057 -62.0183 312.593 -69.6296 306.159 -77.4679L305.976 -77.6852C292.031 -94.1585 277.978 -110.527 264.124 -126.436L263.733 -126.874C263.207 -127.452 262.677 -128.043 262.093 -128.697L261.934 -128.875C259.537 -131.557 256.555 -134.886 253.17 -138.106C241.047 -150.151 228.204 -160.655 213.8 -172.216C189.801 -191.236 165.234 -211.622 134.056 -238.403C83.6754 -281.009 24.059 -316.404 -48.1445 -346.575C-82.8643 -361.24 -113.657 -372.109 -142.275 -379.809L-142.468 -379.861C-174.6 -388.094 -217.974 -393.094 -259.96 -397.935C-284.364 -400.744 -312.022 -403.93 -334.342 -407.752C-352.654 -410.891 -361.172 -413.443 -364.56 -414.656C-383.03 -436.621 -404.234 -491.72 -399.97 -516.671L-399.921 -516.986C-395.753 -543.947 -378.57 -571.839 -361.95 -598.808C-359.421 -602.911 -356.904 -607 -354.377 -611.158C-343.113 -629.79 -330.975 -648.703 -319.213 -667.024C-305.123 -688.978 -290.558 -711.674 -276.826 -734.884C-259.839 -758.59 -236.978 -779.442 -211.045 -802.276C-190.986 -819.501 -169.466 -836.584 -147.109 -853.038C-91.4504 -893.839 -33.156 -938.723 23.248 -982.153L23.5091 -982.353C35.5879 -991.654 47.5443 -1000.86 59.1869 -1009.8L62.7427 -1012.52C76.7393 -1023.24 82.1179 -1027.09 84.1082 -1028.45C109.615 -1044.84 137.902 -1059.62 165.28 -1073.92C191.439 -1087.59 218.485 -1101.72 245.034 -1118.14L245.195 -1118.24C252.875 -1123.12 260.495 -1128.41 267.231 -1133.55L268.363 -1134.45C285.705 -1148.68 300.989 -1164.14 315.761 -1179.08L316.159 -1179.48C329.393 -1192.91 343.249 -1207.29 356.602 -1221.15L356.862 -1221.42C373.42 -1238.61 390.542 -1256.39 406.707 -1272.59" stroke="white" stroke-miterlimit="10" style="mix-blend-mode:overlay"/>
<path d="M-1233.5 -818.274L-1184.2 -769.217C-1145.4 -731.24 -1105.29 -691.978 -1069.66 -651.709C-1049.31 -627.503 -1025.6 -601.373 -997.21 -571.862C-991.657 -566.069 -986.153 -560.458 -980.845 -555.044L-980.56 -554.752C-972.334 -546.368 -963.832 -537.696 -955.573 -528.772L-955.446 -528.636C-949.762 -522.626 -943.825 -516.039 -938.049 -509.634C-926.095 -496.379 -913.733 -482.671 -899.835 -469.598C-836.272 -410.338 -754.802 -379.936 -676.132 -355.882C-668.817 -353.691 -661.182 -351.429 -653.235 -349.07C-618.631 -338.799 -579.411 -327.16 -547.623 -316.099C-507.706 -302.575 -465.056 -288.413 -420.958 -276.976L-420.47 -276.855C-402.907 -272.658 -385.204 -268.573 -368.089 -264.622L-366.95 -264.36C-316.814 -252.791 -264.969 -240.829 -216.076 -225.956C-198.652 -220.657 -183.436 -215.263 -168.107 -208.948C-134.709 -195.391 -100.568 -179.593 -67.4489 -164.267C-41.0042 -152.027 -13.6614 -139.374 13.4294 -127.786C31.5912 -119.755 47.8659 -112.469 63.0129 -104.628L65.5048 -103.365C89.7379 -91.1525 114.794 -78.5215 136.914 -64.5548C150.244 -56.0751 160.693 -48.5092 168.432 -39.1084L168.642 -38.8554C189.836 -13.8917 217.272 18.8139 241.497 50.3912C250.338 61.9178 261.581 77.0679 270.218 92.1243C272.608 96.2213 274.575 100.409 275.661 103.701C284 137.201 289.629 167.158 292.869 195.259L292.887 195.41C294.546 208.732 296.21 222.677 296.794 233.983C296.958 238.381 296.968 240.842 296.925 242.21C285.951 265.896 273.059 290.044 260.574 313.434L257.882 318.488C252.863 327.888 247.174 338.546 241.894 345.157L241.808 345.267C236.998 351.395 234.148 353.75 231.109 355.56C230.498 355.924 229.87 356.273 229.235 356.599L219.813 361.394L215.257 363.909C212.536 365.328 204.872 368.295 200.31 370.06L199.748 370.28C195.934 371.758 192.324 373.161 189.148 374.503C173.368 380.838 157.803 387.485 144.633 393.169L144.282 393.324C128.701 400.328 108.881 401.102 87.8697 401.925C78.2679 402.3 68.3368 402.689 57.6454 403.647C39.8363 405.298 23.7055 408.125 9.7878 412.02C-12.7733 418.215 -36.1357 428.269 -61.7266 442.821C-90.8232 459.64 -115.677 477.665 -137.714 497.928C-141.911 501.788 -147.036 507.029 -150.432 510.65L-152.124 512.519C-154.192 514.816 -154.862 515.615 -155.29 516.151L-155.843 516.806C-156.943 518.109 -158.1 519.501 -159.144 520.87L-160.282 522.389C-164.27 527.719 -168.397 533.229 -172.393 537.688C-184.971 551.802 -201.066 565.528 -216.648 578.821C-238.959 597.85 -262.028 617.531 -281.436 642.574C-284.798 646.81 -287.61 650.846 -290.345 654.784L-291.648 656.667C-292.065 657.285 -292.551 658.035 -293.098 658.883L-293.276 659.155C-293.592 659.645 -293.796 659.971 -293.913 660.144L-294.459 660.912C-296.646 664.07 -301.415 670.726 -305.621 676.601L-306.351 677.617C-310.38 683.233 -314.944 689.603 -317.484 693.239C-357.781 750.197 -399.128 810.141 -439.112 868.117L-446.002 878.113L-446.082 878.23C-465.937 907.555 -485.324 936.052 -504.297 962.407C-508.682 968.588 -513.561 975.397 -518.762 982.66L-519.651 983.898C-538.248 1009.86 -559.329 1039.29 -574.023 1062.05C-589.398 1085.81 -605.194 1111.83 -616.555 1141.14L-616.62 1141.32C-619.828 1149.88 -624.175 1158.6 -630.31 1168.78C-646.95 1196.45 -669.779 1223.45 -691.942 1249.67C-700.283 1259.53 -708.909 1269.73 -717.206 1279.97C-772.937 1347.26 -830.171 1413.12 -887.316 1475.73L-918.838 1510.25" stroke="white" stroke-miterlimit="10" style="mix-blend-mode:overlay"/>
<path d="M-776.516 1602.99L-759.905 1579.21C-717.111 1517.95 -672.011 1456.91 -628.384 1397.87L-611.948 1375.54L-603.284 1363.58C-596.571 1354.76 -589.394 1345.57 -583.062 1337.46L-582.962 1337.34C-558.654 1306.22 -533.52 1274.03 -512.945 1237.53C-504.831 1223.26 -498.132 1209.31 -493.028 1196.1L-490.031 1187.89L-489.138 1185.38C-485.805 1176.58 -481.56 1167.69 -475.392 1156.59C-461.643 1131.95 -445.099 1107.53 -430.739 1086.67C-414.997 1064.34 -399.035 1041.21 -383.599 1018.85L-383.416 1018.59C-365.835 993.113 -347.657 966.777 -329.781 941.566C-288.102 884.402 -237.498 829.35 -188.563 776.103L-178.748 765.421L-178.529 765.175C-177.224 763.687 -176.095 762.429 -174.963 761.169C-172.672 758.623 -170.512 756.216 -167.331 752.367L-167.165 752.161C-161.034 744.455 -154.463 737.816 -145.179 729.956C-137.367 723.333 -128.382 716.37 -118.874 708.996C-104.14 697.566 -88.9007 685.745 -75.4047 673.278C-64.5815 663.429 -54.6956 653.315 -45.9147 643.111L-45.1808 643.695L-32.6906 626.55C-32.1726 625.849 -31.661 625.147 -31.2064 624.512L-29.2621 621.845L-28.7151 621.168C-25.3579 617.519 -21.5724 614.194 -17.6656 610.828C6.30055 590.854 29.3543 576.5 50.8482 568.166C57.9075 565.638 64.8926 564.044 74.8697 562.691C82.4106 561.692 90.4171 561.028 98.9262 560.326C110.689 559.355 122.85 558.351 135.115 556.362C155.597 553.311 176.584 547.509 194.163 540.044C204.513 535.702 214.085 530.644 223.375 525.735C228.03 523.276 232.844 520.728 237.7 518.331L238.037 518.158C242.114 516.038 247.008 513.617 251.73 511.282L251.905 511.193C264.945 504.753 279.718 497.454 291.045 489.994C303.482 482.474 317.715 473.458 329.667 461.52C348.705 443.069 363.869 420.29 377.386 389.869C378.992 386.278 381.197 381.193 383.341 376.245L383.449 375.993C385.069 372.249 386.655 368.6 388.008 365.529L389.244 362.633C400 337.517 411.127 311.547 420.5 284.814L420.772 283.984C427.259 263.037 426.197 242.818 424.07 224.017C422.344 209.7 419.736 196.151 417.219 183.06L416.007 176.739C410.874 148.531 403.383 117.685 393.718 84.9825C393.291 83.5928 392.773 81.7639 392.22 79.8082C391.437 77.0542 390.626 74.2032 389.964 72.1269C387.418 63.8865 383.833 55.2722 379.833 47.79C360.855 13.0236 336.327 -15.8719 312.609 -43.8173C306.297 -51.2507 299.772 -58.9344 293.309 -66.8022L293.207 -66.922C279.333 -83.3086 265.344 -99.6015 251.589 -115.394L251.367 -115.649C250.81 -116.26 250.246 -116.888 249.621 -117.588L249.478 -117.746C247.125 -120.377 244.465 -123.351 241.514 -126.143C229.931 -137.666 217.423 -147.894 203.403 -159.153C179.218 -178.32 154.515 -198.817 123.241 -225.679C74.1842 -267.166 15.9765 -301.694 -54.6708 -331.213C-88.6735 -345.576 -118.72 -356.194 -146.638 -363.704C-177.675 -371.658 -220.483 -376.591 -261.897 -381.366C-286.526 -384.202 -314.439 -387.418 -337.189 -391.314C-365.974 -396.244 -373.462 -400.159 -374.67 -400.89C-396.752 -424.361 -421.831 -488.085 -416.481 -519.401L-416.452 -519.564C-411.772 -549.859 -393.686 -579.216 -376.195 -607.603C-373.687 -611.673 -371.19 -615.73 -368.7 -619.832C-357.311 -638.666 -345.106 -657.682 -333.298 -676.077C-319.156 -698.111 -304.537 -720.893 -290.866 -744.033C-272.789 -769.448 -248.945 -791.215 -222.029 -814.912C-201.629 -832.431 -179.752 -849.804 -157.011 -866.54C-101.501 -907.233 -43.2781 -952.062 13.0292 -995.419L13.2832 -995.612C25.3692 -1004.92 37.3291 -1014.13 49.0217 -1023.11L52.556 -1025.81C57.2725 -1029.42 69.7759 -1038.96 74.8664 -1042.42C101.061 -1059.26 129.754 -1074.25 157.513 -1088.76C183.413 -1102.29 210.194 -1116.28 236.214 -1132.38C243.49 -1137 250.664 -1141.98 257.067 -1146.87L257.738 -1147.4C274.401 -1161.07 289.371 -1176.21 303.86 -1190.86L304.228 -1191.23C317.328 -1204.53 331.155 -1218.88 344.586 -1232.82L344.724 -1232.97C361.353 -1250.23 378.553 -1268.09 394.844 -1284.42" stroke="white" stroke-miterlimit="10" style="mix-blend-mode:overlay"/>
<path d="M-1209.54 -817.939L-1172.52 -781.156C-1133.46 -742.922 -1093.06 -703.385 -1057.01 -662.619C-1036.86 -638.65 -1013.35 -612.735 -985.149 -583.42C-979.678 -577.711 -974.205 -572.134 -968.914 -566.735L-968.657 -566.473C-960.341 -557.993 -951.742 -549.231 -943.313 -540.113C-937.488 -533.955 -931.49 -527.296 -925.661 -520.836C-913.927 -507.826 -901.794 -494.373 -888.443 -481.817C-827.36 -424.865 -748.033 -395.335 -671.347 -371.885C-664.041 -369.699 -656.418 -367.438 -648.483 -365.08C-613.706 -354.761 -574.292 -343.06 -542.262 -331.919C-502.633 -318.491 -460.318 -304.442 -416.872 -293.169L-416.59 -293.096C-398.946 -288.881 -381.137 -284.769 -363.914 -280.794L-363.198 -280.627C-312.785 -268.992 -260.653 -256.965 -211.221 -241.927C-193.273 -236.468 -177.594 -230.912 -161.826 -224.416C-128.02 -210.695 -93.6622 -194.791 -60.4376 -179.415C-34.0742 -167.215 -6.81368 -154.596 20.0712 -143.1C38.5365 -134.938 55.0804 -127.529 70.6866 -119.449L73.0075 -118.277C97.6012 -105.881 123.025 -93.0661 145.878 -78.6347C160.554 -69.2967 172.189 -60.8136 181.269 -49.775L181.374 -49.6517C202.707 -24.5217 230.321 8.40376 254.752 40.2431C263.912 52.1883 275.582 67.919 284.641 83.7226C287.789 89.1157 290.304 94.578 291.736 99.1401C300.322 133.566 306.122 164.361 309.462 193.365C311.164 207.027 312.875 221.374 313.479 233.247C313.601 236.545 313.887 244.071 313.223 246.768C301.809 271.673 288.342 296.899 275.315 321.307L272.615 326.373C267.257 336.412 261.179 347.792 254.945 355.6C249.413 362.651 245.126 366.669 239.66 369.928C238.75 370.471 237.823 370.985 236.805 371.513L227.381 376.304L223.214 378.617C219.712 380.481 212.264 383.367 206.297 385.673L205.925 385.816C202.115 387.291 198.515 388.685 195.504 389.969C179.891 396.234 164.383 402.859 151.266 408.515L151.122 408.579C132.582 416.913 111.184 417.748 88.5364 418.636C79.1343 419.006 69.4101 419.385 59.1828 420.305C42.3719 421.863 27.2216 424.513 14.2046 428.157C-7.00606 433.977 -29.0867 443.501 -53.3708 457.311C-81.3817 473.505 -105.273 490.818 -126.405 510.249C-130.262 513.799 -135.056 518.702 -138.256 522.112L-139.705 523.721C-141.758 526.001 -142.153 526.5 -142.295 526.677C-142.465 526.891 -142.747 527.22 -143.064 527.598C-143.978 528.685 -145.022 529.935 -145.871 531.041L-146.907 532.426C-151.118 538.05 -155.469 543.867 -159.921 548.826C-173.263 563.802 -189.8 577.904 -205.806 591.555C-227.496 610.054 -249.924 629.188 -268.284 652.906C-271.354 656.76 -274.029 660.612 -276.619 664.338L-277.797 666.029C-278.158 666.565 -278.583 667.218 -279.058 667.96L-279.205 668.19C-279.74 669.024 -280.032 669.472 -280.195 669.711L-280.726 670.455C-283.059 673.82 -288.05 680.787 -292.448 686.929L-292.772 687.38C-296.785 692.972 -301.33 699.315 -303.845 702.91C-344.119 759.839 -385.438 819.745 -425.469 877.785L-432.248 887.616C-452.187 917.074 -471.661 945.695 -490.673 972.095C-495.073 978.294 -499.965 985.123 -505.178 992.407L-506.063 993.643C-524.553 1019.45 -545.509 1048.71 -559.991 1071.15C-574.884 1094.15 -590.151 1119.28 -600.969 1147.2C-604.547 1156.75 -609.32 1166.34 -615.986 1177.41C-633.315 1206.23 -656.585 1233.75 -679.086 1260.37C-687.423 1270.22 -696.041 1280.42 -704.281 1290.58C-760.206 1358.1 -817.635 1424.19 -874.975 1487.02L-894.49 1508.39" stroke="white" stroke-miterlimit="10" style="mix-blend-mode:overlay"/>
<path d="M-778.684 1587.86L-768.462 1573.24C-725.592 1511.87 -680.446 1450.77 -636.794 1391.68L-620.405 1369.42L-611.667 1357.35C-604.863 1348.42 -597.614 1339.14 -591.2 1330.93C-567.125 1300.11 -542.232 1268.24 -522.017 1232.38C-514.158 1218.55 -507.681 1205.08 -502.766 1192.35L-499.873 1184.41L-498.951 1181.81C-495.426 1172.49 -490.973 1163.14 -484.515 1151.51C-470.541 1126.46 -453.81 1101.77 -439.275 1080.66C-423.501 1058.29 -407.492 1035.09 -392.012 1012.66C-374.404 987.151 -356.193 960.768 -338.219 935.426C-296.19 877.786 -245.398 822.522 -196.252 769.052L-186.509 758.448L-186.388 758.31C-185.049 756.779 -183.887 755.49 -182.728 754.198C-180.515 751.734 -178.421 749.406 -175.43 745.788L-175.342 745.675C-168.763 737.406 -161.763 730.327 -151.935 722.007C-143.972 715.256 -134.904 708.224 -125.282 700.762C-110.719 689.464 -95.6595 677.785 -82.4386 665.574C-69.1679 653.495 -57.412 641.077 -47.4075 628.575L-47.2019 628.741L-41.0967 620.363C-40.6019 619.691 -40.1143 619.025 -39.6517 618.378L-37.5536 615.497L-36.6378 614.368C-32.8162 610.178 -28.6411 606.511 -24.4269 602.888C0.501857 582.105 24.6036 567.145 47.1921 558.405C55.0356 555.585 62.671 553.834 73.4957 552.361C81.2821 551.327 89.4019 550.656 98.0343 549.945C109.605 548.99 121.569 548.001 133.574 546.057C153.211 543.13 173.307 537.577 190.123 530.441C200.04 526.281 209.402 521.333 218.467 516.545C223.195 514.047 228.082 511.461 233.068 508.998L233.21 508.924C237.352 506.765 242.314 504.314 247.115 501.942L247.28 501.861C260.117 495.519 274.666 488.334 285.462 481.194C297.461 473.946 311.183 465.27 322.344 454.104C340.414 436.602 354.876 414.84 367.853 385.634C369.446 382.076 371.629 377.03 373.759 372.122C375.43 368.266 377.063 364.495 378.405 361.461L379.637 358.58C390.329 333.62 401.387 307.804 410.646 281.396L410.798 280.935C416.718 261.818 415.698 242.932 413.705 225.314C412.019 211.362 409.45 197.988 406.964 185.065L405.736 178.649C400.675 150.816 393.275 120.365 383.732 88.0674C383.291 86.6211 382.753 84.722 382.196 82.769C381.426 80.068 380.636 77.2746 379.99 75.2486C377.636 67.6249 374.334 59.6842 370.666 52.831C352.204 19.0072 328.042 -9.46019 304.645 -37.0221C298.283 -44.5137 291.708 -52.2617 285.238 -60.1402C271.334 -76.5599 257.381 -92.8126 243.763 -108.449L243.648 -108.577C243.069 -109.21 242.485 -109.863 241.83 -110.597L241.712 -110.728C239.465 -113.242 236.923 -116.085 234.249 -118.602C223.014 -129.795 210.71 -139.852 196.922 -150.926C172.636 -170.173 147.846 -190.74 116.503 -217.662C68.2739 -258.451 10.9473 -292.44 -58.7274 -321.552C-92.2929 -335.728 -121.866 -346.186 -149.224 -353.546C-179.578 -361.326 -222.025 -366.217 -263.082 -370.946C-287.86 -373.799 -315.941 -377.035 -338.941 -380.978C-372.584 -386.74 -380.168 -391.493 -381.862 -393.268C-406.063 -418.575 -432.704 -486.356 -426.762 -521.117C-421.757 -553.501 -403.108 -583.767 -385.071 -613.04C-382.575 -617.091 -380.087 -621.129 -377.618 -625.192C-366.172 -644.127 -353.926 -663.202 -342.069 -681.674C-327.899 -703.752 -313.251 -726.585 -299.618 -749.679C-280.865 -776.159 -256.421 -798.49 -228.817 -822.792C-208.236 -840.467 -186.144 -858.009 -163.167 -874.919C-107.673 -915.594 -49.4239 -960.449 6.92726 -1003.85C19.0168 -1013.15 30.9837 -1022.37 42.7086 -1031.37L45.5741 -1033.56L45.9568 -1033.85C50.829 -1037.57 63.7472 -1047.46 69.1286 -1051.09C95.7529 -1068.22 124.685 -1083.34 152.695 -1097.97C178.433 -1111.42 205.044 -1125.32 230.634 -1141.15C237.663 -1145.61 244.564 -1150.4 250.639 -1155.04L251.127 -1155.42C267.375 -1168.75 282.154 -1183.7 296.444 -1198.15L296.801 -1198.52C309.882 -1211.79 323.716 -1226.15 337.095 -1240.04L337.215 -1240.17C353.903 -1257.49 371.155 -1275.4 387.465 -1291.76" stroke="white" stroke-miterlimit="10" style="mix-blend-mode:overlay"/>
<path d="M-1194.56 -817.728L-1165.22 -788.622C-1125.99 -750.224 -1085.42 -710.516 -1049.1 -669.434C-1029.09 -645.621 -1005.7 -619.846 -977.607 -590.641C-972.199 -584.993 -966.739 -579.433 -961.459 -574.049L-961.239 -573.826C-952.857 -565.283 -944.191 -556.448 -935.719 -547.289C-929.802 -541.032 -923.755 -534.325 -917.901 -527.833C-906.308 -514.976 -894.318 -501.681 -881.32 -489.46C-821.782 -433.956 -743.801 -404.967 -668.351 -381.898C-661.052 -379.712 -653.438 -377.456 -645.51 -375.099C-610.613 -364.741 -571.06 -352.999 -538.906 -341.816C-499.468 -328.452 -457.369 -314.471 -414.298 -303.296L-414.155 -303.258C-396.493 -299.034 -378.647 -294.917 -361.389 -290.934L-360.844 -290.806C-310.254 -279.132 -257.939 -267.058 -208.177 -251.921C-189.907 -246.367 -173.944 -240.705 -157.897 -234.095C-123.877 -220.287 -89.4408 -204.347 -56.05 -188.894C-29.7444 -176.718 -2.54086 -164.129 24.2953 -152.652C42.9151 -144.421 59.6107 -136.947 75.3904 -128.773L77.6753 -127.619C102.498 -115.109 128.162 -102.171 151.482 -87.4461C166.998 -77.5713 179.362 -68.5345 189.332 -56.4097C210.742 -31.1858 238.471 1.86747 263.035 33.8884C272.395 46.0948 284.33 62.1887 293.654 78.4581C297.259 84.6286 300.141 90.9653 301.791 96.324C310.528 131.303 316.423 162.602 319.822 192.076C321.547 205.931 323.285 220.5 323.912 232.848C324.128 238.554 324.421 246.334 323.011 250.479C311.412 275.853 297.749 301.46 284.528 326.221L281.824 331.29C276.251 341.73 269.932 353.565 263.158 362.046C256.84 370.099 251.576 374.981 245.005 378.898C243.912 379.55 242.796 380.164 241.54 380.817L232.115 385.609L228.222 387.776C224.187 389.943 216.666 392.852 210.028 395.421L209.849 395.49C206.018 396.975 202.394 398.376 199.486 399.616C183.934 405.856 168.532 412.435 155.404 418.099C135.016 427.26 112.694 428.138 88.9429 429.064C79.6542 429.427 70.0524 429.802 60.1471 430.692C43.9603 432.192 29.4192 434.729 16.9687 438.218C-3.38884 443.806 -24.673 452.994 -48.1437 466.341C-75.4793 482.145 -98.7685 499.016 -119.336 517.925C-122.985 521.281 -127.571 525.975 -130.647 529.25L-131.05 529.7C-131.183 529.852 -131.495 530.193 -131.843 530.582L-131.948 530.697C-132.378 531.172 -133.806 532.765 -134.169 533.223C-134.378 533.484 -134.714 533.882 -135.084 534.317C-135.946 535.338 -136.888 536.47 -137.511 537.285L-138.51 538.624C-142.869 544.447 -147.37 550.468 -152.124 555.766C-165.942 571.274 -182.752 585.613 -199.011 599.48C-220.321 617.654 -242.357 636.45 -260.069 659.345C-262.946 662.956 -265.541 666.685 -268.048 670.29L-269.146 671.87C-269.475 672.358 -269.86 672.952 -270.266 673.585L-270.411 673.809C-271.321 675.228 -271.669 675.736 -271.801 675.911L-272.148 676.391C-274.506 679.792 -279.315 686.507 -283.97 693.003L-284.29 693.451C-288.513 699.34 -292.879 705.427 -295.324 708.929C-335.589 765.84 -376.912 825.755 -416.876 883.698L-423.606 893.459C-443.585 922.968 -463.096 951.646 -482.16 978.126C-486.591 984.365 -491.511 991.239 -496.693 998.476L-497.581 999.714C-516.004 1025.43 -536.885 1054.58 -551.233 1076.81C-565.822 1099.35 -580.76 1123.91 -591.199 1150.85C-595.007 1161.01 -600.039 1171.16 -607.046 1182.78C-624.802 1212.3 -648.339 1240.15 -671.123 1267.09C-679.455 1276.95 -688.067 1287.14 -696.249 1297.23C-752.266 1364.86 -809.802 1431.08 -867.273 1494.04L-879.282 1507.2" stroke="white" stroke-miterlimit="10" style="mix-blend-mode:overlay"/>
<path d="M-781.434 1568.7L-779.304 1565.66C-736.283 1504.08 -691.023 1442.82 -647.246 1383.58L-631.113 1361.66L-622.248 1349.42C-615.453 1340.49 -608.432 1331.51 -601.645 1322.81C-577.861 1292.36 -553.266 1260.88 -533.522 1225.85C-525.983 1212.58 -519.807 1199.76 -515.145 1187.68L-512.34 1179.99L-511.353 1177.21C-507.585 1167.23 -502.869 1157.32 -496.061 1145.07C-481.804 1119.51 -464.84 1094.47 -450.079 1073.04C-434.371 1050.75 -418.366 1027.57 -402.891 1005.15C-385.227 979.554 -366.96 953.089 -348.9 927.63C-306.414 869.364 -255.36 813.821 -205.985 760.103L-196.332 749.595C-194.937 748.004 -193.736 746.663 -192.577 745.377C-190.449 743.011 -188.441 740.777 -185.681 737.443C-178.534 728.457 -170.995 720.825 -160.474 711.914C-152.337 705.02 -143.151 697.891 -133.421 690.348C-119.063 679.211 -104.215 667.694 -91.3269 655.788C-75.0023 640.931 -61.1384 625.631 -50.134 610.322L-49.7326 609.773L-48.0179 607.428L-46.6628 605.755C-42.2691 600.891 -37.616 596.797 -32.8755 592.721C-6.80443 570.987 18.63 555.259 42.6387 545.984C51.4414 542.811 59.8878 540.855 71.7688 539.238C79.8888 538.159 88.174 537.475 96.953 536.749C108.274 535.814 119.977 534.848 131.635 532.961C150.198 530.191 169.163 524.958 185.021 518.229C194.398 514.295 203.498 509.485 212.3 504.835C217.127 502.283 222.118 499.647 227.115 497.176C231.378 494.952 236.258 492.542 241.426 489.991C254.022 483.77 268.287 476.718 278.401 469.996C289.819 463.101 302.858 454.878 313.153 444.582C329.968 428.298 343.516 407.845 355.791 380.211C357.369 376.686 359.529 371.698 361.633 366.838C363.317 362.955 364.961 359.153 366.257 356.222L367.491 353.345C378.1 328.579 389.066 302.969 398.174 276.993C403.374 260.204 402.405 242.994 400.584 226.869C398.955 213.394 396.43 200.241 393.984 187.526C393.562 185.334 393.143 183.146 392.733 180.991C387.751 153.619 380.476 123.656 371.096 91.9069C370.632 90.3933 370.068 88.4008 369.488 86.3643C368.744 83.7504 367.974 81.0431 367.367 79.1347C365.255 72.2948 362.313 65.2052 359.072 59.1477C341.259 26.5094 317.546 -1.42252 294.614 -28.4339C288.205 -35.9799 281.58 -43.7862 275.157 -51.6102C261.339 -67.9316 247.473 -84.0859 233.888 -99.6856C233.228 -100.41 232.563 -101.154 231.885 -101.91C229.654 -104.403 227.349 -106.979 225.053 -109.128C214.246 -119.907 202.212 -129.744 188.72 -140.58C164.294 -159.936 139.394 -180.595 107.973 -207.582C60.7873 -247.485 4.57889 -280.788 -63.8584 -309.383C-96.8586 -323.323 -125.836 -333.579 -152.49 -340.752C-181.972 -348.308 -223.965 -353.144 -264.569 -357.822C-320.742 -364.292 -378.823 -370.986 -391.403 -384.143C-418.395 -412.364 -446.604 -483.447 -439.815 -523.158C-434.4 -558.18 -415.041 -589.606 -396.314 -620C-393.834 -624.027 -391.362 -628.042 -388.922 -632.054C-377.414 -651.087 -365.127 -670.233 -353.245 -688.747C-339.025 -710.908 -324.322 -733.817 -310.721 -756.887C-291.094 -784.736 -265.897 -807.778 -237.42 -832.842C-216.635 -850.688 -194.281 -868.442 -170.975 -885.603C-115.801 -926.046 -57.5169 -970.922 -1.16306 -1014.31C10.9408 -1023.63 22.9221 -1032.86 34.697 -1041.9L37.5482 -1044.08C44.5908 -1049.47 56.394 -1058.47 61.9115 -1062.18C89.0675 -1079.66 118.286 -1094.93 146.545 -1109.69C172.083 -1123.04 198.494 -1136.83 223.555 -1152.34C230.258 -1156.59 236.801 -1161.13 242.574 -1165.53L242.746 -1165.66C258.457 -1178.56 272.995 -1193.26 287.053 -1207.47L287.391 -1207.81C300.473 -1221.09 314.311 -1235.46 327.697 -1249.35C344.441 -1266.74 361.753 -1284.71 378.111 -1301.11" stroke="white" stroke-miterlimit="10" style="mix-blend-mode:overlay"/>
<path d="M-1175.59 -817.461L-1156.01 -798.113C-1116.55 -759.499 -1075.75 -719.568 -1039.07 -678.062C-1019.24 -654.449 -996.004 -628.846 -968.056 -599.792C-962.655 -594.154 -957.134 -588.528 -951.798 -583.085C-943.338 -574.461 -934.59 -565.541 -926.112 -556.374C-920.125 -550.041 -914.014 -543.264 -908.104 -536.713C-896.684 -524.046 -884.872 -510.948 -872.305 -499.13C-814.734 -445.453 -738.446 -417.153 -664.566 -394.562C-657.275 -392.381 -649.671 -390.123 -641.872 -387.809C-606.799 -377.399 -567.045 -365.601 -534.667 -354.339C-495.454 -341.054 -453.616 -327.156 -411.084 -316.124C-393.41 -311.899 -375.398 -307.744 -357.982 -303.723C-307.136 -291.988 -254.559 -279.86 -204.331 -264.58C-185.645 -258.896 -169.314 -253.108 -152.926 -246.356C-118.611 -232.429 -84.0294 -216.424 -50.5871 -200.948C-24.3331 -188.795 2.81633 -176.232 29.6371 -164.76C48.4539 -156.442 65.3282 -148.889 81.3394 -140.598L83.6216 -139.447C108.726 -126.79 134.688 -113.706 158.58 -98.6186C175.161 -88.0677 188.449 -78.3158 199.416 -64.9815C220.931 -39.6343 248.798 -6.40844 273.532 25.828C283.142 38.3635 295.415 54.9136 305.079 71.7778C309.26 78.9409 312.622 86.3951 314.547 92.7829C323.467 128.454 329.487 160.383 332.95 190.431C334.705 204.518 336.473 219.364 337.131 232.339C337.412 239.739 337.752 248.938 335.261 255.487C323.446 281.387 309.597 307.336 296.205 332.437L293.505 337.496C287.658 348.445 281.034 360.859 273.566 370.203C266.171 379.627 259.859 385.434 251.772 390.258C250.449 391.046 249.094 391.792 247.537 392.6L238.113 397.392L234.482 399.421C229.728 401.973 221.803 405.043 214.81 407.746C210.966 409.236 207.338 410.64 204.488 411.852C189.045 418.05 173.775 424.572 160.828 430.155C138.103 440.369 114.536 441.291 89.5838 442.268C80.4147 442.625 70.9353 442.997 61.3745 443.857C45.9808 445.283 32.2135 447.677 20.4705 450.966C1.18691 456.255 -19.0846 465.027 -41.5225 477.784C-68.0153 493.098 -90.536 509.41 -110.381 527.65C-113.755 530.75 -118.04 535.141 -120.928 538.211L-121.033 538.325C-121.192 538.509 -121.637 539.001 -122.121 539.54C-122.883 540.388 -123.722 541.328 -123.88 541.522C-124.134 541.835 -124.539 542.319 -124.978 542.835C-125.695 543.683 -126.486 544.626 -126.923 545.197L-127.912 546.518C-132.445 552.58 -137.133 558.847 -142.256 564.55C-156.682 580.738 -173.841 595.376 -190.437 609.529C-211.239 627.27 -232.746 645.617 -249.739 667.579C-252.329 670.823 -254.805 674.388 -257.204 677.832L-258.194 679.256C-258.511 679.724 -258.885 680.309 -259.282 680.923C-259.94 681.952 -260.688 683.117 -261.202 683.792L-261.288 683.909C-263.746 687.454 -268.697 694.362 -273.482 701.042C-277.919 707.23 -282.111 713.078 -284.536 716.553C-324.647 773.25 -366.005 833.208 -405.997 891.196L-412.66 900.86C-432.675 930.426 -452.227 959.168 -471.381 985.767C-476.062 992.362 -481.294 999.666 -486.798 1007.35C-505.158 1032.98 -525.964 1062.03 -540.141 1083.99C-554.345 1105.93 -568.863 1129.78 -578.828 1155.48C-582.927 1166.42 -588.297 1177.26 -595.725 1189.59C-614.035 1220.03 -637.926 1248.29 -661.035 1275.62C-669.341 1285.45 -677.929 1295.61 -686.076 1305.66C-742.235 1373.46 -799.918 1439.84 -857.518 1502.95L-860.018 1505.69" stroke="white" stroke-miterlimit="10" style="mix-blend-mode:overlay"/>
<path d="M-782.156 1563.66C-736.782 1498.72 -689.905 1435.46 -642.799 1371.7L-633.932 1359.61L-625.017 1347.31C-594.441 1307.14 -561.79 1268.91 -536.545 1224.12C-529.9 1212.42 -523.435 1199.49 -518.409 1186.48L-515.617 1178.82L-514.608 1175.97C-510.353 1164.7 -505.172 1154.29 -499.1 1143.36C-485.244 1118.52 -469.155 1094.59 -452.925 1071.02C-419.345 1023.39 -385.698 973.484 -351.714 925.566C-306.34 863.342 -251.16 804.14 -198.95 747.291C-194.991 742.77 -192.539 740.265 -188.402 735.263C-180.631 725.495 -172.804 717.785 -162.723 709.249C-142.44 692.057 -115.138 673.035 -93.6663 653.204C-79.0603 639.907 -64.6989 624.607 -52.9488 608.265L-51.6293 606.449L-50.9708 605.539C-50.6549 605.1 -50.799 605.311 -50.7447 605.241C-50.7188 605.216 -50.7154 605.191 -50.7032 605.148L-50.3263 604.685L-50.143 604.443L-49.8434 604.101L-49.2525 603.407C-44.8516 598.537 -40.2623 594.463 -35.108 590.032C-12.4154 571.126 13.831 553.368 41.456 542.698C51.2304 539.174 60.1806 537.292 71.3092 535.78C90.2299 533.264 110.696 532.817 131.123 529.508C148.448 526.925 167.098 522.045 183.679 515.008C198.047 508.981 211.595 500.952 225.511 494.08C240.335 486.358 262.55 476.358 276.533 467.052C288.283 459.96 300.855 451.957 310.736 442.074C329.692 423.715 342.356 401.881 352.619 378.783C355.451 372.444 360.187 361.359 363.064 354.849C374.077 329.136 385.478 302.702 394.856 275.96C399.889 259.717 398.921 243.116 397.135 227.282C395.246 211.64 392.158 196.556 389.315 181.607C383.899 151.826 376.301 121.781 367.77 92.9174C366.715 89.4655 365.122 83.543 364.04 80.1516C361.921 73.2883 359.046 66.4709 356.018 60.805C333.423 19.4074 301.747 -13.7527 272.503 -49.3694C258.887 -65.4485 245.138 -81.4779 231.315 -97.3537C228.528 -100.412 225.573 -103.892 222.595 -106.674C211.444 -117.802 198.555 -128.232 186.557 -137.865C158.771 -159.882 132.407 -182.022 105.724 -204.937C54.2082 -248.505 -3.73889 -280.503 -65.2182 -306.188C-93.5578 -318.16 -123.284 -329.299 -153.361 -337.391C-224.964 -355.737 -371.19 -357.972 -393.93 -381.75C-421.834 -410.923 -450.286 -482.635 -443.266 -523.705C-437.028 -564.071 -413.023 -599.098 -391.914 -633.869C-366.607 -675.726 -338.619 -716.437 -313.659 -758.794C-293.272 -787.754 -266.318 -812.069 -239.701 -835.498C-218.227 -853.939 -195.933 -871.573 -173.048 -888.425C-105.982 -937.591 -33.7137 -993.766 32.5773 -1044.69C39.0826 -1049.64 53.5196 -1060.75 60.0181 -1065.13C111.821 -1098.47 169.015 -1122.71 221.685 -1155.29C228.006 -1159.3 234.542 -1163.79 240.535 -1168.37C256.231 -1181.25 270.848 -1196.06 284.906 -1210.27C314.243 -1240.04 346.111 -1273.98 375.645 -1303.58" stroke="white" stroke-miterlimit="10" style="mix-blend-mode:overlay"/>
<path d="M-1170.6 -817.393C-1170.6 -817.393 -1076.74 -725.946 -1036.41 -680.304C-1014 -653.63 -989.662 -627.277 -965.542 -602.202C-951.59 -587.642 -937.402 -573.714 -923.582 -558.77C-906.169 -540.357 -888.957 -519.572 -869.93 -501.677C-812.482 -448.117 -737.288 -420.443 -663.565 -397.901C-623.166 -385.815 -573.11 -371.406 -533.55 -357.637C-492.869 -343.853 -452.013 -330.337 -410.276 -319.509C-340.931 -302.927 -270.867 -288.451 -203.316 -267.908C-185.441 -262.471 -168.713 -256.623 -151.614 -249.576C-90.2668 -224.672 -29.9729 -194.035 31.0499 -167.938C48.2334 -160.344 66.2583 -152.321 82.9122 -143.7C109.15 -130.47 135.695 -117.186 160.454 -101.548C176.032 -91.6363 190.456 -81.3528 202.075 -67.231C227.033 -37.8315 252.908 -6.77096 276.301 23.7152C287.685 38.5599 298.96 54.0932 308.092 70.0284C312.106 76.8994 315.784 84.775 317.91 91.8642C325.977 124.111 332.618 157.106 336.407 190.007C338.135 203.865 339.937 218.866 340.612 232.213C340.926 240.539 341.212 249.756 338.473 256.84C325.822 284.59 311.082 311.937 296.576 339.139C290.611 350.319 283.93 362.815 276.308 372.356C269.278 381.31 262.631 387.842 253.553 393.252C252.161 394.082 250.722 394.874 249.107 395.71L243.531 398.521L239.793 400.446L237.446 401.733L236.131 402.493C228.574 406.55 214.065 411.57 205.787 415.09C191.202 420.944 176.655 427.13 162.254 433.336C130.313 447.689 96.8342 444.174 61.6952 447.325C48.9708 448.504 34.688 450.601 21.3935 454.326C-0.0371254 460.207 -20.8489 470.036 -39.7799 480.802C-64.3344 494.999 -87.0088 510.902 -108.026 530.217C-111.246 533.178 -115.383 537.399 -118.391 540.6C-118.787 541.061 -120.895 543.371 -121.169 543.716C-121.824 544.527 -123.48 546.437 -124.131 547.29C-129.112 553.943 -134.065 560.649 -139.652 566.871C-172.233 603.439 -216.596 630.441 -247.011 669.76C-249.868 673.344 -252.617 677.366 -255.298 681.212C-256.165 682.501 -257.503 684.701 -258.417 685.907C-263.104 692.671 -276.541 711.223 -281.684 718.577C-324.018 778.42 -367.983 842.247 -409.768 902.825C-428.545 930.557 -449.006 960.673 -468.533 987.794C-488.599 1016.07 -518.774 1057.33 -537.205 1085.89C-551.122 1107.39 -565.752 1131.42 -575.555 1156.72C-580.095 1168.84 -585.857 1179.99 -592.728 1191.4C-617.817 1233.11 -652.568 1269.89 -683.381 1307.89C-738.658 1374.63 -796.546 1441.34 -854.933 1505.31" stroke="white" stroke-miterlimit="10" style="mix-blend-mode:overlay"/>
</g>
</svg>
