<svg width="1512" height="1353" viewBox="0 0 1512 1353" fill="none" xmlns="http://www.w3.org/2000/svg">
<g style="mix-blend-mode:overlay" clip-path="url(#clip0_3820_5107)">
<g opacity="0.8">
<g style="mix-blend-mode:overlay">
<path d="M-696.454 1015.12L-688.591 1014.19C-627.573 1006.94 -565.364 1000.87 -505.181 994.982L-482.912 992.768L-470.684 991.482C-461.513 990.689 -452.162 989.97 -443.12 989.277C-411.215 986.828 -378.222 984.296 -346.086 977.939C-333.779 975.542 -322.559 972.698 -312.654 969.461L-306.581 967.366L-304.506 966.632C-296.808 964.06 -288.529 961.935 -277.698 959.733C-254.77 955.118 -230.411 951.943 -209.433 949.337C-187.195 946.775 -164.329 943.952 -142.224 941.225C-117.006 938.116 -90.9201 934.898 -65.5887 932.032C-6.99544 926.012 55.4866 925.076 115.962 924.167L127.923 923.987C129.652 923.927 131.12 923.898 132.542 923.863C135.233 923.803 137.771 923.742 141.521 923.533C150.651 922.894 159.31 923.002 170.471 923.892C179.274 924.591 188.877 925.675 199.071 926.821C214.263 928.532 229.977 930.296 244.757 930.987C261.822 931.888 277.831 931.667 292.383 930.338L292.381 930.356L294.349 930.157C295.012 930.094 295.665 930.021 296.329 929.95L299.4 929.634L300.935 929.534C306.068 929.427 311.011 929.757 315.973 930.124C343.722 932.502 367.71 937.143 387.195 943.887C394.082 946.406 400.14 949.302 408.084 953.86C413.606 957.045 419.06 960.514 424.844 964.181C432.43 968.996 440.269 973.973 448.622 978.535C461.944 985.997 476.952 992.538 490.864 996.965C499.051 999.593 507.462 1001.68 515.6 1003.7C519.966 1004.78 524.491 1005.9 529.005 1007.12C532.878 1008.1 537.403 1009.32 541.77 1010.5C553.117 1013.56 565.977 1017.04 576.268 1018.78C587.414 1021.03 600.359 1023.45 612.908 1023.66C633.02 1024.25 653.389 1021.44 677.002 1014.81C679.966 1013.99 684.11 1012.79 688.144 1011.62C691.342 1010.7 694.48 1009.79 696.961 1009.09L699.337 1008.4C719.832 1002.4 741.018 996.193 761.327 988.947L761.473 988.894C774.83 983.639 784.253 975.352 792.469 967.159C799.116 960.413 804.954 953.465 810.614 946.743L813.483 943.343C825.831 928.997 838.205 912.449 850.287 894.138C850.84 893.286 851.587 892.175 852.36 891.04C853.386 889.538 854.442 887.978 855.145 886.836C857.795 882.686 860.059 878.014 861.525 873.653C868.921 850.888 869.937 827.64 870.927 805.148C871.197 798.934 871.48 792.511 871.898 786.129C872.514 772.626 873.005 759.187 873.352 746.093C873.348 745.511 873.356 744.921 873.366 744.313L873.377 744.217C873.387 742.057 873.406 739.828 873.19 737.703C872.544 727.887 870.607 717.99 868.327 706.975C864.101 687.394 860.317 667.009 856.04 640.841C849.196 601.437 833.022 560.813 806.595 516.672C793.943 495.325 781.686 477.43 769.111 461.933C754.971 444.935 731.653 423.516 709.1 402.788C681.451 377.389 647.043 345.773 646.691 335.534C645.871 311.848 668.136 268.711 692.961 255.322C715.193 242.888 744.295 238.078 772.43 233.427C776.227 232.801 780.013 232.173 783.789 231.526C801.525 228.475 819.789 225.724 837.515 223.06C858.663 219.884 880.539 216.591 901.859 212.729C929.023 209.613 957.125 211.044 988.334 213.082C1011.07 214.778 1034.7 217.224 1058.56 220.367C1115.45 227.942 1176.52 234.973 1235.62 241.769C1248.31 243.228 1260.86 244.679 1273.18 246.103L1276.16 246.456C1281.4 247.076 1295.32 248.708 1300.97 249.633C1327.32 254.376 1353.81 261.042 1379.45 267.493C1402.76 273.359 1426.87 279.425 1451.24 284.146C1457.89 285.376 1464.64 286.413 1470.77 287.139L1471.12 287.18C1488.29 288.746 1505.61 288.972 1522.37 289.183L1522.78 289.188C1538.31 289.369 1554.9 289.41 1570.98 289.454C1591.04 289.509 1611.77 289.565 1631.01 289.877" stroke="white" stroke-width="2" stroke-miterlimit="10"/>
</g>
<g style="mix-blend-mode:overlay">
<path d="M395.816 -216.584L397.305 -195.483C400.023 -160.625 402.831 -124.592 402.242 -89.8087C401.255 -70.342 401.258 -48.4467 402.243 -22.898C402.415 -18.0081 402.666 -13.0825 402.91 -8.30768L402.923 -8.11207C403.315 -0.505662 403.712 7.36599 403.814 15.2556C403.966 20.7429 403.938 26.4735 403.918 32.0286C403.875 42.8563 403.824 54.0623 404.983 65.1382C410.532 115.663 442.059 163.398 475.304 207.464C478.579 211.751 482.01 216.224 485.554 220.834C501.342 241.388 519.244 264.688 532.88 284.37C549.683 308.175 567.781 333.466 587.992 357.904C596.585 367.902 605.362 377.94 613.848 387.643C638.62 415.982 664.233 445.286 686.606 474.841C694.882 485.772 701.658 495.678 707.937 506.037C721.274 527.747 733.634 550.524 745.587 572.555C755 589.901 764.732 607.841 774.877 625.142C781.804 637.333 787.956 648.303 793.167 659.189L793.93 660.734C802.299 677.675 810.955 695.187 817.192 712.537C821.402 724.406 824.073 734.444 823.395 744.879C822.481 765.765 821.073 792.989 818.296 818.331C817.224 828.101 815.538 840.807 812.113 852.425C810.765 857.179 808.803 861.675 806.587 865.1C792.223 884.623 778.17 901.202 763.589 915.812C756.829 922.73 749.669 929.972 742.936 935.825C739.268 938.928 734.719 942.783 730.391 944.264C708.773 950.137 685.804 955.118 663.589 959.95L659.084 960.933C649.533 963.004 638.708 965.357 629.249 966.001C620.007 966.697 613.352 966.376 606.264 964.91C605.097 964.666 603.944 964.397 602.634 964.066L594.131 961.85L590.648 961.05C586.565 960.054 580.092 957.823 574.386 955.851C571.149 954.735 568.105 953.678 565.662 952.903C552.634 948.538 539.487 944.387 528.272 940.88C509.38 935.211 494.652 925.06 479.053 914.32C473.15 910.26 467.053 906.054 460.553 901.985C450.023 895.427 439.956 890.053 430.629 886.02C415.412 879.357 397.62 873.801 376.213 869.025C350.949 863.536 327.573 860.318 304.755 859.203C300.816 859.01 295.583 858.964 291.9 858.995L291.665 859.002C291.477 859.007 290.972 859.018 290.408 859.03C289.351 859.055 288.163 859.091 287.962 859.102C287.656 859.119 287.172 859.15 286.654 859.168C285.653 859.217 284.557 859.272 283.87 859.332L282.508 859.462C276.42 860.029 270.12 860.615 263.951 860.766C246.296 861.242 227.675 859.804 209.646 858.41C186.633 856.637 162.831 854.797 139.629 856.663C136.038 856.908 132.45 857.348 128.982 857.757L127.508 857.936C127.069 857.99 126.544 858.069 125.984 858.152L125.793 858.183C125.03 858.295 123.874 858.467 123.27 858.528L123.032 858.552C119.586 858.973 112.74 859.724 106.108 860.447L105.882 860.473C99.7008 861.144 93.8745 861.786 90.442 862.191C33.8148 868.646 -25.2763 875.956 -82.4284 883.01L-91.995 884.188C-120.898 887.964 -149.033 891.583 -175.712 894.448C-182.003 895.158 -188.957 895.923 -196.278 896.723L-197.346 896.843C-223.069 899.654 -252.222 902.844 -273.365 905.977C-294.672 909.108 -317.267 912.951 -338.23 919.775C-346.624 922.6 -355.758 924.818 -366.982 926.761C-394.978 931.641 -425.372 933.06 -454.764 934.431C-465.402 934.927 -476.405 935.441 -487.098 936.115C-559.684 940.071 -632.402 942.715 -703.24 943.967L-711.247 944.104" stroke="white" stroke-width="2" stroke-miterlimit="10"/>
</g>
</g>
<g style="mix-blend-mode:overlay" opacity="0.8">
<path d="M1625.48 251.571L1624.02 251.628C1594.17 255.15 1561.95 257.606 1528.28 258.938C1511.85 259.515 1494.36 260.001 1477.03 259.017L1473.17 258.771L1467.83 258.138C1467.11 258.053 1466.37 257.974 1465.71 257.87C1438.83 253.514 1411.82 247.095 1385.7 240.879C1362.08 235.258 1337.65 229.454 1312.94 225.063L1298.45 222.862C1281.35 220.89 1263.8 219.014 1246.78 217.201C1232.88 215.713 1218.5 214.186 1204.33 212.588L1204.21 212.573C1170.4 209.469 1136.09 204.823 1102.85 200.313C1041.75 192.036 978.589 183.47 915.337 184.068L915.184 184.068C907.655 184.332 898.915 184.726 890.371 185.981C866.206 189.929 841.279 193.055 817.124 196.087C802.74 197.894 787.858 199.757 773.215 201.781C769.93 202.23 766.634 202.669 763.232 203.122C729.667 207.606 694.96 212.238 665.591 226.852C641.412 238.676 626.035 257.938 615.303 273.437C611.183 279.6 607.555 285.663 604.462 291.551C604.147 291.126 603.832 290.7 603.507 290.265C585.489 266.015 571.966 243.983 562.157 222.894C552.616 202.436 544.929 181.025 537.513 160.325C532.231 145.611 526.784 130.393 520.726 115.703C513.688 97.5613 505.782 79.4232 496.543 60.2274C495.774 58.6367 494.958 56.8463 494.171 55.1035C493.778 54.2278 493.384 53.3607 493.016 52.5761C486.734 37.4797 482.415 25.0239 479.447 13.3633C475.812 -0.678714 473.757 -15.2217 471.763 -29.2722L471.387 -31.9543C468.755 -51.4438 467.23 -69.8407 466.847 -86.7263C465.869 -105.191 464.082 -124.898 462.35 -143.954C460.663 -162.573 458.918 -181.817 457.95 -199.751C457.826 -202.173 457.689 -206.036 457.676 -208.402L457.643 -214.21" stroke="white" stroke-width="2" stroke-miterlimit="10"/>
</g>
<g opacity="0.5">
<g style="mix-blend-mode:overlay">
<path d="M-720.23 1040.47L-682.149 1035.95C-621.631 1028.76 -559.717 1022.71 -499.841 1016.85L-476.956 1014.57L-465.061 1013.33C-456.067 1012.55 -446.622 1011.82 -438.324 1011.19L-438.147 1011.18C-405.202 1008.65 -371.145 1006.03 -337.043 999.291C-323.383 996.63 -310.799 993.436 -299.629 989.793L-292.947 987.496L-291.019 986.816C-284.687 984.717 -277.701 982.942 -268.406 981.052C-246.712 976.679 -223.27 973.633 -202.993 971.112C-180.778 968.548 -158.02 965.738 -135.999 963.027L-135.583 962.979C-110.579 959.898 -84.7299 956.705 -59.6 953.859C-2.64383 948.016 59.0054 947.087 118.635 946.193L130.678 946.014L131.278 945.996C132.843 945.943 134.182 945.908 135.603 945.882C138.447 945.813 141.384 945.747 145.865 945.501L146.243 945.475C153.389 944.972 160.362 945.074 169.536 945.808C177.758 946.464 187.049 947.512 196.989 948.627C212.76 950.398 229.063 952.232 244.857 952.973C252.825 953.396 260.665 953.593 268.285 953.569L273.647 953.093L300.111 952.019C300.882 951.943 301.64 951.865 302.269 951.798L304.557 951.566C307.794 951.544 311.341 951.779 314.99 952.052C339.315 954.139 360.009 958.072 376.499 963.739C381.256 965.502 385.666 967.638 391.641 971.063C396.557 973.904 401.727 977.189 407.292 980.724C415.272 985.789 423.526 991.027 432.629 996.004C447.926 1004.56 465.212 1012.09 481.251 1017.18C490.669 1020.21 499.719 1022.46 508.485 1024.62C512.634 1025.65 516.931 1026.72 521.104 1027.84L521.697 1027.99C525.24 1028.88 529.504 1030.03 533.711 1031.17L533.87 1031.21C545.821 1034.44 559.351 1038.09 571.315 1040.16C583.882 1042.7 598.564 1045.4 614.082 1045.69C637.981 1046.37 661.699 1043.15 688.701 1035.58C691.75 1034.73 696.014 1033.5 700.169 1032.29L700.375 1032.24C703.44 1031.35 706.433 1030.49 708.963 1029.77L711.52 1029.03C732.428 1022.9 754.05 1016.57 775.224 1009.03L776.302 1008.62C794.246 1001.55 806.062 991.272 816.209 981.147C823.439 973.809 829.547 966.54 835.451 959.52L838.215 956.231C851.104 941.244 863.99 924.006 876.537 905L876.593 904.919C877.076 904.173 877.737 903.202 878.484 902.09C879.566 900.498 880.679 898.848 881.522 897.51C884.915 892.178 887.852 886.113 889.763 880.411L889.796 880.327C897.892 855.412 898.958 831.006 899.998 807.347C900.265 801.265 900.532 794.981 900.949 788.608L900.97 788.425C901.572 774.841 902.068 761.253 902.426 747.957L902.433 747.588C902.43 747.093 902.44 746.592 902.444 746.045L902.46 745.897C902.472 743.623 902.498 740.803 902.2 737.848C901.469 727.034 899.42 716.568 897.002 704.919C892.837 685.619 889.097 665.468 884.845 639.489C877.615 597.807 860.627 555.057 832.96 508.829C819.737 486.533 806.826 467.687 793.468 451.232L793.375 451.124C778.152 432.825 754.177 410.79 730.964 389.472C717.475 377.077 702.18 363.03 690.543 351.145C680.996 341.396 677.169 336.382 675.753 334.3C676.65 316.243 694.436 282.446 711.036 273.483L711.249 273.367C728.927 263.481 755.151 259.141 780.528 254.948C784.385 254.311 788.23 253.673 792.125 253.014C809.514 250.019 827.599 247.3 845.123 244.665C866.117 241.506 887.825 238.246 909.298 234.375C933.063 231.783 958.856 233.117 987.658 234.993C1009.69 236.641 1032.54 239.012 1055.56 242.039C1112.78 249.653 1173.91 256.69 1233.05 263.501L1233.33 263.534C1246 264.99 1258.54 266.431 1270.73 267.848L1274.44 268.288C1289.08 270.004 1294.56 270.776 1296.55 271.092C1321.48 275.597 1347.22 282.068 1372.14 288.336C1395.94 294.322 1420.56 300.519 1446.14 305.481L1446.3 305.5C1453.77 306.896 1461.44 308.061 1468.47 308.893L1469.68 309.018C1488.35 310.727 1506.45 310.957 1523.93 311.183L1524.4 311.186C1540.1 311.369 1556.71 311.413 1572.72 311.457L1573.03 311.458C1592.88 311.516 1613.41 311.574 1632.46 311.881" stroke="white" stroke-width="2" stroke-miterlimit="10"/>
</g>
<g style="mix-blend-mode:overlay">
<path d="M365.393 -239.727L368.341 -195.721C371.022 -161.361 373.794 -125.835 373.234 -91.9302C372.245 -72.0315 372.241 -49.7579 373.233 -23.8641C373.419 -18.7874 373.665 -13.8183 373.918 -9.02464L373.936 -8.76675C374.313 -1.33854 374.708 6.34758 374.811 14.0256L374.798 14.1387C374.955 19.3708 374.93 24.9695 374.911 30.4101C374.865 41.6784 374.823 53.3265 376.08 65.402C382.13 120.397 415.387 170.966 450.476 217.473C453.761 221.779 457.214 226.263 460.798 230.931C476.413 251.253 494.1 274.28 507.524 293.663C524.589 317.835 542.992 343.541 563.799 368.721L564.037 368.996C572.528 378.867 581.17 388.747 589.519 398.311L590.08 398.95C614.551 426.946 639.852 455.895 661.704 484.771C669.491 495.061 675.865 504.382 681.789 514.152C694.819 535.358 707.043 557.889 718.899 579.741C728.37 597.192 738.162 615.235 748.394 632.696C755.105 644.518 761.072 655.149 766.027 665.51L766.854 667.204C774.977 683.631 783.365 700.617 789.201 716.852C792.683 726.659 794.896 734.746 794.404 742.397L794.38 742.606C793.498 763.223 792.107 790.079 789.381 814.967C788.376 824.049 786.831 835.819 783.728 846.355C782.909 849.24 781.779 851.973 780.61 853.907C766.988 872.372 753.692 888.052 739.945 901.826L739.878 901.897C733.437 908.483 726.66 915.346 720.679 920.557C718.32 922.553 716.944 923.634 716.151 924.219C696.106 929.555 674.626 934.218 653.817 938.741L649.324 939.717C640.963 941.532 631.472 943.592 624.516 944.065L624.398 944.078C617.992 944.554 614.917 944.287 612.032 943.689C611.448 943.567 610.865 943.437 610.296 943.29L601.794 941.074L597.569 940.089C595.098 939.461 588.703 937.257 584.892 935.941L584.418 935.779C581.238 934.679 578.226 933.643 575.512 932.775C562.224 928.325 548.885 924.116 537.58 920.572L537.275 920.474C523.732 916.409 511.069 907.685 497.634 898.428C491.492 894.198 485.145 889.821 478.01 885.359C466.091 877.931 454.552 871.792 443.773 867.128C426.378 859.519 406.326 853.228 382.37 847.885C354.991 841.934 329.547 838.445 304.597 837.227C299.841 836.999 293.742 836.947 289.615 836.97L287.524 837.014C284.963 837.072 284.102 837.12 283.536 837.15L282.829 837.181C281.427 837.253 279.93 837.332 278.522 837.447L276.971 837.59C271.524 838.092 265.886 838.615 260.927 838.742C245.259 839.162 227.625 837.797 210.56 836.482C186.13 834.603 160.864 832.651 134.848 834.731C130.395 835.042 126.404 835.521 122.506 835.995L120.641 836.224C120.034 836.302 119.319 836.411 118.509 836.527L118.246 836.567C117.782 836.635 117.471 836.687 117.293 836.71L116.522 836.795C113.408 837.176 106.729 837.902 100.843 838.546L99.8233 838.654C94.1879 839.266 87.8043 839.965 84.205 840.395C27.4226 846.876 -31.6791 854.175 -88.8437 861.237L-98.6958 862.452L-98.8144 862.465C-127.502 866.204 -155.424 869.804 -181.902 872.649C-188.074 873.347 -194.897 874.091 -202.17 874.888L-203.416 875.023C-229.436 877.869 -258.934 881.098 -280.756 884.335C-303.553 887.687 -327.882 891.845 -351.316 899.47L-351.45 899.516C-358.223 901.793 -365.801 903.621 -375.28 905.268C-401.053 909.758 -430.269 911.123 -458.636 912.448C-469.31 912.948 -480.349 913.467 -491.206 914.148C-563.309 918.082 -635.532 920.705 -705.888 921.944L-744.731 922.636" stroke="white" stroke-width="2" stroke-miterlimit="10"/>
</g>
</g>
<g style="mix-blend-mode:overlay" opacity="0.5">
<path d="M1620.85 229.622L1618.33 229.791L1617.61 229.864C1588.7 233.277 1557.48 235.658 1524.9 236.942C1509.39 237.486 1492.94 237.946 1477.37 237.073L1474.59 236.894L1469.53 236.294C1444.13 232.166 1417.93 225.94 1392.57 219.91C1374.62 215.641 1323.99 204.714 1300.81 201.095C1283.68 198.422 1266 197.237 1248.96 195.413L1248.54 195.363C1234.81 193.904 1220.6 192.39 1206.5 190.798L1205.67 190.719C1172.68 187.684 1138.77 183.095 1105.95 178.643C1043.51 170.181 978.952 161.432 912.838 162.053L911.804 162.08C903.274 162.385 893.309 162.836 882.857 164.377L882.38 164.453C858.859 168.301 834.23 171.383 810.385 174.372L810.195 174.394C795.776 176.197 780.87 178.066 766.143 180.106C763.215 180.509 760.276 180.902 757.266 181.304L756.266 181.442C719.988 186.284 682.474 191.289 648.694 208.115C628.944 217.774 614.565 230.82 603.63 243.56C598.193 234.447 593.498 225.626 589.446 216.915C580.29 197.297 572.756 176.292 565.464 155.95C560.139 141.1 554.636 125.751 548.459 110.764C541.257 92.2069 533.155 73.6309 523.67 53.9208C523.013 52.5815 522.264 50.9225 521.543 49.3198C521.187 48.5279 520.82 47.7346 520.482 46.9976C514.635 32.9231 510.635 21.3784 507.903 10.6367C504.51 -2.44155 502.526 -16.482 500.608 -30.0648L500.243 -32.631C497.692 -51.4847 496.218 -69.3021 495.847 -85.5774L495.828 -86.0296C494.827 -104.806 493.024 -124.682 491.291 -143.933C489.619 -162.374 487.901 -181.446 486.939 -199.018C486.821 -201.29 486.698 -204.859 486.683 -206.899L486.514 -235.086" stroke="white" stroke-width="2" stroke-miterlimit="10"/>
</g>
<g opacity="0.6">
<g style="mix-blend-mode:overlay">
<path d="M-708.81 1028.3L-685.232 1025.5C-624.499 1018.29 -562.467 1012.22 -502.449 1006.35L-479.789 1004.1L-467.741 1002.84C-458.652 1002.05 -449.077 1001.32 -440.625 1000.67L-440.495 1000.66C-408.058 998.165 -374.51 995.593 -341.366 989.038C-328.365 986.503 -316.409 983.473 -305.859 980.029L-299.409 977.812L-297.444 977.118C-290.454 974.797 -282.863 972.846 -272.836 970.814C-250.544 966.327 -226.649 963.211 -206.099 960.661C-183.872 958.097 -161.066 955.285 -139.01 952.569L-138.748 952.538C-113.625 949.444 -87.6465 946.24 -62.4925 943.388C-4.74089 937.455 57.3421 936.524 117.371 935.624L129.414 935.445L129.684 935.441C131.319 935.388 132.729 935.352 134.127 935.324C136.971 935.255 139.649 935.193 143.765 934.965L143.977 934.955C152.08 934.389 159.861 934.49 169.987 935.301C178.524 935.977 187.965 937.042 197.962 938.164C213.468 939.904 229.493 941.705 244.809 942.425C257.006 943.067 268.783 943.165 279.919 942.719L287.218 941.908L297.351 941.52C298.062 941.454 298.773 941.38 299.414 941.305L302.106 941.025L302.826 940.977C306.946 940.918 311.145 941.195 315.445 941.51C341.429 943.741 363.702 948.011 381.634 954.192C387.405 956.314 392.605 958.818 399.527 962.786C404.74 965.795 410.052 969.176 415.705 972.757C423.51 977.712 431.578 982.832 440.263 987.574C454.622 995.608 470.825 1002.67 485.857 1007.45C494.676 1010.29 503.418 1012.45 511.91 1014.56C516.161 1015.61 520.561 1016.7 524.905 1017.87L525.212 1017.95C528.915 1018.88 533.292 1020.07 537.511 1021.21L537.67 1021.25C549.324 1024.4 562.537 1027.96 573.709 1029.89C585.601 1032.28 599.43 1034.86 613.499 1035.1C635.586 1035.74 657.713 1032.72 683.093 1025.6C686.093 1024.76 690.309 1023.55 694.404 1022.36L694.611 1022.29C697.712 1021.4 700.729 1020.52 703.283 1019.8L705.671 1019.1C726.384 1013.04 747.8 1006.78 768.561 999.365L769.196 999.132C784.933 992.933 795.598 983.61 804.819 974.416C811.77 967.362 817.756 960.246 823.539 953.371L826.329 950.05C838.96 935.367 851.611 918.446 863.963 899.717C864.476 898.913 865.18 897.876 865.938 896.766C866.994 895.206 868.091 893.59 868.85 892.374C871.898 887.601 874.503 882.193 876.229 877.096C883.986 853.209 885.037 829.348 886.045 806.276C886.307 800.14 886.593 793.787 887.012 787.398L887.023 787.302C887.628 773.788 888.129 760.263 888.477 747.063L888.477 746.851C888.477 746.331 888.48 745.793 888.488 745.203L888.503 745.072C888.51 742.841 888.537 740.322 888.277 737.759C887.585 727.418 885.588 717.222 883.239 705.89C879.044 686.445 875.282 666.178 871.015 640.126C863.977 599.543 847.378 557.81 820.301 512.577C807.354 490.737 794.754 472.352 781.726 456.298C767.019 438.615 743.361 416.883 720.468 395.849C706.851 383.342 691.419 369.164 679.561 357.051C664.552 341.723 662.122 336.593 661.788 335.715C661.306 315.351 681.513 276.001 702.369 264.754L702.481 264.697C722.348 253.588 749.957 249.024 776.648 244.608C780.481 243.977 784.291 243.343 788.127 242.686C805.707 239.66 823.899 236.928 841.483 234.282C862.559 231.115 884.34 227.837 905.742 223.968C931.141 221.127 958.054 222.506 987.937 224.457C1010.34 226.131 1033.59 228.54 1057 231.622C1114.06 239.219 1175.12 246.246 1234.17 253.046L1234.43 253.078C1247.11 254.535 1259.65 255.976 1271.9 257.4L1275.59 257.837C1280.52 258.422 1293.59 259.961 1298.67 260.782C1324.28 265.394 1350.39 271.971 1375.65 278.324C1399.22 284.256 1423.59 290.389 1448.67 295.247C1455.75 296.553 1462.96 297.663 1469.66 298.455L1470.36 298.539C1488.3 300.17 1506.03 300.399 1523.18 300.623L1523.62 300.63C1539.15 300.811 1555.74 300.852 1571.83 300.897L1571.99 300.899C1591.93 300.958 1612.55 301.009 1631.76 301.325" stroke="white" stroke-width="2" stroke-miterlimit="10"/>
</g>
<g style="mix-blend-mode:overlay">
<path d="M379.988 -228.612L382.235 -195.592C384.937 -161.001 387.728 -125.226 387.144 -90.909C386.154 -71.2045 386.159 -49.1151 387.148 -23.3982C387.33 -18.3924 387.58 -13.4581 387.823 -8.67456L387.832 -8.44415C388.212 -0.936229 388.62 6.83967 388.717 14.6757C388.86 20.0297 388.84 25.6906 388.815 31.1835C388.769 42.2402 388.728 53.6766 389.933 65.2784C395.745 118.128 428.172 167.337 462.374 212.672C465.661 216.969 469.103 221.444 472.675 226.11C488.36 246.537 506.14 269.681 519.676 289.21C536.621 313.208 554.871 338.711 575.379 363.52L575.514 363.677C584.046 373.598 592.74 383.537 601.141 393.159L601.494 393.563C626.1 421.715 651.547 450.823 673.633 480.017C681.654 490.618 688.219 500.217 694.321 510.273C707.51 531.736 719.812 554.409 731.706 576.336C741.149 593.73 750.91 611.726 761.064 629.045C767.894 641.066 773.959 651.867 779.065 662.546L779.836 664.12C788.072 680.788 796.595 698.029 802.616 714.797C806.443 725.598 808.877 734.628 808.305 743.611L808.293 743.716C807.395 764.463 805.996 791.503 803.246 816.601C802.215 826.015 800.596 838.235 797.34 849.29C796.265 853.089 794.75 856.632 793.08 859.275C779.093 878.26 765.42 894.381 751.247 908.598C744.647 915.35 737.66 922.409 731.392 927.877C729.617 929.378 725.584 932.8 723.657 933.674C702.66 939.347 680.219 944.214 658.499 948.928L653.993 949.912C645.055 951.852 634.939 954.051 626.708 954.611C619.344 955.168 614.446 954.958 609.248 953.884C608.378 953.701 607.522 953.503 606.599 953.27L598.096 951.055L594.226 950.155C591.022 949.37 584.809 947.222 579.835 945.504L579.531 945.398C576.351 944.298 573.351 943.263 570.772 942.446C557.63 938.049 544.338 933.846 533.077 930.325L532.953 930.284C516.838 925.446 503.164 916.02 488.685 906.048C482.674 901.905 476.457 897.622 469.629 893.347C458.376 886.342 447.546 880.569 437.459 876.207C421.103 869.048 402.135 863.114 379.414 858.041C353.053 852.308 328.603 848.954 304.677 847.787C300.307 847.579 294.605 847.53 290.712 847.554L288.914 847.597C286.365 847.656 285.845 847.692 285.656 847.705C285.432 847.722 285.067 847.732 284.666 847.755C283.488 847.81 282.144 847.88 281.009 847.975L279.599 848.108C273.855 848.645 267.91 849.193 262.375 849.332C245.743 849.779 227.645 848.377 210.115 847.033C186.359 845.198 161.801 843.304 137.18 845.284C133.129 845.563 129.314 846.029 125.631 846.475L123.956 846.673C123.433 846.743 122.801 846.836 122.098 846.938L121.883 846.975C121.085 847.092 120.656 847.156 120.418 847.189L119.67 847.268C116.343 847.677 109.355 848.437 103.208 849.112L102.757 849.164C97.1448 849.779 90.7852 850.472 87.2226 850.888C30.4643 857.363 -28.5901 864.66 -85.8145 871.732L-95.5123 872.93C-124.32 876.69 -152.372 880.301 -178.908 883.148C-185.092 883.845 -191.939 884.595 -199.248 885.397L-200.494 885.532C-226.36 888.361 -255.69 891.565 -277.204 894.76C-299.286 898.011 -322.789 902.011 -345.103 909.275C-352.656 911.812 -360.981 913.825 -371.297 915.62C-398.134 920.293 -427.916 921.688 -456.719 923.031C-467.392 923.532 -478.418 924.043 -489.194 924.725C-561.545 928.674 -634.015 931.303 -704.606 932.549L-728.629 932.968" stroke="white" stroke-width="2" stroke-miterlimit="10"/>
</g>
</g>
<g style="mix-blend-mode:overlay" opacity="0.6">
<path d="M1625.03 240.12L1622.25 240.18L1620.68 240.303C1591.32 243.768 1559.62 246.18 1526.52 247.49C1510.55 248.052 1493.59 248.522 1477.22 247.597L1473.89 247.389L1468.66 246.768C1468.38 246.735 1468.09 246.71 1467.83 246.671C1441.68 242.435 1415.02 236.094 1389.25 229.971C1367.54 224.807 1322.29 215.055 1299.65 211.535C1282.57 208.886 1264.92 207.678 1247.95 205.87L1247.8 205.853C1233.95 204.38 1219.64 202.853 1205.38 201.244L1204.94 201.192C1171.56 198.128 1137.45 193.507 1104.44 189.042C1042.65 180.665 978.762 172.005 913.962 172.613L913.398 172.626C905.351 172.908 895.975 173.333 886.405 174.748L886.19 174.785C862.358 178.684 837.562 181.79 813.574 184.798L813.396 184.821C799.025 186.621 784.166 188.487 769.51 190.518C766.392 190.942 763.251 191.364 760.038 191.795L759.586 191.856C724.605 196.526 688.446 201.356 656.779 217.119C630.789 229.831 614.359 249.7 602.899 266.039C591.953 249.808 583.213 234.588 576.324 219.79C566.979 199.77 559.376 178.554 552.01 158.027C546.701 143.24 541.227 127.948 535.122 113.155C528.004 94.7926 519.996 76.4219 510.613 56.9444C509.909 55.5025 509.141 53.806 508.361 52.0994C507.987 51.2699 507.612 50.4404 507.253 49.6746C501.192 35.1159 497.054 23.1315 494.197 11.9427C490.692 -1.59867 488.665 -15.8737 486.715 -29.6897L486.344 -32.3095C483.757 -51.4673 482.257 -69.5701 481.876 -86.1643L481.864 -86.3686C480.868 -104.994 479.08 -124.789 477.349 -143.952C475.674 -162.472 473.942 -181.626 472.964 -199.375C472.842 -201.71 472.709 -205.395 472.704 -207.628L472.617 -225.061" stroke="white" stroke-width="2" stroke-miterlimit="10"/>
</g>
<g opacity="0.7">
<g style="mix-blend-mode:overlay">
<path d="M-701.678 1020.7L-687.175 1018.97C-626.336 1011.75 -564.244 1005.67 -504.191 999.801L-481.603 997.563L-469.447 996.286C-460.24 995.488 -450.57 994.746 -442.012 994.092C-409.882 991.625 -376.665 989.075 -344.098 982.638C-331.504 980.186 -319.958 977.258 -309.785 973.937L-303.554 971.791L-301.528 971.078C-294.136 968.61 -286.147 966.566 -275.652 964.439C-252.987 959.872 -228.831 956.725 -208.032 954.143C-185.758 951.576 -162.892 948.753 -140.764 946.028C-115.604 942.921 -89.5782 939.714 -64.294 936.851C-6.05649 930.869 56.2608 929.94 116.548 929.035L128.509 928.855L128.662 928.855C130.344 928.798 131.789 928.767 133.222 928.734C135.971 928.671 138.568 928.608 142.436 928.396L142.553 928.392C151.247 927.781 159.531 927.889 170.262 928.745C178.96 929.44 188.495 930.507 198.62 931.645C213.94 933.362 229.78 935.15 244.782 935.85C259.738 936.643 273.958 936.589 287.137 935.697L290.898 935.287L295.641 935.002C296.317 934.932 296.993 934.862 297.644 934.798L300.549 934.498L301.753 934.42C306.462 934.334 311.091 934.644 315.717 934.98C342.746 937.299 366.003 941.774 384.847 948.284C391.271 950.642 396.962 953.362 404.466 957.674C409.855 960.782 415.244 964.208 420.973 967.841C428.646 972.72 436.594 977.763 445.092 982.395C458.856 990.094 474.366 996.863 488.754 1001.43C497.199 1004.15 505.759 1006.27 514.035 1008.32C518.355 1009.39 522.811 1010.5 527.281 1011.7L527.406 1011.73C531.177 1012.68 535.612 1013.87 539.898 1015.03L540.045 1015.08C551.53 1018.18 564.525 1021.69 575.195 1023.5C586.662 1025.82 599.998 1028.3 613.143 1028.52C634.108 1029.14 655.225 1026.24 679.6 1019.4C682.577 1018.57 686.756 1017.36 690.814 1016.19C694.001 1015.27 697.126 1014.37 699.656 1013.66L702.032 1012.96C722.612 1006.94 743.896 1000.7 764.41 993.388L764.765 993.253C779.128 987.597 789.081 978.869 797.721 970.26C804.499 963.388 810.404 956.36 816.107 949.572L818.937 946.202C831.407 931.712 843.892 915.01 856.1 896.519C856.64 895.683 857.371 894.606 858.117 893.503C859.158 891.968 860.228 890.383 860.971 889.21C863.791 884.798 866.195 879.816 867.779 875.143C875.334 851.903 876.356 828.4 877.352 805.644C877.62 799.456 877.899 793.059 878.32 786.651C878.94 773.113 879.426 759.621 879.782 746.546L879.794 746.441C879.785 745.902 879.789 745.347 879.79 744.72L879.802 744.607C879.809 742.482 879.835 740.077 879.596 737.746C878.928 727.708 876.97 717.684 874.659 706.534C870.45 687.007 866.673 666.667 862.401 640.553C855.474 600.645 839.118 559.558 812.415 514.952C799.635 493.397 787.238 475.291 774.467 459.558C760.09 442.268 736.623 420.717 713.921 399.856C700.218 387.277 684.702 373.01 672.707 360.765C655.167 342.853 653.148 337.304 653.089 335.753C652.328 313.609 673.848 271.777 696.988 259.292C718.219 247.419 746.689 242.71 774.215 238.163C778.024 237.538 781.822 236.903 785.621 236.259C803.297 233.218 821.537 230.474 839.204 227.82C860.316 224.649 882.156 221.36 903.499 217.501C929.912 214.498 957.512 215.915 988.163 217.913C1010.78 219.603 1034.23 222.028 1057.89 225.147C1114.94 232.742 1176.01 239.773 1235.11 246.578C1247.79 248.035 1260.34 249.486 1272.62 250.906L1276.02 251.309C1281.11 251.911 1294.63 253.495 1299.99 254.368C1326.02 259.057 1352.36 265.677 1377.84 272.092C1401.27 277.989 1425.48 284.076 1450.14 288.859C1456.98 290.128 1463.93 291.188 1470.27 291.939L1470.79 292C1488.29 293.597 1505.78 293.825 1522.7 294.038L1523.12 294.044C1538.64 294.223 1555.22 294.272 1571.25 294.31L1571.39 294.31C1591.4 294.368 1612.09 294.427 1631.32 294.738" stroke="white" stroke-width="2" stroke-miterlimit="10"/>
</g>
<g style="mix-blend-mode:overlay">
<path d="M389.117 -221.673L390.923 -195.524C393.632 -160.782 396.44 -124.855 395.85 -90.2746C394.864 -70.7107 394.87 -48.7358 395.846 -23.1086C396.024 -18.1652 396.273 -13.2309 396.518 -8.46478L396.531 -8.26916C396.916 -0.698937 397.318 7.12922 397.421 15.0102C397.566 20.4525 397.541 26.157 397.526 31.6686C397.484 42.5934 397.433 53.8965 398.615 65.1868C404.275 116.695 436.178 165.048 469.841 209.658C473.127 213.955 476.558 218.428 480.133 223.077C495.88 243.573 513.72 266.804 527.296 286.399C544.159 310.282 562.319 335.66 582.641 360.252L582.714 360.332C591.256 370.262 599.96 380.22 608.382 389.862L608.652 390.168C633.341 418.418 658.881 447.634 681.122 477.015C689.286 487.8 695.971 497.58 702.182 507.817C715.448 529.421 727.78 552.142 739.732 574.173C749.155 591.538 758.898 609.488 769.032 626.779C775.921 638.895 782.032 649.807 787.196 660.599L787.958 662.144C796.27 678.972 804.869 696.372 811.016 713.481C815.066 724.9 817.633 734.51 816.996 744.368C816.09 765.194 814.69 792.339 811.913 817.575C810.858 827.198 809.208 839.696 805.856 851.076C804.626 855.42 802.849 859.515 800.869 862.615C786.672 881.911 772.77 898.295 758.36 912.741C751.667 919.587 744.574 926.757 738.047 932.441C734.988 935.034 730.802 938.57 727.612 939.736C706.237 945.532 683.46 950.474 661.426 955.256L656.921 956.24C647.634 958.254 637.098 960.544 628.17 961.154C619.756 961.78 613.775 961.513 607.523 960.217C606.481 960.005 605.454 959.76 604.304 959.465L595.801 957.249L592.181 956.415C588.475 955.517 582.205 953.346 576.668 951.437L576.522 951.385C573.33 950.283 570.308 949.237 567.808 948.447C554.711 944.064 541.521 939.891 530.237 936.367C512.524 931.049 498.252 921.217 483.067 910.756C477.132 906.665 470.99 902.436 464.382 898.292C453.546 891.54 443.146 886.003 433.507 881.827C417.809 874.957 399.521 869.236 377.553 864.341C351.821 858.744 327.994 855.472 304.709 854.337C300.583 854.14 295.116 854.092 291.387 854.118L290.882 854.129C290.717 854.136 290.33 854.143 289.895 854.153L289.766 854.155C289.237 854.163 287.463 854.209 286.979 854.24C286.707 854.261 286.271 854.28 285.8 854.303C284.692 854.357 283.479 854.416 282.638 854.493L281.276 854.623C275.318 855.179 269.172 855.748 263.273 855.896C246.054 856.353 227.641 854.94 209.844 853.564C186.506 851.762 162.379 849.901 138.62 851.815C134.828 852.081 131.133 852.526 127.57 852.95L126.002 853.135C125.527 853.194 124.954 853.285 124.347 853.371L124.131 853.408C122.772 853.617 122.273 853.673 122.095 853.696L121.609 853.744C118.247 854.149 111.519 854.887 105.005 855.597L104.554 855.65C98.6459 856.291 92.5467 856.962 89.0785 857.372C32.3443 863.841 -26.7342 871.143 -83.8632 878.2L-93.4896 879.389C-122.357 883.16 -150.468 886.773 -177.064 889.63C-183.295 890.33 -190.189 891.084 -197.439 891.884L-198.685 892.018C-224.468 894.84 -253.681 898.04 -274.991 901.197C-296.62 904.379 -319.597 908.291 -341.145 915.302C-349.184 918.001 -357.981 920.135 -368.811 922.02C-396.305 926.808 -426.44 928.215 -455.598 929.587C-466.259 930.088 -477.286 930.6 -487.99 931.273C-560.458 935.225 -633.07 937.864 -703.825 939.108L-718.608 939.369" stroke="white" stroke-width="2" stroke-miterlimit="10"/>
</g>
</g>
<g style="mix-blend-mode:overlay" opacity="0.7">
<path d="M1625.29 246.723L1623.22 246.786L1622.6 246.837C1592.96 250.33 1560.96 252.777 1527.53 254.094C1511.29 254.667 1494.01 255.144 1477.11 254.182L1473.47 253.954L1468.27 253.339C1467.71 253.272 1467.12 253.211 1466.6 253.132C1440.02 248.828 1413.17 242.437 1387.19 236.263C1363.45 230.621 1338.91 224.785 1313.89 220.34L1298.95 218.068C1281.85 216.096 1264.31 214.221 1247.34 212.414L1247.19 212.396C1233.29 210.918 1218.93 209.385 1204.71 207.781L1204.51 207.756C1170.87 204.672 1136.63 200.026 1103.51 195.538C1042.12 187.218 978.635 178.614 914.69 179.218L914.42 179.222C906.679 179.496 897.668 179.902 888.718 181.224L888.599 181.245C864.576 185.175 839.697 188.288 815.591 191.308C801.195 193.114 786.313 194.977 771.646 197.007C768.515 197.439 765.375 197.852 762.138 198.289L761.686 198.35C727.526 202.914 692.201 207.623 661.862 222.731C636.554 235.109 620.637 255.004 609.554 271.017C607.409 274.23 605.382 277.43 603.5 280.595C588.411 259.559 576.802 240.189 568.152 221.583C558.696 201.312 551.056 180.003 543.638 159.32C538.347 144.579 532.88 129.332 526.833 114.643C519.76 96.4006 511.808 78.1512 502.501 58.8327C501.75 57.297 500.954 55.5267 500.174 53.8288C499.791 52.9718 499.395 52.1222 499.038 51.3389C492.848 36.4738 488.612 24.2132 485.679 12.7597C482.102 -1.07258 480.056 -15.4909 478.075 -29.4517L477.697 -32.1077C475.084 -51.4538 473.57 -69.7435 473.191 -86.4609L473.204 -86.5741C472.208 -105.093 470.412 -124.819 468.687 -143.937C467.007 -162.511 465.27 -181.727 464.294 -199.591C464.167 -201.988 464.033 -205.77 464.025 -208.074L463.974 -218.798" stroke="white" stroke-width="2" stroke-miterlimit="10"/>
</g>
<g opacity="0.9">
<g style="mix-blend-mode:overlay">
<path d="M-692.643 1011.06L-689.626 1010.71C-628.573 1003.45 -566.315 997.365 -506.109 991.484L-483.875 989.274L-471.541 987.974C-462.345 987.175 -452.972 986.459 -443.917 985.767C-412.178 983.334 -379.362 980.807 -347.538 974.52C-335.448 972.167 -324.457 969.385 -314.82 966.239L-308.784 964.157L-306.623 963.39C-298.706 960.746 -290.245 958.572 -279.175 956.329C-256.055 951.674 -231.554 948.48 -210.433 945.857C-188.254 943.296 -165.389 940.482 -143.273 937.756C-118.03 934.641 -91.9328 931.424 -66.5185 928.55C-7.65233 922.502 54.982 921.566 115.551 920.659L127.394 920.483C129.147 920.426 130.639 920.391 132.072 920.357C134.716 920.3 137.206 920.242 140.78 920.039C150.23 919.376 159.158 919.49 170.643 920.409C179.527 921.117 189.189 922.2 199.429 923.351C214.529 925.051 230.15 926.804 244.778 927.495C263.183 928.467 280.308 928.113 295.671 926.457L296.228 926.399L298.599 926.16L300.37 926.043C305.808 925.929 310.973 926.267 316.179 926.654C344.45 929.076 368.964 933.832 388.979 940.763C396.192 943.399 402.495 946.413 410.736 951.138C416.357 954.379 421.856 957.871 427.682 961.569C435.192 966.34 442.965 971.275 451.22 975.781C464.233 983.065 478.873 989.448 492.434 993.762C500.428 996.332 508.737 998.392 516.773 1000.38C521.184 1001.48 525.743 1002.61 530.212 1003.81C534.085 1004.79 538.452 1005.97 543.068 1007.21C554.325 1010.25 567.082 1013.7 577.098 1015.38C588.015 1017.59 600.661 1019.95 612.789 1020.16C632.294 1020.74 652.116 1017.98 675.172 1011.51C678.125 1010.69 682.244 1009.5 686.266 1008.34C689.476 1007.41 692.627 1006.5 695.072 1005.81L697.448 1005.11C717.87 999.131 738.983 992.951 759.158 985.752C771.778 980.789 780.814 972.817 788.726 964.933C795.267 958.298 801.076 951.39 806.696 944.708C807.658 943.56 808.633 942.405 809.581 941.274C821.836 927.023 834.127 910.589 846.124 892.408C846.692 891.532 847.452 890.405 848.24 889.245C849.241 887.758 850.282 886.223 850.981 885.115C853.504 881.153 855.66 876.707 857.054 872.576C864.341 850.15 865.348 827.087 866.328 804.787C866.6 798.556 866.885 792.115 867.301 785.751C867.912 772.291 868.4 758.879 868.752 745.847C868.751 745.23 868.753 744.595 868.766 743.961C868.782 741.855 868.807 739.67 868.587 737.677C867.959 728.022 866.035 718.214 863.779 707.3C859.548 687.656 855.745 667.234 851.469 641.057C844.689 602.022 828.64 561.739 802.411 517.922C789.848 496.727 777.702 478.986 765.26 463.654C751.296 446.863 728.073 425.534 705.625 404.915C674.569 376.387 642.464 346.888 642.068 335.382C641.209 310.695 663.618 266.701 690.054 252.436C713.011 239.594 742.568 234.706 771.156 229.984C774.942 229.357 778.715 228.736 782.467 228.095C800.238 225.04 818.538 222.285 836.253 219.619C857.45 216.431 879.36 213.142 900.681 209.271C928.394 206.07 956.857 207.518 988.484 209.588C1011.32 211.286 1035.06 213.754 1059.05 216.905C1115.77 224.46 1176.89 231.496 1235.99 238.292C1248.68 239.751 1261.24 241.203 1273.58 242.63L1276.57 242.983C1283.93 243.855 1296.26 245.315 1301.75 246.212C1328.3 250.989 1354.89 257.684 1380.6 264.153C1403.85 270.002 1427.88 276.05 1452.04 280.728C1458.55 281.933 1465.13 282.941 1471.17 283.656L1471.35 283.678C1488.27 285.223 1505.49 285.444 1522.13 285.66L1522.52 285.663C1538.03 285.841 1554.63 285.884 1570.68 285.932C1590.76 285.99 1611.52 286.049 1630.79 286.356" stroke="white" stroke-width="2" stroke-miterlimit="10"/>
</g>
<g style="mix-blend-mode:overlay">
<path d="M400.681 -212.877L401.93 -195.456C404.651 -160.519 407.472 -124.387 406.877 -89.4544C405.897 -70.0486 405.897 -48.2244 406.876 -22.7292C407.055 -17.7945 407.31 -12.8066 407.549 -7.98822C407.937 -0.346997 408.342 7.56086 408.445 15.4418C408.594 20.9552 408.575 26.7133 408.554 32.2771C408.506 43.0424 408.464 54.1701 409.605 65.0939C415.082 114.904 446.322 162.182 479.282 205.862C482.558 210.149 485.989 214.613 489.513 219.194C505.33 239.795 523.263 263.135 536.94 282.874C553.702 306.621 571.75 331.845 591.826 356.126C600.367 366.065 609.165 376.122 617.661 385.844C642.474 414.233 668.139 443.595 690.593 473.257C698.94 484.294 705.787 494.296 712.126 504.751C725.512 526.537 737.891 549.36 749.862 571.429C759.266 588.756 768.99 606.669 779.113 623.958C786.068 636.205 792.249 647.232 797.501 658.175L798.263 659.721C806.671 676.736 815.375 694.343 821.663 711.866C825.987 724.066 828.729 734.412 828.027 745.259C827.109 766.189 825.706 793.467 822.908 818.885C821.824 828.769 820.122 841.614 816.641 853.411C815.214 858.455 813.112 863.252 810.715 866.929C796.241 886.607 782.065 903.33 767.378 918.06C760.565 925.025 753.352 932.321 746.488 938.301C742.509 941.667 737.571 945.846 732.36 947.566C710.561 953.488 687.471 958.499 665.149 963.353L660.644 964.328C650.901 966.447 639.86 968.845 630.011 969.513C620.166 970.253 613.011 969.899 605.327 968.319C604.068 968.055 602.812 967.765 601.4 967.404L592.898 965.188L589.516 964.417C585.148 963.362 578.541 961.071 572.71 959.057C569.508 957.945 566.474 956.907 564.042 956.134C551.036 951.779 537.958 947.646 526.833 944.167C507.08 938.237 492.014 927.861 476.069 916.869C470.21 912.831 464.145 908.655 457.765 904.662C447.465 898.246 437.619 892.996 428.527 889.061C413.655 882.554 396.226 877.111 375.23 872.427C350.299 867.005 327.256 863.835 304.788 862.735C300.966 862.547 295.862 862.507 292.366 862.534L292.237 862.537C292.037 862.548 291.485 862.553 290.886 862.571C289.946 862.592 288.9 862.618 288.687 862.636C288.356 862.659 287.838 862.686 287.273 862.707C286.354 862.748 285.34 862.805 284.749 862.849L283.399 862.972C277.205 863.553 270.798 864.143 264.441 864.299C246.469 864.782 227.674 863.332 209.505 861.93C186.724 860.176 163.166 858.356 140.377 860.191C136.963 860.431 133.436 860.851 130.026 861.259L128.613 861.427C128.161 861.488 127.6 861.572 127.004 861.66C126.027 861.809 124.906 861.976 124.208 862.034L124.09 862.047C120.585 862.47 113.667 863.229 106.963 863.962C100.758 864.638 94.8969 865.276 91.4519 865.688C34.9308 872.138 -24.1824 879.437 -81.3596 886.506L-90.8906 887.679C-119.805 891.453 -147.976 895.077 -174.703 897.954C-181.291 898.7 -188.612 899.5 -196.313 900.344C-222.002 903.159 -251.119 906.344 -272.167 909.462C-293.224 912.561 -315.554 916.347 -336.104 923.034C-344.765 925.943 -354.152 928.227 -365.639 930.219C-393.995 935.162 -424.576 936.586 -454.146 937.971C-464.772 938.468 -475.775 938.982 -486.433 939.651C-559.078 943.618 -631.878 946.261 -702.786 947.514L-705.862 947.564" stroke="white" stroke-width="2" stroke-miterlimit="10"/>
</g>
</g>
<g style="mix-blend-mode:overlay" opacity="0.9">
<path d="M1625.6 255.088L1625.04 255.109C1595.04 258.648 1562.66 261.121 1528.82 262.45C1512.24 263.036 1494.59 263.521 1476.97 262.52L1472.93 262.262L1467.46 261.614C1466.63 261.516 1465.85 261.431 1465.04 261.301C1437.94 256.909 1410.82 250.459 1384.58 244.221C1361.04 238.627 1336.7 232.834 1312.23 228.488L1305.34 227.319L1298.06 226.325C1280.96 224.353 1263.42 222.478 1246.45 220.671C1232.49 219.186 1218.07 217.645 1203.96 216.054C1170.01 212.932 1135.61 208.277 1102.34 203.763C1041.46 195.512 978.518 186.981 915.712 187.57C908.346 187.835 899.808 188.209 891.633 189.411C867.36 193.382 842.362 196.517 818.185 199.537C803.814 201.337 788.943 203.202 774.323 205.228C771.003 205.682 767.671 206.125 764.327 206.576C731.191 210.997 696.936 215.576 668.274 229.842C644.914 241.269 629.918 260.064 619.451 275.188C613.793 283.649 609.098 291.887 605.455 299.739C603.514 297.216 601.538 294.591 599.485 291.825C581.325 267.383 567.685 245.151 557.77 223.855C548.162 203.266 540.458 181.791 533.015 161.017C527.754 146.333 522.302 131.149 516.255 116.469C509.244 98.4013 501.376 80.3383 492.174 61.235C491.386 59.6068 490.561 57.7888 489.763 56.0359C489.36 55.1501 488.968 54.2657 488.589 53.471C482.232 38.2156 477.872 25.605 474.861 13.807C471.184 -0.38982 469.114 -15.0052 467.107 -29.1455L466.721 -31.8464C464.078 -51.4343 462.539 -69.921 462.159 -86.8327C461.185 -105.235 459.395 -124.916 457.674 -143.962C455.99 -162.607 454.248 -181.877 453.262 -199.866C453.141 -202.315 452.999 -206.231 452.979 -208.641L452.963 -210.875" stroke="white" stroke-width="2" stroke-miterlimit="10"/>
</g>
<g style="mix-blend-mode:overlay">
<path d="M-690.269 1008.52C-625.878 1000.88 -561.508 994.654 -496.703 988.321L-484.459 987.089L-472.066 985.787C-430.694 982.21 -389.114 980.421 -348.444 972.385C-337.791 970.312 -326.552 967.612 -316.161 964.22L-310.149 962.144L-307.928 961.367C-298.989 958.385 -289.953 956.2 -280.094 954.201C-257.621 949.673 -234.29 946.57 -211.065 943.683C-163.655 938.21 -114.928 931.781 -67.1032 926.374C-4.24168 919.916 62.9887 919.269 127.07 918.284C132.046 918.115 134.961 918.142 140.314 917.85C150.59 917.135 159.73 917.344 170.74 918.216C192.887 919.975 220.398 924.142 244.77 925.299C261.23 926.164 278.669 926.041 295.075 924.27L296.901 924.081L297.815 923.986C298.253 923.941 298.051 923.97 298.122 923.961C298.145 923.964 298.168 923.966 298.206 923.944L298.701 923.915L298.95 923.891L299.326 923.883L300.08 923.849C305.53 923.735 310.639 924.049 316.298 924.473C340.901 926.584 367.044 930.827 390.082 938.795C398.093 941.729 404.671 944.996 412.384 949.429C425.472 956.986 438.355 966.151 452.823 974.049C464.967 980.842 479.218 987.24 493.389 991.75C505.634 995.688 518.501 998.376 530.94 1001.74C544.417 1005.14 563.74 1010.93 577.585 1013.26C588.812 1015.53 601.059 1017.79 612.697 1017.98C634.677 1018.63 654.731 1014.87 674.011 1009.46C679.31 1007.99 688.438 1005.31 693.862 1003.77C715.061 997.556 736.907 991.216 757.679 983.813C769.882 979.013 778.583 971.31 786.35 963.568C793.949 955.867 800.493 947.856 807.112 940.012C820.446 924.504 832.593 907.894 843.489 891.365C844.769 889.373 847.103 886.051 848.334 884.079C850.869 880.11 852.915 875.809 854.219 871.95C863.465 843.511 862.484 814.513 864.382 785.557C864.983 772.29 865.47 758.992 865.837 745.724C865.828 743.112 865.955 740.233 865.672 737.659C865.02 727.693 862.9 717.236 860.894 707.533C856.078 685.191 852.202 663.446 848.569 641.218C841.175 598.599 823.324 558.094 799.754 518.729C788.96 500.531 776.851 482.054 762.815 464.76C728.882 423.982 639.873 356.11 639.149 335.302C638.267 309.775 660.872 265.398 688.206 250.649C714.667 235.848 749.106 231.512 781.62 225.959C820.689 219.233 860.77 214.232 899.905 207.125C928.711 203.789 958.975 205.485 988.533 207.407C1012.12 209.168 1035.76 211.65 1059.33 214.751C1128.28 223.931 1204.36 232.421 1273.82 240.471C1280.6 241.275 1295.75 243.024 1302.2 244.088C1352.85 253.202 1401.75 268.767 1452.51 278.607C1458.65 279.74 1465.2 280.772 1471.47 281.514C1488.38 283.058 1505.7 283.274 1522.34 283.489C1557.13 283.888 1595.81 283.625 1630.63 284.185" stroke="white" stroke-width="2" stroke-miterlimit="10"/>
</g>
<g style="mix-blend-mode:overlay">
<path d="M403.724 -210.557C403.724 -210.557 410.44 -127.625 409.779 -89.2064C408.666 -67.2845 408.935 -44.6257 409.783 -22.6305C410.237 -9.88267 411.201 2.70508 411.362 15.5593C411.797 31.5777 410.777 48.544 412.502 65.0767C417.968 114.78 448.885 161.287 481.762 204.869C499.927 228.642 522.763 257.837 539.47 281.958C556.869 306.601 574.519 331.195 594.213 355.025C627.729 393.998 662.883 432.38 693.072 472.273C701.064 482.826 708.11 493.038 714.726 503.94C738.647 542.897 758.706 583.875 781.765 623.206C788.115 634.385 794.751 646.145 800.199 657.535C808.987 675.327 817.933 693.28 824.453 711.439C828.521 722.904 831.659 733.993 830.919 745.488C829.857 769.763 828.43 795.185 825.8 819.22C824.51 830.924 822.769 842.873 819.479 854.022C818.11 858.862 815.971 863.989 813.306 868.067C800.227 885.863 785.839 903.328 769.751 919.454C763.058 926.301 755.763 933.694 748.705 939.835C744.233 943.619 739.25 947.784 733.592 949.628C710.233 955.974 685.818 961.198 661.622 966.457C651.675 968.614 640.551 971.028 630.501 971.716C621.152 972.417 613.381 972.229 604.747 970.448C603.418 970.176 602.095 969.86 600.625 969.492L595.607 968.175L592.224 967.306L590.056 966.794L588.821 966.524C581.887 964.838 570.11 960.4 563.041 958.151C550.757 954.041 538.314 950.089 525.945 946.216C498.18 937.882 479.489 921.024 456.03 906.328C447.515 901.024 437.523 895.403 427.234 890.956C410.711 883.724 392.353 878.506 374.638 874.555C351.524 869.533 328.616 866.114 304.831 864.947C301.183 864.771 296.267 864.727 292.62 864.745C292.114 864.764 289.519 864.81 289.153 864.837C288.291 864.894 286.196 864.972 285.321 865.045C278.523 865.678 271.698 866.342 264.777 866.511C224.18 867.595 181.666 859.111 140.866 862.395C137.099 862.654 133.14 863.156 129.338 863.614C128.077 863.782 126.022 864.13 124.779 864.238C118.101 865.053 99.4105 867.021 92.1175 867.886C32.4629 874.688 -30.4339 882.491 -90.1661 889.875C-117.296 893.411 -146.79 897.23 -174.037 900.152C-202.264 903.337 -244.005 907.585 -271.381 911.638C-292.009 914.673 -314.507 918.492 -334.728 925.069C-344.315 928.291 -354.12 930.535 -364.758 932.38C-403.609 939.15 -445.664 939.339 -485.979 941.859C-557.491 945.757 -630.59 948.453 -702.473 949.723" stroke="white" stroke-width="2" stroke-miterlimit="10"/>
</g>
<g style="mix-blend-mode:overlay">
<path d="M1625.68 257.294C1593.9 261.046 1561.5 263.384 1529.16 264.661C1511.75 265.271 1494.26 265.706 1476.93 264.721L1472.8 264.461L1468.73 263.979C1467.37 263.809 1466.05 263.696 1464.64 263.477C1413.11 255.134 1363.44 239.838 1311.8 230.662L1307.22 229.88L1304.92 229.493L1302.55 229.169L1297.83 228.531C1266.68 224.938 1234.91 221.766 1203.82 218.269C1107.62 209.434 1012.67 188.9 916.058 189.799C908.316 190.073 900.224 190.447 892.441 191.598C853.686 197.938 814.31 201.99 775.036 207.43C738.947 212.366 701.053 216.276 669.969 231.746C648.396 242.299 633.809 259.344 622.066 276.319C616.408 284.779 610.655 294.604 606.266 305.005C603.113 300.98 600.035 296.91 596.994 292.819C580.655 270.824 566.06 248.126 555.065 224.471C538.61 189.221 528.117 152.445 513.494 116.954C506.183 98.1188 498.292 80.1676 489.478 61.8691C488.281 59.4072 487.051 56.6064 485.847 53.9938C480.44 41.0121 475.519 27.7618 472.031 14.0724C468.103 -1.10699 466.041 -16.4182 463.856 -31.7793C461.411 -49.9234 459.693 -68.7843 459.285 -86.9077C457.35 -123.296 452.371 -163.547 450.389 -199.941C450.264 -202.452 450.119 -206.35 450.104 -208.796" stroke="white" stroke-width="2" stroke-miterlimit="10"/>
</g>
</g>
<defs>
<clipPath id="clip0_3820_5107">
<rect width="2260.45" height="1449.1" fill="white" transform="matrix(0.99306 0.117613 -0.112574 0.993643 -591.696 -353.021)"/>
</clipPath>
</defs>
</svg>
