<svg width="16" height="16" viewBox="0 0 16 16" fill="none" xmlns="http://www.w3.org/2000/svg">
<path d="M1.24444 16L6.84444 10.4C7.28889 10.7556 7.8 11.037 8.37778 11.2444C8.95556 11.4519 9.57037 11.5556 10.2222 11.5556C11.837 11.5556 13.2037 10.9963 14.3222 9.87778C15.4407 8.75926 16 7.39259 16 5.77778C16 4.16296 15.4407 2.7963 14.3222 1.67778C13.2037 0.559259 11.837 0 10.2222 0C8.60741 0 7.24074 0.559259 6.12222 1.67778C5.0037 2.7963 4.44444 4.16296 4.44444 5.77778C4.44444 6.42963 4.54815 7.04444 4.75556 7.62222C4.96296 8.2 5.24444 8.71111 5.6 9.15556L0 14.7556L1.24444 16ZM10.2222 9.77778C9.11111 9.77778 8.16667 9.38889 7.38889 8.61111C6.61111 7.83333 6.22222 6.88889 6.22222 5.77778C6.22222 4.66667 6.61111 3.72222 7.38889 2.94444C8.16667 2.16667 9.11111 1.77778 10.2222 1.77778C11.3333 1.77778 12.2778 2.16667 13.0556 2.94444C13.8333 3.72222 14.2222 4.66667 14.2222 5.77778C14.2222 6.88889 13.8333 7.83333 13.0556 8.61111C12.2778 9.38889 11.3333 9.77778 10.2222 9.77778Z" fill="#727272"/>
</svg>
