<?xml version="1.0" encoding="utf-8"?>
<!-- Generator: Adobe Illustrator 28.3.0, SVG Export Plug-In . SVG Version: 6.00 Build 0)  -->
<svg version="1.1" id="Layer_1" xmlns="http://www.w3.org/2000/svg" xmlns:xlink="http://www.w3.org/1999/xlink" x="0px" y="0px"
	 viewBox="0 0 371 839" style="enable-background:new 0 0 371 839;" xml:space="preserve">
<style type="text/css">
	.st0{fill:none;stroke:#EDAC1A;stroke-width:2;stroke-miterlimit:10;}
</style>
<path class="st0" d="M377.4,710.5l-6.1-17.8"/>
<path class="st0" d="M378.1,647.2l-7.3-16.5"/>
<path class="st0" d="M378.7,583.8l-8.5-15.2"/>
<path class="st0" d="M379.3,520.5l-9.8-14"/>
<path class="st0" d="M379.9,457.2l-11-12.7"/>
<path class="st0" d="M380.5,393.9l-12.2-11.4"/>
<path class="st0" d="M381.2,330.5l-13.5-10.1"/>
<path class="st0" d="M381.8,267.2l-14.7-8.8"/>
<path class="st0" d="M382.4,203.9l-16-7.6"/>
<path class="st0" d="M383,140.5l-17.2-6.3"/>
<path class="st0" d="M383.6,77.2l-18.4-5"/>
<path class="st0" d="M384.3,13.9l-19.7-3.7"/>
<path class="st0" d="M344.1,836.2l-5.4-18.5"/>
<path class="st0" d="M344.6,773l-6.3-17.5"/>
<path class="st0" d="M345.1,709.9l-7.3-16.5"/>
<path class="st0" d="M345.6,646.7l-8.3-15.5"/>
<path class="st0" d="M346,583.5l-9.2-14.5"/>
<path class="st0" d="M346.5,520.3l-10.2-13.5"/>
<path class="st0" d="M347,457.1l-11.1-12.5"/>
<path class="st0" d="M347.5,393.9l-12.1-11.5"/>
<path class="st0" d="M348,330.7l-13.1-10.5"/>
<path class="st0" d="M348.4,267.6l-14-9.5"/>
<path class="st0" d="M348.9,204.4l-15-8.5"/>
<path class="st0" d="M349.4,141.2l-16-7.6"/>
<path class="st0" d="M349.9,78L333,71.4"/>
<path class="st0" d="M350.4,14.8l-17.9-5.6"/>
<path class="st0" d="M312,835.3l-7.2-16.7"/>
<path class="st0" d="M312.4,772.3l-7.8-16"/>
<path class="st0" d="M312.7,709.2l-8.5-15.2"/>
<path class="st0" d="M313.1,646.2l-9.2-14.5"/>
<path class="st0" d="M313.4,583.1l-9.9-13.8"/>
<path class="st0" d="M313.8,520.1L303.2,507"/>
<path class="st0" d="M314.1,457l-11.3-12.4"/>
<path class="st0" d="M314.4,394l-12-11.7"/>
<path class="st0" d="M314.8,331l-12.7-11"/>
<path class="st0" d="M315.1,267.9l-13.4-10.3"/>
<path class="st0" d="M315.5,204.9l-14-9.5"/>
<path class="st0" d="M315.8,141.8l-14.7-8.8"/>
<path class="st0" d="M316.2,78.8l-15.4-8.1"/>
<path class="st0" d="M316.5,15.7l-16.1-7.4"/>
<path class="st0" d="M279.9,834.4l-8.9-14.8"/>
<path class="st0" d="M280.2,771.5l-9.4-14.4"/>
<path class="st0" d="M280.4,708.6l-9.8-14"/>
<path class="st0" d="M280.6,645.7l-10.2-13.5"/>
<path class="st0" d="M280.8,582.8l-10.6-13.1"/>
<path class="st0" d="M281,519.9l-11-12.7"/>
<path class="st0" d="M281.2,457l-11.4-12.3"/>
<path class="st0" d="M281.4,394.1l-11.8-11.8"/>
<path class="st0" d="M281.6,331.2l-12.2-11.4"/>
<path class="st0" d="M281.8,268.3l-12.7-11"/>
<path class="st0" d="M282,205.4l-13.1-10.5"/>
<path class="st0" d="M282.2,142.5l-13.5-10.1"/>
<path class="st0" d="M282.4,79.6l-13.9-9.7"/>
<path class="st0" d="M282.6,16.7l-14.3-9.3"/>
<path class="st0" d="M247.9,833.4l-10.7-13"/>
<path class="st0" d="M247.9,770.7l-10.9-12.8"/>
<path class="st0" d="M248,707.9l-11-12.7"/>
<path class="st0" d="M248.1,645.2l-11.1-12.5"/>
<path class="st0" d="M248.1,582.4L236.8,570"/>
<path class="st0" d="M248.2,519.7l-11.4-12.2"/>
<path class="st0" d="M248.3,456.9l-11.6-12.1"/>
<path class="st0" d="M248.3,394.1l-11.7-12"/>
<path class="st0" d="M248.4,331.4l-11.8-11.8"/>
<path class="st0" d="M248.5,268.6l-12-11.7"/>
<path class="st0" d="M248.5,205.9l-12.1-11.5"/>
<path class="st0" d="M248.6,143.1l-12.2-11.4"/>
<path class="st0" d="M248.7,80.3l-12.4-11.3"/>
<path class="st0" d="M248.8,17.6L236.2,6.5"/>
<path class="st0" d="M215.8,832.5l-12.5-11.1"/>
<path class="st0" d="M215.7,769.9l-12.4-11.3"/>
<path class="st0" d="M215.6,707.3l-12.2-11.4"/>
<path class="st0" d="M215.6,644.7l-12.1-11.5"/>
<path class="st0" d="M215.5,582.1l-12-11.7"/>
<path class="st0" d="M215.4,519.4l-11.8-11.8"/>
<path class="st0" d="M215.4,456.8l-11.7-12"/>
<path class="st0" d="M215.3,394.2l-11.6-12.1"/>
<path class="st0" d="M215.2,331.6l-11.4-12.3"/>
<path class="st0" d="M215.2,269l-11.3-12.4"/>
<path class="st0" d="M215.1,206.4l-11.1-12.5"/>
<path class="st0" d="M215,143.7l-11-12.7"/>
<path class="st0" d="M214.9,81.1l-10.9-12.8"/>
<path class="st0" d="M214.9,18.5l-10.7-13"/>
<path class="st0" d="M183.7,831.6l-14.3-9.3"/>
<path class="st0" d="M183.5,769.1l-13.9-9.7"/>
<path class="st0" d="M183.3,706.6l-13.5-10.1"/>
<path class="st0" d="M183.1,644.2L170,633.6"/>
<path class="st0" d="M182.9,581.7l-12.7-11"/>
<path class="st0" d="M182.7,519.2l-12.2-11.4"/>
<path class="st0" d="M182.4,456.8l-11.8-11.8"/>
<path class="st0" d="M182.2,394.3L170.8,382"/>
<path class="st0" d="M182,331.8l-11-12.7"/>
<path class="st0" d="M181.8,269.3l-10.6-13.1"/>
<path class="st0" d="M181.6,206.9l-10.2-13.5"/>
<path class="st0" d="M181.4,144.4l-9.8-14"/>
<path class="st0" d="M181.2,81.9l-9.4-14.4"/>
<path class="st0" d="M181,19.4l-8.9-14.8"/>
<path class="st0" d="M151.6,830.7l-16.1-7.4"/>
<path class="st0" d="M151.3,768.3l-15.4-8.1"/>
<path class="st0" d="M150.9,706l-14.7-8.8"/>
<path class="st0" d="M150.6,643.7l-14-9.5"/>
<path class="st0" d="M150.2,581.3l-13.4-10.3"/>
<path class="st0" d="M149.9,519l-12.7-11"/>
<path class="st0" d="M149.5,456.7l-12-11.7"/>
<path class="st0" d="M149.2,394.4L137.9,382"/>
<path class="st0" d="M148.9,332l-10.6-13.1"/>
<path class="st0" d="M148.5,269.7l-9.9-13.8"/>
<path class="st0" d="M148.2,207.4l-9.2-14.5"/>
<path class="st0" d="M147.8,145l-8.5-15.2"/>
<path class="st0" d="M147.5,82.7l-7.8-16"/>
<path class="st0" d="M147.1,20.4L140,3.7"/>
<path class="st0" d="M119.5,829.7l-17.9-5.6"/>
<path class="st0" d="M119,767.6l-16.9-6.6"/>
<path class="st0" d="M118.6,705.4l-16-7.6"/>
<path class="st0" d="M118.1,643.2l-15-8.5"/>
<path class="st0" d="M117.6,581l-14-9.5"/>
<path class="st0" d="M117.1,518.8L104,508.3"/>
<path class="st0" d="M116.6,456.6l-12.1-11.5"/>
<path class="st0" d="M116.1,394.4L105,381.9"/>
<path class="st0" d="M115.7,332.2l-10.2-13.5"/>
<path class="st0" d="M115.2,270l-9.2-14.5"/>
<path class="st0" d="M114.7,207.9l-8.3-15.5"/>
<path class="st0" d="M114.2,145.7l-7.3-16.5"/>
<path class="st0" d="M113.7,83.5L107.4,66"/>
<path class="st0" d="M113.3,21.3l-5.4-18.5"/>
<path class="st0" d="M87.4,828.8l-19.7-3.7"/>
<path class="st0" d="M86.8,766.8l-18.4-5"/>
<path class="st0" d="M86.2,704.7L69,698.5"/>
<path class="st0" d="M85.6,642.7l-16-7.6"/>
<path class="st0" d="M85,580.6l-14.7-8.8"/>
<path class="st0" d="M84.3,518.6l-13.5-10.1"/>
<path class="st0" d="M83.7,456.5l-12.2-11.4"/>
<path class="st0" d="M83.1,394.5l-11-12.7"/>
<path class="st0" d="M82.5,332.4l-9.8-14"/>
<path class="st0" d="M81.9,270.4l-8.5-15.2"/>
<path class="st0" d="M81.2,208.4l-7.3-16.5"/>
<path class="st0" d="M80.6,146.3l-6.1-17.8"/>
<path class="st0" d="M80,84.3l-4.8-19.1"/>
<path class="st0" d="M79.4,22.2L75.8,1.9"/>
<path class="st0" d="M55.3,827.9L33.9,826"/>
<path class="st0" d="M54.6,766l-20-3.4"/>
<path class="st0" d="M53.8,704.1l-18.4-5"/>
<path class="st0" d="M53.1,642.2l-16.9-6.6"/>
<path class="st0" d="M52.3,580.3l-15.4-8.1"/>
<path class="st0" d="M51.6,518.4l-13.9-9.7"/>
<path class="st0" d="M50.8,456.5l-12.4-11.3"/>
<path class="st0" d="M50,394.6l-10.9-12.8"/>
<path class="st0" d="M49.3,332.7l-9.4-14.4"/>
<path class="st0" d="M48.5,270.8l-7.8-16"/>
<path class="st0" d="M47.8,208.9l-6.3-17.5"/>
<path class="st0" d="M47,147l-4.8-19.1"/>
<path class="st0" d="M46.3,85L43,64.4"/>
<path class="st0" d="M45.5,23.1L43.7,0.9"/>
<path class="st0" d="M23.3,827H0"/>
<path class="st0" d="M22.4,765.2l-21.5-1.8"/>
<path class="st0" d="M21.5,703.4l-19.7-3.7"/>
<path class="st0" d="M20.6,641.7l-17.9-5.6"/>
<path class="st0" d="M19.7,579.9l-16.1-7.4"/>
<path class="st0" d="M18.8,518.2l-14.3-9.3"/>
<path class="st0" d="M17.9,456.4L5.4,445.3"/>
<path class="st0" d="M17,394.6l-10.7-13"/>
<path class="st0" d="M16.1,332.9l-8.9-14.8"/>
<path class="st0" d="M15.2,271.1l-7.2-16.7"/>
<path class="st0" d="M14.3,209.4l-5.4-18.5"/>
<path class="st0" d="M13.4,147.6l-3.6-20.4"/>
<path class="st0" d="M12.5,85.8l-1.8-22.2"/>
<path class="st0" d="M11.6,24.1V0"/>
</svg>
