<svg width="93" height="839" viewBox="0 0 93 839" fill="none" xmlns="http://www.w3.org/2000/svg">
<path d="M87.4335 828.814L67.7488 825.11" stroke="#232C99" stroke-width="2" stroke-miterlimit="10"/>
<path d="M86.814 766.77L68.3684 761.782" stroke="#232C99" stroke-width="2" stroke-miterlimit="10"/>
<path d="M86.1944 704.725L68.988 698.455" stroke="#232C99" stroke-width="2" stroke-miterlimit="10"/>
<path d="M85.5748 642.678L69.6075 635.126" stroke="#232C99" stroke-width="2" stroke-miterlimit="10"/>
<path d="M84.9553 580.633L70.2271 571.799" stroke="#232C99" stroke-width="2" stroke-miterlimit="10"/>
<path d="M84.3357 518.588L70.8467 508.471" stroke="#232C99" stroke-width="2" stroke-miterlimit="10"/>
<path d="M83.7162 456.543L71.4662 445.144" stroke="#232C99" stroke-width="2" stroke-miterlimit="10"/>
<path d="M83.0966 394.498L72.0858 381.817" stroke="#232C99" stroke-width="2" stroke-miterlimit="10"/>
<path d="M82.4771 332.447L72.7054 318.488" stroke="#232C99" stroke-width="2" stroke-miterlimit="10"/>
<path d="M81.8575 270.402L73.3249 255.161" stroke="#232C99" stroke-width="2" stroke-miterlimit="10"/>
<path d="M81.2379 208.357L73.9445 191.834" stroke="#232C99" stroke-width="2" stroke-miterlimit="10"/>
<path d="M80.6183 146.312L74.5641 128.507" stroke="#232C99" stroke-width="2" stroke-miterlimit="10"/>
<path d="M79.9988 84.2656L75.1836 65.1774" stroke="#232C99" stroke-width="2" stroke-miterlimit="10"/>
<path d="M79.3792 22.2207L75.8032 1.85016" stroke="#232C99" stroke-width="2" stroke-miterlimit="10"/>
<path d="M55.3492 827.889L33.8764 826.038" stroke="#232C99" stroke-width="2" stroke-miterlimit="10"/>
<path d="M54.5924 765.986L34.6332 762.57" stroke="#232C99" stroke-width="2" stroke-miterlimit="10"/>
<path d="M53.8356 704.082L35.39 699.095" stroke="#232C99" stroke-width="2" stroke-miterlimit="10"/>
<path d="M53.0747 642.18L36.1468 635.626" stroke="#232C99" stroke-width="2" stroke-miterlimit="10"/>
<path d="M52.3179 580.275L36.9036 572.156" stroke="#232C99" stroke-width="2" stroke-miterlimit="10"/>
<path d="M51.5611 518.373L37.6604 508.687" stroke="#232C99" stroke-width="2" stroke-miterlimit="10"/>
<path d="M50.8044 456.469L38.4172 445.216" stroke="#232C99" stroke-width="2" stroke-miterlimit="10"/>
<path d="M50.0476 394.566L39.174 381.748" stroke="#232C99" stroke-width="2" stroke-miterlimit="10"/>
<path d="M49.2908 332.662L39.9308 318.277" stroke="#232C99" stroke-width="2" stroke-miterlimit="10"/>
<path d="M48.534 270.76L40.6876 254.808" stroke="#232C99" stroke-width="2" stroke-miterlimit="10"/>
<path d="M47.7773 208.855L41.4444 191.338" stroke="#232C99" stroke-width="2" stroke-miterlimit="10"/>
<path d="M47.0204 146.953L42.2011 127.865" stroke="#232C99" stroke-width="2" stroke-miterlimit="10"/>
<path d="M46.2636 85.0488L42.9579 64.3943" stroke="#232C99" stroke-width="2" stroke-miterlimit="10"/>
<path d="M45.5069 23.1465L43.7148 0.925658" stroke="#232C99" stroke-width="2" stroke-miterlimit="10"/>
<path d="M23.2607 826.965L-6.11125e-05 826.965" stroke="#232C99" stroke-width="2" stroke-miterlimit="10"/>
<path d="M22.3667 765.203L0.893921 763.353" stroke="#232C99" stroke-width="2" stroke-miterlimit="10"/>
<path d="M21.4726 703.441L1.78795 699.736" stroke="#232C99" stroke-width="2" stroke-miterlimit="10"/>
<path d="M20.5787 641.68L2.68611 636.124" stroke="#232C99" stroke-width="2" stroke-miterlimit="10"/>
<path d="M19.6847 579.92L3.58015 572.514" stroke="#232C99" stroke-width="2" stroke-miterlimit="10"/>
<path d="M18.7907 518.158L4.47415 508.902" stroke="#232C99" stroke-width="2" stroke-miterlimit="10"/>
<path d="M17.8925 456.4L5.36817 445.29" stroke="#232C99" stroke-width="2" stroke-miterlimit="10"/>
<path d="M16.9986 394.639L6.26222 381.674" stroke="#232C99" stroke-width="2" stroke-miterlimit="10"/>
<path d="M16.1045 332.877L7.15618 318.062" stroke="#232C99" stroke-width="2" stroke-miterlimit="10"/>
<path d="M15.2106 271.117L8.05434 254.452" stroke="#232C99" stroke-width="2" stroke-miterlimit="10"/>
<path d="M14.3166 209.355L8.9484 190.84" stroke="#232C99" stroke-width="2" stroke-miterlimit="10"/>
<path d="M13.4225 147.594L9.84238 127.223" stroke="#232C99" stroke-width="2" stroke-miterlimit="10"/>
<path d="M12.5244 85.832L10.7364 63.6112" stroke="#232C99" stroke-width="2" stroke-miterlimit="10"/>
<path d="M11.6304 24.0703L11.6304 -0.000855043" stroke="#232C99" stroke-width="2" stroke-miterlimit="10"/>
</svg>
