<svg width="1094" height="610" viewBox="0 0 1094 610" fill="none" xmlns="http://www.w3.org/2000/svg">
<path d="M0 594.304L31.3872 594.304" stroke="#EDF4FE" stroke-width="2" stroke-miterlimit="10"/>
<path d="M82.9453 595.511L111.92 593.098" stroke="#EDF4FE" stroke-width="2" stroke-miterlimit="10"/>
<path d="M165.891 596.717L192.452 591.885" stroke="#EDF4FE" stroke-width="2" stroke-miterlimit="10"/>
<path d="M248.842 597.924L272.985 590.679" stroke="#EDF4FE" stroke-width="2" stroke-miterlimit="10"/>
<path d="M331.787 599.13L353.518 589.472" stroke="#EDF4FE" stroke-width="2" stroke-miterlimit="10"/>
<path d="M414.732 600.342L434.051 588.265" stroke="#EDF4FE" stroke-width="2" stroke-miterlimit="10"/>
<path d="M497.678 601.549L514.583 587.059" stroke="#EDF4FE" stroke-width="2" stroke-miterlimit="10"/>
<path d="M580.629 602.755L595.116 585.853" stroke="#EDF4FE" stroke-width="2" stroke-miterlimit="10"/>
<path d="M663.574 603.962L675.643 584.641" stroke="#EDF4FE" stroke-width="2" stroke-miterlimit="10"/>
<path d="M746.52 605.168L756.176 583.434" stroke="#EDF4FE" stroke-width="2" stroke-miterlimit="10"/>
<path d="M829.465 606.375L836.708 582.228" stroke="#EDF4FE" stroke-width="2" stroke-miterlimit="10"/>
<path d="M912.41 607.587L917.241 581.021" stroke="#EDF4FE" stroke-width="2" stroke-miterlimit="10"/>
<path d="M995.361 608.793L997.774 579.814" stroke="#EDF4FE" stroke-width="2" stroke-miterlimit="10"/>
<path d="M1078.31 610L1078.31 578.608" stroke="#EDF4FE" stroke-width="2" stroke-miterlimit="10"/>
<path d="M1.20703 551.005L30.1815 548.586" stroke="#EDF4FE" stroke-width="2" stroke-miterlimit="10"/>
<path d="M83.9668 552.025L110.899 547.564" stroke="#EDF4FE" stroke-width="2" stroke-miterlimit="10"/>
<path d="M166.727 553.047L191.616 546.543" stroke="#EDF4FE" stroke-width="2" stroke-miterlimit="10"/>
<path d="M249.492 554.068L272.334 545.522" stroke="#EDF4FE" stroke-width="2" stroke-miterlimit="10"/>
<path d="M332.252 555.09L353.051 544.501" stroke="#EDF4FE" stroke-width="2" stroke-miterlimit="10"/>
<path d="M415.014 556.111L433.771 543.479" stroke="#EDF4FE" stroke-width="2" stroke-miterlimit="10"/>
<path d="M497.773 557.133L514.488 542.458" stroke="#EDF4FE" stroke-width="2" stroke-miterlimit="10"/>
<path d="M580.533 558.153L595.206 541.436" stroke="#EDF4FE" stroke-width="2" stroke-miterlimit="10"/>
<path d="M663.293 559.175L675.923 540.415" stroke="#EDF4FE" stroke-width="2" stroke-miterlimit="10"/>
<path d="M746.053 560.196L756.64 539.394" stroke="#EDF4FE" stroke-width="2" stroke-miterlimit="10"/>
<path d="M828.814 561.218L837.36 538.373" stroke="#EDF4FE" stroke-width="2" stroke-miterlimit="10"/>
<path d="M911.574 562.239L918.077 537.351" stroke="#EDF4FE" stroke-width="2" stroke-miterlimit="10"/>
<path d="M994.34 563.261L998.795 536.33" stroke="#EDF4FE" stroke-width="2" stroke-miterlimit="10"/>
<path d="M1077.1 564.281L1079.51 535.303" stroke="#EDF4FE" stroke-width="2" stroke-miterlimit="10"/>
<path d="M2.41211 507.699L28.9739 502.873" stroke="#EDF4FE" stroke-width="2" stroke-miterlimit="10"/>
<path d="M84.9883 508.535L109.878 502.037" stroke="#EDF4FE" stroke-width="2" stroke-miterlimit="10"/>
<path d="M167.562 509.371L190.78 501.2" stroke="#EDF4FE" stroke-width="2" stroke-miterlimit="10"/>
<path d="M250.139 510.208L271.684 500.365" stroke="#EDF4FE" stroke-width="2" stroke-miterlimit="10"/>
<path d="M332.713 511.044L352.587 499.529" stroke="#EDF4FE" stroke-width="2" stroke-miterlimit="10"/>
<path d="M415.287 511.88L433.489 498.692" stroke="#EDF4FE" stroke-width="2" stroke-miterlimit="10"/>
<path d="M497.863 512.716L514.398 497.856" stroke="#EDF4FE" stroke-width="2" stroke-miterlimit="10"/>
<path d="M580.438 513.552L595.301 497.02" stroke="#EDF4FE" stroke-width="2" stroke-miterlimit="10"/>
<path d="M663.014 514.389L676.205 496.184" stroke="#EDF4FE" stroke-width="2" stroke-miterlimit="10"/>
<path d="M745.588 515.225L757.107 495.348" stroke="#EDF4FE" stroke-width="2" stroke-miterlimit="10"/>
<path d="M828.162 516.061L838.009 494.512" stroke="#EDF4FE" stroke-width="2" stroke-miterlimit="10"/>
<path d="M910.738 516.896L918.913 493.675" stroke="#EDF4FE" stroke-width="2" stroke-miterlimit="10"/>
<path d="M993.312 517.732L999.816 492.839" stroke="#EDF4FE" stroke-width="2" stroke-miterlimit="10"/>
<path d="M1075.89 518.569L1080.72 492.004" stroke="#EDF4FE" stroke-width="2" stroke-miterlimit="10"/>
<path d="M3.625 464.399L27.7685 457.155" stroke="#EDF4FE" stroke-width="2" stroke-miterlimit="10"/>
<path d="M86.0098 465.051L108.857 456.504" stroke="#EDF4FE" stroke-width="2" stroke-miterlimit="10"/>
<path d="M168.398 465.701L189.944 455.858" stroke="#EDF4FE" stroke-width="2" stroke-miterlimit="10"/>
<path d="M250.789 466.353L271.033 455.208" stroke="#EDF4FE" stroke-width="2" stroke-miterlimit="10"/>
<path d="M333.178 467.003L352.126 454.556" stroke="#EDF4FE" stroke-width="2" stroke-miterlimit="10"/>
<path d="M415.568 467.654L433.214 453.906" stroke="#EDF4FE" stroke-width="2" stroke-miterlimit="10"/>
<path d="M497.959 468.3L514.303 453.255" stroke="#EDF4FE" stroke-width="2" stroke-miterlimit="10"/>
<path d="M580.348 468.95L595.39 452.603" stroke="#EDF4FE" stroke-width="2" stroke-miterlimit="10"/>
<path d="M662.738 469.602L676.479 451.953" stroke="#EDF4FE" stroke-width="2" stroke-miterlimit="10"/>
<path d="M745.127 470.253L757.572 451.308" stroke="#EDF4FE" stroke-width="2" stroke-miterlimit="10"/>
<path d="M827.518 470.903L838.661 450.656" stroke="#EDF4FE" stroke-width="2" stroke-miterlimit="10"/>
<path d="M909.902 471.555L919.749 450.006" stroke="#EDF4FE" stroke-width="2" stroke-miterlimit="10"/>
<path d="M992.291 472.205L1000.84 449.354" stroke="#EDF4FE" stroke-width="2" stroke-miterlimit="10"/>
<path d="M1074.68 472.851L1081.93 448.704" stroke="#EDF4FE" stroke-width="2" stroke-miterlimit="10"/>
<path d="M4.83008 421.1L26.5609 411.442" stroke="#EDF4FE" stroke-width="2" stroke-miterlimit="10"/>
<path d="M87.0293 421.565L107.834 410.976" stroke="#EDF4FE" stroke-width="2" stroke-miterlimit="10"/>
<path d="M169.234 422.031L189.108 410.51" stroke="#EDF4FE" stroke-width="2" stroke-miterlimit="10"/>
<path d="M251.439 422.491L270.387 410.045" stroke="#EDF4FE" stroke-width="2" stroke-miterlimit="10"/>
<path d="M333.645 422.957L351.661 409.584" stroke="#EDF4FE" stroke-width="2" stroke-miterlimit="10"/>
<path d="M415.85 423.423L432.935 409.119" stroke="#EDF4FE" stroke-width="2" stroke-miterlimit="10"/>
<path d="M498.049 423.889L514.208 408.653" stroke="#EDF4FE" stroke-width="2" stroke-miterlimit="10"/>
<path d="M580.252 424.349L595.485 408.187" stroke="#EDF4FE" stroke-width="2" stroke-miterlimit="10"/>
<path d="M662.457 424.814L676.759 407.727" stroke="#EDF4FE" stroke-width="2" stroke-miterlimit="10"/>
<path d="M744.662 425.28L758.033 407.261" stroke="#EDF4FE" stroke-width="2" stroke-miterlimit="10"/>
<path d="M826.867 425.746L839.312 406.795" stroke="#EDF4FE" stroke-width="2" stroke-miterlimit="10"/>
<path d="M909.072 426.206L920.586 406.33" stroke="#EDF4FE" stroke-width="2" stroke-miterlimit="10"/>
<path d="M991.271 426.672L1001.86 405.869" stroke="#EDF4FE" stroke-width="2" stroke-miterlimit="10"/>
<path d="M1073.47 427.138L1083.13 405.404" stroke="#EDF4FE" stroke-width="2" stroke-miterlimit="10"/>
<path d="M6.03711 377.8L25.3553 365.723" stroke="#EDF4FE" stroke-width="2" stroke-miterlimit="10"/>
<path d="M88.0566 378.081L106.814 365.449" stroke="#EDF4FE" stroke-width="2" stroke-miterlimit="10"/>
<path d="M170.07 378.355L188.272 365.168" stroke="#EDF4FE" stroke-width="2" stroke-miterlimit="10"/>
<path d="M252.09 378.637L269.736 364.888" stroke="#EDF4FE" stroke-width="2" stroke-miterlimit="10"/>
<path d="M334.109 378.917L351.194 364.613" stroke="#EDF4FE" stroke-width="2" stroke-miterlimit="10"/>
<path d="M416.123 379.192L432.658 364.333" stroke="#EDF4FE" stroke-width="2" stroke-miterlimit="10"/>
<path d="M498.143 379.473L514.117 364.052" stroke="#EDF4FE" stroke-width="2" stroke-miterlimit="10"/>
<path d="M580.162 379.747L595.575 363.776" stroke="#EDF4FE" stroke-width="2" stroke-miterlimit="10"/>
<path d="M662.176 380.028L677.039 363.496" stroke="#EDF4FE" stroke-width="2" stroke-miterlimit="10"/>
<path d="M744.195 380.309L758.497 363.215" stroke="#EDF4FE" stroke-width="2" stroke-miterlimit="10"/>
<path d="M826.217 380.584L839.958 362.941" stroke="#EDF4FE" stroke-width="2" stroke-miterlimit="10"/>
<path d="M908.234 380.864L921.42 362.66" stroke="#EDF4FE" stroke-width="2" stroke-miterlimit="10"/>
<path d="M990.25 381.145L1002.88 362.379" stroke="#EDF4FE" stroke-width="2" stroke-miterlimit="10"/>
<path d="M1072.27 381.42L1084.34 362.105" stroke="#EDF4FE" stroke-width="2" stroke-miterlimit="10"/>
<path d="M7.24414 334.501L24.144 320.012" stroke="#EDF4FE" stroke-width="2" stroke-miterlimit="10"/>
<path d="M89.0781 334.59L105.793 319.915" stroke="#EDF4FE" stroke-width="2" stroke-miterlimit="10"/>
<path d="M170.906 334.686L187.436 319.826" stroke="#EDF4FE" stroke-width="2" stroke-miterlimit="10"/>
<path d="M252.74 334.775L269.085 319.73" stroke="#EDF4FE" stroke-width="2" stroke-miterlimit="10"/>
<path d="M334.57 334.871L350.73 319.635" stroke="#EDF4FE" stroke-width="2" stroke-miterlimit="10"/>
<path d="M416.404 334.961L432.378 319.546" stroke="#EDF4FE" stroke-width="2" stroke-miterlimit="10"/>
<path d="M498.238 335.056L514.022 319.45" stroke="#EDF4FE" stroke-width="2" stroke-miterlimit="10"/>
<path d="M580.068 335.151L595.672 319.36" stroke="#EDF4FE" stroke-width="2" stroke-miterlimit="10"/>
<path d="M661.902 335.241L677.315 319.265" stroke="#EDF4FE" stroke-width="2" stroke-miterlimit="10"/>
<path d="M743.73 335.337L758.964 319.175" stroke="#EDF4FE" stroke-width="2" stroke-miterlimit="10"/>
<path d="M825.564 335.427L840.607 319.08" stroke="#EDF4FE" stroke-width="2" stroke-miterlimit="10"/>
<path d="M907.4 335.521L922.258 318.989" stroke="#EDF4FE" stroke-width="2" stroke-miterlimit="10"/>
<path d="M989.229 335.611L1003.9 318.894" stroke="#EDF4FE" stroke-width="2" stroke-miterlimit="10"/>
<path d="M1071.06 335.707L1085.55 318.805" stroke="#EDF4FE" stroke-width="2" stroke-miterlimit="10"/>
<path d="M8.44922 291.201L22.9365 274.293" stroke="#EDF4FE" stroke-width="2" stroke-miterlimit="10"/>
<path d="M90.0996 291.105L104.772 274.388" stroke="#EDF4FE" stroke-width="2" stroke-miterlimit="10"/>
<path d="M171.742 291.01L186.6 274.478" stroke="#EDF4FE" stroke-width="2" stroke-miterlimit="10"/>
<path d="M253.393 290.92L268.435 274.573" stroke="#EDF4FE" stroke-width="2" stroke-miterlimit="10"/>
<path d="M335.035 290.825L350.269 274.664" stroke="#EDF4FE" stroke-width="2" stroke-miterlimit="10"/>
<path d="M416.686 290.735L432.099 274.759" stroke="#EDF4FE" stroke-width="2" stroke-miterlimit="10"/>
<path d="M498.328 290.64L513.932 274.848" stroke="#EDF4FE" stroke-width="2" stroke-miterlimit="10"/>
<path d="M579.979 290.55L595.762 274.944" stroke="#EDF4FE" stroke-width="2" stroke-miterlimit="10"/>
<path d="M661.621 290.454L677.595 275.039" stroke="#EDF4FE" stroke-width="2" stroke-miterlimit="10"/>
<path d="M743.27 290.364L759.429 275.129" stroke="#EDF4FE" stroke-width="2" stroke-miterlimit="10"/>
<path d="M824.914 290.27L841.259 275.225" stroke="#EDF4FE" stroke-width="2" stroke-miterlimit="10"/>
<path d="M906.562 290.174L923.092 275.314" stroke="#EDF4FE" stroke-width="2" stroke-miterlimit="10"/>
<path d="M988.207 290.084L1004.92 275.409" stroke="#EDF4FE" stroke-width="2" stroke-miterlimit="10"/>
<path d="M1069.86 289.988L1086.76 275.499" stroke="#EDF4FE" stroke-width="2" stroke-miterlimit="10"/>
<path d="M9.65625 247.896L21.7308 228.58" stroke="#EDF4FE" stroke-width="2" stroke-miterlimit="10"/>
<path d="M91.1211 247.621L103.751 228.856" stroke="#EDF4FE" stroke-width="2" stroke-miterlimit="10"/>
<path d="M172.578 247.34L185.764 229.136" stroke="#EDF4FE" stroke-width="2" stroke-miterlimit="10"/>
<path d="M254.043 247.06L267.784 229.416" stroke="#EDF4FE" stroke-width="2" stroke-miterlimit="10"/>
<path d="M335.502 246.784L349.804 229.691" stroke="#EDF4FE" stroke-width="2" stroke-miterlimit="10"/>
<path d="M416.959 246.504L431.822 229.972" stroke="#EDF4FE" stroke-width="2" stroke-miterlimit="10"/>
<path d="M498.424 246.224L513.837 230.253" stroke="#EDF4FE" stroke-width="2" stroke-miterlimit="10"/>
<path d="M579.883 245.948L595.857 230.527" stroke="#EDF4FE" stroke-width="2" stroke-miterlimit="10"/>
<path d="M661.34 245.668L677.875 230.808" stroke="#EDF4FE" stroke-width="2" stroke-miterlimit="10"/>
<path d="M742.805 245.387L759.89 231.088" stroke="#EDF4FE" stroke-width="2" stroke-miterlimit="10"/>
<path d="M824.264 245.112L841.91 231.364" stroke="#EDF4FE" stroke-width="2" stroke-miterlimit="10"/>
<path d="M905.727 244.832L923.928 231.645" stroke="#EDF4FE" stroke-width="2" stroke-miterlimit="10"/>
<path d="M987.186 244.557L1005.94 231.925" stroke="#EDF4FE" stroke-width="2" stroke-miterlimit="10"/>
<path d="M1068.64 244.276L1087.96 232.2" stroke="#EDF4FE" stroke-width="2" stroke-miterlimit="10"/>
<path d="M10.8691 204.596L20.5254 182.862" stroke="#EDF4FE" stroke-width="2" stroke-miterlimit="10"/>
<path d="M92.1406 204.13L102.728 183.327" stroke="#EDF4FE" stroke-width="2" stroke-miterlimit="10"/>
<path d="M173.414 203.67L184.928 183.793" stroke="#EDF4FE" stroke-width="2" stroke-miterlimit="10"/>
<path d="M254.688 203.204L267.132 184.253" stroke="#EDF4FE" stroke-width="2" stroke-miterlimit="10"/>
<path d="M335.967 202.738L349.337 184.719" stroke="#EDF4FE" stroke-width="2" stroke-miterlimit="10"/>
<path d="M417.24 202.272L431.542 185.185" stroke="#EDF4FE" stroke-width="2" stroke-miterlimit="10"/>
<path d="M498.514 201.812L513.747 185.651" stroke="#EDF4FE" stroke-width="2" stroke-miterlimit="10"/>
<path d="M579.793 201.347L595.947 186.111" stroke="#EDF4FE" stroke-width="2" stroke-miterlimit="10"/>
<path d="M661.066 200.881L678.152 186.577" stroke="#EDF4FE" stroke-width="2" stroke-miterlimit="10"/>
<path d="M742.34 200.415L760.356 187.042" stroke="#EDF4FE" stroke-width="2" stroke-miterlimit="10"/>
<path d="M823.613 199.955L842.561 187.508" stroke="#EDF4FE" stroke-width="2" stroke-miterlimit="10"/>
<path d="M904.891 199.489L924.764 187.969" stroke="#EDF4FE" stroke-width="2" stroke-miterlimit="10"/>
<path d="M986.164 199.023L1006.97 188.434" stroke="#EDF4FE" stroke-width="2" stroke-miterlimit="10"/>
<path d="M1067.44 198.558L1089.17 188.9" stroke="#EDF4FE" stroke-width="2" stroke-miterlimit="10"/>
<path d="M12.0742 161.296L19.3178 137.149" stroke="#EDF4FE" stroke-width="2" stroke-miterlimit="10"/>
<path d="M93.1621 160.646L101.707 137.795" stroke="#EDF4FE" stroke-width="2" stroke-miterlimit="10"/>
<path d="M174.25 159.994L184.097 138.445" stroke="#EDF4FE" stroke-width="2" stroke-miterlimit="10"/>
<path d="M255.34 159.344L266.483 139.097" stroke="#EDF4FE" stroke-width="2" stroke-miterlimit="10"/>
<path d="M336.428 158.698L348.873 139.748" stroke="#EDF4FE" stroke-width="2" stroke-miterlimit="10"/>
<path d="M417.521 158.047L431.262 140.398" stroke="#EDF4FE" stroke-width="2" stroke-miterlimit="10"/>
<path d="M498.609 157.396L513.652 141.05" stroke="#EDF4FE" stroke-width="2" stroke-miterlimit="10"/>
<path d="M579.697 156.745L596.042 141.7" stroke="#EDF4FE" stroke-width="2" stroke-miterlimit="10"/>
<path d="M660.785 156.094L678.431 142.351" stroke="#EDF4FE" stroke-width="2" stroke-miterlimit="10"/>
<path d="M741.873 155.443L760.821 142.997" stroke="#EDF4FE" stroke-width="2" stroke-miterlimit="10"/>
<path d="M822.967 154.792L843.211 143.647" stroke="#EDF4FE" stroke-width="2" stroke-miterlimit="10"/>
<path d="M904.055 154.146L925.6 144.298" stroke="#EDF4FE" stroke-width="2" stroke-miterlimit="10"/>
<path d="M985.143 153.496L1007.99 144.95" stroke="#EDF4FE" stroke-width="2" stroke-miterlimit="10"/>
<path d="M1066.23 152.845L1090.38 145.6" stroke="#EDF4FE" stroke-width="2" stroke-miterlimit="10"/>
<path d="M13.2812 117.997L18.1122 91.4314" stroke="#EDF4FE" stroke-width="2" stroke-miterlimit="10"/>
<path d="M94.1836 117.16L100.687 92.2668" stroke="#EDF4FE" stroke-width="2" stroke-miterlimit="10"/>
<path d="M175.086 116.324L183.261 93.1031" stroke="#EDF4FE" stroke-width="2" stroke-miterlimit="10"/>
<path d="M255.99 115.488L265.837 93.9394" stroke="#EDF4FE" stroke-width="2" stroke-miterlimit="10"/>
<path d="M336.893 114.652L348.412 94.7758" stroke="#EDF4FE" stroke-width="2" stroke-miterlimit="10"/>
<path d="M417.795 113.815L430.986 95.6112" stroke="#EDF4FE" stroke-width="2" stroke-miterlimit="10"/>
<path d="M498.699 112.979L513.562 96.4475" stroke="#EDF4FE" stroke-width="2" stroke-miterlimit="10"/>
<path d="M579.602 112.144L596.137 97.2839" stroke="#EDF4FE" stroke-width="2" stroke-miterlimit="10"/>
<path d="M660.51 111.308L678.711 98.1202" stroke="#EDF4FE" stroke-width="2" stroke-miterlimit="10"/>
<path d="M741.414 110.472L761.288 98.9565" stroke="#EDF4FE" stroke-width="2" stroke-miterlimit="10"/>
<path d="M822.316 109.635L843.862 99.7919" stroke="#EDF4FE" stroke-width="2" stroke-miterlimit="10"/>
<path d="M903.219 108.799L926.436 100.628" stroke="#EDF4FE" stroke-width="2" stroke-miterlimit="10"/>
<path d="M984.123 107.963L1009.01 101.465" stroke="#EDF4FE" stroke-width="2" stroke-miterlimit="10"/>
<path d="M1065.03 107.127L1091.59 102.301" stroke="#EDF4FE" stroke-width="2" stroke-miterlimit="10"/>
<path d="M14.4863 74.6973L16.899 45.7186" stroke="#EDF4FE" stroke-width="2" stroke-miterlimit="10"/>
<path d="M95.2051 73.6758L99.6601 46.7398" stroke="#EDF4FE" stroke-width="2" stroke-miterlimit="10"/>
<path d="M175.922 72.6543L182.425 47.7609" stroke="#EDF4FE" stroke-width="2" stroke-miterlimit="10"/>
<path d="M256.641 71.627L265.186 48.7818" stroke="#EDF4FE" stroke-width="2" stroke-miterlimit="10"/>
<path d="M337.359 70.6064L347.947 49.804" stroke="#EDF4FE" stroke-width="2" stroke-miterlimit="10"/>
<path d="M418.076 69.585L430.706 50.8251" stroke="#EDF4FE" stroke-width="2" stroke-miterlimit="10"/>
<path d="M498.795 68.5635L513.467 51.8463" stroke="#EDF4FE" stroke-width="2" stroke-miterlimit="10"/>
<path d="M579.512 67.542L596.226 52.8675" stroke="#EDF4FE" stroke-width="2" stroke-miterlimit="10"/>
<path d="M660.23 66.5205L678.988 53.8886" stroke="#EDF4FE" stroke-width="2" stroke-miterlimit="10"/>
<path d="M740.947 65.499L761.747 54.9098" stroke="#EDF4FE" stroke-width="2" stroke-miterlimit="10"/>
<path d="M821.666 64.4785L844.508 55.9319" stroke="#EDF4FE" stroke-width="2" stroke-miterlimit="10"/>
<path d="M902.383 63.457L927.273 56.9531" stroke="#EDF4FE" stroke-width="2" stroke-miterlimit="10"/>
<path d="M983.102 62.4355L1010.03 57.9743" stroke="#EDF4FE" stroke-width="2" stroke-miterlimit="10"/>
<path d="M1063.82 61.4141L1092.79 58.9954" stroke="#EDF4FE" stroke-width="2" stroke-miterlimit="10"/>
<path d="M15.6934 31.3916L15.6934 -0.000129472" stroke="#EDF4FE" stroke-width="2" stroke-miterlimit="10"/>
<path d="M96.2266 30.1855L98.6392 1.20686" stroke="#EDF4FE" stroke-width="2" stroke-miterlimit="10"/>
<path d="M176.76 28.9785L181.591 2.41288" stroke="#EDF4FE" stroke-width="2" stroke-miterlimit="10"/>
<path d="M257.291 27.7725L264.535 3.62542" stroke="#EDF4FE" stroke-width="2" stroke-miterlimit="10"/>
<path d="M337.824 26.5654L347.48 4.83143" stroke="#EDF4FE" stroke-width="2" stroke-miterlimit="10"/>
<path d="M418.357 25.3594L430.426 6.03836" stroke="#EDF4FE" stroke-width="2" stroke-miterlimit="10"/>
<path d="M498.885 24.1475L513.372 7.24511" stroke="#EDF4FE" stroke-width="2" stroke-miterlimit="10"/>
<path d="M579.416 22.9404L596.322 8.45112" stroke="#EDF4FE" stroke-width="2" stroke-miterlimit="10"/>
<path d="M659.949 21.7344L679.267 9.65805" stroke="#EDF4FE" stroke-width="2" stroke-miterlimit="10"/>
<path d="M740.482 20.5273L762.213 10.8696" stroke="#EDF4FE" stroke-width="2" stroke-miterlimit="10"/>
<path d="M821.016 19.3213L845.159 12.0766" stroke="#EDF4FE" stroke-width="2" stroke-miterlimit="10"/>
<path d="M901.547 18.1143L928.109 13.2826" stroke="#EDF4FE" stroke-width="2" stroke-miterlimit="10"/>
<path d="M982.08 16.9023L1011.05 14.4894" stroke="#EDF4FE" stroke-width="2" stroke-miterlimit="10"/>
<path d="M1062.61 15.6953L1094 15.6953" stroke="#EDF4FE" stroke-width="2" stroke-miterlimit="10"/>
</svg>
