<svg width="847" height="131" viewBox="0 0 847 131" fill="none" xmlns="http://www.w3.org/2000/svg">
<path d="M-1565.94 2486.68L-1552.72 2480.45C-1450.05 2432.14 -1344.7 2386.1 -1242.82 2341.55L-1205.13 2324.99L-1184.48 2315.72C-1168.91 2309.19 -1152.98 2302.74 -1137.57 2296.52C-1083.23 2274.55 -1027.04 2251.83 -974.189 2220.15C-953.946 2208.12 -935.798 2195.52 -920.127 2182.61L-910.576 2174.43L-907.315 2171.59C-895.162 2161.42 -881.803 2152.06 -864.008 2141.24C-826.353 2118.43 -785.501 2098.45 -750.246 2081.56C-712.784 2064.13 -674.366 2045.78 -637.214 2028.03C-594.827 2007.79 -550.993 1986.85 -508.298 1967.14C-409.235 1923.05 -300.915 1889.53 -196.082 1857.07L-175.358 1850.65C-172.374 1849.65 -169.826 1848.83 -167.376 1848.04C-162.733 1846.54 -158.339 1845.12 -151.904 1842.74C-136.325 1836.61 -121.2 1832.55 -101.317 1829.16C-85.6434 1826.48 -68.3955 1824.33 -50.0869 1822.05C-22.8048 1818.66 5.41024 1815.14 31.488 1809.47C61.6336 1803.15 89.3891 1794.62 114.091 1784.08L114.095 1784.11L117.419 1782.64C118.541 1782.15 119.648 1781.65 120.756 1781.15L125.939 1778.84L128.567 1777.84C137.452 1775.01 146.211 1773.34 155.029 1771.77C204.498 1763.76 248.531 1763.16 285.755 1769.99C298.986 1772.74 310.939 1776.82 327 1784.06C338.17 1789.14 349.368 1794.92 361.219 1801.05C376.773 1809.1 392.858 1817.42 409.638 1824.46C436.488 1836.13 465.815 1844.72 492.187 1848.63C507.718 1851.01 523.379 1851.93 538.547 1852.82C546.683 1853.3 555.1 1853.79 563.566 1854.53C570.788 1855 579.255 1855.74 587.439 1856.46C608.694 1858.31 632.786 1860.42 651.552 1859.57C672.064 1859.54 695.775 1859.01 717.722 1853.27C753.025 1844.66 787.112 1827.56 824.979 1799.48C829.73 1795.97 836.363 1790.95 842.821 1786.06C847.944 1782.19 852.962 1778.4 856.931 1775.43L860.724 1772.54C893.459 1747.55 927.309 1721.72 959.14 1693.75L959.368 1693.54C980.043 1673.95 992.395 1648.87 1002.69 1624.61C1010.96 1604.72 1017.74 1584.71 1024.29 1565.35L1027.61 1555.55C1042.09 1514.11 1055.54 1467.25 1067.62 1416.2C1068.17 1413.82 1068.93 1410.72 1069.72 1407.54C1070.76 1403.33 1071.84 1398.97 1072.52 1395.82C1075.1 1384.29 1076.75 1371.68 1077.18 1360.23C1078.93 1300.56 1069.33 1242.91 1060.05 1187.13C1057.48 1171.72 1054.83 1155.78 1052.43 1139.88C1046.9 1106.39 1041.18 1073.1 1035.39 1040.74C1035.1 1039.31 1034.82 1037.84 1034.54 1036.36L1034.49 1036.13C1033.48 1030.81 1032.42 1025.31 1030.99 1020.21C1025.06 996.413 1016.85 973.036 1007.49 947.102C990.566 901.08 973.996 852.858 953.756 790.685C922.585 697.247 874.561 605.478 806.96 510.171C774.489 464.023 744.41 426.16 714.938 394.342C682.008 359.628 630.948 318.627 581.548 278.961C520.999 230.341 445.642 169.837 440.018 144.847C427.009 87.0409 444.67 -30.1249 481.334 -75.4515C513.959 -117.126 562.259 -143.495 608.977 -169C615.275 -172.441 621.561 -175.873 627.816 -179.338C657.197 -195.711 687.65 -211.585 717.211 -226.996C752.476 -245.385 788.937 -264.394 824.168 -284.55C869.936 -305.785 919.557 -316.303 974.885 -326.902C1015.3 -334.1 1057.63 -339.886 1100.69 -344.092C1203.42 -353.902 1313.2 -367.154 1419.39 -379.968C1442.19 -382.72 1464.76 -385.438 1486.89 -388.085L1492.26 -388.708C1501.69 -389.809 1526.73 -392.757 1537 -393.311C1585.19 -394.828 1634.56 -391.678 1682.36 -388.641C1725.81 -385.872 1770.74 -383.017 1815.47 -383.582C1827.67 -383.885 1839.92 -384.719 1850.93 -385.996L1851.55 -386.068C1882.2 -390.792 1912.47 -398.901 1941.76 -406.751L1942.47 -406.941C1969.59 -414.267 1998.49 -422.439 2026.52 -430.366C2061.46 -440.249 2097.59 -450.471 2131.24 -459.322" stroke="white" stroke-miterlimit="10" style="mix-blend-mode:overlay"/>
<path d="M-266.718 -1086.9L-253.809 -1035.76C-232.036 -951.447 -209.515 -864.269 -193.551 -778.46C-185.742 -730.111 -175.037 -676.305 -160.838 -613.99C-158.146 -602.062 -155.296 -590.066 -152.54 -578.469L-152.423 -577.987C-148.02 -559.475 -143.469 -540.333 -139.447 -520.988C-136.509 -507.583 -133.749 -493.483 -131.073 -479.818C-125.857 -453.174 -120.459 -425.62 -113.034 -398.968C-78.6565 -277.535 -0.449885 -175.965 78.9833 -84.2613C86.7895 -75.3503 94.9502 -66.0861 103.363 -56.5284C140.898 -13.8867 183.446 34.4334 216.816 76.0023C257.713 126.127 301.573 179.236 348.708 229.218C368.556 249.488 388.747 269.776 408.269 289.404C465.252 346.69 524.17 405.918 577.564 467.386C597.316 490.12 613.948 511.086 629.947 533.416C663.77 580.117 696.427 629.929 728.017 678.115C752.884 716.045 778.598 755.275 804.719 792.737C822.736 819.244 838.822 843.141 853.213 867.293L855.301 870.722C878.158 908.176 901.79 946.909 921.12 986.443C934.256 1013.52 943.803 1036.85 947.738 1062.83C956.364 1114.64 967.227 1182.26 974.77 1245.93C977.675 1270.5 980.966 1302.56 980.682 1332.84C980.657 1345.19 979.444 1357.22 977.266 1366.76C961.815 1421.92 945.453 1469.7 927.217 1512.9C918.83 1533.28 909.898 1554.66 901.057 1572.42C896.193 1581.88 890.156 1593.63 883.334 1599.42C848.562 1624.65 811.028 1648.39 774.706 1671.36L767.33 1676.02C751.721 1685.89 734.023 1697.07 717.878 1703.38C702.13 1709.71 690.38 1712.26 677.332 1712.19C675.191 1712.18 673.035 1712.1 670.604 1711.94L654.72 1710.74L648.276 1710.52C640.674 1710.12 628.318 1707.86 617.424 1705.87C611.257 1704.74 605.424 1703.68 600.8 1703C575.981 1698.78 551.064 1695.14 529.837 1692.12C494.171 1687.62 463.563 1670.03 431.16 1651.42C418.903 1644.38 406.23 1637.1 392.924 1630.34C371.395 1619.49 351.225 1611.31 333.024 1606.06C303.275 1597.29 269.589 1592.53 229.991 1591.49C183.321 1590.61 141.06 1594.4 100.796 1603.05C93.8357 1604.55 84.7046 1607.06 78.3088 1608.96L77.9087 1609.09C77.5874 1609.2 76.7138 1609.48 75.7418 1609.8C73.9029 1610.39 71.8756 1611.06 71.5233 1611.2C71.0018 1611.4 70.1642 1611.7 69.2677 1612.02C67.554 1612.63 65.6645 1613.32 64.4946 1613.81L62.1841 1614.8C51.859 1619.24 41.1831 1623.82 30.5247 1627.27C0.0279855 1637.25 -33.0959 1643.03 -65.165 1648.62C-106.095 1655.77 -148.422 1663.15 -187.902 1679.33C-194.034 1681.74 -200.067 1684.59 -205.899 1687.36L-208.378 1688.53C-209.113 1688.89 -209.987 1689.35 -210.919 1689.83L-211.234 1690C-212.506 1690.66 -214.426 1691.67 -215.446 1692.1L-215.841 1692.28C-221.633 1695.03 -233.198 1700.3 -244.38 1705.39L-244.762 1705.56C-255.188 1710.31 -265.031 1714.79 -270.808 1717.5C-366.234 1761.68 -465.536 1809.17 -561.564 1855.09L-577.638 1862.77C-626.103 1886.49 -673.325 1909.46 -718.355 1929.84C-728.956 1934.72 -740.694 1940.07 -753.048 1945.7L-754.86 1946.53C-798.264 1966.3 -847.459 1988.71 -882.725 2006.98C-918.28 2025.33 -955.74 2046.07 -988.901 2073.31C-1002.14 2084.44 -1016.96 2094.47 -1035.53 2104.85C-1081.89 2130.83 -1134.1 2149.52 -1184.6 2167.59C-1202.88 2174.13 -1221.79 2180.89 -1240.06 2187.88C-1364.47 2233.89 -1489.78 2276.73 -1612.48 2315.2L-1626.35 2319.55" stroke="white" stroke-miterlimit="10" style="mix-blend-mode:overlay"/>
<path d="M2102.87 -550.734L2100.37 -549.856C2050.13 -526.288 1995.25 -504.138 1937.28 -484.047C1908.96 -474.408 1878.73 -464.484 1848.1 -458.249L1841.25 -456.923L1834.57 -456.149C1833.58 -456.034 1832.62 -455.923 1831.64 -455.795C1830.36 -455.632 1829.03 -455.463 1827.83 -455.396C1778.92 -452.661 1728.76 -454.952 1680.24 -457.16C1636.36 -459.162 1591 -461.228 1545.85 -459.669L1519.54 -457.843C1488.8 -454.141 1457.34 -449.975 1426.83 -445.933C1401.89 -442.631 1376.1 -439.217 1350.68 -436.052L1350.45 -436.025C1290.08 -426.756 1228.07 -421.04 1168.02 -415.499C1057.61 -405.316 943.451 -394.79 833.64 -361.722L833.37 -361.634C820.392 -357.217 805.373 -351.896 791.117 -344.52C750.979 -322.733 709.104 -302.588 668.532 -283.074C644.364 -271.45 619.384 -259.431 594.879 -247.13C589.379 -244.384 583.857 -241.657 578.154 -238.837C521.911 -211.044 463.754 -182.312 419.773 -131.691C383.462 -90.543 366.101 -35.5097 355.01 7.95456C350.86 25.1578 347.507 41.8886 345.005 57.9112C344.248 57.0238 343.484 56.1372 342.712 55.2372C299.498 4.63533 265.177 -42.7749 237.787 -89.7055C211.167 -135.22 187.329 -184.011 164.276 -231.201C147.896 -264.738 130.955 -299.414 113.231 -332.501C92.114 -373.577 69.4734 -414.218 44.0001 -456.782C41.875 -460.3 39.5773 -464.307 37.3565 -468.18C36.2453 -470.123 35.1274 -472.066 34.1064 -473.819C15.7824 -507.79 2.18489 -536.257 -8.69257 -563.419C-21.8963 -596.127 -32.585 -630.826 -42.9242 -664.39L-44.9003 -670.794C-59.0054 -717.38 -70.6633 -761.84 -79.585 -803.155C-90.3192 -848.052 -103.064 -895.599 -115.389 -941.581C-127.427 -986.5 -139.867 -1032.95 -150.34 -1076.54C-151.741 -1082.44 -153.875 -1091.85 -155.048 -1097.67L-157.943 -1111.94" stroke="white" stroke-miterlimit="10" style="mix-blend-mode:overlay"/>
<path d="M-1594.94 2560.9L-1530.85 2530.75C-1429.01 2482.84 -1324.18 2437.01 -1222.8 2392.69L-1184.08 2375.67L-1163.99 2366.65C-1148.71 2360.24 -1132.62 2353.74 -1118.49 2348.02L-1118.19 2347.91C-1062.08 2325.23 -1004.06 2301.77 -947.996 2268.16C-925.522 2254.8 -905.177 2240.65 -887.514 2226.11L-877.014 2217.13L-873.982 2214.49C-863.991 2206.16 -852.701 2198.3 -837.444 2189.03C-801.821 2167.44 -762.509 2148.23 -728.436 2131.9C-691.012 2114.49 -652.763 2096.22 -615.766 2078.54L-615.076 2078.21C-573.056 2058.14 -529.61 2037.38 -487.257 2017.83C-390.967 1974.99 -284.094 1941.91 -180.727 1909.91L-159.852 1903.44L-158.807 1903.11C-156.106 1902.2 -153.788 1901.45 -151.337 1900.66C-146.424 1899.08 -141.348 1897.44 -133.666 1894.59L-133.027 1894.34C-120.823 1889.54 -108.655 1886.3 -92.3125 1883.52C-77.6746 1881.02 -60.9837 1878.95 -43.1517 1876.73C-14.8291 1873.2 14.4539 1869.55 42.3054 1863.49C56.3867 1860.53 70.1266 1857.1 83.3728 1853.24L84.8245 1857.23L138.025 1833.52C139.322 1832.96 140.605 1832.38 141.666 1831.9L145.534 1830.18C151.159 1828.51 157.445 1827.31 163.94 1826.15C207.316 1819.12 245.263 1818.45 276.726 1824.14C285.865 1826.09 294.598 1829.13 306.676 1834.57C316.624 1839.1 327.242 1844.58 338.651 1850.49C355.025 1858.96 371.957 1867.71 390.227 1875.38C421.037 1888.77 454.804 1898.63 485.225 1903.15C503.093 1905.88 519.962 1906.87 536.275 1907.83C544.006 1908.28 552.005 1908.75 559.825 1909.44L560.924 1909.52C567.529 1909.95 575.52 1910.65 583.394 1911.34L583.697 1911.36C606.082 1913.32 631.426 1915.54 653.263 1914.66C676.382 1914.61 703.263 1913.93 730.419 1906.86C772.349 1896.59 812.081 1876.82 855.381 1844.7C860.271 1841.1 867.098 1835.94 873.737 1830.91L874.062 1830.66C878.967 1826.95 883.753 1823.33 887.803 1820.31L891.884 1817.19C925.289 1791.7 959.84 1765.33 993 1736.19L994.682 1734.66C1022.48 1708.32 1038.01 1677.15 1050.72 1647.19C1059.72 1625.54 1066.81 1604.62 1073.65 1584.42L1076.86 1574.95C1091.96 1531.67 1105.98 1482.86 1118.51 1429.86L1118.57 1429.63C1119.04 1427.55 1119.71 1424.84 1120.48 1421.75C1121.58 1417.29 1122.72 1412.68 1123.52 1408.97C1126.83 1394.17 1128.96 1377.79 1129.52 1362.83L1129.53 1362.61C1131.44 1297.31 1121.36 1236.79 1111.6 1178.12C1109.09 1163.04 1106.49 1147.45 1104.1 1131.58L1104.03 1131.14C1098.46 1097.44 1092.68 1063.79 1086.8 1030.93L1086.63 1030.01C1086.39 1028.8 1086.15 1027.57 1085.89 1026.21L1085.82 1025.83C1084.75 1020.24 1083.41 1013.3 1081.47 1006.17C1074.9 979.961 1066.22 955.247 1056.32 927.828C1039.64 882.473 1023.26 834.802 1003.17 773.071C970.191 674.228 919.731 577.621 848.952 477.821C815.037 429.619 783.33 389.764 752.035 355.978L751.825 355.752C716.372 318.376 663.861 276.209 613.033 235.389C583.485 211.669 549.999 184.785 523.929 161.393C502.543 142.197 493.425 131.789 489.95 127.38C482.691 82.5458 497.109 -9.41901 521.641 -39.7499L521.944 -40.1363C547.881 -73.269 591.427 -97.0432 633.538 -120.027C639.946 -123.524 646.327 -127.011 652.774 -130.584C681.585 -146.64 711.743 -162.364 740.963 -177.593C775.972 -195.844 812.163 -214.714 847.662 -234.959C887.766 -253.221 933.324 -262.823 984.38 -272.604C1023.54 -279.577 1064.49 -285.167 1106.04 -289.22C1209.37 -299.092 1319.23 -312.346 1425.53 -325.173L1426.02 -325.23C1448.79 -327.978 1471.32 -330.692 1493.25 -333.315L1499.93 -334.09C1526.26 -337.195 1536.18 -338.031 1539.8 -338.25C1585.4 -339.646 1633.38 -336.593 1679.81 -333.633C1724.18 -330.807 1770.06 -327.882 1817.03 -328.477L1817.32 -328.482C1831 -328.822 1844.93 -329.777 1857.59 -331.246L1859.74 -331.539C1893.09 -336.67 1924.7 -345.141 1955.25 -353.332L1956.07 -353.549C1983.48 -360.953 2012.43 -369.136 2040.32 -377.025L2040.86 -377.174C2075.45 -386.959 2111.21 -397.074 2144.54 -405.845" stroke="white" stroke-miterlimit="10" style="mix-blend-mode:overlay"/>
<path d="M-330.993 -1128.57L-304.341 -1021.88C-282.878 -938.757 -260.678 -852.819 -245.082 -769.183C-237.081 -719.774 -226.191 -665.02 -211.8 -601.868C-209 -589.486 -206.126 -577.393 -203.355 -565.725L-203.207 -565.097C-198.91 -547.024 -194.473 -528.335 -190.544 -509.502L-190.483 -509.215C-187.679 -496.433 -184.984 -482.662 -182.361 -469.271C-176.932 -441.555 -171.317 -412.893 -163.225 -383.837C-125.81 -251.671 -43.1752 -143.997 40.6563 -47.2097C48.486 -38.2728 56.6777 -28.9764 65.2001 -19.2952C102.311 22.858 144.373 70.6322 177.226 111.558C218.757 162.456 263.353 216.447 311.902 267.929L312.444 268.49C332.052 288.508 351.928 308.489 371.141 327.807L372.421 329.093C428.71 385.679 486.919 444.193 539.078 504.24C557.667 525.639 573.316 545.364 588.412 566.43C621.456 612.052 653.757 661.317 685.09 709.11C710.107 747.274 735.976 786.73 762.329 824.538C779.796 850.24 795.38 873.393 809.077 896.378L811.351 900.123C833.518 936.444 856.435 974.006 874.521 1010.98C885.374 1033.35 893.18 1052.13 896.072 1071.18L896.152 1071.69C904.665 1122.82 915.387 1189.52 922.801 1252.08C925.505 1274.91 928.569 1304.61 928.319 1332.06C928.304 1339.56 927.67 1346.84 926.573 1352.19C911.896 1404.39 896.398 1449.58 879.21 1490.3L879.12 1490.52C871.131 1509.92 862.675 1530.18 854.825 1545.98C851.69 1552.07 849.829 1555.41 848.732 1557.23C816.45 1580.37 781.327 1602.57 747.309 1624.08L739.966 1628.73C726.293 1637.38 710.791 1647.18 698.903 1651.83L698.708 1651.91C687.797 1656.28 682.303 1657.15 676.979 1657.12C675.909 1657.12 674.828 1657.08 673.756 1657L657.872 1655.81L650.041 1655.5C645.428 1655.2 633.219 1652.97 625.951 1651.64L625.054 1651.48C618.977 1650.37 613.221 1649.32 608.076 1648.55C582.764 1644.26 557.493 1640.57 536.067 1637.52L535.492 1637.45C509.929 1634.22 483.606 1619.1 455.699 1603.07C442.946 1595.74 429.755 1588.17 415.144 1580.74C390.764 1568.45 367.667 1559.12 346.631 1553.04C312.622 1543.02 274.633 1537.58 230.327 1536.42C179.743 1535.47 133.75 1539.61 89.711 1549.09C81.322 1550.9 70.6775 1553.82 63.5123 1555.95L59.8917 1557.1C55.458 1558.53 53.9805 1559.07 53.0159 1559.44L51.799 1559.88C49.3789 1560.75 46.8175 1561.69 44.4196 1562.69L41.7845 1563.82C32.5494 1567.79 22.9956 1571.89 14.4131 1574.67C-12.6638 1583.53 -44.0117 1589 -74.3637 1594.3C-117.819 1601.88 -162.756 1609.72 -207.022 1627.82C-214.612 1630.82 -221.336 1633.99 -227.885 1637.1L-231.01 1638.59C-232.022 1639.08 -233.224 1639.7 -234.58 1640.41L-235.017 1640.63C-235.801 1641.03 -236.315 1641.31 -236.598 1641.45L-237.892 1642.04C-243.135 1644.54 -254.395 1649.67 -264.328 1654.2L-266.05 1654.98C-275.558 1659.3 -286.333 1664.21 -292.399 1667.06C-388.084 1711.36 -487.405 1758.85 -583.459 1804.79L-600.017 1812.71L-600.21 1812.8C-648.314 1836.34 -695.182 1859.14 -739.882 1879.37C-750.281 1884.16 -761.801 1889.41 -774.083 1895.01L-776.18 1895.96C-820.094 1915.97 -869.866 1938.64 -906.276 1957.5C-944.325 1977.14 -984.647 1999.52 -1021.72 2029.97L-1021.93 2030.15C-1032.62 2039.13 -1044.9 2047.41 -1060.62 2056.19C-1103.29 2080.11 -1153.48 2098.06 -1202.22 2115.51C-1220.56 2122.07 -1239.53 2128.86 -1258.09 2135.96C-1381.68 2181.66 -1506.14 2224.21 -1628 2262.42L-1695.21 2283.48" stroke="white" stroke-miterlimit="10" style="mix-blend-mode:overlay"/>
<path d="M-1581.02 2525.27L-1541.35 2506.6C-1439.15 2458.51 -1334.12 2412.6 -1232.52 2368.19L-1194.18 2351.34L-1173.83 2342.2C-1158.4 2335.73 -1142.09 2329.14 -1127.69 2323.32L-1127.46 2323.23C-1072.21 2300.89 -1015.07 2277.79 -960.569 2245.12C-939.166 2232.4 -919.854 2218.97 -903.167 2205.23L-893.027 2196.55L-889.952 2193.87C-878.926 2184.67 -866.649 2176.09 -850.19 2166.09C-813.573 2143.9 -773.501 2124.31 -738.976 2107.77C-701.539 2090.36 -663.206 2072.04 -626.138 2054.33L-625.699 2054.13C-583.479 2033.95 -539.826 2013.1 -497.422 1993.52C-399.785 1950.07 -292.169 1916.76 -188.092 1884.54L-167.217 1878.08L-166.744 1877.92C-163.918 1876.97 -161.495 1876.19 -159.065 1875.4C-154.152 1873.82 -149.515 1872.32 -142.454 1869.7L-142.082 1869.56C-128.255 1864.12 -114.669 1860.49 -96.6294 1857.41C-81.4443 1854.81 -64.4777 1852.71 -46.5179 1850.47C-18.6853 1847.01 10.1011 1843.42 37.1153 1837.54C58.6668 1833.03 79.2024 1827.39 98.3722 1820.73L98.8809 1822.12L128.151 1809.08C129.357 1808.55 130.556 1808.02 131.63 1807.52L136.184 1805.5L137.411 1805.03C144.547 1802.82 151.994 1801.41 159.629 1800.03C205.954 1792.52 246.814 1791.88 281.067 1798.13C292.158 1800.46 302.441 1804 316.425 1810.31C326.977 1815.11 337.878 1820.74 349.461 1826.73C365.472 1835.02 382.027 1843.58 399.466 1850.89C428.383 1863.47 460.05 1872.73 488.557 1876.96C505.301 1879.52 521.581 1880.48 537.38 1881.41C545.296 1881.87 553.487 1882.35 561.616 1883.06L562.186 1883.1C569.093 1883.56 577.291 1884.27 585.199 1884.96L585.495 1884.98C607.329 1886.9 632.067 1889.06 652.454 1888.19C674.327 1888.15 699.671 1887.55 724.278 1881.12C763.045 1871.66 800.077 1853.16 840.786 1822.97C845.606 1819.41 852.34 1814.32 858.892 1809.37L859.223 1809.11C864.178 1805.36 869.014 1801.71 873.108 1798.66L876.92 1795.74C910.005 1770.48 944.224 1744.37 976.748 1715.79L977.733 1714.89C1002.1 1691.8 1016.12 1663.53 1027.67 1636.32C1036.33 1615.51 1043.26 1595.03 1049.96 1575.23L1053.19 1565.68C1068.01 1523.27 1081.76 1475.36 1094.11 1423.16C1094.61 1420.92 1095.33 1418.02 1096.11 1414.92C1097.19 1410.55 1098.3 1406.03 1099.02 1402.67C1101.99 1389.43 1103.9 1374.83 1104.4 1361.43C1106.23 1298.83 1096.38 1239.66 1086.86 1182.44C1084.32 1167.22 1081.7 1151.48 1079.3 1135.55L1079.26 1135.3C1073.72 1101.78 1067.96 1068.28 1062.12 1035.66L1062.03 1035.13C1061.77 1033.85 1061.52 1032.54 1061.24 1031.08L1061.17 1030.75C1060.12 1025.27 1058.93 1019.06 1057.22 1012.87C1050.96 987.808 1042.5 963.742 1032.87 937.044C1016.06 891.339 999.594 843.407 979.438 781.489C947.328 685.241 898.038 590.958 828.783 493.312C795.569 446.104 764.64 407.199 734.108 374.242C699.866 338.138 648.04 296.523 597.904 256.261C568.084 232.322 534.289 205.186 507.718 181.343C474.096 151.176 467.355 139.761 466.342 137.785C455.541 87.9615 471.493 -18.8524 502.281 -56.9219L502.442 -57.1198C531.583 -94.3529 577.417 -119.375 621.738 -143.569C628.094 -147.038 634.425 -150.497 640.781 -154.024C669.906 -170.253 700.232 -186.061 729.567 -201.353C764.705 -219.67 801.03 -238.613 836.398 -258.814C879.219 -278.503 926.749 -288.541 979.738 -298.69C1019.56 -305.784 1061.19 -311.474 1103.46 -315.596C1206.52 -325.443 1316.24 -338.681 1422.36 -351.487L1422.84 -351.542C1445.62 -354.292 1468.16 -357.007 1490.18 -359.641L1496.82 -360.411C1505.69 -361.455 1529.19 -364.189 1538.43 -364.715C1585.27 -366.169 1633.94 -363.067 1681.02 -360.075C1724.95 -357.277 1770.38 -354.386 1816.42 -354.966C1829.38 -355.287 1842.49 -356.183 1854.52 -357.579L1855.8 -357.749C1887.84 -362.678 1918.81 -370.981 1948.77 -379.011L1949.53 -379.214C1976.67 -386.542 2005.55 -394.711 2033.6 -402.641L2033.89 -402.724C2068.63 -412.556 2104.55 -422.718 2138.14 -431.555" stroke="white" stroke-miterlimit="10" style="mix-blend-mode:overlay"/>
<path d="M-300.138 -1108.57L-280.079 -1028.52C-258.468 -944.839 -236.117 -858.301 -220.349 -773.646C-212.439 -724.727 -201.635 -670.423 -187.34 -607.689C-184.582 -595.489 -181.723 -583.466 -178.963 -571.833L-178.829 -571.268C-174.488 -552.991 -169.993 -534.102 -165.991 -514.869C-163.115 -501.772 -160.397 -487.853 -157.746 -474.343C-152.417 -447.139 -146.905 -419.01 -139.13 -391.101C-103.178 -264.086 -22.6615 -159.342 59.0546 -64.9914C66.8759 -56.0679 75.0525 -46.7839 83.5598 -37.1153C120.858 5.24553 163.125 53.2611 196.232 94.4949C237.462 145.026 281.708 198.591 329.536 249.318L329.847 249.647C349.547 269.756 369.54 289.859 388.876 309.3L389.679 310.11C446.276 367.011 504.808 425.846 557.542 486.559C576.69 508.603 592.817 528.925 608.345 550.593C641.793 596.771 674.295 646.357 705.727 694.303C730.67 732.346 756.457 771.69 782.612 809.205C800.374 835.332 816.214 858.871 830.326 882.554L832.446 886.036C854.942 922.901 878.195 961.011 896.881 999.214C908.827 1023.84 917.476 1044.83 920.861 1067.2L920.904 1067.45C929.47 1118.91 940.257 1186.06 947.739 1249.14C950.538 1272.8 953.714 1303.64 953.444 1332.45C953.425 1342.32 952.532 1351.78 950.919 1359.13C935.858 1412.78 919.943 1459.24 902.198 1501.27C894.007 1521.17 885.305 1542.01 877.05 1558.59C874.698 1563.16 869.339 1573.59 866.423 1576.7C832.643 1601.14 795.952 1624.33 760.456 1646.78L753.093 1651.44C738.493 1660.67 721.938 1671.13 707.899 1676.62C695.348 1681.67 686.723 1683.61 677.145 1683.57C675.55 1683.56 673.955 1683.5 672.232 1683.39L656.347 1682.19L649.176 1681.92C643.21 1681.59 631.342 1679.42 621.839 1677.68L621.247 1677.57C615.177 1676.46 609.441 1675.41 604.555 1674.69C579.513 1670.44 554.333 1666.77 532.996 1663.73L532.761 1663.7C502.344 1659.86 473.925 1643.53 443.843 1626.26C431.353 1619.09 418.439 1611.67 404.459 1604.57C381.446 1592.96 359.757 1584.19 340.082 1578.51C308.111 1569.09 272.19 1563.97 230.146 1562.87C181.448 1561.96 137.246 1565.93 95.0148 1575.01C87.3041 1576.67 77.3466 1579.41 70.596 1581.42L67.4891 1582.42C63.0882 1583.83 62.1959 1584.18 61.8763 1584.31C61.4919 1584.46 60.8763 1584.67 60.1767 1584.93C58.1627 1585.66 55.8552 1586.5 53.9116 1587.3L51.5103 1588.33C41.7622 1592.52 31.6835 1596.85 22.1282 1599.94C-6.59597 1609.35 -38.8054 1614.96 -69.9794 1620.4C-112.226 1627.77 -155.914 1635.39 -197.809 1652.55C-204.729 1655.27 -211.136 1658.31 -217.336 1661.24L-220.152 1662.57C-221.029 1663 -222.077 1663.54 -223.259 1664.16L-223.625 1664.35C-224.955 1665.04 -225.675 1665.41 -226.069 1665.6L-227.324 1666.18C-232.916 1668.84 -244.701 1674.2 -255.087 1678.94L-255.851 1679.28C-265.319 1683.59 -276.049 1688.48 -282.052 1691.29C-377.685 1735.57 -476.941 1783.03 -573.105 1829.02L-589.392 1836.81C-637.708 1860.46 -684.783 1883.35 -729.567 1903.61C-739.999 1908.42 -751.551 1913.68 -763.865 1919.3L-765.955 1920.25C-809.611 1940.14 -859.091 1962.68 -894.981 1981.27C-931.835 2000.29 -970.783 2021.88 -1006.09 2050.89C-1018 2060.91 -1031.51 2070.02 -1048.59 2079.58C-1093.03 2104.48 -1144.2 2122.79 -1193.67 2140.49C-1212 2147.05 -1230.95 2153.83 -1249.39 2160.88C-1373.41 2206.74 -1498.29 2249.44 -1620.57 2287.78L-1662.18 2300.82" stroke="white" stroke-miterlimit="10" style="mix-blend-mode:overlay"/>
<path d="M2096.5 -578.649L2091.7 -577.109L2089.03 -576.032C2039.6 -552.845 1985.6 -531.056 1928.61 -511.301C1901.09 -501.934 1871.78 -492.303 1842.85 -486.408L1836.95 -485.265L1831.45 -484.627C1830.31 -484.495 1829.19 -484.364 1828.09 -484.222L1827.53 -484.158C1827.02 -484.091 1826.51 -484.011 1826.06 -483.987C1778.45 -481.325 1728.96 -483.586 1681.08 -485.769C1640.78 -487.611 1557.24 -488.984 1516.1 -486.298C1485.07 -484.269 1453.76 -478.414 1423.32 -474.381L1423.05 -474.35C1398.23 -471.061 1372.57 -467.662 1346.97 -464.476L1346.18 -464.363C1286.56 -455.217 1224.93 -449.529 1165.29 -444.03C1053.62 -433.73 938.159 -423.088 825.655 -389.213L824.676 -388.899C810.806 -384.178 794.689 -378.457 778.722 -370.202L778.37 -370.01C738.783 -348.524 697.133 -328.49 656.846 -309.11L656.549 -308.968C632.414 -297.355 607.452 -285.353 582.936 -273.036C577.713 -270.43 572.461 -267.834 567.068 -265.165L566.3 -264.789C507.699 -235.834 447.093 -205.886 399.681 -151.31C360.648 -107.078 341.758 -50.017 329.797 -4.12149C302.801 -38.5493 280.134 -71.6007 260.924 -104.522C234.874 -149.063 211.258 -197.407 188.402 -244.189C171.941 -277.896 154.913 -312.742 137.067 -346.058C115.694 -387.628 92.761 -428.794 66.9231 -471.975C65.0004 -475.158 62.8239 -478.943 60.6358 -482.769C59.5756 -484.625 58.5163 -486.474 57.5288 -488.174C39.8686 -520.946 26.7856 -548.325 16.3495 -574.384C3.62319 -605.914 -6.87916 -640.004 -17.0334 -672.972L-18.9654 -679.231C-32.8366 -725.033 -44.3014 -768.771 -53.0722 -809.371L-53.1843 -809.867C-64.0191 -855.162 -76.8147 -902.911 -89.2044 -949.158C-101.182 -993.847 -113.56 -1040.06 -123.929 -1083.21C-125.283 -1088.89 -127.314 -1097.89 -128.421 -1103.37L-137.101 -1146.19" stroke="white" stroke-miterlimit="10" style="mix-blend-mode:overlay"/>
<path d="M-1572.32 2503L-1547.91 2491.52C-1445.53 2443.35 -1340.4 2397.39 -1238.73 2352.94L-1200.5 2336.15L-1179.97 2326.93C-1164.33 2320.37 -1147.86 2313.72 -1133.28 2307.83C-1078.56 2285.7 -1021.97 2262.83 -968.424 2230.74C-947.69 2218.41 -929.027 2205.44 -912.95 2192.2L-903.152 2183.8L-899.972 2181.03C-888.301 2171.27 -875.402 2162.24 -858.168 2151.76C-820.946 2129.21 -780.428 2109.41 -745.483 2092.66C-707.969 2075.21 -669.526 2056.85 -632.348 2039.09C-590.064 2018.88 -546.334 1997.99 -503.703 1978.32C-405.249 1934.51 -297.226 1901.07 -192.708 1868.71L-171.984 1862.29L-171.721 1862.21C-168.817 1861.22 -166.327 1860.43 -163.838 1859.62C-159.09 1858.09 -154.598 1856.64 -147.961 1854.18L-147.759 1854.1C-132.922 1848.26 -118.444 1844.38 -99.3493 1841.13C-83.8701 1838.48 -66.7431 1836.35 -48.5682 1834.09C-21.0583 1830.66 7.38614 1827.12 33.8489 1821.36C60.2758 1815.82 84.9935 1808.59 107.502 1799.81L107.643 1800.2L121.948 1793.83C123.102 1793.33 124.242 1792.82 125.336 1792.32L130.253 1790.13L132.301 1789.35C140.453 1786.79 148.666 1785.23 156.896 1783.76C205.086 1775.94 247.77 1775.33 283.752 1781.92C296.084 1784.5 307.33 1788.35 322.507 1795.19C333.403 1800.14 344.457 1805.86 356.207 1811.94C371.957 1820.09 388.244 1828.51 405.311 1835.67C433.037 1847.73 463.357 1856.6 490.624 1860.65C506.668 1863.11 522.59 1864.04 538.005 1864.95C546.045 1865.42 554.359 1865.91 562.709 1866.64L562.949 1866.65C569.972 1867.11 578.28 1867.84 586.32 1868.54L586.595 1868.56C608.091 1870.44 632.452 1872.58 651.906 1871.71C673.003 1871.68 697.425 1871.12 720.417 1865.1C757.204 1856.13 792.55 1838.44 831.635 1809.45C836.411 1805.93 843.088 1800.88 849.59 1795.96C854.695 1792.1 859.687 1788.32 863.739 1785.31L867.531 1782.41C900.417 1757.31 934.429 1731.35 966.557 1703.12L967.105 1702.62C989.345 1681.55 1002.4 1655.12 1013.23 1629.62C1021.66 1609.34 1028.5 1589.12 1035.11 1569.58L1038.41 1559.89C1053.02 1518.04 1066.6 1470.74 1078.8 1419.19C1079.33 1416.87 1080.07 1413.86 1080.84 1410.76C1081.89 1406.47 1082.99 1402.04 1083.7 1398.76C1086.45 1386.51 1088.2 1373.06 1088.66 1360.78C1090.44 1299.88 1080.74 1241.59 1071.34 1185.15C1068.79 1169.81 1066.15 1153.95 1063.75 1137.99C1058.19 1104.39 1052.45 1070.99 1046.67 1038.69L1046.62 1038.42C1046.35 1037.09 1046.09 1035.73 1045.8 1034.2L1045.75 1033.92C1044.74 1028.68 1043.61 1022.76 1042.05 1017.16C1035.99 992.829 1027.67 969.163 1018.2 942.906C1001.32 897.008 984.787 848.91 964.588 786.854C933.02 692.229 884.464 599.395 816.162 503.094C783.373 456.496 752.936 418.193 723.02 385.897C689.53 350.587 638.14 309.324 588.433 269.413C558.433 245.33 524.436 218.032 497.574 193.921C458.279 158.661 452.051 146.032 451.203 142.244C439.047 88.204 456.06 -25.3802 490.24 -67.6363C521.393 -107.433 568.649 -133.23 614.354 -158.179C620.679 -161.631 626.984 -165.073 633.283 -168.564C662.561 -184.882 692.983 -200.738 722.441 -216.094C757.649 -234.448 794.051 -253.435 829.334 -273.605C873.843 -294.185 922.582 -304.5 976.924 -314.906C1017.1 -322.063 1059.14 -327.807 1101.85 -331.973C1204.87 -341.809 1314.65 -355.061 1420.86 -367.883C1443.64 -370.634 1466.19 -373.351 1488.27 -375.991L1493.66 -376.616L1494.38 -376.7C1503.53 -377.762 1527.83 -380.617 1537.59 -381.153C1585.2 -382.639 1634.28 -379.52 1681.78 -376.491C1725.44 -373.711 1770.58 -370.837 1815.85 -371.408C1828.38 -371.713 1840.98 -372.573 1852.4 -373.897L1853.32 -374.019C1884.57 -378.827 1915.14 -387.02 1944.7 -394.945L1945.44 -395.145C1972.53 -402.462 2001.42 -410.633 2029.37 -418.535L2029.62 -418.607C2064.48 -428.467 2100.52 -438.663 2134.14 -447.512" stroke="white" stroke-miterlimit="10" style="mix-blend-mode:overlay"/>
<path d="M-280.857 -1096.06L-264.919 -1032.68C-243.212 -948.637 -220.77 -861.73 -204.884 -776.422C-197.033 -727.827 -186.29 -673.816 -172.05 -611.32C-169.328 -599.252 -166.473 -587.264 -163.716 -575.659L-163.599 -575.178C-159.221 -556.763 -154.695 -537.719 -150.668 -518.396C-147.748 -505.089 -145.004 -491.066 -142.346 -477.492C-137.081 -450.611 -131.635 -422.811 -124.062 -395.645C-89.0151 -271.852 -9.83513 -168.94 70.5661 -76.1145C78.3799 -67.1972 86.5481 -57.9266 95.0479 -48.2643C132.473 -5.75324 174.889 42.4316 208.123 83.8226C249.154 134.111 293.172 187.409 340.588 237.696L340.744 237.864C360.461 257.999 380.498 278.14 399.873 297.62L400.483 298.237C457.281 355.337 516.015 414.386 569.102 475.502C588.595 497.936 605.011 518.633 620.815 540.685C654.474 587.154 687.05 636.853 718.64 685.039C743.525 723.003 769.262 762.259 795.369 799.709C813.278 826.055 829.265 849.807 843.531 873.758L845.619 877.187C868.324 914.393 891.797 952.865 910.865 991.848C923.493 1017.89 932.666 1040.22 936.381 1064.79C944.976 1116.44 955.815 1183.85 963.331 1247.29C966.19 1271.47 969.434 1303.01 969.154 1332.67C969.137 1343.97 968.055 1354.91 966.117 1363.52C950.831 1418.04 934.656 1465.27 916.63 1507.98C908.322 1528.16 899.487 1549.32 890.899 1566.56C886.836 1574.47 881.294 1585.25 876.307 1589.72C841.928 1614.64 804.693 1638.19 768.675 1660.95L761.306 1665.62C746.122 1675.22 728.906 1686.1 713.655 1692.06C699.32 1697.82 688.769 1700.14 677.255 1700.08C675.34 1700.08 673.423 1700 671.294 1699.86L655.41 1698.66L648.705 1698.42C641.816 1698.06 629.835 1695.87 619.261 1693.93L618.976 1693.88C612.872 1692.77 607.1 1691.71 602.38 1691.02C577.436 1686.78 552.429 1683.13 531.071 1680.09C497.625 1675.87 467.974 1658.85 436.431 1640.72C424.094 1633.63 411.341 1626.31 397.803 1619.43C375.644 1608.26 354.832 1599.83 336.01 1594.4C305.324 1585.36 270.693 1580.44 230.057 1579.37C182.533 1578.48 139.45 1582.34 98.3483 1591.18C91.0562 1592.75 81.5282 1595.37 75.0408 1597.3L74.174 1597.58C73.8856 1597.68 73.2213 1597.88 72.4729 1598.13L72.2492 1598.2C71.3294 1598.49 68.2629 1599.49 67.4421 1599.81C66.9728 1599.99 66.2336 1600.26 65.4221 1600.55C63.525 1601.23 61.4403 1601.99 60.0105 1602.59L57.6943 1603.59C47.6022 1607.92 37.1735 1612.41 26.9682 1615.71C-2.78009 1625.45 -35.5233 1631.16 -67.1915 1636.68C-108.697 1643.92 -151.617 1651.41 -192.047 1667.98C-198.531 1670.53 -204.738 1673.46 -210.738 1676.3L-213.367 1677.55C-214.166 1677.94 -215.118 1678.43 -216.126 1678.96L-216.486 1679.14C-218.748 1680.32 -219.586 1680.73 -219.892 1680.86L-220.708 1681.22C-226.358 1683.91 -237.715 1689.08 -248.704 1694.09L-249.461 1694.43C-259.427 1698.97 -269.731 1703.65 -275.571 1706.4C-371.178 1750.67 -470.447 1798.14 -566.45 1844.04L-582.62 1851.78C-631.028 1875.46 -678.193 1898.4 -723.106 1918.73C-733.609 1923.57 -745.231 1928.87 -757.468 1934.45L-759.565 1935.4C-803.066 1955.22 -852.371 1977.68 -887.92 1996.09C-924.022 2014.72 -962.115 2035.82 -996.184 2063.81C-1008.86 2074.47 -1023.12 2084.11 -1041.07 2094.14C-1086.6 2119.66 -1138.36 2138.19 -1188.45 2156.11C-1206.78 2162.67 -1225.72 2169.44 -1244.02 2176.44C-1368.24 2222.38 -1493.36 2265.16 -1615.92 2303.58L-1641.52 2311.61" stroke="white" stroke-miterlimit="10" style="mix-blend-mode:overlay"/>
<path d="M2100.18 -562.548L2096.61 -561.358L2095.57 -560.936C2045.67 -537.53 1991.16 -515.531 1933.6 -495.581C1905.62 -486.06 1875.78 -476.253 1845.87 -470.166L1839.42 -468.916L1833.25 -468.199C1832.19 -468.077 1831.16 -467.958 1830.09 -467.819C1829.07 -467.693 1828.01 -467.549 1827.07 -467.49C1778.7 -464.79 1728.81 -467.062 1680.57 -469.26C1636.49 -471.274 1590.9 -473.35 1545.18 -471.768L1518.06 -469.876C1487.34 -466.176 1455.88 -462.01 1425.46 -457.986L1425.19 -457.955C1400.29 -454.65 1374.53 -451.239 1348.99 -448.068L1348.62 -448.025C1288.55 -438.798 1226.68 -433.09 1166.83 -427.574C1055.9 -417.344 941.178 -406.76 830.142 -373.327L829.67 -373.172C816.325 -368.627 800.828 -363.136 785.896 -355.416L785.697 -355.314C745.803 -333.656 704.018 -313.557 663.51 -294.079C639.336 -282.448 614.329 -270.426 589.8 -258.1C584.558 -255.484 579.286 -252.88 573.867 -250.2L573.119 -249.834C515.877 -221.552 456.682 -192.306 411.247 -140.01C373.244 -96.9373 355.259 -40.0674 343.801 4.82321C341.639 13.7864 339.678 22.6687 337.938 31.3964C301.378 -12.7639 271.705 -54.5895 247.545 -95.9935C221.172 -141.085 197.448 -189.652 174.423 -236.781C158.008 -270.386 141.039 -305.131 123.316 -338.203C102.083 -379.517 79.3061 -420.393 53.6714 -463.232C51.6141 -466.636 49.3582 -470.576 47.1801 -474.375C46.0864 -476.284 44.9936 -478.187 43.9885 -479.92C25.9421 -513.378 12.5676 -541.391 1.8737 -568.087C-11.1213 -600.289 -21.732 -634.724 -32.002 -668.045L-33.9573 -674.387C-47.9625 -720.64 -59.5487 -764.836 -68.3825 -805.745L-68.4415 -806.018C-79.2106 -851.041 -91.9612 -898.637 -104.325 -944.78C-116.338 -989.601 -128.754 -1035.95 -139.189 -1079.39C-140.572 -1085.21 -142.66 -1094.45 -143.807 -1100.11L-149.146 -1126.45" stroke="white" stroke-miterlimit="10" style="mix-blend-mode:overlay"/>
<path d="M-1561.3 2474.8L-1556.22 2472.41C-1453.48 2424.07 -1348.08 2377.99 -1246.13 2333.43L-1208.5 2316.9L-1187.67 2307.55C-1172.05 2301 -1156.09 2294.55 -1140.66 2288.31C-1086.6 2266.45 -1030.69 2243.85 -978.388 2212.49C-958.496 2200.66 -940.72 2188.33 -925.47 2175.77L-915.975 2167.64L-912.578 2164.68C-900.089 2154.24 -886.416 2144.65 -868.252 2133.6C-830.279 2110.6 -789.188 2090.51 -753.706 2073.51C-716.348 2056.14 -677.917 2037.78 -640.752 2020.03C-598.333 1999.76 -554.467 1978.8 -511.635 1959.04C-412.112 1914.75 -303.535 1881.15 -198.531 1848.64L-177.997 1842.28C-174.974 1841.27 -172.394 1840.43 -169.911 1839.63C-165.346 1838.16 -161.037 1836.77 -154.916 1834.51C-138.796 1828.16 -123.196 1823.97 -102.752 1820.48C-86.9379 1817.78 -69.5832 1815.62 -51.2066 1813.33C-24.0858 1809.96 3.96192 1806.47 29.7598 1800.85C62.2665 1794.04 91.9157 1784.62 117.859 1772.85L118.798 1772.44L122.81 1770.66L125.843 1769.5C135.251 1766.49 144.41 1764.74 153.668 1763.09C204.065 1754.91 249.063 1754.35 287.297 1761.37C301.143 1764.25 313.599 1768.5 330.256 1776C341.62 1781.16 352.898 1787 364.851 1793.18C380.261 1801.15 396.192 1809.39 412.765 1816.34C438.976 1827.74 467.584 1836.12 493.298 1839.94C508.468 1842.26 523.944 1843.17 538.913 1844.05C547.125 1844.53 555.611 1845.03 563.981 1845.76C571.209 1846.23 579.38 1846.94 588.032 1847.7C609.123 1849.55 633.014 1851.63 651.263 1850.78C671.339 1850.75 694.528 1850.25 715.734 1844.7C749.964 1836.35 783.127 1819.69 820.103 1792.26C824.835 1788.77 831.437 1783.78 837.87 1778.91C843.012 1775.02 848.041 1771.21 851.955 1768.3L855.748 1765.4C888.378 1740.5 922.114 1714.75 953.716 1686.98C973.249 1668.47 985.094 1644.36 995.005 1621.02C1003.15 1601.44 1009.88 1581.55 1016.39 1562.33C1017.51 1559.01 1018.63 1555.71 1019.74 1552.45C1034.11 1511.29 1047.48 1464.76 1059.47 1414.08C1060.02 1411.65 1060.8 1408.49 1061.6 1405.26C1062.62 1401.11 1063.69 1396.81 1064.35 1393.73C1066.82 1382.74 1068.39 1370.73 1068.8 1359.88C1070.52 1301.12 1060.99 1243.92 1051.78 1188.6C1049.21 1173.15 1046.55 1157.17 1044.16 1141.32C1038.65 1107.93 1032.94 1074.73 1027.18 1042.5C1026.88 1040.98 1026.58 1039.43 1026.27 1037.85C1025.28 1032.66 1024.24 1027.28 1022.9 1022.5C1017.07 999.074 1008.94 975.925 999.669 950.232C982.691 904.073 966.089 855.762 945.839 793.554C914.952 700.979 867.325 609.988 800.236 515.397C768.001 469.58 738.185 432.037 709.038 400.57C676.512 366.274 625.67 325.456 576.511 285.984C508.502 231.382 438.186 174.918 431.867 146.825C418.308 86.5588 435.798 -32.7813 474.846 -81.052C508.54 -124.091 557.602 -150.878 605.057 -176.784C611.342 -180.216 617.609 -183.639 623.831 -187.086C653.263 -203.487 683.794 -219.405 713.316 -234.797C748.652 -253.224 785.183 -272.269 820.406 -292.432C867.092 -314.154 917.351 -324.817 973.407 -335.543C1013.98 -342.767 1056.52 -348.585 1099.85 -352.822C1202.28 -362.604 1312.12 -375.855 1418.32 -388.671C1441.14 -391.425 1463.71 -394.144 1485.89 -396.796L1491.25 -397.418C1504.5 -398.976 1526.67 -401.534 1536.66 -402.07C1585.23 -403.595 1634.79 -400.438 1682.72 -397.387C1726.04 -394.632 1770.83 -391.776 1815.18 -392.339C1827.12 -392.634 1839.07 -393.439 1849.92 -394.698L1850.24 -394.736C1880.46 -399.388 1910.52 -407.444 1939.6 -415.234L1940.3 -415.423C1967.39 -422.739 1996.3 -430.918 2024.26 -438.823C2059.23 -448.717 2095.4 -458.95 2129.12 -467.817" stroke="white" stroke-miterlimit="10" style="mix-blend-mode:overlay"/>
<path d="M-256.432 -1080.23L-245.732 -1038.03C-223.901 -953.509 -201.327 -866.108 -185.3 -779.934C-177.524 -731.753 -166.851 -678.1 -152.681 -615.926C-149.962 -603.879 -147.077 -591.751 -144.292 -580.02C-139.873 -561.431 -135.306 -542.205 -131.277 -522.868C-128.325 -509.4 -125.55 -495.23 -122.864 -481.53C-117.679 -455.048 -112.315 -427.662 -104.996 -401.392C-71.111 -281.68 6.39686 -181.083 85.1232 -90.1865C92.9286 -81.2826 101.083 -72.0177 109.448 -62.519C147.061 -19.7931 189.695 28.6316 223.16 70.3114C263.961 120.311 307.703 173.283 354.527 222.935C374.259 243.083 394.482 263.411 414.034 283.07C471.118 340.46 530.151 399.796 583.734 461.485C603.668 484.435 620.466 505.604 636.603 528.126C670.555 574.999 703.271 624.904 734.91 673.163C759.746 711.054 785.433 750.23 811.523 787.66C829.622 814.286 845.781 838.29 860.258 862.589L862.344 866.011C885.304 903.647 909.053 942.56 928.587 982.5C942.083 1010.33 951.912 1034.38 956 1061.4C964.638 1113.3 975.524 1181.07 983.096 1244.93C986.031 1269.76 989.365 1302.2 989.075 1332.94C989.05 1346.06 987.74 1358.9 985.376 1369.13C969.801 1424.74 953.307 1472.92 934.928 1516.46C926.482 1536.98 917.475 1558.54 908.451 1576.66C903.182 1586.92 896.62 1599.66 888.4 1606.5C853.341 1631.96 815.604 1655.82 779.105 1678.9L771.748 1683.56C755.821 1693.62 737.768 1705.04 720.958 1711.61C704.182 1718.34 691.565 1721.06 677.393 1721C675.075 1720.99 672.748 1720.89 670.111 1720.72L654.226 1719.52L647.967 1719.31C639.852 1718.89 627.224 1716.58 616.086 1714.54C609.961 1713.42 604.183 1712.36 599.559 1711.68C574.789 1707.48 549.997 1703.86 528.936 1700.86C491.653 1696.15 460.352 1678.17 427.21 1659.14C415.034 1652.14 402.442 1644.91 389.374 1638.27C368.301 1627.64 348.603 1619.65 330.852 1614.53C301.787 1605.96 268.788 1601.31 229.942 1600.28C183.886 1599.42 142.225 1603.15 102.572 1611.67C95.8314 1613.12 86.9247 1615.57 80.8383 1617.37L80.6146 1617.44C80.2673 1617.56 79.3148 1617.86 78.2772 1618.2C76.6418 1618.73 74.8365 1619.32 74.4841 1619.45C73.9165 1619.67 73.0209 1619.99 72.0589 1620.33C70.4822 1620.9 68.7363 1621.53 67.7355 1621.95L65.4443 1622.93C54.9443 1627.45 44.0868 1632.11 33.0929 1635.66C2.03791 1645.82 -31.3861 1651.66 -63.7091 1657.3C-104.226 1664.36 -146.118 1671.67 -184.902 1687.57C-190.736 1689.85 -196.664 1692.66 -202.4 1695.37L-204.771 1696.49C-205.538 1696.87 -206.469 1697.35 -207.453 1697.86C-209.091 1698.72 -210.947 1699.69 -212.13 1700.18L-212.331 1700.27C-218.22 1703.07 -229.908 1708.39 -241.207 1713.54C-251.678 1718.3 -261.573 1722.81 -267.368 1725.54C-362.613 1769.64 -461.961 1817.14 -558.034 1863.08L-574.043 1870.74C-622.54 1894.47 -669.808 1917.46 -714.929 1937.88C-726.027 1943 -738.381 1948.62 -751.375 1954.54C-794.727 1974.29 -843.857 1996.68 -878.982 2014.86C-914.133 2033.01 -951.139 2053.48 -983.648 2080.18C-997.299 2091.66 -1012.52 2101.97 -1031.55 2112.61C-1078.5 2138.92 -1131.04 2157.72 -1181.85 2175.9C-1200.12 2182.44 -1219 2189.2 -1237.23 2196.16C-1361.76 2242.21 -1487.2 2285.09 -1610.04 2323.62L-1615.37 2325.29" stroke="white" stroke-miterlimit="10" style="mix-blend-mode:overlay"/>
<path d="M2104.83 -542.149L2103.86 -541.814C2053.36 -518.122 1998.21 -495.87 1939.94 -475.672C1911.37 -465.954 1880.87 -455.934 1849.71 -449.594L1842.56 -448.206L1835.51 -447.387C1834.57 -447.279 1833.65 -447.172 1832.73 -447.05C1831.23 -446.862 1829.81 -446.684 1828.36 -446.602C1779.04 -443.848 1728.67 -446.143 1679.95 -448.365C1636.24 -450.357 1591.03 -452.42 1546.3 -450.873L1533.74 -450.298L1520.57 -449.1C1489.85 -445.4 1458.39 -441.233 1427.95 -437.201C1402.95 -433.891 1377.08 -430.467 1351.74 -427.312C1291.09 -418.011 1228.93 -412.277 1168.83 -406.731C1058.81 -396.585 945.051 -386.092 836.017 -353.257C823.315 -348.93 808.635 -343.735 795.008 -336.69C754.685 -314.803 712.706 -294.609 672.102 -275.077C647.961 -263.464 622.992 -251.461 598.527 -239.171C592.969 -236.397 587.376 -233.633 581.776 -230.868C526.26 -203.439 468.851 -175.074 425.934 -125.673C390.859 -85.9159 373.95 -32.2184 363.119 10.2046C357.411 33.8341 353.267 56.429 350.756 77.5437C346.156 72.305 341.428 66.8517 336.485 61.0649C292.924 10.0586 258.302 -37.7756 230.64 -85.1695C203.852 -130.965 179.94 -179.92 156.814 -227.267C140.471 -260.729 123.566 -295.331 105.85 -328.404C84.8203 -369.311 62.274 -409.783 36.927 -452.14C34.7509 -455.745 32.4274 -459.799 30.1799 -463.726C29.0512 -465.703 27.9166 -467.673 26.8865 -469.446C8.36352 -503.782 -5.39446 -532.575 -16.4154 -560.093C-29.7543 -593.144 -40.5074 -628.043 -50.909 -661.793L-52.8966 -668.239C-67.0775 -715.067 -78.7868 -759.737 -87.7243 -801.128C-98.4262 -845.865 -111.153 -893.371 -123.466 -939.311C-135.518 -984.292 -147.979 -1030.8 -158.481 -1074.52C-159.903 -1080.49 -162.059 -1090.03 -163.258 -1095.96L-164.371 -1101.45" stroke="white" stroke-miterlimit="10" style="mix-blend-mode:overlay"/>
<path d="M-1558.41 2467.38C-1450.05 2416.4 -1341.03 2368.93 -1231.32 2320.96L-1210.6 2311.82L-1189.66 2302.42C-1119.38 2272.94 -1047.88 2247.78 -981 2207.68C-963.466 2197.25 -945.23 2185.01 -928.798 2171.48L-919.341 2163.38L-915.864 2160.35C-901.759 2148.55 -887.106 2138.67 -870.902 2128.81C-833.999 2106.45 -794.887 2087.15 -755.869 2068.46C-676.006 2031.31 -594.327 1991.15 -513.72 1953.95C-407.434 1906.65 -290.716 1871.46 -179.646 1837.02C-171.063 1834.13 -165.972 1832.73 -156.794 1829.33C-139.265 1822.44 -123.235 1818.38 -103.645 1815.03C-64.2223 1808.29 -14.2908 1804.79 28.6862 1795.44C57.7736 1789.34 88.0692 1780.32 115.767 1767.77L118.863 1766.38L120.411 1765.69C121.155 1765.35 120.807 1765.52 120.931 1765.47C120.984 1765.46 121.007 1765.42 121.056 1765.38L121.898 1765.06L122.32 1764.88L122.969 1764.66L124.265 1764.2C133.686 1761.19 142.747 1759.42 152.813 1757.62C196.671 1750.52 244.269 1747.87 288.26 1755.95C303.634 1759.15 316.688 1763.91 332.289 1770.94C358.771 1782.97 385.684 1799.06 414.726 1811.25C439.187 1821.88 467.118 1830.49 494.004 1834.48C517.248 1838.04 540.952 1838.21 564.252 1840.26C589.378 1841.89 625.836 1846.46 651.077 1845.26C671.732 1845.24 694.148 1844.66 714.502 1839.33C753.091 1829.92 786.158 1810.66 817.068 1787.74C825.571 1781.46 840.159 1770.3 848.851 1763.83C882.726 1737.97 917.654 1711.45 950.19 1682.87C969.092 1664.97 980.474 1641.68 990.209 1618.77C999.665 1596.03 1007.14 1573.07 1014.83 1550.5C1030.47 1505.72 1043.48 1458.81 1054.38 1412.74C1055.64 1407.2 1058.08 1397.87 1059.25 1392.39C1061.73 1381.36 1063.18 1369.78 1063.57 1359.63C1065.75 1285.1 1049.86 1214.32 1039.01 1142.19C1033.57 1109.29 1027.92 1076.35 1022.06 1043.56C1020.77 1037.14 1019.58 1030.02 1017.84 1023.82C1011.83 999.639 1003.04 974.989 994.792 952.146C975.476 899.639 958.101 848.126 940.901 795.302C907.182 694.229 856.304 603.587 796.035 518.615C768.353 479.269 738.237 439.918 705.345 404.411C626.344 321.125 438.185 198.781 426.762 148.005C412.742 85.7053 430.396 -34.6863 470.778 -84.6104C509.61 -134.218 567.444 -162.095 621.325 -191.987C686.051 -228.057 753.385 -260.384 818.04 -297.413C866.559 -320.022 920.067 -330.977 972.464 -341.006C1014.39 -348.472 1056.76 -354.176 1099.3 -358.338C1223.81 -370.236 1360.41 -387.388 1485.25 -402.301C1497.47 -403.704 1524.67 -406.975 1536.44 -407.602C1629.09 -410.512 1721.8 -396.694 1815 -397.868C1826.26 -398.142 1838.16 -398.892 1849.43 -400.206C1879.62 -404.855 1909.86 -412.989 1938.94 -420.78C1999.7 -437.186 2066.91 -457.166 2127.8 -473.185" stroke="white" stroke-miterlimit="10" style="mix-blend-mode:overlay"/>
<path d="M-250.001 -1076.06C-250.001 -1076.06 -197.756 -875.557 -180.134 -780.798C-171.346 -726.368 -159.81 -670.8 -147.583 -617.141C-140.553 -586.026 -132.735 -555.576 -126.168 -524.049C-117.578 -484.89 -111.053 -442.68 -99.9729 -402.907C-66.1587 -283.452 10.4045 -184.596 88.965 -93.8949C132.217 -44.5523 186.24 15.817 227.122 66.754C269.448 118.628 312.205 170.279 358.153 219.008C435.566 298.061 515.517 374.848 587.586 457.805C606.655 479.757 623.922 501.331 640.759 524.833C701.452 608.637 756.412 699.351 815.777 784.506C832.306 808.819 849.602 834.397 864.661 859.669C888.656 899.006 913.009 938.666 933.25 980.059C945.931 1006.2 956.83 1031.91 961.165 1060.52C971.188 1120.73 981.136 1183.93 988.3 1244.33C991.779 1273.73 994.593 1303.98 994.318 1333.02C994.299 1345.61 993.078 1359.28 990.442 1370.63C976.366 1420.9 959.868 1471.03 939.739 1518.71C931.432 1538.9 922.351 1560.69 913.067 1579.33C907.135 1590.87 900.49 1603.59 891.539 1610.96C853.988 1638.24 814.028 1663.27 774.484 1688.29C758.228 1698.57 740.04 1710.05 722.878 1716.76C706.934 1723.16 693.33 1726.59 677.426 1726.51C674.985 1726.5 672.514 1726.4 669.781 1726.21L660.402 1725.47L654.082 1725.03L650.056 1724.86L647.768 1724.82C634.868 1724.15 612.208 1719.11 598.781 1717.13C575.386 1713.16 551.789 1709.67 528.365 1706.33C475.967 1699.72 435.173 1667.63 387.149 1643.23C369.73 1634.45 349.59 1625.63 329.492 1619.83C297.189 1610.32 262.684 1606.65 229.907 1605.79C187.217 1605 145.669 1608.04 103.676 1617.07C97.2409 1618.45 88.6554 1620.8 82.3126 1622.68C81.4482 1622.98 76.9516 1624.39 76.3326 1624.64C74.8651 1625.2 71.261 1626.44 69.7665 1627.06C58.2336 1632.01 46.6979 1637.06 34.7059 1640.93C-35.4375 1663.9 -113.596 1664.29 -183.02 1692.75C-189.459 1695.27 -196.091 1698.48 -202.499 1701.51C-204.606 1702.55 -208.019 1704.43 -210.123 1705.32C-221.359 1710.66 -252.93 1724.84 -265.206 1730.61C-365.733 1777.15 -471.41 1827.77 -571.784 1875.76C-617.277 1898.02 -666.772 1922.13 -712.773 1942.95C-760.354 1964.89 -830.948 1996.18 -876.62 2019.84C-911.057 2037.62 -948.351 2058.25 -980.337 2084.52C-995.459 2097.24 -1011.43 2107.66 -1029.04 2117.5C-1093.37 2153.55 -1166.49 2175.04 -1235.43 2201.39C-1358.01 2246.72 -1483.96 2289.88 -1608.47 2328.92" stroke="white" stroke-miterlimit="10" style="mix-blend-mode:overlay"/>
<path d="M2106.04 -536.782C2052.55 -511.689 1997.3 -489.734 1941.6 -470.43C1911.59 -460.222 1881.36 -450.412 1850.71 -444.175L1843.38 -442.751L1836.07 -441.903C1833.6 -441.646 1831.25 -441.251 1828.69 -441.105C1734.91 -435.868 1640.95 -448.638 1546.57 -445.377L1538.2 -444.994L1534.02 -444.802L1529.75 -444.414L1521.21 -443.632C1465.23 -436.886 1408.36 -428.812 1352.54 -421.87C1180.75 -395.516 1005.41 -398.53 837.666 -348.028C824.328 -343.484 810.419 -338.514 797.442 -331.803C733.062 -296.856 666.515 -267.209 600.806 -234.209C540.395 -204.047 476.324 -175.489 429.783 -121.918C397.386 -85.2036 380.338 -36.0002 368.186 11.6025C362.485 35.2242 357.252 62.2405 354.704 90.0211C347.251 81.6929 339.894 73.2461 332.594 64.7067C293.394 18.8091 256.895 -29.6965 226.172 -82.3355C180.295 -160.766 144.035 -245.92 101.234 -325.84C79.3075 -368.492 56.7755 -408.666 32.5006 -449.239C29.2038 -454.693 25.6975 -460.955 22.3236 -466.781C6.56154 -495.994 -8.47303 -526.101 -21.2488 -557.998C-35.5164 -593.358 -46.5824 -629.956 -57.896 -666.634C-71.0294 -710.012 -83.2372 -755.513 -92.8161 -799.85C-113.975 -888.325 -142.322 -984.794 -163.574 -1073.25C-165.026 -1079.37 -167.179 -1088.88 -168.393 -1094.88" stroke="white" stroke-miterlimit="10" style="mix-blend-mode:overlay"/>
</svg>
