<svg width="392" height="230" viewBox="0 0 392 230" fill="none" xmlns="http://www.w3.org/2000/svg">
<g style="mix-blend-mode:overlay" opacity="0.4" clip-path="url(#clip0_4140_1585)">
<g opacity="0.8">
<g style="mix-blend-mode:overlay">
<path d="M-319.021 358.834L-315.565 358.466C-288.753 355.594 -261.424 353.244 -234.984 350.967L-225.201 350.108L-219.829 349.606C-215.8 349.305 -211.693 349.037 -207.722 348.778C-193.709 347.866 -179.218 346.922 -165.084 344.296C-159.672 343.306 -154.734 342.115 -150.37 340.745L-147.695 339.856L-146.781 339.545C-143.39 338.455 -139.746 337.565 -134.982 336.654C-124.897 334.745 -114.192 333.475 -104.973 332.438C-95.2017 331.427 -85.1535 330.304 -75.4396 329.219C-64.3576 327.983 -52.8943 326.703 -41.7639 325.574C-16.0215 323.23 11.4015 323.136 37.9437 323.044L43.1934 323.026C43.9526 323.008 44.597 323.003 45.2211 322.995C46.402 322.982 47.516 322.968 49.1626 322.896C53.1725 322.662 56.9718 322.753 61.8647 323.2C65.7242 323.551 69.9327 324.076 74.4002 324.63C81.0581 325.458 87.9445 326.312 94.4269 326.691C101.911 327.172 108.937 327.157 115.329 326.647L115.328 326.655L116.193 326.578C116.484 326.553 116.771 326.525 117.063 326.497L118.412 326.374L119.086 326.338C121.339 326.317 123.506 326.487 125.682 326.673C137.847 327.857 148.35 330.015 156.866 333.074C159.875 334.214 162.519 335.516 165.982 337.556C168.388 338.982 170.764 340.532 173.284 342.17C176.588 344.322 180.003 346.546 183.645 348.59C189.453 351.932 196.006 354.878 202.088 356.891C205.667 358.086 209.348 359.046 212.909 359.971C214.819 360.468 216.799 360.981 218.774 361.541C220.468 361.99 222.448 362.55 224.358 363.089C229.322 364.492 234.947 366.081 239.454 366.896C244.334 367.942 250.002 369.068 255.508 369.226C264.33 369.588 273.283 368.454 283.678 365.667C284.983 365.321 286.808 364.814 288.584 364.325C289.992 363.934 291.374 363.552 292.466 363.26L293.512 362.966C302.536 360.438 311.864 357.822 320.813 354.746L320.877 354.723C326.765 352.485 330.942 348.896 334.589 345.343C337.54 342.416 340.137 339.397 342.655 336.476L343.931 334.998C349.423 328.766 354.937 321.567 360.331 313.593C360.578 313.222 360.912 312.738 361.257 312.244C361.715 311.59 362.186 310.911 362.5 310.413C363.684 308.606 364.701 306.567 365.367 304.661C368.728 294.709 369.292 284.512 369.84 274.647C369.99 271.922 370.147 269.105 370.363 266.307C370.702 260.384 370.985 254.49 371.204 248.745C371.205 248.49 371.212 248.231 371.219 247.964L371.224 247.922C371.24 246.975 371.259 245.996 371.175 245.063C370.942 240.752 370.142 236.399 369.198 231.554C367.442 222.94 365.885 213.976 364.141 202.471C361.338 185.145 354.447 167.236 343.074 147.732C337.63 138.301 332.343 130.386 326.903 123.522C320.784 115.991 310.661 106.474 300.869 97.2631C288.865 85.9774 273.927 71.9293 273.824 67.4343C273.585 57.0365 283.574 38.22 294.535 32.4708C304.354 27.1274 317.149 25.1643 329.519 23.266C331.189 23.0104 332.853 22.7541 334.513 22.4895C342.311 21.2406 350.34 20.1263 358.132 19.0472C367.428 17.7606 377.045 16.4266 386.42 14.8402C398.356 13.6104 410.68 14.3813 424.365 15.4338C434.335 16.2937 444.691 17.4867 455.143 18.9868C480.068 22.5998 506.834 25.9949 532.733 29.2772C538.294 29.9817 543.793 30.6821 549.192 31.3694L550.499 31.5396C552.794 31.8384 558.896 32.6249 561.37 33.0594C572.907 35.2745 584.497 38.334 595.718 41.2952C605.918 43.9875 616.466 46.7719 627.135 48.967C630.05 49.5404 633.006 50.0299 635.692 50.3795L635.844 50.3993C643.369 51.1733 650.972 51.3606 658.324 51.5384L658.503 51.5424C665.317 51.7006 672.596 51.803 679.654 51.9037C688.454 52.0297 697.553 52.1596 705.995 52.394" stroke="white" stroke-width="2" stroke-miterlimit="10"/>
</g>
<g style="mix-blend-mode:overlay">
<path d="M166.538 -176.118L167.084 -166.851C168.1 -151.541 169.149 -135.715 168.714 -120.454C168.182 -111.917 168.072 -102.309 168.375 -91.0925C168.426 -88.9459 168.511 -86.7832 168.593 -84.6867L168.598 -84.6008C168.732 -81.2609 168.866 -77.8047 168.871 -74.3421C168.91 -71.9334 168.868 -69.4188 168.831 -66.9812C168.757 -62.2301 168.678 -57.313 169.13 -52.4468C171.309 -30.2474 184.902 -9.14035 199.266 10.3653C200.682 12.2632 202.165 14.2434 203.696 16.2843C210.52 25.3837 218.258 35.6992 224.142 44.405C231.394 54.9365 239.208 66.1264 247.952 76.953C251.673 81.3839 255.473 85.833 259.148 90.1339C269.874 102.696 280.965 115.684 290.633 128.767C294.209 133.606 297.132 137.987 299.835 142.565C305.577 152.159 310.885 162.217 316.019 171.945C320.061 179.605 324.241 187.527 328.605 195.17C331.583 200.555 334.227 205.4 336.458 210.203L336.785 210.885C340.372 218.362 344.081 226.09 346.73 233.735C348.517 238.965 349.638 243.383 349.288 247.959C348.781 257.12 348.025 269.059 346.677 280.165C346.158 284.447 345.353 290.014 343.791 295.095C343.176 297.174 342.292 299.137 341.302 300.629C334.9 309.123 328.649 316.327 322.177 322.664C319.175 325.666 315.997 328.807 313.012 331.342C311.387 332.685 309.371 334.353 307.464 334.981C297.948 337.448 287.844 339.517 278.071 341.525L276.089 341.934C271.887 342.794 267.125 343.771 262.971 344.006C258.912 344.265 255.993 344.09 252.891 343.411C252.379 343.298 251.875 343.174 251.302 343.022L247.582 342.007L246.057 341.638C244.271 341.18 241.442 340.168 238.948 339.274C237.533 338.768 236.203 338.288 235.134 337.936C229.439 335.954 223.692 334.066 218.788 332.47C210.527 329.887 204.115 325.357 197.325 320.566C194.755 318.754 192.101 316.877 189.269 315.059C184.682 312.128 180.291 309.718 176.219 307.901C169.575 304.9 161.796 302.372 152.426 300.167C141.368 297.631 131.126 296.1 121.119 295.495C119.392 295.39 117.096 295.343 115.479 295.338L115.376 295.34C115.294 295.341 115.072 295.343 114.824 295.346C114.36 295.351 113.839 295.361 113.751 295.365C113.616 295.371 113.404 295.382 113.176 295.387C112.737 295.404 112.255 295.423 111.954 295.445L111.355 295.495C108.681 295.713 105.914 295.938 103.206 295.974C95.456 296.093 87.2919 295.367 79.3877 294.664C69.2982 293.769 58.8627 292.841 48.6716 293.542C47.0949 293.632 45.5179 293.806 43.9939 293.968L43.3465 294.039C43.1533 294.061 42.9227 294.093 42.6765 294.126L42.5925 294.139C42.2573 294.184 41.7491 294.254 41.4835 294.277L41.3793 294.287C39.865 294.454 36.8568 294.749 33.9427 295.033L33.8436 295.043C31.1278 295.306 28.5679 295.558 27.0596 295.718C2.17779 298.263 -23.7896 301.171 -48.9047 303.977L-53.1087 304.445C-65.811 305.955 -78.1757 307.401 -89.8974 308.523C-92.6616 308.803 -95.7168 309.103 -98.9334 309.417L-99.4028 309.464C-110.705 310.567 -123.514 311.819 -132.808 313.086C-142.174 314.352 -152.108 315.924 -161.342 318.812C-165.04 320.009 -169.059 320.936 -173.994 321.732C-186.304 323.731 -199.649 324.2 -212.553 324.652C-217.224 324.816 -222.055 324.985 -226.751 325.227C-258.623 326.595 -290.546 327.386 -321.637 327.576L-325.152 327.595" stroke="white" stroke-width="2" stroke-miterlimit="10"/>
</g>
</g>
<g style="mix-blend-mode:overlay" opacity="0.8">
<path d="M703.759 35.557L703.118 35.5744C690.003 36.9686 675.851 37.8827 661.071 38.2965C653.856 38.466 646.178 38.5908 638.58 38.0708L636.886 37.9434L634.545 37.6386C634.231 37.5977 633.906 37.5594 633.619 37.5103C621.846 35.4621 610.026 32.5083 598.596 29.648C588.26 27.0619 577.568 24.3908 566.748 22.3387L560.4 21.2991C552.908 20.347 545.215 19.4348 537.755 18.5529C531.661 17.8293 525.358 17.0864 519.152 16.3133L519.096 16.3061C504.277 14.7724 489.244 12.5596 474.681 10.4119C447.912 6.4697 420.239 2.39037 392.479 2.33181L392.412 2.33087C389.107 2.40845 385.27 2.537 381.514 3.04444C370.89 4.65435 359.936 5.89947 349.321 7.10737C343 7.8275 336.46 8.56952 330.024 9.38327C328.58 9.56361 327.132 9.73949 325.636 9.92087C310.884 11.7184 295.631 13.5747 282.669 19.8387C271.999 24.9047 265.154 33.2792 260.366 40.0258C258.526 42.7095 256.904 45.3516 255.517 47.9197C255.38 47.7314 255.244 47.5431 255.104 47.3503C247.32 36.6179 241.498 26.8812 237.301 17.5771C233.218 8.5514 229.953 -0.883332 226.804 -10.0045C224.561 -16.4879 222.248 -23.1935 219.664 -29.6708C216.667 -37.6672 213.29 -45.6666 209.334 -54.137C209.004 -54.8389 208.655 -55.6287 208.319 -56.3975C208.151 -56.7838 207.982 -57.1662 207.824 -57.5124C205.145 -64.1689 203.313 -69.6566 202.069 -74.7885C200.545 -80.9689 199.717 -87.361 198.914 -93.5368L198.762 -94.7156C197.706 -103.281 197.131 -111.362 197.048 -118.774C196.712 -126.881 196.028 -135.538 195.365 -143.909C194.719 -152.088 194.051 -160.541 193.717 -168.416C193.675 -169.48 193.635 -171.175 193.641 -172.213L193.656 -174.762" stroke="white" stroke-width="2" stroke-miterlimit="10"/>
</g>
<g opacity="0.5">
<g style="mix-blend-mode:overlay">
<path d="M-329.583 369.838L-312.85 368.047C-286.257 365.201 -259.057 362.857 -232.752 360.59L-222.698 359.708L-217.473 359.221C-213.522 358.925 -209.374 358.655 -205.729 358.42L-205.651 358.415C-191.181 357.472 -176.223 356.496 -161.225 353.711C-155.217 352.613 -149.679 351.275 -144.758 349.733L-141.815 348.759L-140.965 348.471C-138.176 347.582 -135.101 346.838 -131.013 346.056C-121.471 344.247 -111.169 343.03 -102.258 342.026C-92.4967 341.013 -82.4956 339.896 -72.8186 338.818L-72.636 338.799C-61.6481 337.574 -50.2889 336.304 -39.247 335.183C-14.224 332.908 12.8335 332.813 39.0047 332.723L44.2904 332.706L44.5536 332.701C45.2404 332.686 45.8286 332.677 46.4522 332.673C47.7004 332.657 48.9895 332.643 50.957 332.558L51.123 332.548C54.2616 332.364 57.3207 332.444 61.3428 332.813C64.9475 333.142 69.0193 333.649 73.3753 334.189C80.287 335.046 87.4318 335.934 94.3588 336.339C97.8529 336.565 101.293 336.691 104.636 336.719L106.992 336.538L118.61 336.201C118.949 336.171 119.282 336.141 119.558 336.115L120.563 336.025C121.984 336.031 123.539 336.152 125.139 336.291C135.802 337.33 144.863 339.161 152.071 341.731C154.149 342.529 156.074 343.489 158.678 345.022C160.821 346.294 163.073 347.761 165.497 349.341C168.973 351.604 172.569 353.944 176.538 356.175C183.207 360.005 190.754 363.398 197.767 365.715C201.884 367.092 205.844 368.123 209.68 369.119C211.495 369.592 213.375 370.081 215.201 370.593L215.46 370.662C217.01 371.073 218.876 371.599 220.716 372.118L220.786 372.138C226.014 373.614 231.932 375.288 237.172 376.256C242.674 377.434 249.103 378.694 255.911 378.897C266.394 379.316 276.819 378.025 288.706 374.839C290.048 374.483 291.926 373.963 293.756 373.457L293.846 373.434C295.196 373.059 296.513 372.696 297.627 372.395L298.753 372.08C307.959 369.499 317.479 366.83 326.809 363.629L327.284 363.454C335.194 360.444 340.431 355.993 344.935 351.602C348.145 348.418 350.862 345.259 353.489 342.209L354.718 340.78C360.45 334.268 366.192 326.77 371.795 318.493L371.82 318.458C372.035 318.133 372.33 317.71 372.664 317.226C373.147 316.533 373.643 315.815 374.02 315.232C375.536 312.909 376.856 310.262 377.724 307.77L377.738 307.733C381.417 296.841 382.009 286.137 382.585 275.76C382.734 273.093 382.883 270.336 383.098 267.542L383.108 267.462C383.441 261.504 383.728 255.544 383.952 249.711L383.957 249.549C383.958 249.332 383.965 249.112 383.97 248.872L383.978 248.807C383.994 247.809 384.02 246.572 383.905 245.274C383.638 240.525 382.793 235.922 381.79 230.798C380.061 222.307 378.522 213.446 376.788 202.024C373.827 183.696 366.589 164.851 354.683 144.425C348.993 134.574 343.423 126.238 337.645 118.95L337.605 118.902C331.018 110.795 320.609 101.004 310.531 91.5311C304.674 86.0235 298.034 79.7819 292.988 74.5077C288.848 70.1811 287.194 67.9615 286.583 67.0407C287.068 59.1215 295.045 44.381 302.375 40.5319L302.469 40.4821C310.276 36.2337 321.806 34.4626 332.963 32.7514C334.659 32.4914 336.349 32.2308 338.062 31.9614C345.708 30.7353 353.657 29.634 361.361 28.5666C370.589 27.2867 380.132 25.9663 389.574 24.377C400.016 23.3598 411.327 24.0764 423.956 25.0458C433.616 25.8807 443.631 27.0371 453.719 28.4821C478.786 32.1136 505.577 35.512 531.496 38.8007L531.617 38.8165C537.168 39.5197 542.663 40.2157 548.006 40.8995L549.632 41.1112C556.048 41.9387 558.448 42.3054 559.321 42.4539C570.237 44.5573 581.499 47.5275 592.402 50.4044C602.816 53.1519 613.588 55.9964 624.789 58.3035L624.859 58.3127C628.13 58.9634 631.491 59.5133 634.572 59.9144L635.1 59.9753C643.285 60.8199 651.228 61.0125 658.898 61.2007L659.103 61.2042C665.989 61.364 673.278 61.4677 680.305 61.5683L680.439 61.5702C689.151 61.6964 698.157 61.8259 706.517 62.0574" stroke="white" stroke-width="2" stroke-miterlimit="10"/>
</g>
<g style="mix-blend-mode:overlay">
<path d="M153.305 -186.428L154.375 -167.102C155.377 -152.011 156.413 -136.407 155.995 -121.532C155.46 -112.805 155.345 -103.031 155.649 -91.6634C155.705 -89.4346 155.788 -87.2529 155.875 -85.148L155.881 -85.0348C156.009 -81.7732 156.143 -78.3984 156.15 -75.0287L156.143 -74.9791C156.186 -72.6823 156.146 -70.2257 156.111 -67.8383C156.033 -62.8938 155.955 -57.7826 156.446 -52.4773C158.822 -28.3139 173.159 -5.95456 188.32 14.6318C189.74 16.5379 191.232 18.5233 192.782 20.5897C199.531 29.5864 207.175 39.7812 212.968 48.3549C220.334 59.0485 228.279 70.4223 237.281 81.577L237.384 81.699C241.06 86.0737 244.802 90.4532 248.418 94.6921L248.66 94.9757C259.257 107.385 270.212 120.217 279.655 132.999C283.02 137.554 285.769 141.676 288.319 145.994C293.93 155.365 299.179 165.314 304.271 174.964C308.339 182.669 312.544 190.637 316.945 198.351C319.83 203.573 322.395 208.268 324.516 212.84L324.871 213.587C328.352 220.837 331.946 228.333 334.425 235.487C335.903 239.808 336.833 243.368 336.579 246.723L336.567 246.815C336.075 255.857 335.329 267.635 334.006 278.543C333.519 282.523 332.782 287.68 331.366 292.288C330.992 293.549 330.482 294.743 329.96 295.586C323.888 303.619 317.975 310.432 311.872 316.407L311.842 316.438C308.982 319.295 305.974 322.272 303.323 324.529C302.277 325.393 301.668 325.86 301.317 326.113C292.494 328.353 283.044 330.29 273.89 332.169L271.914 332.574C268.235 333.328 264.06 334.184 261.005 334.357L260.953 334.362C258.14 334.538 256.792 334.405 255.529 334.128C255.273 334.072 255.018 334.012 254.769 333.944L251.049 332.929L249.201 332.475C248.119 332.187 245.325 331.187 243.659 330.59L243.452 330.517C242.062 330.018 240.746 329.548 239.559 329.153C233.75 327.133 227.918 325.219 222.976 323.606L222.842 323.562C216.92 321.709 211.407 317.817 205.559 313.686C202.885 311.799 200.122 309.846 197.014 307.852C191.821 304.532 186.789 301.779 182.082 299.678C174.488 296.251 165.721 293.388 155.235 290.922C143.251 288.172 132.104 286.512 121.161 285.851C119.076 285.727 116.399 285.673 114.588 285.662L113.67 285.67C112.546 285.683 112.168 285.7 111.92 285.71L111.609 285.72C110.994 285.745 110.336 285.772 109.718 285.815L109.037 285.87C106.644 286.062 104.167 286.263 101.99 286.294C95.1128 286.399 87.3818 285.71 79.9 285.047C69.189 284.098 58.1118 283.114 46.6851 283.894C44.7295 284.008 42.9754 284.198 41.2628 284.386L40.4429 284.477C40.1764 284.508 39.8619 284.553 39.5059 284.599L39.3906 284.615C39.1863 284.643 39.0498 284.664 38.9714 284.673L38.6325 284.707C37.2644 284.858 34.3295 285.143 31.7437 285.395L31.2956 285.438C28.8195 285.678 26.0147 285.952 24.4331 286.122C-0.516885 288.678 -26.4888 291.582 -51.6095 294.39L-55.9389 294.873L-55.9911 294.878C-68.5988 296.373 -80.8698 297.812 -92.503 298.926C-95.2152 299.201 -98.2127 299.493 -101.409 299.806L-101.956 299.858C-113.389 300.975 -126.349 302.242 -135.942 303.552C-145.962 304.907 -156.659 306.609 -166.981 309.836L-167.04 309.855C-170.024 310.82 -173.358 311.584 -177.526 312.258C-188.859 314.098 -201.686 314.549 -214.141 314.986C-218.827 315.151 -223.674 315.323 -228.442 315.567C-260.102 316.927 -291.808 317.712 -322.688 317.898L-339.736 318.005" stroke="white" stroke-width="2" stroke-miterlimit="10"/>
</g>
</g>
<g style="mix-blend-mode:overlay" opacity="0.5">
<path d="M701.84 25.9016L700.735 25.9633L700.417 25.9917C687.714 27.3426 674.004 28.2289 659.7 28.6271C652.887 28.787 645.668 28.9056 638.841 28.4433L637.622 28.3505L635.402 28.0616C624.28 26.1214 612.815 23.2564 601.714 20.4816C593.859 18.5171 571.699 13.4651 561.546 11.7597C554.041 10.4997 546.29 9.88995 538.82 9.00291L538.638 8.97916C532.619 8.26933 526.393 7.53245 520.212 6.7627L519.851 6.7235C505.388 5.22453 490.532 3.03861 476.151 0.918495C448.796 -3.11165 420.51 -7.27843 391.495 -7.34153L391.041 -7.33472C387.296 -7.24455 382.921 -7.09686 378.327 -6.47371L378.117 -6.44287C367.776 -4.87364 356.953 -3.64635 346.474 -2.45563L346.39 -2.44711C340.054 -1.72896 333.503 -0.984447 327.031 -0.163873C325.744 -0.00188632 324.452 0.155624 323.129 0.316808L322.689 0.372025C306.746 2.31292 290.258 4.31872 275.35 11.5312C266.634 15.6691 260.258 21.3211 255.395 26.8561C253.055 22.8298 251.04 18.9348 249.306 15.092C245.388 6.43675 242.188 -2.81891 239.091 -11.7821C236.83 -18.3259 234.493 -25.089 231.859 -31.6969C228.793 -39.8768 225.331 -48.0694 221.269 -56.7667C220.988 -57.3577 220.667 -58.0895 220.359 -58.7964C220.207 -59.1458 220.05 -59.4957 219.905 -59.8209C217.411 -66.0267 215.714 -71.113 214.57 -75.8405C213.147 -81.5967 212.348 -87.768 211.576 -93.7381L211.428 -94.8661C210.404 -103.152 209.848 -110.978 209.768 -118.122L209.762 -118.321C209.418 -126.565 208.728 -135.296 208.065 -143.753C207.425 -151.853 206.768 -160.231 206.434 -167.947C206.394 -168.945 206.359 -170.512 206.362 -171.407L206.431 -183.777" stroke="white" stroke-width="2" stroke-miterlimit="10"/>
</g>
<g opacity="0.6">
<g style="mix-blend-mode:overlay">
<path d="M-324.51 364.555L-314.149 363.446C-287.462 360.589 -260.21 358.24 -233.843 355.969L-223.889 355.098L-218.595 354.605C-214.603 354.306 -210.397 354.032 -206.685 353.79L-206.628 353.786C-192.381 352.857 -177.647 351.898 -163.07 349.19C-157.351 348.144 -152.09 346.875 -147.443 345.417L-144.601 344.477L-143.735 344.182C-140.656 343.199 -137.315 342.382 -132.905 341.541C-123.1 339.685 -112.598 338.439 -103.568 337.424C-93.8012 336.412 -83.7793 335.294 -74.0866 334.214L-73.9718 334.202C-62.9318 332.971 -51.5155 331.697 -40.463 330.573C-15.0904 328.263 12.1574 328.169 38.5038 328.079L43.7894 328.061L43.9079 328.061C44.6256 328.046 45.2446 328.038 45.8581 328.032C47.1063 328.016 48.2821 328.003 50.0891 327.924L50.1823 327.921C53.7408 327.713 57.1548 327.797 61.5943 328.204C65.3368 328.544 69.4744 329.06 73.8558 329.603C80.651 330.445 87.6742 331.316 94.3915 331.71C99.7402 332.053 104.908 332.156 109.797 332.017L113.004 331.698L117.452 331.579C117.764 331.554 118.077 331.525 118.359 331.496L119.541 331.386L119.858 331.369C121.666 331.364 123.507 331.507 125.392 331.667C136.783 332.778 146.536 334.765 154.373 337.568C156.895 338.528 159.164 339.653 162.181 341.43C164.453 342.777 166.767 344.287 169.23 345.887C172.63 348.102 176.144 350.389 179.931 352.514C186.191 356.113 193.265 359.294 199.837 361.467C203.693 362.756 207.519 363.75 211.234 364.719C213.094 365.201 215.019 365.704 216.92 366.238L217.054 366.275C218.674 366.703 220.589 367.247 222.434 367.766L222.504 367.787C227.602 369.226 233.382 370.858 238.275 371.759C243.481 372.871 249.536 374.07 255.709 374.249C265.398 374.642 275.123 373.427 286.296 370.431C287.617 370.08 289.473 369.569 291.276 369.067L291.367 369.04C292.733 368.664 294.061 368.294 295.186 367.99L296.237 367.697C305.357 365.143 314.786 362.502 323.934 359.354L324.214 359.255C331.151 356.615 335.879 352.578 339.972 348.59C343.058 345.53 345.72 342.438 348.293 339.45L349.534 338.007C355.152 331.628 360.789 324.267 366.304 316.111C366.533 315.761 366.847 315.309 367.186 314.826C367.657 314.147 368.147 313.443 368.486 312.913C369.848 310.834 371.018 308.475 371.801 306.247C375.326 295.804 375.909 285.338 376.468 275.219C376.614 272.528 376.772 269.742 376.988 266.94L376.994 266.898C377.328 260.971 377.616 255.038 377.836 249.248L377.837 249.155C377.84 248.927 377.844 248.691 377.85 248.432L377.857 248.375C377.872 247.396 377.897 246.29 377.795 245.164C377.544 240.623 376.72 236.138 375.746 231.154C374.004 222.6 372.456 213.687 370.716 202.233C367.833 184.389 360.761 165.992 349.109 146.005C343.538 136.356 338.103 128.224 332.467 121.113C326.103 113.279 315.832 103.622 305.893 94.2764C299.981 88.7189 293.281 82.4192 288.139 77.0433C281.631 70.2413 280.59 67.9775 280.448 67.5907C280.34 58.6521 289.407 41.4872 298.616 36.6575L298.665 36.633C307.439 31.8591 319.578 29.9967 331.313 28.1941C332.998 27.9366 334.673 27.6778 336.36 27.4089C344.09 26.1704 352.086 25.0637 359.816 23.9919C369.081 22.709 378.655 21.3812 388.067 19.7917C399.226 18.6742 411.029 19.4159 424.133 20.4238C433.955 21.2721 444.143 22.4472 454.403 23.9184C479.404 27.5413 506.159 30.9351 532.038 34.2185L532.154 34.2337C537.71 34.9376 543.205 35.6335 548.573 36.3206L550.189 36.531C552.353 36.8127 558.079 37.5543 560.302 37.9405C571.516 40.0943 582.942 43.113 593.994 46.0288C604.308 48.7516 614.971 51.5664 625.951 53.8253C629.052 54.4345 632.21 54.958 635.144 55.34L635.453 55.3802C643.319 56.187 651.096 56.3776 658.623 56.5626L658.812 56.5679C665.626 56.7261 672.905 56.8285 679.968 56.9299L680.04 56.9315C688.789 57.0585 697.836 57.1857 706.262 57.4219" stroke="white" stroke-width="2" stroke-miterlimit="10"/>
</g>
<g style="mix-blend-mode:overlay">
<path d="M159.653 -181.477L160.472 -166.975C161.482 -151.782 162.525 -136.07 162.095 -121.014C161.56 -112.372 161.45 -102.679 161.753 -91.3886C161.808 -89.1911 161.893 -87.0246 161.975 -84.9242L161.978 -84.8231C162.107 -81.5265 162.246 -78.1123 162.249 -74.6732C162.284 -72.323 162.247 -69.839 162.208 -67.4288C162.132 -62.5771 162.056 -57.5588 162.526 -52.4616C164.808 -29.2408 178.788 -7.48238 193.566 12.585C194.987 14.4873 196.474 16.4682 198.018 18.534C204.798 27.5772 212.482 37.8238 218.323 46.4619C225.637 57.0789 233.516 68.3627 242.39 79.3534L242.448 79.423C246.141 83.8194 249.906 88.2251 253.544 92.4902L253.697 92.669C264.351 105.148 275.37 118.05 284.914 130.973C288.38 135.665 291.212 139.911 293.839 144.355C299.517 153.84 304.8 163.851 309.908 173.534C313.964 181.215 318.156 189.161 322.524 196.813C325.46 202.122 328.067 206.893 330.253 211.605L330.583 212.299C334.113 219.656 337.765 227.264 340.323 234.653C341.947 239.412 342.969 243.387 342.673 247.326L342.667 247.372C342.168 256.472 341.416 268.33 340.082 279.33C339.582 283.455 338.81 288.809 337.325 293.644C336.834 295.306 336.151 296.853 335.405 298.004C329.171 306.264 323.089 313.269 316.798 319.436C313.867 322.365 310.765 325.427 307.987 327.795C307.2 328.445 305.413 329.926 304.563 330.3C295.321 332.682 285.448 334.704 275.893 336.663L273.911 337.071C269.979 337.878 265.529 338.791 261.914 338.995C258.68 339.202 256.532 339.085 254.256 338.587C253.875 338.503 253.5 338.412 253.097 338.305L249.377 337.289L247.683 336.875C246.281 336.514 243.565 335.54 241.392 334.761L241.259 334.713C239.869 334.214 238.558 333.745 237.43 333.373C231.686 331.377 225.874 329.465 220.95 327.863L220.896 327.844C213.849 325.64 207.896 321.434 201.593 316.984C198.977 315.136 196.27 313.225 193.296 311.314C188.393 308.183 183.67 305.595 179.266 303.63C172.125 300.405 163.832 297.705 153.887 295.364C142.348 292.714 131.636 291.118 121.143 290.485C119.226 290.371 116.725 290.321 115.016 290.311L114.227 290.321C113.108 290.334 112.88 290.347 112.797 290.352C112.698 290.359 112.538 290.361 112.362 290.369C111.845 290.387 111.255 290.411 110.756 290.447L110.137 290.498C107.613 290.705 105.002 290.915 102.572 290.948C95.2717 291.06 87.3371 290.353 79.6512 289.674C69.236 288.748 58.4692 287.793 47.6548 288.536C45.8758 288.638 44.1996 288.823 42.5811 289L41.8452 289.079C41.6151 289.107 41.3374 289.145 41.0285 289.186L40.9339 289.201C40.583 289.248 40.3944 289.274 40.2897 289.287L39.9614 289.318C38.4992 289.481 35.4288 289.779 32.7282 290.044L32.5299 290.064C30.064 290.306 27.2698 290.578 25.7044 290.742C0.764943 293.295 -25.1863 296.198 -50.3333 299.011L-54.5949 299.487C-67.2552 300.991 -79.5834 302.433 -91.2424 303.548C-93.9597 303.822 -96.9678 304.117 -100.179 304.431L-100.727 304.484C-112.092 305.595 -124.979 306.852 -134.435 308.144C-144.142 309.459 -154.476 311.095 -164.304 314.169C-167.631 315.244 -171.295 316.085 -175.831 316.821C-187.631 318.735 -200.707 319.196 -213.353 319.64C-218.039 319.805 -222.88 319.973 -227.613 320.218C-259.381 321.584 -291.196 322.37 -322.179 322.558L-332.723 322.62" stroke="white" stroke-width="2" stroke-miterlimit="10"/>
</g>
</g>
<g style="mix-blend-mode:overlay" opacity="0.6">
<path d="M703.62 30.5299L702.403 30.5421L701.712 30.5879C688.811 31.9595 674.887 32.8569 660.356 33.2642C653.347 33.4296 645.901 33.5497 638.722 33.0609L637.263 32.9524L634.967 32.6536C634.846 32.6377 634.719 32.6251 634.608 32.6067C623.152 30.6153 611.487 27.6973 600.206 24.8797C590.709 22.5036 570.901 17.9943 560.984 16.3351C553.503 15.0861 545.764 14.4662 538.325 13.587L538.259 13.5784C532.189 12.862 525.917 12.1191 519.67 11.3408L519.478 11.3158C504.841 9.80199 489.899 7.60103 475.437 5.47418C448.365 1.48479 420.373 -2.6399 391.934 -2.70161L391.687 -2.69894C388.154 -2.61606 384.038 -2.47735 379.831 -1.90456L379.736 -1.88974C369.259 -0.299503 358.362 0.937618 347.82 2.13568L347.742 2.14487C341.427 2.86184 334.897 3.60518 328.455 4.42208C327.085 4.59259 325.704 4.76178 324.292 4.93464L324.094 4.95915C308.72 6.8308 292.828 8.76684 278.852 15.523C267.383 20.9695 260.072 29.6052 254.96 36.7167C250.239 29.5387 246.481 22.8156 243.533 16.287C239.534 7.4545 236.305 -1.89418 233.177 -10.939C230.923 -17.4548 228.598 -24.1929 225.994 -30.7154C222.964 -38.8093 219.543 -46.9114 215.524 -55.5061C215.223 -56.1423 214.894 -56.8907 214.561 -57.6436C214.401 -58.0095 214.24 -58.3754 214.087 -58.7132C211.501 -65.1326 209.746 -70.4126 208.549 -75.3369C207.08 -81.2969 206.263 -87.5713 205.477 -93.6439L205.328 -94.7954C204.29 -103.215 203.723 -111.167 203.64 -118.451L203.636 -118.54C203.294 -126.718 202.609 -135.414 201.947 -143.832C201.306 -151.967 200.643 -160.381 200.304 -168.175C200.262 -169.2 200.223 -170.818 200.232 -171.798L200.282 -179.448" stroke="white" stroke-width="2" stroke-miterlimit="10"/>
</g>
<g opacity="0.7">
<g style="mix-blend-mode:overlay">
<path d="M-321.342 361.254L-314.969 360.571C-288.235 357.709 -260.957 355.359 -234.575 353.087L-224.651 352.219L-219.31 351.721C-215.266 351.417 -211.019 351.141 -207.26 350.897C-193.149 349.978 -178.56 349.027 -164.236 346.368C-158.697 345.356 -153.615 344.129 -149.135 342.724L-146.389 341.813L-145.497 341.511C-142.24 340.466 -138.724 339.609 -134.108 338.729C-124.139 336.84 -113.523 335.582 -104.383 334.554C-94.5956 333.541 -84.5474 332.418 -74.8234 331.335C-63.7672 330.099 -52.3302 328.823 -41.2205 327.695C-15.6344 325.366 11.7162 325.274 38.1759 325.183L43.4257 325.165L43.4925 325.166C44.2309 325.15 44.8652 325.143 45.4943 325.136C46.701 325.122 47.8408 325.108 49.5391 325.034L49.5908 325.033C53.4089 324.809 57.0436 324.898 61.7481 325.329C65.5615 325.678 69.7401 326.195 74.1772 326.745C80.8913 327.576 87.833 328.441 94.4125 328.825C100.972 329.248 107.212 329.297 113 328.973L114.652 328.812L116.735 328.711C117.032 328.683 117.329 328.656 117.615 328.631L118.891 328.514L119.42 328.486C121.487 328.472 123.516 328.632 125.545 328.803C137.394 329.958 147.577 332.039 155.813 334.992C158.62 336.059 161.103 337.282 164.374 339.212C166.723 340.603 169.071 342.134 171.566 343.757C174.909 345.937 178.371 348.19 182.076 350.266C188.077 353.714 194.849 356.763 201.139 358.842C204.831 360.078 208.577 361.051 212.198 361.991C214.088 362.482 216.038 362.991 217.993 363.54L218.048 363.555C219.698 363.991 221.638 364.538 223.513 365.069L223.578 365.089C228.601 366.507 234.286 368.115 238.959 368.964C243.979 370.04 249.819 371.196 255.586 371.361C264.783 371.736 274.064 370.572 284.795 367.693C286.105 367.344 287.946 366.835 289.732 366.343C291.135 365.955 292.511 365.576 293.625 365.275L294.671 364.981C303.732 362.443 313.104 359.813 322.143 356.71L322.3 356.653C328.631 354.244 333.043 350.464 336.878 346.73C339.887 343.749 342.514 340.695 345.051 337.745L346.31 336.281C351.855 329.986 357.419 322.72 362.87 314.668C363.111 314.304 363.437 313.834 363.77 313.354C364.235 312.686 364.713 311.996 365.044 311.485C366.304 309.563 367.384 307.389 368.103 305.347C371.536 295.187 372.104 284.878 372.657 274.898C372.805 272.184 372.961 269.378 373.178 266.568C373.519 260.631 373.8 254.713 374.023 248.977L374.029 248.931C374.027 248.694 374.032 248.451 374.036 248.176L374.042 248.126C374.055 247.194 374.079 246.138 373.986 245.114C373.744 240.706 372.935 236.297 371.978 231.393C370.23 222.803 368.676 213.858 366.934 202.377C364.096 184.829 357.128 166.717 345.636 147.008C340.138 137.484 334.789 129.476 329.265 122.507C323.044 114.847 312.855 105.271 302.999 96.0013C297.05 90.4118 290.314 84.0725 285.112 78.6385C277.506 70.6894 276.648 68.2439 276.63 67.5631C276.409 57.8422 286.065 39.5948 296.282 34.2335C305.659 29.131 318.176 27.2092 330.278 25.3536C331.952 25.0986 333.622 24.8391 335.293 24.5759C343.065 23.3313 351.083 22.2195 358.849 21.1447C368.129 19.86 377.73 18.5278 387.115 16.9427C398.721 15.7591 410.825 16.5207 424.265 17.5531C434.179 18.4094 444.459 19.5926 454.824 21.0815C479.821 24.7037 506.586 28.0988 532.485 31.3849C538.041 32.0888 543.54 32.7892 548.924 33.4745L550.413 33.6684C552.643 33.9586 558.567 34.7221 560.916 35.1325C572.316 37.3221 583.837 40.361 594.988 43.3052C605.238 46.0118 615.831 48.8059 626.63 51.0297C629.625 51.6212 632.668 52.1219 635.445 52.4834L635.673 52.5131C643.345 53.3024 651.02 53.4913 658.444 53.6707L658.628 53.6754C665.437 53.8329 672.71 53.9384 679.748 54.0366L679.81 54.0368C688.589 54.164 697.667 54.2951 706.104 54.5288" stroke="white" stroke-width="2" stroke-miterlimit="10"/>
</g>
<g style="mix-blend-mode:overlay">
<path d="M163.623 -178.385L164.284 -166.902C165.296 -151.642 166.346 -135.863 165.911 -120.691C165.379 -112.111 165.271 -102.468 165.569 -91.2173C165.622 -89.0472 165.706 -86.8807 165.789 -84.7879L165.794 -84.702C165.925 -81.3781 166.061 -77.941 166.067 -74.4821C166.103 -72.0932 166.063 -69.5901 166.028 -67.1716C165.954 -62.3778 165.875 -57.418 166.336 -52.4577C168.558 -29.8262 182.312 -8.44605 196.858 11.3003C198.278 13.2026 199.761 15.1828 201.306 17.241C208.112 26.3149 215.823 36.5997 221.681 45.2672C228.96 55.8331 236.799 67.0614 245.592 77.9563L245.624 77.9914C249.322 82.3923 253.091 86.8063 256.738 91.0803L256.855 91.2157C267.545 103.738 278.605 116.688 288.215 129.693C291.743 134.468 294.627 138.793 297.3 143.317C303.012 152.865 308.308 162.897 313.441 172.626C317.488 180.294 321.673 188.22 326.032 195.859C328.993 201.21 331.62 206.03 333.831 210.792L334.157 211.474C337.719 218.9 341.404 226.579 344.015 234.118C345.734 239.15 346.812 243.38 346.483 247.702C345.979 256.837 345.227 268.741 343.881 279.801C343.369 284.018 342.581 289.495 341.053 294.471C340.491 296.371 339.69 298.159 338.806 299.509C332.478 307.905 326.294 315.024 319.898 321.29C316.926 324.26 313.777 327.371 310.884 329.832C309.528 330.954 307.674 332.484 306.268 332.98C296.859 335.415 286.838 337.468 277.146 339.455L275.163 339.863C271.078 340.7 266.443 341.651 262.522 341.874C258.827 342.106 256.203 341.958 253.467 341.358C253.01 341.26 252.561 341.147 252.058 341.012L248.338 339.996L246.754 339.612C245.132 339.199 242.392 338.214 239.971 337.349L239.907 337.325C238.512 336.825 237.192 336.351 236.099 335.992C230.374 334.002 224.607 332.104 219.673 330.5C211.927 328.076 205.714 323.689 199.104 319.022C196.52 317.197 193.847 315.31 190.968 313.458C186.247 310.44 181.712 307.957 177.503 306.076C170.649 302.982 162.653 300.378 153.038 298.119C141.775 295.532 131.336 293.975 121.124 293.359C119.314 293.252 116.915 293.203 115.279 293.196L115.057 293.198C114.985 293.2 114.815 293.201 114.624 293.203L114.567 293.204C114.335 293.205 113.556 293.216 113.344 293.227C113.224 293.234 113.033 293.241 112.826 293.248C112.34 293.267 111.807 293.286 111.438 293.316L110.839 293.366C108.222 293.58 105.522 293.798 102.933 293.833C95.3744 293.946 87.3015 293.233 79.4991 292.539C69.2673 291.629 58.6889 290.69 48.2534 291.41C46.5883 291.507 44.9647 291.684 43.3988 291.852L42.7099 291.925C42.501 291.948 42.2492 291.985 41.9822 292.02L41.8876 292.035C41.2899 292.12 41.0709 292.142 40.9925 292.151L40.7791 292.17C39.3017 292.33 36.3456 292.62 33.4836 292.899L33.2854 292.92C30.6894 293.171 28.0096 293.435 26.4856 293.597C1.55681 296.148 -24.405 299.052 -49.51 301.859L-53.7403 302.332C-66.4269 303.84 -78.781 305.283 -90.4662 306.402C-93.2042 306.677 -96.2331 306.973 -99.4188 307.287L-99.9661 307.34C-111.295 308.447 -124.13 309.704 -133.497 310.981C-143.004 312.267 -153.107 313.867 -162.598 316.834C-166.14 317.978 -170.011 318.87 -174.773 319.642C-186.862 321.604 -200.093 322.068 -212.895 322.522C-217.576 322.688 -222.417 322.857 -227.118 323.097C-258.938 324.464 -290.815 325.254 -321.87 325.441L-328.358 325.48" stroke="white" stroke-width="2" stroke-miterlimit="10"/>
</g>
</g>
<g style="mix-blend-mode:overlay" opacity="0.7">
<path d="M703.7 33.4285L702.792 33.446L702.522 33.4651C689.495 34.8476 675.441 35.759 660.766 36.1669C653.638 36.3362 646.053 36.4575 638.639 35.9499L637.042 35.8312L634.767 35.535C634.519 35.5027 634.26 35.4729 634.033 35.4356C622.39 33.4121 610.641 30.4714 599.27 27.6305C588.884 25.034 578.143 22.3486 567.187 20.2711L560.642 19.1981C553.15 18.2461 545.462 17.3345 538.023 16.4552L537.957 16.4466C531.867 15.7276 525.575 14.9821 519.343 14.2058L519.252 14.1939C504.509 12.6701 489.506 10.4574 474.994 8.32014C448.099 4.35765 420.283 0.259851 392.22 0.20052L392.102 0.200612C388.703 0.281572 384.747 0.414025 380.813 0.948631L380.761 0.957298C370.199 2.55986 359.266 3.80001 348.672 5.00292C342.346 5.72238 335.806 6.46439 329.36 7.28063C327.984 7.45429 326.604 7.61967 325.181 7.79502L324.982 7.81955C309.969 9.64897 294.444 11.5358 281.054 18.0116C269.886 23.3151 262.8 31.9646 257.855 38.935C256.897 40.3339 255.992 41.728 255.15 43.1071C248.636 33.7998 243.639 25.2407 239.938 17.0324C235.891 8.08898 232.647 -1.30049 229.497 -10.4141C227.25 -16.9095 224.928 -23.6279 222.349 -30.1045C219.338 -38.1455 215.941 -46.194 211.955 -54.7186C211.633 -55.3963 211.293 -56.1772 210.959 -56.9262C210.795 -57.3042 210.626 -57.6791 210.474 -58.0246C207.832 -64.5791 206.036 -69.9807 204.807 -75.0216C203.308 -81.1096 202.483 -87.447 201.685 -93.5833L201.532 -94.7507C200.484 -103.253 199.912 -111.287 199.831 -118.625L199.837 -118.674C199.494 -126.806 198.806 -135.471 198.146 -143.869C197.503 -152.028 196.838 -160.469 196.501 -168.313C196.457 -169.366 196.417 -171.026 196.425 -172.037L196.458 -176.743" stroke="white" stroke-width="2" stroke-miterlimit="10"/>
</g>
<g opacity="0.9">
<g style="mix-blend-mode:overlay">
<path d="M-317.328 357.073L-316.002 356.932C-289.174 354.059 -261.823 351.703 -235.374 349.428L-225.606 348.571L-220.187 348.063C-216.148 347.759 -212.031 347.492 -208.054 347.235C-194.114 346.328 -179.701 345.386 -165.704 342.788C-160.387 341.817 -155.55 340.652 -151.305 339.32L-148.645 338.438L-147.693 338.112C-144.206 336.992 -140.482 336.081 -135.613 335.152C-125.444 333.227 -114.676 331.95 -105.395 330.906C-95.6487 329.895 -85.601 328.776 -75.8821 327.692C-64.7895 326.453 -53.3211 325.174 -42.1542 324.042C-16.292 321.686 11.1978 321.594 37.7811 321.503L42.9792 321.486C43.7485 321.469 44.4035 321.462 45.0326 321.454C46.1928 321.443 47.2861 321.43 48.8553 321.359C53.0053 321.116 56.9226 321.211 61.9578 321.673C65.8528 322.029 70.0872 322.553 74.5749 323.11C81.1923 323.932 88.0381 324.781 94.4537 325.159C102.525 325.678 110.042 325.61 116.792 324.961L117.036 324.939L118.078 324.846L118.856 324.803C121.243 324.781 123.507 324.955 125.79 325.152C138.183 326.358 148.917 328.569 157.664 331.712C160.816 332.906 163.567 334.26 167.159 336.376C169.609 337.826 172.004 339.387 174.543 341.039C177.814 343.171 181.199 345.375 184.799 347.395C190.473 350.657 196.864 353.532 202.793 355.494C206.288 356.663 209.924 357.609 213.44 358.524C215.37 359.027 217.365 359.547 219.32 360.096C221.015 360.545 222.925 361.085 224.944 361.654C229.869 363.043 235.449 364.622 239.836 365.41C244.615 366.436 250.152 367.537 255.473 367.69C264.029 368.04 272.742 366.934 282.892 364.212C284.192 363.865 286.005 363.365 287.776 362.874C289.19 362.484 290.577 362.099 291.653 361.809L292.7 361.514C301.692 358.994 310.988 356.39 319.877 353.333C325.44 351.219 329.446 347.767 332.958 344.347C335.862 341.469 338.446 338.467 340.946 335.563C341.374 335.064 341.808 334.563 342.23 334.071C347.68 327.88 353.157 320.73 358.513 312.813C358.767 312.432 359.106 311.941 359.458 311.436C359.904 310.789 360.369 310.12 360.682 309.637C361.809 307.912 362.778 305.971 363.41 304.166C366.721 294.362 367.281 284.246 367.824 274.466C367.975 271.733 368.132 268.908 368.347 266.118C368.684 260.214 368.966 254.331 369.186 248.614C369.189 248.343 369.193 248.065 369.202 247.787C369.22 246.863 369.242 245.904 369.156 245.028C368.929 240.788 368.134 236.475 367.2 231.674C365.443 223.032 363.878 214.051 362.134 202.543C359.357 185.379 352.519 167.621 341.231 148.26C335.826 138.895 330.586 131.049 325.204 124.258C319.162 116.819 309.079 107.341 299.333 98.1795C285.851 85.5033 271.912 72.3956 271.797 67.3446C271.545 56.5071 281.602 37.3155 293.274 31.1899C303.414 25.6711 316.408 23.6759 328.977 21.7493C330.642 21.493 332.301 21.2398 333.951 20.9777C341.764 19.7269 349.809 18.6108 357.596 17.5311C366.913 16.2396 376.545 14.9075 385.92 13.3173C398.097 12.053 410.58 12.8328 424.449 13.9015C434.46 14.7628 444.866 15.9663 455.379 17.4705C480.228 21.0736 507.014 24.4713 532.913 27.7536C538.474 28.4581 543.979 29.1592 549.387 29.8478L550.695 30.018C553.922 30.4381 559.324 31.1413 561.728 31.5627C573.355 33.7935 584.99 36.8666 596.241 39.8355C606.411 42.5201 616.924 45.296 627.502 47.4717C630.357 48.0333 633.238 48.5091 635.883 48.8534L635.964 48.864C643.382 49.628 650.934 49.8124 658.234 49.9913L658.409 49.9946C665.212 50.1515 672.496 50.2545 679.539 50.3571C688.349 50.4844 697.458 50.6157 705.915 50.8482" stroke="white" stroke-width="2" stroke-miterlimit="10"/>
</g>
<g style="mix-blend-mode:overlay">
<path d="M168.654 -174.466L169.113 -166.816C170.13 -151.471 171.184 -135.601 170.746 -120.275C170.218 -111.764 170.107 -102.187 170.407 -90.9947C170.461 -88.8283 170.547 -86.6382 170.628 -84.5226C170.759 -81.1676 170.897 -77.6954 170.902 -74.2366C170.939 -71.8164 170.902 -69.2898 170.864 -66.8484C170.788 -62.1246 170.714 -57.2418 171.159 -52.4425C173.31 -30.5569 186.778 -9.65201 201.02 9.68258C202.436 11.5804 203.919 13.5569 205.442 15.585C212.278 24.7055 220.029 35.0382 225.931 43.7695C233.166 54.2754 240.957 65.4354 249.644 76.1924C253.342 80.5971 257.151 85.0551 260.83 89.3643C271.575 101.948 282.688 114.963 292.391 128.093C295.997 132.978 298.951 137.402 301.68 142.022C307.443 151.65 312.759 161.728 317.901 171.473C321.939 179.124 326.115 187.034 330.47 194.672C333.46 200.082 336.116 204.952 338.365 209.781L338.692 210.463C342.295 217.972 346.025 225.742 348.695 233.464C350.531 238.84 351.682 243.393 351.319 248.15C350.81 257.33 350.055 269.292 348.699 280.432C348.173 284.764 347.361 290.392 345.774 295.551C345.122 297.757 344.175 299.852 343.105 301.453C336.653 310.014 330.348 317.281 323.828 323.67C320.803 326.692 317.601 329.857 314.558 332.446C312.795 333.903 310.607 335.712 308.312 336.44C298.716 338.928 288.558 341.01 278.738 343.027L276.756 343.432C272.47 344.312 267.613 345.308 263.288 345.552C258.964 345.826 255.826 345.635 252.462 344.902C251.911 344.78 251.361 344.646 250.743 344.481L247.024 343.465L245.544 343.11C243.632 342.624 240.744 341.586 238.196 340.672C236.797 340.168 235.47 339.697 234.407 339.346C228.722 337.369 223.004 335.489 218.14 333.906C209.502 331.203 202.944 326.573 196.002 321.669C193.452 319.868 190.811 318.004 188.032 316.22C183.545 313.352 179.251 310.998 175.281 309.225C168.788 306.294 161.167 303.817 151.978 301.656C141.065 299.15 130.97 297.642 121.116 297.045C119.44 296.943 117.2 296.9 115.666 296.894L115.609 296.894C115.521 296.898 115.279 296.898 115.016 296.902C114.604 296.907 114.144 296.913 114.051 296.92C113.906 296.928 113.678 296.937 113.43 296.944C113.027 296.957 112.581 296.977 112.322 296.994L111.729 297.04C109.008 297.264 106.193 297.491 103.403 297.527C95.5141 297.647 87.2735 296.916 79.308 296.208C69.3203 295.323 58.9917 294.405 48.9822 295.095C47.483 295.182 45.9328 295.349 44.4346 295.511L43.8135 295.577C43.6147 295.602 43.3685 295.635 43.1065 295.671C42.6767 295.731 42.1842 295.799 41.8776 295.821L41.8255 295.826C40.2854 295.994 37.2459 296.292 34.3004 296.579C31.574 296.845 28.9988 297.095 27.485 297.258C2.64979 299.802 -23.3272 302.705 -48.4534 305.517L-52.6418 305.983C-65.3491 307.493 -77.7295 308.94 -89.4724 310.067C-92.3672 310.361 -95.5837 310.675 -98.9672 311.006C-110.254 312.111 -123.048 313.361 -132.299 314.622C-141.555 315.875 -151.374 317.423 -160.425 320.253C-164.241 321.486 -168.371 322.44 -173.422 323.256C-185.89 325.281 -199.317 325.751 -212.3 326.209C-216.965 326.373 -221.796 326.543 -226.476 326.782C-258.375 328.154 -290.334 328.945 -321.456 329.135L-322.806 329.141" stroke="white" stroke-width="2" stroke-miterlimit="10"/>
</g>
</g>
<g style="mix-blend-mode:overlay" opacity="0.9">
<path d="M703.797 37.1006L703.549 37.1071C690.366 38.5079 676.146 39.4288 661.289 39.8403C654.012 40.0133 646.262 40.1365 638.537 39.6077L636.767 39.4742L634.37 39.1622C634.005 39.1147 633.66 39.0736 633.307 39.0122C621.438 36.9476 609.568 33.9797 598.088 31.109C587.787 28.5351 577.136 25.8692 566.416 23.838L563.4 23.2903L560.21 22.8168C552.718 21.8648 545.03 20.9532 537.59 20.0739C531.475 19.3516 525.153 18.6021 518.972 17.8324C504.087 16.2901 489.018 14.0727 474.44 11.923C447.768 7.99337 420.19 3.9304 392.626 3.8702C389.393 3.94938 385.644 4.07006 382.051 4.55599C371.379 6.17522 360.394 7.42404 349.769 8.62681C343.453 9.34378 336.918 10.0865 330.493 10.9015C329.033 11.0837 327.569 11.2614 326.1 11.4423C311.536 13.214 296.481 15.0496 283.831 21.1643C273.523 26.0601 266.847 34.2319 262.177 40.8155C259.651 44.4993 257.549 48.0908 255.911 51.5178C255.072 50.4007 254.218 49.2389 253.331 48.0147C245.486 37.1967 239.613 27.372 235.371 17.9767C231.259 8.89297 227.987 -0.569788 224.827 -9.72349C222.592 -16.194 220.277 -22.8844 217.698 -29.3572C214.713 -37.3211 211.353 -45.2874 207.411 -53.717C207.074 -54.4355 206.721 -55.2374 206.38 -56.0107C206.207 -56.4014 206.04 -56.7915 205.878 -57.1422C203.165 -63.8687 201.316 -69.4246 200.055 -74.6171C198.513 -80.8656 197.679 -87.2896 196.87 -93.5048L196.715 -94.6919C195.654 -103.301 195.073 -111.421 194.991 -118.844C194.657 -126.924 193.972 -135.57 193.313 -143.936C192.669 -152.127 192.002 -160.591 191.661 -168.49C191.62 -169.565 191.578 -171.285 191.581 -172.342L191.586 -173.323" stroke="white" stroke-width="2" stroke-miterlimit="10"/>
</g>
<g style="mix-blend-mode:overlay">
<path d="M-316.273 355.971C-287.978 352.943 -259.7 350.538 -231.23 348.087L-225.851 347.609L-220.406 347.1C-202.233 345.74 -183.978 345.167 -166.091 341.847C-161.406 340.991 -156.46 339.863 -151.883 338.427L-149.234 337.547L-148.256 337.217C-144.318 335.954 -140.341 335.041 -136.005 334.214C-126.121 332.341 -115.867 331.098 -105.661 329.949C-84.8283 327.788 -63.4138 325.214 -42.3998 323.084C-14.7822 320.569 14.723 320.626 42.848 320.519C45.0324 320.47 46.3113 320.497 48.6619 320.396C53.1747 320.134 57.1844 320.273 62.0114 320.711C71.7212 321.595 83.7723 323.563 94.4612 324.195C101.68 324.658 109.333 324.692 116.541 323.999L117.344 323.925L117.745 323.888C117.938 323.87 117.849 323.882 117.88 323.878C117.89 323.88 117.9 323.881 117.917 323.871L118.134 323.861L118.244 323.852L118.409 323.85L118.74 323.839C121.132 323.817 123.372 323.981 125.853 324.195C136.639 325.246 148.089 327.241 158.158 330.854C161.659 332.182 164.529 333.649 167.891 335.634C173.596 339.017 179.203 343.104 185.511 346.643C190.806 349.685 197.027 352.565 203.223 354.616C208.576 356.406 214.209 357.651 219.65 359.189C225.547 360.752 233.997 363.391 240.06 364.483C244.975 365.537 250.338 366.588 255.444 366.733C265.086 367.128 273.905 365.581 282.393 363.306C284.726 362.687 288.745 361.555 291.133 360.908C300.467 358.289 310.086 355.617 319.238 352.475C324.618 350.43 328.475 347.094 331.922 343.736C335.296 340.395 338.208 336.913 341.152 333.505C347.083 326.767 352.497 319.54 357.362 312.342C357.934 311.475 358.975 310.028 359.525 309.169C360.658 307.441 361.577 305.564 362.169 303.877C366.371 291.444 366.088 278.714 367.068 266.017C367.398 260.199 367.68 254.366 367.908 248.545C367.917 247.399 367.988 246.137 367.877 245.006C367.641 240.629 366.764 236.029 365.933 231.761C363.933 221.933 362.342 212.371 360.861 202.599C357.832 183.859 350.205 165.994 340.061 148.6C335.417 140.56 330.197 132.391 324.126 124.73C309.442 106.664 270.728 76.429 270.516 67.2947C270.259 56.0882 280.403 36.7297 292.473 30.396C304.159 24.0357 319.294 22.3074 333.59 20.0357C350.768 17.2824 368.381 15.2914 385.591 12.3716C398.248 11.0535 411.52 11.9515 424.481 12.9448C434.823 13.8375 445.182 15.0465 455.512 16.5269C485.719 20.9049 519.063 25.0168 549.501 28.9016C552.475 29.2888 559.11 30.1332 561.937 30.6329C584.12 34.8891 605.496 41.9674 627.721 46.5432C630.41 47.0715 633.28 47.5575 636.026 47.915C643.439 48.6784 651.037 48.8611 658.338 49.04C673.604 49.3912 690.577 49.4724 705.854 49.8949" stroke="white" stroke-width="2" stroke-miterlimit="10"/>
</g>
<g style="mix-blend-mode:overlay">
<path d="M169.977 -173.433C169.977 -173.433 172.503 -137.007 172.018 -120.152C171.419 -110.538 171.422 -100.593 171.682 -90.9368C171.817 -85.3406 172.176 -79.8119 172.181 -74.1704C172.291 -67.1391 171.757 -59.6991 172.43 -52.4355C174.576 -30.597 187.907 -10.0319 202.113 9.25928C209.964 19.7834 219.836 32.7107 227.046 43.38C234.555 54.2823 242.176 65.1641 250.697 75.7212C265.207 92.9933 280.438 110.014 293.483 127.673C296.937 132.345 299.977 136.862 302.824 141.679C313.124 158.895 321.718 176.979 331.637 194.356C334.367 199.293 337.219 204.487 339.552 209.513C343.318 217.365 347.153 225.289 349.922 233.29C351.649 238.342 352.97 243.224 352.587 248.265C351.997 258.911 351.242 270.06 349.966 280.594C349.34 285.723 348.516 290.958 347.015 295.833C346.39 297.95 345.426 300.189 344.235 301.965C338.406 309.708 332.004 317.299 324.862 324.294C321.89 327.264 318.652 330.471 315.523 333.13C313.542 334.768 311.334 336.57 308.842 337.351C298.559 340.017 287.819 342.186 277.175 344.371C272.799 345.266 267.905 346.269 263.491 346.521C259.385 346.781 255.976 346.659 252.196 345.833C251.615 345.707 251.036 345.562 250.392 345.393L248.197 344.789L246.717 344.391L245.768 344.155L245.228 344.031C242.194 343.256 237.048 341.248 233.957 340.226C228.588 338.36 223.148 336.562 217.74 334.8C205.598 331.002 197.482 323.51 187.262 316.942C183.552 314.571 179.196 312.054 174.704 310.05C167.49 306.792 159.461 304.41 151.707 302.586C141.59 300.265 131.555 298.649 121.123 298.016C119.524 297.92 117.366 297.876 115.766 297.865C115.544 297.871 114.405 297.878 114.244 297.888C113.866 297.908 112.946 297.932 112.561 297.96C109.575 298.203 106.577 298.46 103.539 298.499C85.7185 298.768 67.1059 294.83 49.1856 296.064C47.531 296.158 45.7912 296.358 44.1206 296.54C43.5663 296.608 42.6628 296.75 42.1169 296.791C39.1824 297.115 30.9705 297.883 27.7659 298.226C1.55381 300.908 -26.086 304.013 -52.3351 306.95C-64.2581 308.364 -77.2199 309.89 -89.1915 311.034C-101.594 312.289 -119.932 313.941 -131.966 315.581C-141.033 316.808 -150.925 318.37 -159.832 321.153C-164.055 322.518 -168.369 323.453 -173.047 324.209C-190.13 326.982 -208.585 326.852 -226.289 327.753C-257.689 329.101 -289.78 329.913 -321.33 330.105" stroke="white" stroke-width="2" stroke-miterlimit="10"/>
</g>
<g style="mix-blend-mode:overlay">
<path d="M703.82 38.0692C689.854 39.5542 675.626 40.4158 661.426 40.8119C653.782 40.9915 646.107 41.0934 638.509 40.5735L636.698 40.4385L634.914 40.2063C634.317 40.1246 633.737 40.0685 633.121 39.9652C610.552 36.0424 588.831 29.0783 566.22 24.7896L564.211 24.4234L563.204 24.2419L562.168 24.0876L560.099 23.7835C546.448 22.0491 532.522 20.496 518.897 18.8037C476.727 14.4384 435.167 4.94592 392.767 4.8501C389.368 4.93106 385.815 5.05393 382.394 5.51967C365.355 8.10501 348.056 9.68337 330.794 11.8713C314.933 13.854 298.284 15.3775 284.566 22.0082C275.045 26.5299 268.558 33.9353 263.319 41.3248C260.793 45.0086 258.218 49.2907 256.24 53.8327C254.876 52.0502 253.546 50.2488 252.233 48.4379C245.175 38.7032 238.885 28.6692 234.18 18.2328C227.138 2.68108 222.721 -13.5099 216.484 -29.1584C213.371 -37.4607 209.999 -45.3781 206.225 -53.4525C205.712 -54.5389 205.187 -55.7742 204.672 -56.9268C202.364 -62.6508 200.272 -68.4903 198.811 -74.5151C197.165 -81.1961 196.337 -87.9254 195.456 -94.6772C194.476 -102.652 193.818 -110.937 193.731 -118.892C193.066 -134.869 191.086 -152.557 190.4 -168.538C190.358 -169.64 190.315 -171.352 190.32 -172.425" stroke="white" stroke-width="2" stroke-miterlimit="10"/>
</g>
</g>
<defs>
<clipPath id="clip0_4140_1585">
<rect width="991.991" height="635.932" fill="white" transform="matrix(0.991633 0.129088 -0.124056 0.992275 -266.108 -241)"/>
</clipPath>
</defs>
</svg>
