<?xml version="1.0" encoding="UTF-8"?><svg id="Layer_2" xmlns="http://www.w3.org/2000/svg" viewBox="0 0 21.8 21.8"><defs><style>.cls-1{fill:#0160f2;stroke-width:0px;}</style></defs><g id="Layer_1-2"><g id="Layer_2-2"><g id="Layer_1-2"><g id="Page-1"><path class="cls-1" d="m10.9,5.2c-3.1,0-5.6,2.5-5.6,5.6s2.5,5.6,5.6,5.6,5.6-2.5,5.6-5.6-2.5-5.6-5.6-5.6Zm0,9.3c-2,0-3.6-1.6-3.6-3.6s1.6-3.6,3.6-3.6,3.6,1.6,3.6,3.6-1.6,3.6-3.6,3.6Z"/><circle class="cls-1" cx="16.7" cy="5.1" r="1.3"/><path class="cls-1" d="m20,1.8c-1.1-1.2-2.8-1.8-4.6-1.8H6.4C2.6,0,0,2.5,0,6.4v9c0,1.9.6,3.5,1.8,4.7,1.2,1.1,2.8,1.7,4.6,1.7h9c1.9,0,3.5-.6,4.6-1.7,1.2-1.1,1.8-2.8,1.8-4.6V6.5c0-2-.6-3.5-1.8-4.7Zm-.2,13.6c0,1.4-.5,2.5-1.3,3.2s-1.9,1.1-3.2,1.1H6.4c-1.3,0-2.4-.4-3.2-1.1-.8-.8-1.2-1.9-1.2-3.2V6.4c0-1.3.4-2.4,1.2-3.2.7-.7,1.9-1.1,3.2-1.1h9c1.3,0,2.4.4,3.2,1.2.7.8,1.2,1.9,1.2,3.2v8.9h0Z"/></g></g></g></g></svg>