<?xml version="1.0" encoding="UTF-8"?><svg id="Layer_2" xmlns="http://www.w3.org/2000/svg" viewBox="0 0 298.75 298.74"><defs><style>.cls-1{fill:#0160f2;stroke-width:0px;}</style></defs><g id="Layer_1-2"><path class="cls-1" d="m64.18,298.74H0V99.19h64.18v199.55Zm-29.87-229.89h-.46C13.31,68.85,0,53.56,0,34.42S13.66,0,34.66,0s33.85,14.82,34.31,34.42c0,19.14-13.31,34.43-34.66,34.43h0Zm264.43,229.89h-64.18v-109.11c0-26.14-9.34-44-32.56-44-17.74,0-28.24,12-32.91,23.69-1.75,4.2-2.22,9.92-2.22,15.76v113.66h-64.18V99.19h64.18v27.77c9.34-13.3,23.93-32.44,57.88-32.44,42.13,0,74,27.77,74,87.64v116.58Z"/></g></svg>