<?xml version="1.0" encoding="UTF-8"?><svg id="Layer_2" xmlns="http://www.w3.org/2000/svg" viewBox="0 0 20.59 19.29"><defs><style>.cls-1{fill:#0160f2;stroke-width:0px;}</style></defs><g id="Layer_1-2"><path class="cls-1" d="m15.76,8.04c.68.59,1.87-1.11,2.77.48.59,1.07-2.72,1.07-2.55,1.98.68,3.35,4.05,3.57,4.47,4.05.85,1.22-2.66,1.65-2.66,1.65,0,0,.17.91-.31,1.16-.74.48-1.65-.31-2.83.06-1.16.37-1.98,1.87-4.36,1.87s-3.14-1.55-4.36-1.87c-1.22-.31-2.07.43-2.83-.06-.48-.26-.31-1.16-.31-1.16,0,0-3.51-.37-2.66-1.65.43-.48,3.77-.68,4.47-4.05.22-.96-3.14-.91-2.55-1.98.91-1.59,2.07.11,2.77-.48C3.43-.26,10.37,0,10.37,0,10.37,0,17.21.11,15.77,8.04h0Z"/></g></svg>