<?xml version="1.0" encoding="UTF-8"?><svg id="Layer_2" xmlns="http://www.w3.org/2000/svg" viewBox="0 0 23.26 18.97"><defs><style>.cls-1{fill:#0160f2;stroke-width:0px;}</style></defs><g id="Layer_1-2"><path class="cls-1" d="m23.26,2.26c-.89.39-1.76.63-2.74.74.98-.59,1.76-1.52,2.11-2.64-.92.54-1.96.92-3.03,1.16-.89-.92-2.11-1.52-3.48-1.52-2.64,0-4.79,2.14-4.79,4.79,0,.39.06.74.15,1.07C7.47,5.71,3.95,3.81,1.61.92c-.39.68-.63,1.52-.63,2.4,0,1.66.83,3.12,2.11,3.96-.78-.06-1.52-.24-2.14-.59v.06c0,2.29,1.66,4.25,3.81,4.7-.39.09-.83.15-1.28.15-.3,0-.59-.06-.89-.09.59,1.9,2.4,3.27,4.46,3.33-1.61,1.28-3.72,2.05-5.92,2.05-.39,0-.78,0-1.13-.06,2.11,1.37,4.64,2.14,7.32,2.14,8.8,0,13.59-7.29,13.59-13.59v-.63c.89-.68,1.72-1.52,2.35-2.5h0Z"/></g></svg>