<?xml version="1.0" encoding="UTF-8"?><svg id="Layer_2" xmlns="http://www.w3.org/2000/svg" viewBox="0 0 511.94 384.01"><defs><style>.cls-1{fill:#0160f2;stroke-width:0px;}</style></defs><g id="Layer_1-2"><path class="cls-1" d="m508.65,84.79c0-45-33.1-81.2-74-81.2-55.4-2.59-111.9-3.59-169.64-3.59h-18c-57.6,0-114.2,1-169.6,3.6C36.61,3.6,3.51,40,3.51,85,1.01,120.59-.05,156.19,0,191.79c-.1,35.6,1.03,71.23,3.4,106.9,0,45,33.1,81.5,73.9,81.5,58.2,2.7,117.9,3.9,178.6,3.8,60.8.2,120.33-1.07,178.6-3.8,40.9,0,74-36.5,74-81.5,2.4-35.7,3.5-71.3,3.4-107,.23-35.6-.86-71.23-3.26-106.9h0Zm-301.64,205.1V93.39l145,98.2-145,98.3Z"/></g></svg>