<svg width="180" height="180" viewBox="0 0 180 180" fill="none" xmlns="http://www.w3.org/2000/svg">
<g clip-path="url(#clip0_1_2)">
<rect width="180" height="180" fill="white"/>
<rect width="180" height="180" fill="#232C99"/>
<path d="M78.9948 40V77.6717L72.876 85.3997L52.9875 91L47 86.7393V49.0058L57.3273 46.1V81.1442L68.6727 77.9499V42.9057L79 40H78.9948Z" fill="#EDAC1A"/>
<path d="M82.0105 39.474L92.5876 36.4977L98.5163 62.8524L104.251 33.2175L114.765 30.2566L120.625 56.3796L126.36 26.997L137 24L125.783 70.8134L115.075 73.8258L109.529 50.0561L103.794 77.003L93.1543 80L82 39.4792L82.0105 39.474Z" fill="#EDAC1A"/>
<path d="M47 97.7485V154L132 130.252V74L47 97.7485ZM84.1179 137.309L57.1202 144.849V101.241L83.9859 93.7364V102.357L67.5043 106.961V115.834L81.4836 111.93V120.551L67.5043 124.455V133.327L84.1126 128.688V137.309H84.1179ZM123.59 97.5427L113.201 100.444V94.1942L101.787 97.3833V123.812L113.201 120.623V114.373L123.59 111.472V120.345L117.498 127.983L97.49 133.574L91.3979 129.341V97.6044L97.49 89.9661L117.435 84.3954L123.59 88.675V97.5479V97.5427Z" fill="#EDAC1A"/>
</g>
<defs>
<clipPath id="clip0_1_2">
<rect width="180" height="180" fill="white"/>
</clipPath>
</defs>
</svg>
