<?xml version="1.0" encoding="UTF-8"?>
<svg id="Layer_1" data-name="Layer 1" xmlns="http://www.w3.org/2000/svg" viewBox="0 0 212 212">
  <defs>
    <style>
      .cls-1 {
        fill: none;
      }

      .cls-2 {
        fill: #fff;
      }

      .cls-3 {
        fill: #232c99;
      }
    </style>
  </defs>
  <rect class="cls-3" x="-.85" y="-.85" width="213.69" height="213.69"/>
  <g id="UWEC-mark_CMYK___UWEC_stckd_Royal-Blue">
    <polygon class="cls-2" points="75.97 38.57 75.97 89.57 59.7 94.23 59.7 43.23 44.99 47.45 44.99 102.4 53.55 108.62 81.93 100.46 90.68 89.18 90.68 34.36 75.97 38.57"/>
    <polygon class="cls-2" points="157.3 15.24 149.07 58.07 140.71 20.03 125.68 24.31 117.51 67.47 109.02 29.11 93.92 33.45 109.86 92.49 125.03 88.08 133.26 48.87 141.16 83.48 156.46 79.07 172.53 10.9 157.3 15.24"/>
    <path class="cls-2" d="M59.38,122.36l38.17-10.95v12.57l-23.39,6.74v12.96l19.83-5.7v12.57l-19.83,5.7v12.96l23.59-6.74v12.57l-38.36,11.02v-63.7Zm48.67,40.96v-46.27l8.68-11.15,28.32-8.1,8.75,6.22v12.96l-14.78,4.21v-9.14l-16.2,4.67v38.56l16.2-4.67v-9.14l14.78-4.21v12.96l-8.68,11.08-28.45,8.17-8.62-6.16Zm-63.06-46.08v82.04l120.73-34.61V82.63L44.99,117.24Z"/>
  </g>
  <circle class="cls-1" cx="105.39" cy="105.39" r="102.71"/>
</svg>