<?xml version="1.0" encoding="UTF-8"?><svg id="Layer_2" xmlns="http://www.w3.org/2000/svg" viewBox="0 0 133.45 59.08"><defs><style>.cls-1,.cls-2{stroke-width:0px;}.cls-2{fill:#ff48a4;}</style></defs><g id="Layer_1-2"><path class="cls-2" d="m36.03,3.74c-.76.4-2.38,1.08-3.2,1.22-.5.07-.94.4-1.48.5-.58.11-1.12.36-1.55.79-.32.29-.58.61-.94.86-.43.32-.72,1.62-1.37,2.09-.76.5-1.19,1.19-1.62,1.98-.32.58-1.01,1.91-1.48,2.3-.58.47-1.01.86-1.4,1.48-.18.32-.86,1.15-.86,1.48,0,.18.18.22.32.22.76,0,3.46-.65,4.1-1.01.83-.47,1.76-.61,2.66-.86.79-.22,1.4-.76,2.16-.94.72-.14,2.12-1.15,2.59-1.69.54-.58.94-1.22,1.58-1.66.4-.25.4-.94.83-.94.25,0,.36.68.36.86,0,.72-.36,1.4-.86,1.91l-1.22,1.04c-.4.36-.76.72-1.01,1.19-.22.32-.47.47-.72.72-.43.32-.65.86-1.08,1.19l-.36.32c-.22.22-.32.54-.47.79-.29.43-.72.86-.94,1.33-.04.11-.04.22-.04.32,0,.29-.72,1.12-.94,1.37-.47.5-.54,1.3-.97,1.84-.22.29-.25.65-.5.9-.29.36-.47.68-.61,1.12-.18.4-.25.43-.58.43h-.18c-.61,0-.76-.22-1.19-.54-.32-.25-.9-.22-.9-.72,0-.61.79-1.3,1.26-1.58.47-.29.83-.72,1.15-1.15.32-.5.72-.97,1.12-1.44,1.01-1.15,1.8-2.48,2.77-3.67.11-.14.32-.36.32-.54,0-.07-.04-.11-.18-.11-.65.14-1.3.4-1.94.58-.76.22-1.4.72-2.16.9-.68.11-1.19.14-1.8.5-.86.47-1.87.29-2.74.76-.4.25-1.48.76-1.94.76-.29,0-1.69,1.76-1.98,2.09-.76.9-1.48,1.84-2.34,2.63-.54.47-.94,1.08-1.44,1.55-.5.47-.83,1.08-1.4,1.51l-2.88,2.41c-.5.36-.94.94-1.48,1.22-.4.22-.54.65-.97.9-.4.18-.72.47-1.08.72-1.15.86-3.06,1.69-4.54,1.69-1.15,0-1.94-.58-1.94-1.8,0-.94.58-1.73.83-2.63.14-.61.76-.97,1.15-1.48,1.62-2.16,4.64-4.79,7.16-5.83.9-.4,1.76-.86,2.66-1.26.76-.32,1.55-.58,2.27-1.01.76-.47,1.73-.72,2.63-.97.79-.22,1.15-.29,1.69-.97,1.12-1.26,1.94-2.77,3.17-3.92.54-.5.29-.86.58-1.08,1.37-1.04,2.02-2.7,3.13-3.96.47-.54.76-1.26,1.3-1.76.25-.18.5-.54.5-.86,0-.25-.47-.29-.94-.29h-.76c-.43,0-.83-.14-1.22-.22-.11,0-.22-.04-.29-.04-.25,0-.47.04-.72.04-.54,0-1.12,0-1.62-.22-.76-.36-1.58-.5-2.41-.5-.36,0-.72.07-1.12.07-.29,0-.58-.04-.9-.04-.97,0-2.48.25-3.24.9-.68.54-1.15,1.26-1.87,1.69-.4.25-.54.79-.9,1.12-.36.4-.25,1.08-.65,1.58-.18.18-.18.36-.18.58v.22c0,.79-.43,1.04-.43,1.3,0,.4.47.72.47,1.08,0,.65-.68,1.37-1.33,1.37-.9,0-1.48-1.26-1.48-2.05,0-2.05,1.94-4.46,3.38-5.8.54-.5,1.84-1.58,2.48-1.76.58-.14,1.66-1.12,2.09-1.12.47,0,.94-.18,1.4-.25,1.3-.25,2.7-.36,4-.36.14,0,.29.11.43.11.18,0,.36-.07.58-.07.11,0,.22.04.32.07.54.25,1.15.14,1.73.25.97.14,1.98.4,2.99.4h1.08c.97,0,2.09-1.26,2.74-1.87.43-.4.25-.61.9-.83.65-.25,1.3-.58,1.98-.72.61-.11,1.19-.47,1.8-.47.18,0,.32.07.47.11.79.29,1.3.29,1.3,1.3s-.22,1.87-1.12,2.34ZM12.38,21.06c-.47.25-.86.58-1.33.79-.72.32-1.37.76-2.05,1.12-.72.4-1.26.47-1.87,1.08-.65.61-1.44.97-2.05,1.62-1.19,1.19-2.66,3.13-2.66,4.86,0,.54.14.97.76.97.36,0,.54-.11.79-.36.4-.43,1.01-.58,1.48-.94.83-.61,1.84-1.08,2.48-1.94.72-.97,1.58-1.87,2.56-2.63.47-.36.94-1.33,1.26-1.51.58-.32.79-.61,1.19-1.08.32-.36.68-.61,1.04-.9.36-.32,2.23-2.16,2.27-2.45-.61,0-3.31,1.12-3.85,1.37Z"/><path class="cls-2" d="m54.03,24.33c-.5.22-.97.47-1.48.65-.79.25-1.44.68-2.2.97-1.01.36-2.02.86-3.06,1.12-1.3.32-2.52,1.01-3.85,1.01-.76,0-1.15-.47-1.69-.9-.22-.18-.47-.4-.47-.68,0-.11.04-.25.04-.36,0-.14-.14-.29-.25-.29-.07,0-.14.04-.22.07-.61.29-1.26.22-1.87.58-.86.54-1.87.47-2.81.79-.72.25-1.94.54-2.7.54-.58,0-.68-.25-1.15-.47-.54-.32-1.01-.25-1.37-.9-.11-.25-.25-.58-.25-.86,0-.5.43-.86.79-1.19.5-.43.9-.94,1.48-1.33.94-.61,1.8-1.33,2.81-1.87,1.33-.72,2.7-1.8,4.18-2.2.86-.25,1.69-.76,2.59-.86,1.01-.14,1.98-.18,2.99-.18,1.08,0,1.73.14,1.73,1.4,0,.97-.68,1.37-.68,1.69.18.25.29.14.29.58,0,.36-.11.65-.4.9-.61.54-1.12,1.3-1.84,1.73-.47.25-.54.25-.72.72-.11.25-.32.47-.32.76,0,.58.54,1.01,1.08,1.01,1.26,0,1.76-.32,2.88-.54.9-.18,1.69-.65,2.56-1.01.97-.4,1.94-.72,2.88-1.15.5-.25,1.69-.86,2.2-.86.14,0,.32.07.32.22,0,.32-1.19.79-1.48.94Zm-8.53-5.33c-.47,0-.9-.11-1.37-.11-.76,0-1.69.86-2.45,1.15-.97.36-1.66,1.22-2.63,1.62-.83.36-1.55,1.04-2.27,1.58-.47.36-.58.94-.97,1.37-.07.07-.18.18-.18.29,0,.32.65.54.9.54.4,0,.76-.07,1.12-.25.97-.47,1.98-.83,2.95-1.26.97-.4,1.8-.86,2.59-1.55.47-.43.86-.83,1.51-1.01.61-.18,1.55-.86,1.55-1.55,0-.43-.32-.83-.76-.83Z"/><path class="cls-2" d="m83.01,24.01c-.9.47-1.84.9-2.77,1.3-.72.32-1.4.72-2.2.94-.61.18-1.15.47-1.76.65-.43.14-.83.4-1.26.58-.5.18-2.52.65-3.06.65-.11,0-.18,0-.25-.04-.5-.07-1.01,0-1.48-.18-.5-.18-.79-1.08-.79-1.55,0-.94.76-1.44,1.33-2.09l.18-.25c.25-.5,1.66-1.62,1.66-1.94,0-.07,0-.14-.11-.14-.25,0-3.38,1.58-4.25,1.76-.94.25-1.76.83-2.7,1.08-.58.18-1.15.29-1.69.58-.72.36-1.48.65-2.23,1.01-1.37.61-2.92,1.8-4.5,1.8-.83,0-1.15-.58-1.15-1.37,0-1.01,1.19-1.55,1.69-2.34.22-.36.36-.65.68-.94.32-.29,2.05-1.98,2.02-2.34-.58,0-1.01.47-1.55.61-.43.14-.76.36-1.12.61-.47.32-1.04.4-1.48.72-.47.32-2.74,1.55-3.17,1.55-.14,0-.43-.07-.43-.25,0-.29,1.94-1.19,2.3-1.37.9-.5,1.73-1.08,2.66-1.58.58-.29.94-.86,1.58-1.04.5-.11.9-.76,1.3-.76.29,0,.72-.61,1.22-.61.04,0,.11,0,.14.04,1.01.18,2.52-.04,2.52,1.4,0,1.15-2.02,2.09-2.63,3.02-.36.54-.58,1.04-1.12,1.44-.22.18-.72.5-.72.83,0,.11.11.18.22.18.29,0,1.08-.47,1.44-.58.65-.18,1.26-.4,1.84-.76,1.3-.79,2.92-.83,4.25-1.66.58-.36,1.4-.9,2.09-1.04.79-.18,1.44-.9,2.27-1.12.76-.22,1.55-.9,2.38-.9.5,0,2.27.54,2.27,1.22,0,.5-1.12,1.66-1.55,1.94-.79.47-.79.94-1.4,1.51-.36.36-.9.68-1.15,1.15-.11.25-.36.54-.36.83,0,.4.47.4.79.4.94,0,1.73-.4,2.63-.58.72-.14,1.37-.58,2.12-.76.65-.14,1.15-.54,1.76-.76.76-.29,3.46-1.62,3.96-1.62.07,0,.22,0,.22.11,0,.29-.43.54-.65.65Z"/><path class="cls-2" d="m102.34,23.83c-1.15.65-2.34,1.15-3.6,1.58-.94.36-1.8.97-2.81,1.22-.94.25-1.76.68-2.7.9-.68.14-1.62.18-2.23.5-.5.25-1.84.29-2.48.43-.83.22-1.69.22-2.66.22-.18,0-.4,0-.58-.04-.72-.04-1.37-.54-2.09-.54-.61,0-1.44-1.33-1.44-1.87,0-.83.58-2.16,1.22-2.7.83-.68,1.48-1.58,2.45-2.12,1.48-.79,3.1-2.16,4.75-2.52.61-.11,1.15-.65,1.73-.65.61,0,1.22-.22,1.8-.22,1.19,0,2.05.04,2.05,1.48,0,.4-.61,2.2-.9,2.48-.47.4-.83,1.01-1.37,1.33-.58.29-1.04.79-1.73.79-.65,0-2.3-.4-2.52-1.08-.07-.29-.32-.58-.32-.86,0-.47.58-.65.58-1.08-.18,0-.72.43-.94.54-.54.32-.79.9-1.33,1.22-.9.54-.65.9-1.08,1.26-.29.25-.4.61-.65.9-.14.18-.25.32-.25.58,0,1.22,2.27,1.37,3.82,1.37.47,0,.86-.04,1.12-.04.94,0,1.84-.25,2.74-.29,1.12-.07,2.09-.58,3.13-.79,1.19-.25,2.23-1.01,3.38-1.44.54-.22,2.59-1.19,2.95-1.19.11,0,.43.04.43.22s-.32.32-.47.4Zm-8.24-4.54c-.4,0-2.7.32-2.81.72l.11.07c.18,0,.32-.14.5-.14.58,0,1.44.22,1.44.94,0,.36-.32,1.04-.76,1.04-.22,0-.47-.04-.68-.04-.29,0-.97.14-.97.54,0,.43.54.68.94.68,1.22,0,2.81-2.09,2.81-3.24,0-.5-.11-.58-.58-.58Z"/><path class="cls-2" d="m133.34,23.76c-.54.65-5.97,3.2-7.23,4.07-2.66,1.8-5.65,3.02-8.24,4.9-1.62,1.15-3.13,2.45-4.9,3.42-1.08.58-1.87,1.69-3.06,2.12-1.94.68-3.49,2.7-5.44,3.31-1.04.32-1.55.76-2.38,1.37-.94.68-2.2.94-3.2,1.44-.32.18-.65.29-1.01.29-.5,0-1.3-.36-1.3-.94,0-.65,1.33-1.69,1.84-2.09,2.02-1.62,4.1-3.24,6.12-4.9,1.22-1.01,2.45-2.02,3.56-3.13,2.2-2.27,5.25-5.18,7.78-7.02.65-.47,3.6-2.81,3.6-3.49,0-.11-.07-.14-.14-.14-.86,0-3.78,1.62-4.71,2.12-1.04.54-2.12,1.04-3.2,1.51-.76.36-1.55.5-2.34.72-.68.18-1.84.68-2.45.68-.36,0-1.69-.07-1.94-.25-.25-.18-.29-.36-.29-.65,0-.47.14-.86.43-1.22.43-.58.68-1.26,1.08-1.87.32-.47,1.76-1.91,1.76-2.56,0-.11-.14-.14-.25-.14-.68,0-2.92,1.44-3.74,1.8-.68.29-2.38,1.3-2.99,1.3-.11,0-.32,0-.32-.18s.25-.32.4-.43c.65-.43,1.44-.61,2.12-1.04,2.02-1.3,4.25-2.16,6.08-3.74.43-.36,1.8-.43,2.38-.43.86,0,1.58.07,1.58,1.12,0,.29-.07.43-.22.65-.72,1.15-4,4.32-4,5.47,0,.25.47.25.61.25,2.48,0,7.52-3.64,10.37-4.46,1.08-.32,1.98-.86,2.95-1.3.25-.11.4-.14.68-.14.4,0,1.51.18,1.51.68,0,.61-.29,1.08-.76,1.44-.5.36-.83.83-1.26,1.3-.68.72-1.4,1.44-2.2,2.02-1.44,1.12-2.84,2.38-4.1,3.67-.97,1.04-1.94,2.05-3.13,2.84-.36.25-.76.5-1.01.86-.36.5-.14.61-.76.97-1.01.58-1.55,1.58-2.48,2.23-.9.58-1.62,1.33-2.45,1.98-.25.18-1.01.76-1.01,1.08,0,.11.11.11.22.11.22,0,2.16-1.44,2.74-1.66,1.94-.72,3.53-2.16,5.33-3.13,2.48-1.37,4.43-3.46,6.98-4.68.61-.29,1.22-.61,1.76-.97.58-.36,1.08-.83,1.73-1.04.54-.18.97-.54,1.48-.83.61-.4,1.3-.72,1.98-1.04.68-.32,1.33-.79,2.05-1.08.61-.25,2.7-1.58,3.2-1.58.11,0,.29.04.29.18,0,.11-.07.18-.11.25Z"/><path class="cls-1" d="m7.95,40.66v4.86h5.3v1.56h-5.3v5.01h5.92v1.56h-7.82v-14.56h7.82v1.56h-5.92Z"/><path class="cls-1" d="m22.72,53.65l-2.71-4.26-2.61,4.26h-1.98l3.69-5.67-3.69-5.76h2.15l2.71,4.23,2.59-4.23h1.98l-3.67,5.65,3.69,5.78h-2.15Z"/><path class="cls-1" d="m26.75,44.82c.47-.88,1.12-1.57,1.95-2.05s1.75-.73,2.76-.73,1.87.22,2.61.65c.74.43,1.29.97,1.65,1.63v-2.09h1.92v11.43h-1.92v-2.13c-.38.67-.94,1.22-1.68,1.66s-1.61.66-2.6.66-1.93-.25-2.75-.75c-.82-.5-1.47-1.2-1.94-2.11-.47-.9-.71-1.93-.71-3.09s.24-2.19.71-3.08Zm8.45.84c-.35-.64-.82-1.13-1.41-1.47-.59-.34-1.24-.51-1.95-.51s-1.36.17-1.94.5c-.58.33-1.05.82-1.4,1.46s-.52,1.39-.52,2.25.17,1.64.52,2.28.81,1.14,1.4,1.48c.58.34,1.23.51,1.94.51s1.36-.17,1.95-.51c.59-.34,1.06-.83,1.41-1.48s.52-1.4.52-2.26-.17-1.61-.52-2.25Z"/><path class="cls-1" d="m56.97,42.57c.7.37,1.24.92,1.65,1.66.4.74.61,1.63.61,2.69v6.74h-1.88v-6.47c0-1.14-.28-2.01-.84-2.62-.56-.6-1.32-.91-2.28-.91s-1.77.32-2.36.95c-.58.63-.88,1.55-.88,2.74v6.3h-1.88v-6.47c0-1.14-.28-2.01-.84-2.62-.56-.6-1.32-.91-2.28-.91s-1.77.32-2.36.95-.88,1.55-.88,2.74v6.3h-1.9v-11.43h1.9v1.65c.38-.6.88-1.06,1.51-1.38s1.33-.48,2.1-.48c.96,0,1.81.22,2.55.65.74.43,1.29,1.06,1.65,1.9.32-.81.85-1.43,1.59-1.88.74-.44,1.56-.67,2.46-.67s1.68.18,2.38.55Z"/><path class="cls-1" d="m65.91,42.69c.74-.44,1.61-.66,2.6-.66s1.94.24,2.76.73,1.48,1.17,1.95,2.05c.47.88.71,1.91.71,3.08s-.24,2.18-.71,3.09-1.12,1.61-1.95,2.11-1.75.75-2.76.75-1.83-.22-2.58-.66c-.74-.44-1.31-.98-1.7-1.64v7.53h-1.9v-16.86h1.9v2.11c.38-.65.93-1.2,1.68-1.64Zm5.56,2.95c-.35-.64-.82-1.13-1.41-1.46-.59-.33-1.24-.5-1.95-.5s-1.34.17-1.93.51c-.59.34-1.06.83-1.42,1.48-.35.65-.53,1.39-.53,2.24s.18,1.62.53,2.26c.35.65.83,1.14,1.42,1.48.59.34,1.23.51,1.93.51s1.36-.17,1.95-.51c.59-.34,1.06-.83,1.41-1.48.35-.65.52-1.41.52-2.28s-.17-1.61-.52-2.25Z"/><path class="cls-1" d="m78.33,38.22v15.44h-1.9v-15.44h1.9Z"/><path class="cls-1" d="m91.93,48.65h-9.14c.07,1.13.46,2.01,1.16,2.64.7.63,1.55.95,2.56.95.82,0,1.5-.19,2.05-.57.55-.38.93-.89,1.16-1.53h2.04c-.31,1.1-.92,1.99-1.84,2.68-.92.69-2.06,1.03-3.42,1.03-1.08,0-2.05-.24-2.91-.73-.86-.49-1.53-1.18-2.01-2.08-.49-.9-.73-1.94-.73-3.12s.24-2.22.71-3.11,1.14-1.57,1.99-2.05c.86-.48,1.84-.72,2.95-.72s2.04.24,2.88.71,1.48,1.12,1.93,1.95c.45.83.68,1.76.68,2.81,0,.36-.02.74-.06,1.15Zm-2.38-3.41c-.32-.52-.75-.92-1.3-1.19-.55-.27-1.16-.41-1.82-.41-.96,0-1.78.31-2.45.92-.67.61-1.06,1.46-1.16,2.54h7.22c0-.72-.16-1.35-.48-1.87Z"/></g></svg>