<svg width="152" height="41" viewBox="0 0 152 41" fill="none" xmlns="http://www.w3.org/2000/svg">
<g id="UWEC logo">
<path id="Vector" d="M12.71 10.0105L13.09 9.96047C13.64 9.90047 13.78 9.82047 13.78 8.82047V5.78047C13.78 4.24047 13.78 3.80047 13.34 3.80047C13.26 3.80047 13.15 3.82047 13.12 3.82047L12.78 3.91047L12.72 3.53047C13.17 3.39047 14.6 2.98047 15.15 2.98047V3.97047C15.51 3.64047 16.36 2.98047 17.55 2.98047C20 2.98047 20 4.67047 20 6.48047V8.82047C20 9.82047 20.12 9.90047 20.7 9.96047L21.06 10.0105V10.3505H17.56V10.0105L17.94 9.96047C18.49 9.90047 18.63 9.82047 18.63 8.82047V6.72047C18.63 5.25047 18.63 3.73047 16.76 3.73047C15.93 3.73047 15.43 4.22047 15.15 4.58047V8.83047C15.15 9.83047 15.27 9.91047 15.85 9.97047L16.21 10.0205V10.3605H12.71V10.0205V10.0105Z" fill="white"/>
<path id="Vector_2" d="M22.0696 10.01L22.4496 9.96C22.9996 9.9 23.1396 9.87 23.1396 8.82V5.78C23.1396 4.24 23.1396 3.8 22.6996 3.8C22.6196 3.8 22.5096 3.82 22.4796 3.82L22.1296 3.91L22.0696 3.53C22.5196 3.39 23.9496 2.98 24.4996 2.98V8.81C24.4996 9.86 24.6196 9.89 25.1996 9.95L25.5596 10V10.34H22.0596V10L22.0696 10.01ZM22.7796 0.88C22.7796 0.41 23.1396 0 23.6596 0C24.1796 0 24.5396 0.41 24.5396 0.88C24.5396 1.35 24.1796 1.76 23.6596 1.76C23.1396 1.76 22.7796 1.34 22.7796 0.88Z" fill="white"/>
<path id="Vector_3" d="M27.0196 4.59047C26.7196 3.90047 26.5796 3.76047 26.1996 3.66047L25.8096 3.57047V3.23047H29.4296V3.57047L28.8696 3.66047C28.4896 3.72047 28.2796 3.80047 28.2796 3.94047C28.2796 4.03047 28.3596 4.24047 28.4196 4.41047L30.2096 8.85047C30.3496 8.47047 30.7396 7.49047 31.3096 5.98047C31.7996 4.71047 31.9996 4.15047 31.9996 3.96047C31.9996 3.80047 31.8096 3.76047 31.5496 3.71047L30.7496 3.57047V3.23047H33.8696V3.57047L33.5896 3.65047C33.4196 3.70047 33.2796 3.73047 33.1796 3.81047C32.9296 4.01047 32.1096 5.86047 31.9296 6.30047L30.9996 8.40047C30.5596 9.36047 30.2796 10.1305 30.2196 10.2505C30.1196 10.3805 29.7496 10.6005 29.5796 10.6005L27.0396 4.60047L27.0196 4.59047Z" fill="white"/>
<path id="Vector_4" d="M37.0201 3.54023C38.2101 3.54023 38.6001 4.48023 38.8201 5.45023C37.7201 5.81023 36.4101 6.14023 35.2801 6.34023C35.2801 5.20023 35.6901 3.53023 37.0201 3.53023V3.54023ZM39.9801 9.36023C39.7601 9.47023 39.1601 9.86023 38.2101 9.86023C36.0901 9.86023 35.3401 8.01023 35.2801 7.04023C36.6301 6.73023 38.4501 6.24023 40.2301 5.36023C40.0301 4.51023 39.5701 2.99023 37.4701 2.99023C35.6701 2.99023 33.8301 4.40023 33.8301 7.05023C33.8301 9.28023 35.4401 10.5902 37.4201 10.5902C38.8501 10.5902 39.9101 9.95023 40.1601 9.71023L39.9701 9.35023L39.9801 9.36023Z" fill="white"/>
<path id="Vector_5" d="M40.8596 10.0105L41.2396 9.96047C41.7896 9.90047 41.9296 9.90047 41.9296 8.82047V5.76047C41.9296 4.14047 41.9296 3.80047 41.4896 3.80047C41.3596 3.80047 41.2396 3.86047 41.1096 3.89047L40.9696 3.94047L40.8496 3.56047C41.6296 3.28047 42.6796 2.98047 43.1196 2.98047C43.1796 3.25047 43.2296 3.58047 43.2296 4.00047C43.4696 3.75047 44.1396 2.98047 44.9396 2.98047C45.4296 2.98047 45.9296 3.33047 46.1296 3.45047C45.9096 3.83047 45.6896 4.06047 45.3296 4.34047C45.1096 4.26047 44.2596 4.00047 44.0496 4.00047C43.5496 4.00047 43.2996 4.38047 43.2996 4.61047V8.81047C43.2996 9.89047 43.4296 9.89047 44.2596 9.95047L44.6196 10.0005V10.3405H40.8696V10.0005L40.8596 10.0105Z" fill="white"/>
<path id="Vector_6" d="M50.4599 5.34C50.4599 4.63 49.9599 3.51 48.9399 3.51C48.3399 3.51 47.9399 3.93 47.9399 4.62C47.9399 6.41 51.4199 5.89 51.4199 8.4C51.4199 9.89 50.1999 10.6 48.7099 10.6C47.6899 10.6 47.1399 10.33 46.7199 10.14C46.4799 9.43 46.4199 8.65 46.4199 8.04H46.8399C47.1499 9.06 47.6899 10.08 48.9399 10.08C49.6399 10.08 50.0499 9.47 50.0499 8.92C50.0499 6.79 46.5699 7.54 46.5699 4.99C46.5699 3.7 47.7099 3 49.0799 3C49.9099 3 50.3999 3.25 50.7399 3.46C50.8999 4.02 50.9399 4.53 50.9399 5.36H50.4499L50.4599 5.34Z" fill="white"/>
<path id="Vector_7" d="M52.2305 10.01L52.6105 9.96C53.1605 9.9 53.3005 9.87 53.3005 8.82V5.78C53.3005 4.24 53.3005 3.8 52.8605 3.8C52.7805 3.8 52.6705 3.82 52.6405 3.82L52.3005 3.91L52.2405 3.53C52.6905 3.39 54.1205 2.98 54.6705 2.98V8.81C54.6705 9.86 54.8005 9.89 55.3805 9.95L55.7405 10V10.34H52.2405V10L52.2305 10.01ZM52.9405 0.88C52.9405 0.41 53.3005 0 53.8205 0C54.3405 0 54.7005 0.41 54.7005 0.88C54.7005 1.35 54.3405 1.76 53.8205 1.76C53.3005 1.76 52.9405 1.34 52.9405 0.88Z" fill="white"/>
<path id="Vector_8" d="M60.8598 10.0698C60.6398 10.1598 59.7898 10.5898 59.0098 10.5898C57.3198 10.5898 57.2698 9.70977 57.2698 7.98977V3.72977C56.9298 3.70977 56.4598 3.67977 56.0498 3.56977V3.21977C56.4598 3.18977 56.9298 3.08977 57.2698 3.05977V2.61977C57.6798 2.09977 58.2098 1.59977 58.6298 1.25977L58.8198 1.33977C58.7698 1.63977 58.6298 2.60977 58.6298 3.05977C59.0698 3.08977 59.8798 3.17977 60.2898 3.21977V3.56977C59.8798 3.67977 59.0698 3.70977 58.6298 3.72977V7.26977C58.6298 8.50977 58.6298 9.85977 59.9598 9.85977C60.2898 9.85977 60.5698 9.77977 60.7598 9.71977L60.8498 10.0798L60.8598 10.0698Z" fill="white"/>
<path id="Vector_9" d="M64.3703 11.0105C63.7703 12.4405 63.0503 14.0405 61.4903 14.0405C61.3803 14.0405 61.2903 14.0205 61.1803 14.0105C61.2103 13.6805 61.3103 13.3405 61.4203 13.2005C62.3003 12.4305 63.8503 12.1005 63.8503 10.6305C63.8503 9.99047 63.5803 9.39047 63.3803 8.91047L61.5003 4.66047C61.3003 4.14047 61.3003 3.89047 60.6903 3.70047L60.2803 3.57047V3.23047H63.8803V3.57047L63.2703 3.71047C63.0303 3.77047 62.7703 3.84047 62.7703 4.01047C62.7703 4.07047 62.8503 4.29047 62.9303 4.48047L64.7203 8.84047C64.9103 8.38047 66.4903 4.40047 66.4903 3.96047C66.4903 3.77047 66.2103 3.74047 66.0203 3.71047L65.1903 3.57047V3.23047H68.3703V3.57047L68.0403 3.68047C67.9003 3.73047 67.7303 3.79047 67.6203 3.90047C67.2603 4.26047 66.5403 5.95047 66.1003 7.02047L64.3903 11.0205L64.3703 11.0105Z" fill="white"/>
<path id="Vector_10" d="M71.9504 7.79969C71.9504 6.06969 72.5904 4.64969 73.6104 4.64969C74.2904 4.64969 74.4904 5.19969 74.4904 6.33969C74.4904 7.70969 73.9204 9.40969 72.9404 9.40969C72.2604 9.40969 71.9504 8.75969 71.9504 7.79969ZM72.4204 9.87969C74.0304 9.87969 75.5004 7.95969 75.5004 5.93969C75.5004 4.66969 74.8404 4.17969 74.0404 4.17969C72.3604 4.17969 70.9404 6.02969 70.9404 7.94969C70.9404 9.21969 71.4304 9.87969 72.4204 9.87969Z" fill="white"/>
<path id="Vector_11" d="M77.58 7.79008C77.15 10.2201 76.74 12.4701 75.09 12.4701C74.87 12.4701 74.65 12.4501 74.54 12.3201C74.63 12.0401 74.69 11.9001 74.82 11.6601H74.9C75.1 11.7901 75.3 11.9101 75.59 11.9101C76.12 11.9101 76.13 11.4301 76.51 9.08008L77.18 4.84008C76.76 4.82008 76.52 4.79008 76.17 4.72008L76.21 4.50008C76.56 4.44008 76.92 4.39008 77.27 4.37008L77.54 3.05008C77.68 2.41008 78.68 1.08008 80.04 1.08008C80.4 1.08008 80.53 1.21008 80.64 1.29008C80.55 1.60008 80.48 1.76008 80.3 2.04008H80.21C80.09 1.84008 79.69 1.55008 79.34 1.55008C78.83 1.55008 78.55 2.11008 78.34 3.37008L78.2 4.37008C78.65 4.39008 79.16 4.43008 79.6 4.50008L79.56 4.72008C79.22 4.76008 78.5 4.81008 78.13 4.84008L77.59 7.80008L77.58 7.79008Z" fill="white"/>
<path id="Vector_12" d="M83.9698 1.84C83.7498 1.21 83.4998 0.44 83.0098 0.4L82.5498 0.35V0H86.4498V0.34L85.9598 0.39C85.7098 0.42 85.1798 0.47 85.1798 0.78C85.1798 0.91 85.3698 1.5 85.4498 1.74L87.4898 8.2H87.5198L90.1398 0.44C90.2998 0.36 90.3898 0.31 90.5898 0.27L93.5198 8.2H93.5498C93.8498 7.23 95.6398 1.55 95.6398 0.82C95.6398 0.55 95.3598 0.49 95.0798 0.44L94.3698 0.35V0H97.6598V0.34L97.2498 0.43C97.0798 0.48 96.9098 0.54 96.7798 0.67C96.5098 0.94 95.4598 4.26 95.2398 4.93L94.3298 7.75C93.9198 9.02 93.6298 10.07 93.5298 10.35C93.2898 10.48 93.2298 10.51 92.9698 10.57L90.0698 2.75C89.6598 3.82 87.6598 9.51 87.3698 10.35C87.2498 10.46 87.0698 10.51 86.8498 10.57L83.9498 1.82L83.9698 1.84Z" fill="white"/>
<path id="Vector_13" d="M97.25 10.01L97.63 9.96C98.18 9.9 98.32 9.87 98.32 8.82V5.78C98.32 4.24 98.32 3.8 97.88 3.8C97.8 3.8 97.69 3.82 97.66 3.82L97.32 3.91L97.26 3.53C97.72 3.39 99.14 2.98 99.69 2.98V8.81C99.69 9.86 99.82 9.89 100.4 9.95L100.76 10V10.34H97.26V10L97.25 10.01ZM97.96 0.88C97.96 0.41 98.32 0 98.84 0C99.36 0 99.72 0.41 99.72 0.88C99.72 1.35 99.36 1.76 98.84 1.76C98.32 1.76 97.96 1.34 97.96 0.88Z" fill="white"/>
<path id="Vector_14" d="M105.85 5.34C105.85 4.63 105.35 3.51 104.33 3.51C103.73 3.51 103.33 3.93 103.33 4.62C103.33 6.41 106.81 5.89 106.81 8.4C106.81 9.89 105.59 10.6 104.1 10.6C103.08 10.6 102.53 10.33 102.11 10.14C101.87 9.43 101.81 8.65 101.81 8.04H102.23C102.54 9.06 103.08 10.08 104.33 10.08C105.03 10.08 105.44 9.47 105.44 8.92C105.44 6.79 101.96 7.54 101.96 4.99C101.96 3.7 103.1 3 104.47 3C105.3 3 105.79 3.25 106.13 3.46C106.29 4.02 106.33 4.53 106.33 5.36H105.84L105.85 5.34Z" fill="white"/>
<path id="Vector_15" d="M113.99 9.93047C113.58 10.2305 112.77 10.5905 111.51 10.5905C109.72 10.5905 107.85 9.54047 107.85 7.28047C107.85 4.27047 109.98 2.98047 111.88 2.98047C112.63 2.98047 113.34 3.15047 113.7 3.44047C113.7 3.75047 113.53 4.22047 113.29 4.58047H113.2C112.96 4.25047 112.38 3.72047 111.37 3.72047C110.24 3.72047 109.3 4.61047 109.3 6.38047C109.3 8.86047 110.57 10.0305 112.36 10.0305C112.99 10.0305 113.64 9.67047 113.86 9.54047L113.99 9.92047V9.93047Z" fill="white"/>
<path id="Vector_16" d="M115.91 6.73047C115.91 5.22047 116.47 3.53047 118.1 3.53047C119.93 3.53047 120.64 5.15047 120.64 7.01047C120.64 8.67047 119.92 10.0405 118.49 10.0405C116.72 10.0405 115.9 8.47047 115.9 6.73047H115.91ZM118.23 10.5905C120.22 10.5905 122.09 9.30047 122.09 6.59047C122.09 4.43047 120.55 2.98047 118.31 2.98047C116.38 2.98047 114.47 4.31047 114.47 6.92047C114.47 9.38047 116.24 10.5905 118.23 10.5905Z" fill="white"/>
<path id="Vector_17" d="M122.92 10.0105L123.3 9.96047C123.85 9.90047 123.99 9.82047 123.99 8.82047V5.78047C123.99 4.24047 123.99 3.80047 123.55 3.80047C123.47 3.80047 123.36 3.82047 123.33 3.82047L122.98 3.91047L122.92 3.53047C123.37 3.39047 124.8 2.98047 125.35 2.98047V3.97047C125.71 3.64047 126.56 2.98047 127.75 2.98047C130.2 2.98047 130.2 4.67047 130.2 6.48047V8.82047C130.2 9.82047 130.32 9.90047 130.9 9.96047L131.26 10.0105V10.3505H127.76V10.0105L128.14 9.96047C128.69 9.90047 128.83 9.82047 128.83 8.82047V6.72047C128.83 5.25047 128.83 3.73047 126.96 3.73047C126.13 3.73047 125.63 4.22047 125.35 4.58047V8.83047C125.35 9.83047 125.47 9.91047 126.05 9.97047L126.41 10.0205V10.3605H122.91V10.0205L122.92 10.0105Z" fill="white"/>
<path id="Vector_18" d="M136.21 5.34C136.21 4.63 135.71 3.51 134.69 3.51C134.09 3.51 133.69 3.93 133.69 4.62C133.69 6.41 137.17 5.89 137.17 8.4C137.17 9.89 135.95 10.6 134.46 10.6C133.44 10.6 132.89 10.33 132.47 10.14C132.24 9.43 132.17 8.65 132.17 8.04H132.59C132.9 9.06 133.44 10.08 134.69 10.08C135.4 10.08 135.8 9.47 135.8 8.92C135.8 6.79 132.32 7.54 132.32 4.99C132.32 3.7 133.46 3 134.83 3C135.66 3 136.15 3.25 136.49 3.46C136.65 4.02 136.69 4.53 136.69 5.36H136.2L136.21 5.34Z" fill="white"/>
<path id="Vector_19" d="M138.18 10.01L138.56 9.96C139.11 9.9 139.25 9.87 139.25 8.82V5.78C139.25 4.24 139.25 3.8 138.81 3.8C138.73 3.8 138.62 3.82 138.59 3.82L138.25 3.91L138.19 3.53C138.64 3.39 140.07 2.98 140.62 2.98V8.81C140.62 9.86 140.74 9.89 141.32 9.95L141.68 10V10.34H138.19V10L138.18 10.01ZM138.88 0.88C138.88 0.41 139.24 0 139.76 0C140.28 0 140.64 0.41 140.64 0.88C140.64 1.35 140.28 1.76 139.76 1.76C139.24 1.76 138.88 1.34 138.88 0.88Z" fill="white"/>
<path id="Vector_20" d="M142.76 10.0105L143.14 9.96047C143.69 9.90047 143.83 9.82047 143.83 8.82047V5.78047C143.83 4.24047 143.83 3.80047 143.39 3.80047C143.31 3.80047 143.2 3.82047 143.17 3.82047L142.83 3.91047L142.77 3.53047C143.22 3.39047 144.65 2.98047 145.2 2.98047V3.97047C145.56 3.64047 146.41 2.98047 147.6 2.98047C150.05 2.98047 150.05 4.67047 150.05 6.48047V8.82047C150.05 9.82047 150.18 9.90047 150.75 9.96047L151.11 10.0105V10.3505H147.61V10.0105L147.99 9.96047C148.54 9.90047 148.68 9.82047 148.68 8.82047V6.72047C148.68 5.25047 148.68 3.73047 146.81 3.73047C145.98 3.73047 145.48 4.22047 145.2 4.58047V8.83047C145.2 9.83047 145.33 9.91047 145.91 9.97047L146.27 10.0205V10.3605H142.77V10.0205L142.76 10.0105Z" fill="white"/>
<path id="Vector_21" d="M0 39.11L1.33 39C2.77 38.85 2.77 38.67 2.77 34.15V21.27C2.77 16.75 2.77 16.57 1.33 16.42L0 16.31V15.5H15.96C16.11 16.31 16.37 17.72 16.37 19.42C16.37 20.27 16.3 20.57 16.3 20.9L15.41 21.05C14.59 17.09 14.52 16.53 9.3 16.53H6.23V26.71H9.52C12.41 26.71 13.07 26.67 13.3 25.15L13.49 23.89H14.45V30.55H13.49L13.3 29.29C13.08 27.77 12.41 27.73 9.52 27.73H6.23V38.39C7.56 38.65 8.93 38.87 10.27 38.87C16.16 38.87 16.53 36.65 17.27 33.61L18.2 33.76C18.09 36.13 17.61 37.87 16.98 39.9H0V39.09V39.11Z" fill="white"/>
<path id="Vector_22" d="M30.2103 31.4095V37.6695C29.9503 38.0395 29.0303 39.1895 27.4003 39.1895C25.2903 39.1895 23.9603 37.9295 23.9603 35.8195C23.9603 32.3395 27.5903 31.4095 29.7003 31.4095H30.2203H30.2103ZM36.1303 39.0395C35.9803 39.1095 35.8303 39.1895 35.4603 39.1895C33.4203 39.1895 33.4203 36.4095 33.4203 33.8195V28.5195C33.4203 24.7495 32.5303 22.5195 28.3103 22.5195C24.3903 22.5195 22.0203 24.9995 20.9103 26.4795C21.1703 27.1495 21.4703 27.5195 21.8703 27.9595H22.1603C22.8603 26.5895 23.7903 24.2595 26.7503 24.2595C29.5303 24.2595 30.1903 26.3695 30.1903 28.8095V29.6595C26.9303 30.6195 20.5303 32.0695 20.5303 36.8795C20.5303 38.9195 22.3803 40.4695 25.1203 40.4695C28.0103 40.4695 29.3803 39.6895 30.5603 38.9195C30.9303 39.6995 31.6003 40.4695 33.4803 40.4695C35.0403 40.4695 35.8103 39.8795 36.2903 39.5395L36.1103 39.0195L36.1303 39.0395Z" fill="white"/>
<path id="Vector_23" d="M56.1199 39.2193C54.4499 39.8093 53.0799 40.1093 51.1599 40.4793C50.8599 40.0393 50.5299 39.4393 50.3499 38.6293C49.2399 39.3693 47.4999 40.4793 44.6499 40.4793C39.1699 40.4793 38.6499 37.8493 38.6499 33.8193V29.1493C38.6499 25.5193 38.6499 24.4893 37.6099 24.4893C37.4299 24.4893 37.1699 24.5293 37.0899 24.5293L36.2799 24.7493L36.1299 23.8593C37.1999 23.5293 40.5699 22.5293 41.8699 22.5293V33.6293C41.8699 36.5893 42.6499 38.7393 46.3099 38.7393C48.1999 38.7393 49.5999 37.9593 50.1599 37.5593V29.1593C50.1599 25.5293 50.1599 24.4993 49.1199 24.4993C48.9399 24.4993 48.6799 24.5393 48.5999 24.5393L47.7899 24.7593L47.6399 23.8693C48.7099 23.5393 52.0799 22.5393 53.3799 22.5393V33.8693C53.3799 37.0193 53.3799 38.5293 54.4199 38.5293C54.5699 38.5293 54.8299 38.5293 55.0099 38.4893L55.8999 38.3793L56.1199 39.2293V39.2193Z" fill="white"/>
<path id="Vector_24" d="M85.5802 32.7795C85.3602 35.1095 84.9502 36.8495 84.0602 39.0695C83.0202 39.5495 80.0202 40.4795 76.4302 40.4795C69.3602 40.4795 62.7002 37.1795 62.7002 27.7795C62.7002 17.8995 70.6602 14.9395 76.5102 14.9395C80.2902 14.9395 83.1002 15.8695 84.0602 16.4595C84.3902 17.9395 84.6502 20.0895 84.6502 21.9395L83.6502 22.1595C83.2802 20.6795 82.8002 16.1595 76.4702 16.1595C70.1402 16.1595 66.5902 20.1595 66.5902 27.0795C66.5902 33.4095 69.6302 39.2595 76.3602 39.2595C82.5002 39.2595 83.4302 35.5195 84.5802 32.5595L85.5802 32.7795Z" fill="white"/>
<path id="Vector_25" d="M86.5898 39.1093L87.4799 38.9993C88.7799 38.8493 89.1098 38.8493 89.1098 36.2993V19.1993C89.1098 16.2793 89.1098 14.5693 87.7798 14.5693C87.5998 14.5693 87.3398 14.6093 87.2598 14.6093L86.6998 14.6793L86.5898 13.8693C87.7698 13.6093 90.7698 13.2793 92.3298 13.2793V36.3093C92.3298 38.8593 92.6298 38.8593 93.9998 39.0093L94.8498 39.1193V39.9293H86.5998V39.1193L86.5898 39.1093Z" fill="white"/>
<path id="Vector_26" d="M106.28 31.4095V37.6695C106.02 38.0395 105.1 39.1895 103.47 39.1895C101.36 39.1895 100.03 37.9295 100.03 35.8195C100.03 32.3395 103.66 31.4095 105.77 31.4095H106.29H106.28ZM112.2 39.0395C112.05 39.1095 111.9 39.1895 111.53 39.1895C109.49 39.1895 109.49 36.4095 109.49 33.8195V28.5195C109.49 24.7495 108.6 22.5195 104.38 22.5195C100.46 22.5195 98.0904 24.9995 96.9804 26.4795C97.2404 27.1495 97.5404 27.5195 97.9404 27.9595H98.2403C98.9403 26.5895 99.8704 24.2595 102.83 24.2595C105.61 24.2595 106.27 26.3695 106.27 28.8095V29.6595C103.01 30.6195 96.6104 32.0695 96.6104 36.8795C96.6104 38.9195 98.4603 40.4695 101.2 40.4695C104.09 40.4695 105.46 39.6895 106.64 38.9195C107.01 39.6995 107.68 40.4695 109.57 40.4695C111.12 40.4695 111.9 39.8795 112.38 39.5395L112.2 39.0195V39.0395Z" fill="white"/>
<path id="Vector_27" d="M113.9 39.1107L114.79 39.0007C116.09 38.8507 116.42 38.7807 116.42 36.3007V29.1207C116.42 25.4907 116.42 24.4607 115.38 24.4607C115.2 24.4607 114.94 24.5007 114.86 24.5007L114.05 24.7207L113.9 23.8307C114.97 23.5007 118.34 22.5407 119.64 22.5407V36.3107C119.64 38.7907 119.94 38.8607 121.31 39.0107L122.16 39.1207V39.9307H113.9V39.1207V39.1107ZM115.57 17.5407C115.57 16.4307 116.42 15.4707 117.64 15.4707C118.86 15.4707 119.71 16.4307 119.71 17.5407C119.71 18.6507 118.86 19.6107 117.64 19.6107C116.42 19.6107 115.57 18.6107 115.57 17.5407Z" fill="white"/>
<path id="Vector_28" d="M123.86 39.1095L124.75 38.9995C126.04 38.8495 126.38 38.8495 126.38 36.2995V29.0795C126.38 25.2695 126.38 24.4495 125.34 24.4495C125.04 24.4495 124.75 24.5995 124.45 24.6695L124.12 24.7795L123.82 23.8895C125.67 23.2195 128.15 22.5195 129.19 22.5195C129.34 23.1495 129.45 23.9295 129.45 24.9295C130.01 24.3395 131.6 22.5195 133.49 22.5195C134.64 22.5195 135.82 23.3295 136.3 23.6295C135.78 24.5195 135.26 25.0695 134.41 25.7395C133.89 25.5595 131.89 24.9295 131.37 24.9295C130.19 24.9295 129.59 25.8195 129.59 26.3695V36.2895C129.59 38.8395 129.89 38.8395 131.85 38.9895L132.7 39.0995V39.9095H123.85V39.0995L123.86 39.1095Z" fill="white"/>
<path id="Vector_29" d="M143.51 23.8195C146.32 23.8195 147.25 26.0395 147.77 28.3395C145.18 29.1895 142.07 29.9695 139.4 30.4495C139.4 27.7495 140.36 23.8195 143.51 23.8195ZM150.2 37.5495C149.68 37.8095 148.27 38.7295 146.02 38.7295C141.02 38.7295 139.25 34.3595 139.1 32.0695C142.28 31.3295 146.58 30.1795 150.8 28.1095C150.32 26.1095 149.25 22.5195 144.29 22.5195C140.03 22.5195 135.7 25.8495 135.7 32.1095C135.7 37.3695 139.51 40.4795 144.18 40.4795C147.55 40.4795 150.07 38.9595 150.66 38.4095L150.22 37.5595L150.2 37.5495Z" fill="white"/>
<path id="Vector_30" d="M11.35 0.4L11.91 0.35V0H8.1V0.34L8.66 0.39C9.27 0.45 9.27 0.53 9.27 2.44V8.8C9.03 9.08 8.06 10.05 6.43 10.05C4 10.05 3.62 8.56 3.62 6.32V2.43C3.62 0.52 3.62 0.44 4.23 0.38L4.79 0.33V0H1V0.34L1.56 0.39C2.17 0.45 2.17 0.53 2.17 2.44V6.58C2.17 8.71 2.44 10.58 5.68 10.58C7.76 10.58 9.07 9.59 9.28 9.59C9.32 10.2 9.48 10.28 9.93 10.34H11.77V9.99L11.41 9.94C10.88 9.88 10.73 9.81 10.71 9V2.46C10.71 0.55 10.71 0.47 11.32 0.41L11.35 0.4Z" fill="white"/>
</g>
</svg>
